  0
SECTION
  2
HEADER
  9
$ACADVER
  1
AC1015
  9
$ACADMAINTVER
 70
     6
  9
$DWGCODEPAGE
  3
ANSI_1252
  9
$INSBASE
 10
0.0
 20
0.0
 30
0.0
  9
$EXTMIN
 10
0.0
 20
0.0
 30
0.0
  9
$EXTMAX
 10
320.0
 20
150.0
 30
0.0
  9
$LIMMIN
 10
0.0
 20
0.0
  9
$LIMMAX
 10
320.0
 20
150.0
  9
$ORTHOMODE
 70
     0
  9
$REGENMODE
 70
     1
  9
$FILLMODE
 70
     1
  9
$QTEXTMODE
 70
     0
  9
$MIRRTEXT
 70
     1
  9
$LTSCALE
 40
1.0
  9
$ATTMODE
 70
     1
  9
$TEXTSIZE
 40
3.5
  9
$TRACEWID
 40
1.0
  9
$TEXTSTYLE
  7
Standard
  9
$CLAYER
  8
0
  9
$CELTYPE
  6
ByLayer
  9
$CECOLOR
 62
   256
  9
$CELTSCALE
 40
1.0
  9
$DISPSILH
 70
     0
  9
$DIMSCALE
 40
1.0
  9
$DIMASZ
 40
3.302
  9
$DIMEXO
 40
1.0
  9
$DIMDLI
 40
3.75
  9
$DIMRND
 40
0.0
  9
$DIMDLE
 40
0.0
  9
$DIMEXE
 40
1.0
  9
$DIMTP
 40
0.0
  9
$DIMTM
 40
0.0
  9
$DIMTXT
 40
3.5
  9
$DIMCEN
 40
2.5
  9
$DIMTSZ
 40
0.0
  9
$DIMTOL
 70
     0
  9
$DIMLIM
 70
     0
  9
$DIMTIH
 70
     1
  9
$DIMTOH
 70
     1
  9
$DIMSE1
 70
     0
  9
$DIMSE2
 70
     0
  9
$DIMTAD
 70
     1
  9
$DIMZIN
 70
     0
  9
$DIMBLK
  1

  9
$DIMASO
 70
     1
  9
$DIMSHO
 70
     1
  9
$DIMPOST
  1

  9
$DIMAPOST
  1

  9
$DIMALT
 70
     0
  9
$DIMALTD
 70
     3
  9
$DIMALTF
 40
0.0393700787
  9
$DIMLFAC
 40
5.0
  9
$DIMTOFL
 70
     1
  9
$DIMTVP
 40
0.0
  9
$DIMTIX
 70
     0
  9
$DIMSOXD
 70
     0
  9
$DIMSAH
 70
     0
  9
$DIMBLK1
  1

  9
$DIMBLK2
  1

  9
$DIMSTYLE
  2
ISO-25
  9
$DIMCLRD
 70
     0
  9
$DIMCLRE
 70
     0
  9
$DIMCLRT
 70
     0
  9
$DIMTFAC
 40
1.0
  9
$DIMGAP
 40
1.524
  9
$DIMJUST
 70
     0
  9
$DIMSD1
 70
     0
  9
$DIMSD2
 70
     0
  9
$DIMTOLJ
 70
     0
  9
$DIMTZIN
 70
     0
  9
$DIMALTZ
 70
     0
  9
$DIMALTTZ
 70
     0
  9
$DIMUPT
 70
     0
  9
$DIMDEC
 70
     2
  9
$DIMTDEC
 70
     2
  9
$DIMALTU
 70
     2
  9
$DIMALTTD
 70
     3
  9
$DIMTXSTY
  7
Standard
  9
$DIMAUNIT
 70
     0
  9
$DIMADEC
 70
     2
  9
$DIMALTRND
 40
0.0
  9
$DIMAZIN
 70
     0
  9
$DIMDSEP
 70
    44
  9
$DIMATFIT
 70
     3
  9
$DIMFRAC
 70
     0
  9
$DIMLDRBLK
  1

  9
$DIMLUNIT
 70
     2
  9
$DIMLWD
 70
    -2
  9
$DIMLWE
 70
    -2
  9
$DIMTMOVE
 70
     0
  9
$LUNITS
 70
     2
  9
$LUPREC
 70
     2
  9
$SKETCHINC
 40
1.0
  9
$FILLETRAD
 40
10.0
  9
$AUNITS
 70
     0
  9
$AUPREC
 70
     2
  9
$MENU
  1
.
  9
$ELEVATION
 40
0.0
  9
$PELEVATION
 40
0.0
  9
$THICKNESS
 40
0.0
  9
$LIMCHECK
 70
     0
  9
$CHAMFERA
 40
0.0
  9
$CHAMFERB
 40
0.0
  9
$CHAMFERC
 40
0.0
  9
$CHAMFERD
 40
0.0
  9
$SKPOLY
 70
     0
  9
$TDCREATE
 40
2457890.408590984
  9
$TDUCREATE
 40
2457890.325257651
  9
$TDUPDATE
 40
2457890.408591458
  9
$TDUUPDATE
 40
2457890.325258125
  9
$TDINDWG
 40
0.0000000116
  9
$TDUSRTIMER
 40
0.0000000116
  9
$USRTIMER
 70
     1
  9
$ANGBASE
 50
0.0
  9
$ANGDIR
 70
     0
  9
$PDMODE
 70
     0
  9
$PDSIZE
 40
-1.0
  9
$PLINEWID
 40
0.0
  9
$SPLFRAME
 70
     0
  9
$SPLINETYPE
 70
     6
  9
$SPLINESEGS
 70
     8
  9
$HANDSEED
  5
138
  9
$SURFTAB1
 70
     6
  9
$SURFTAB2
 70
     6
  9
$SURFTYPE
 70
     6
  9
$SURFU
 70
     6
  9
$SURFV
 70
     6
  9
$UCSBASE
  2

  9
$UCSNAME
  2

  9
$UCSORG
 10
0.0
 20
0.0
 30
0.0
  9
$UCSXDIR
 10
1.0
 20
0.0
 30
0.0
  9
$UCSYDIR
 10
0.0
 20
1.0
 30
0.0
  9
$UCSORTHOREF
  2

  9
$UCSORTHOVIEW
 70
     0
  9
$UCSORGTOP
 10
0.0
 20
0.0
 30
0.0
  9
$UCSORGBOTTOM
 10
0.0
 20
0.0
 30
0.0
  9
$UCSORGLEFT
 10
0.0
 20
0.0
 30
0.0
  9
$UCSORGRIGHT
 10
0.0
 20
0.0
 30
0.0
  9
$UCSORGFRONT
 10
0.0
 20
0.0
 30
0.0
  9
$UCSORGBACK
 10
0.0
 20
0.0
 30
0.0
  9
$PUCSBASE
  2

  9
$PUCSNAME
  2

  9
$PUCSORG
 10
0.0
 20
0.0
 30
0.0
  9
$PUCSXDIR
 10
1.0
 20
0.0
 30
0.0
  9
$PUCSYDIR
 10
0.0
 20
1.0
 30
0.0
  9
$PUCSORTHOREF
  2

  9
$PUCSORTHOVIEW
 70
     0
  9
$PUCSORGTOP
 10
0.0
 20
0.0
 30
0.0
  9
$PUCSORGBOTTOM
 10
0.0
 20
0.0
 30
0.0
  9
$PUCSORGLEFT
 10
0.0
 20
0.0
 30
0.0
  9
$PUCSORGRIGHT
 10
0.0
 20
0.0
 30
0.0
  9
$PUCSORGFRONT
 10
0.0
 20
0.0
 30
0.0
  9
$PUCSORGBACK
 10
0.0
 20
0.0
 30
0.0
  9
$USERI1
 70
     0
  9
$USERI2
 70
     0
  9
$USERI3
 70
     0
  9
$USERI4
 70
     0
  9
$USERI5
 70
     0
  9
$USERR1
 40
0.0
  9
$USERR2
 40
0.0
  9
$USERR3
 40
0.0
  9
$USERR4
 40
0.0
  9
$USERR5
 40
0.0
  9
$WORLDVIEW
 70
     1
  9
$SHADEDGE
 70
     3
  9
$SHADEDIF
 70
    70
  9
$TILEMODE
 70
     1
  9
$MAXACTVP
 70
    64
  9
$PINSBASE
 10
0.0
 20
0.0
 30
0.0
  9
$PLIMCHECK
 70
     0
  9
$PEXTMIN
 10
1.0000000000E+20
 20
1.0000000000E+20
 30
1.0000000000E+20
  9
$PEXTMAX
 10
-1.0000000000E+20
 20
-1.0000000000E+20
 30
-1.0000000000E+20
  9
$PLIMMIN
 10
0.0
 20
0.0
  9
$PLIMMAX
 10
420.0
 20
297.0
  9
$UNITMODE
 70
     0
  9
$VISRETAIN
 70
     1
  9
$PLINEGEN
 70
     0
  9
$PSLTSCALE
 70
     1
  9
$TREEDEPTH
 70
  3020
  9
$CMLSTYLE
  2
Standard
  9
$CMLJUST
 70
     0
  9
$CMLSCALE
 40
20.0
  9
$PROXYGRAPHICS
 70
     1
  9
$MEASUREMENT
 70
     1
  9
$CELWEIGHT
370
    -1
  9
$ENDCAPS
280
     0
  9
$JOINSTYLE
280
     0
  9
$LWDISPLAY
290
     1
  9
$INSUNITS
 70
     4
  9
$HYPERLINKBASE
  1

  9
$STYLESHEET
  1

  9
$XEDIT
290
     1
  9
$CEPSNTYPE
380
     0
  9
$PSTYLEMODE
290
     1
  9
$FINGERPRINTGUID
  2
{29AD46ED-DCA8-4FF2-AF16-5CBFBD9CC5D1}
  9
$VERSIONGUID
  2
{FAEB1C32-E019-11D5-929B-00C0DF256EC4}
  9
$EXTNAMES
290
     1
  9
$PSVPSCALE
 40
0.0
  9
$OLESTARTUP
290
     0
  0
ENDSEC
  0
SECTION
  2
CLASSES
  0
CLASS
  1
ACDBDICTIONARYWDFLT
  2
AcDbDictionaryWithDefault
  3
ObjectDBX Classes
 90
        0
280
     0
281
     0
  0
CLASS
  1
VISUALSTYLE
  2
AcDbVisualStyle
  3
ObjectDBX Classes
 90
     4095
280
     0
281
     0
  0
CLASS
  1
MATERIAL
  2
AcDbMaterial
  3
ObjectDBX Classes
 90
     1153
280
     0
281
     0
  0
CLASS
  1
SCALE
  2
AcDbScale
  3
ObjectDBX Classes
 90
     1153
280
     0
281
     0
  0
CLASS
  1
TABLESTYLE
  2
AcDbTableStyle
  3
ObjectDBX Classes
 90
     4095
280
     0
281
     0
  0
CLASS
  1
MLEADERSTYLE
  2
AcDbMLeaderStyle
  3
ACDB_MLEADERSTYLE_CLASS
 90
     4095
280
     0
281
     0
  0
CLASS
  1
SUN
  2
AcDbSun
  3
SCENEOE
 90
     1153
280
     0
281
     0
  0
CLASS
  1
ACDBPLACEHOLDER
  2
AcDbPlaceHolder
  3
ObjectDBX Classes
 90
        0
280
     0
281
     0
  0
CLASS
  1
LAYOUT
  2
AcDbLayout
  3
ObjectDBX Classes
 90
        0
280
     0
281
     0
  0
ENDSEC
  0
SECTION
  2
TABLES
  0
TABLE
  2
VPORT
  5
8
330
0
100
AcDbSymbolTable
 70
     1
  0
VPORT
  5
29
330
8
100
AcDbSymbolTableRecord
100
AcDbViewportTableRecord
  2
*Active
 70
     0
 10
0.0
 20
0.0
 11
1.0
 21
1.0
 12
160.0
 22
75.0
 13
0.0
 23
0.0
 14
10.0
 24
10.0
 15
10.0
 25
10.0
 16
0.0
 26
0.0
 36
1.0
 17
0.0
 27
0.0
 37
0.0
 40
150.0
 41
2.1333333333
 42
50.0
 43
0.0
 44
0.0
 50
0.0
 51
0.0
 71
     0
 72
  2000
 73
     1
 74
     3
 75
     0
 76
     0
 77
     0
 78
     0
281
     0
 65
     1
110
0.0
120
0.0
130
0.0
111
1.0
121
0.0
131
0.0
112
0.0
122
1.0
132
0.0
 79
     0
146
0.0
  0
ENDTAB
  0
TABLE
  2
LTYPE
  5
5
330
0
100
AcDbSymbolTable
 70
     6
  0
LTYPE
  5
14
330
5
100
AcDbSymbolTableRecord
100
AcDbLinetypeTableRecord
  2
ByBlock
 70
     0
  3

 72
    65
 73
     0
 40
0.0
  0
LTYPE
  5
15
330
5
100
AcDbSymbolTableRecord
100
AcDbLinetypeTableRecord
  2
ByLayer
 70
     0
  3

 72
    65
 73
     0
 40
0.0
  0
LTYPE
  5
16
330
5
100
AcDbSymbolTableRecord
100
AcDbLinetypeTableRecord
  2
Continuous
 70
     0
  3
Solid line
 72
    65
 73
     0
 40
0.0
  0
LTYPE
  5
6E
330
5
100
AcDbSymbolTableRecord
100
AcDbLinetypeTableRecord
  2
HIDDEN
 70
     0
  3
Hidden __ __ __ __ __ __ __ __ __ __ __ __ __ __
 72
    65
 73
     2
 40
1.905
 49
1.27
 74
     0
 49
-0.635
 74
     0
  0
LTYPE
  5
6F
330
5
100
AcDbSymbolTableRecord
100
AcDbLinetypeTableRecord
  2
PHANTOM
 70
     0
  3
Phantom ______  __  __  ______  __  __  ______
 72
    65
 73
     6
 40
12.7
 49
6.35
 74
     0
 49
-1.27
 74
     0
 49
1.27
 74
     0
 49
-1.27
 74
     0
 49
1.27
 74
     0
 49
-1.27
 74
     0
  0
LTYPE
  5
70
330
5
100
AcDbSymbolTableRecord
100
AcDbLinetypeTableRecord
  2
CENTER
 70
     0
  3
Center ____ _ ____ _ ____ _ ____ _ ____ _ ____
 72
    65
 73
     4
 40
10.16
 49
6.35
 74
     0
 49
-1.27
 74
     0
 49
1.27
 74
     0
 49
-1.27
 74
     0
  0
LTYPE
  5
71
330
5
100
AcDbSymbolTableRecord
100
AcDbLinetypeTableRecord
  2
CENTERX2
 70
     0
  3
Center (2x) ________  __  ________  __  _____
 72
    65
 73
     4
 40
20.32
 49
12.7
 74
     0
 49
-2.54
 74
     0
 49
2.54
 74
     0
 49
-2.54
 74
     0
  0
LTYPE
  5
72
330
5
100
AcDbSymbolTableRecord
100
AcDbLinetypeTableRecord
  2
DOT2
 70
     0
  3
Dot (.5x) ........................................
 72
    65
 73
     2
 40
0.635
 49
0.0
 74
     0
 49
-0.635
 74
     0
  0
ENDTAB
  0
TABLE
  2
LAYER
  5
2
330
0
100
AcDbSymbolTable
 70
     1
  0
LAYER
  5
10
330
2
100
AcDbSymbolTableRecord
100
AcDbLayerTableRecord
  2
0
 70
     0
 62
     7
  6
Continuous
370
    -3
390
F
  0
ENDTAB
  0
TABLE
  2
STYLE
  5
3
330
0
100
AcDbSymbolTable
 70
     1
  0
STYLE
  5
11
330
3
100
AcDbSymbolTableRecord
100
AcDbTextStyleTableRecord
  2
Standard
 70
     0
 40
0.0
 41
1.0
 50
0.0
 71
     0
 42
3.5
  3
txt
  4

  0
ENDTAB
  0
TABLE
  2
VIEW
  5
6
330
0
100
AcDbSymbolTable
 70
     0
  0
ENDTAB
  0
TABLE
  2
UCS
  5
7
330
0
100
AcDbSymbolTable
 70
     0
  0
ENDTAB
  0
TABLE
  2
APPID
  5
9
330
0
100
AcDbSymbolTable
 70
     1
  0
APPID
  5
12
330
9
100
AcDbSymbolTableRecord
100
AcDbRegAppTableRecord
  2
ACAD
 70
     0
  0
ENDTAB
  0
TABLE
  2
DIMSTYLE
  5
A
330
0
100
AcDbSymbolTable
 70
     1
100
AcDbDimStyleTable
  0
DIMSTYLE
105
27
330
A
100
AcDbSymbolTableRecord
100
AcDbDimStyleTableRecord
  2
ISO-25
 70
     0
 41
2.5
 42
0.625
 43
3.75
 44
1.25
 73
     0
 74
     0
 77
     1
 78
     8
140
2.5
141
2.5
143
0.0393700787
147
0.625
171
     3
172
     1
178
     0
271
     2
272
     2
274
     3
278
    44
283
     0
284
     8
340
11
  0
ENDTAB
  0
TABLE
  2
BLOCK_RECORD
  5
1
330
0
100
AcDbSymbolTable
 70
     1
  0
BLOCK_RECORD
  5
1F
330
1
100
AcDbSymbolTableRecord
100
AcDbBlockTableRecord
  2
*Model_Space
340
22
  0
BLOCK_RECORD
  5
1B
330
1
100
AcDbSymbolTableRecord
100
AcDbBlockTableRecord
  2
*Paper_Space
340
1E
  0
BLOCK_RECORD
  5
23
330
1
100
AcDbSymbolTableRecord
100
AcDbBlockTableRecord
  2
*Paper_Space0
340
26
  0
ENDTAB
  0
ENDSEC
  0
SECTION
  2
BLOCKS
  0
BLOCK
  5
20
330
1F
100
AcDbEntity
  8
0
100
AcDbBlockBegin
  2
*Model_Space
 70
     0
 10
0.0
 20
0.0
 30
0.0
  3
*Model_Space
  1

  0
ENDBLK
  5
21
330
1F
100
AcDbEntity
  8
0
100
AcDbBlockEnd
  0
BLOCK
  5
1C
330
1B
100
AcDbEntity
 67
     1
  8
0
100
AcDbBlockBegin
  2
*Paper_Space
 70
     0
 10
0.0
 20
0.0
 30
0.0
  3
*Paper_Space
  1

  0
ENDBLK
  5
1D
330
1B
100
AcDbEntity
 67
     1
  8
0
100
AcDbBlockEnd
  0
BLOCK
  5
24
330
23
100
AcDbEntity
  8
0
100
AcDbBlockBegin
  2
*Paper_Space0
 70
     0
 10
0.0
 20
0.0
 30
0.0
  3
*Paper_Space0
  1

  0
ENDBLK
  5
25
330
23
100
AcDbEntity
  8
0
100
AcDbBlockEnd
  0
ENDSEC
  0
SECTION
  2
ENTITIES
  0
LWPOLYLINE
  5
73
330
1F
100
AcDbEntity
  8
0
  6
Continuous
 62
     7
100
AcDbPolyline
 90
       62
 70
   128
 43
0.0
 10
155.0219718435
 20
84.5120720521
 10
156.1576873216
 20
84.5120720521
 10
156.1576873216
 20
84.5120720521
 10
156.3244299431
 20
84.5097399875
 10
156.4806782738
 20
84.5015777613
 10
156.6275983459
 20
84.4887514058
 10
156.7640241272
 20
84.4700948887
 10
156.8911216499
 20
84.4467742423
 10
157.0077248817
 20
84.4187894667
 10
157.114999855
 20
84.3849745294
 10
157.2117805374
 20
84.3453294306
 10
157.3866853852
 20
84.2508808128
 10
157.5417676835
 20
84.1354436133
 10
157.6770274324
 20
83.9955197351
 10
157.7936306643
 20
83.8346072752
 10
157.8869132497
 20
83.6573703628
 10
157.9533770919
 20
83.4719712241
 10
157.994188223
 20
83.2749117623
 10
158.0070145785
 20
83.0696900743
 10
158.0070145785
 20
83.0696900743
 10
157.9965202877
 20
82.8772947418
 10
157.9638713828
 20
82.6942276678
 10
157.9102338961
 20
82.51932282
 10
157.8356078277
 20
82.3537462308
 10
157.7399931776
 20
82.2009959971
 10
157.6257220104
 20
82.0622381512
 10
157.4892962292
 20
81.9398047578
 10
157.3342139308
 20
81.8313637522
 10
157.3342139308
 20
81.8313637522
 10
157.5312733926
 20
81.7520735545
 10
157.7050122081
 20
81.665787163
 10
157.8530983125
 20
81.5725045775
 10
157.9778637706
 20
81.4722257981
 10
158.0851387439
 20
81.3637847925
 10
158.1784213293
 20
81.2460155284
 10
158.2600435916
 20
81.1154199087
 10
158.3288394984
 20
80.9754960305
 10
158.3836430174
 20
80.8262438938
 10
158.4232881162
 20
80.6723276277
 10
158.4466087626
 20
80.5102491355
 10
158.4547709888
 20
80.3435065139
 10
158.4547709888
 20
80.3435065139
 10
158.4466087626
 20
80.1732657955
 10
158.4232881162
 20
80.0100212709
 10
158.3836430174
 20
79.8537729402
 10
158.3288394984
 20
79.7045208035
 10
158.257711527
 20
79.5610988283
 10
158.1702591031
 20
79.4235070147
 10
158.0676482591
 20
79.2940774274
 10
157.9498789949
 20
79.1704780017
 10
157.818117343
 20
79.0585388991
 10
157.6758614001
 20
78.9605921844
 10
157.5231111664
 20
78.8789699221
 10
157.3598666418
 20
78.8113400476
 10
157.1849617941
 20
78.7588685933
 10
156.9995626555
 20
78.7215555591
 10
156.803669226
 20
78.6982349127
 10
156.5961154733
 20
78.6912387188
 10
156.5961154733
 20
78.6912387188
 10
155.0219718435
 20
78.6912387188
 10
155.0219718435
 20
78.6912387188
 10
155.0219718435
 20
84.5120720521
  0
LWPOLYLINE
  5
74
330
1F
100
AcDbEntity
  8
0
  6
Continuous
 62
     7
100
AcDbPolyline
 90
       40
 70
   128
 43
0.0
 10
155.5443543221
 20
83.9150635051
 10
155.5443543221
 20
82.0494117957
 10
155.5443543221
 20
82.0494117957
 10
155.89533005
 20
82.0494117957
 10
155.89533005
 20
82.0494117957
 10
156.049246316
 20
82.0517438604
 10
156.1926682911
 20
82.0564079896
 10
156.3255959754
 20
82.0657362482
 10
156.4491954012
 20
82.0773965714
 10
156.5599684714
 20
82.0937210238
 10
156.6614132831
 20
82.1135435732
 10
156.752363804
 20
82.1356981873
 10
156.8328200339
 20
82.1625169306
 10
156.9750759768
 20
82.2266487081
 10
157.1021734995
 20
82.3082709704
 10
157.2129465697
 20
82.4050516528
 10
157.3085612198
 20
82.5181567877
 10
157.3855193528
 20
82.6429222458
 10
157.4403228718
 20
82.7758499301
 10
157.474137809
 20
82.9134417436
 10
157.4846320999
 20
83.0591957834
 10
157.4846320999
 20
83.0591957834
 10
157.4799679706
 20
83.1559764659
 10
157.4659755828
 20
83.248093019
 10
157.4426549364
 20
83.3343794106
 10
157.4111720639
 20
83.4160016729
 10
157.3691949004
 20
83.4917937736
 10
157.3190555107
 20
83.5617557127
 10
157.2584218301
 20
83.6270535225
 10
157.1896259234
 20
83.6865211707
 10
157.1103357257
 20
83.7401586574
 10
157.0205512372
 20
83.7867999501
 10
156.9202724578
 20
83.8252790166
 10
156.8083333553
 20
83.8579279215
 10
156.6858999618
 20
83.8824146002
 10
156.5529722775
 20
83.9010711173
 10
156.40838427
 20
83.9115654082
 10
156.2533019717
 20
83.9150635051
 10
156.2533019717
 20
83.9150635051
 10
155.5443543221
 20
83.9150635051
  0
LWPOLYLINE
  5
75
330
1F
100
AcDbEntity
  8
0
  6
Continuous
 62
     7
100
AcDbPolyline
 90
       45
 70
   128
 43
0.0
 10
155.5443543221
 20
81.4524032487
 10
155.5443543221
 20
79.2882472658
 10
155.5443543221
 20
79.2882472658
 10
156.2882829413
 20
79.2882472658
 10
156.2882829413
 20
79.2882472658
 10
156.4480293689
 20
79.2905793305
 10
156.5961154733
 20
79.2952434597
 10
156.7325412546
 20
79.3045717183
 10
156.8596387773
 20
79.3185641061
 10
156.9739099445
 20
79.3348885586
 10
157.0788528531
 20
79.3558771403
 10
157.1721354386
 20
79.380363819
 10
157.2537577009
 20
79.4083485946
 10
157.3995117407
 20
79.4771445014
 10
157.5301073603
 20
79.563430893
 10
157.6455445598
 20
79.666041737
 10
157.7458233392
 20
79.7861430658
 10
157.8274456015
 20
79.9179047177
 10
157.8857472174
 20
80.054330499
 10
157.920728187
 20
80.1965864418
 10
157.9323885102
 20
80.3435065139
 10
157.9323885102
 20
80.3435065139
 10
157.9288904132
 20
80.4356230671
 10
157.9160640577
 20
80.5254075556
 10
157.8962415083
 20
80.6116939472
 10
157.869422765
 20
80.6956482741
 10
157.8332757631
 20
80.7749384717
 10
157.788966535
 20
80.8530626371
 10
157.737661113
 20
80.9276887055
 10
157.6781934648
 20
80.9988166769
 10
157.5394356189
 20
81.1282462642
 10
157.3761910943
 20
81.2355212375
 10
157.1896259234
 20
81.3206415967
 10
156.9797401061
 20
81.3836073419
 10
156.9797401061
 20
81.3836073419
 10
156.8946197468
 20
81.3999317944
 10
156.7943409674
 20
81.4139241822
 10
156.6800698002
 20
81.4255845054
 10
156.5518062452
 20
81.4349127639
 10
156.40838427
 20
81.4430749902
 10
156.2498038747
 20
81.4477391194
 10
156.0772310916
 20
81.4512372164
 10
155.8906659207
 20
81.4524032487
 10
155.8906659207
 20
81.4524032487
 10
155.5443543221
 20
81.4524032487
  0
CIRCLE
  5
76
330
1F
100
AcDbEntity
  8
0
  6
Continuous
 62
     7
100
AcDbCircle
 10
162.3598371628
 20
81.6115545684
 30
0.0
 40
3.049796491558338
  0
LWPOLYLINE
  5
77
330
1F
100
AcDbEntity
  8
0
  6
Continuous
 62
     7
100
AcDbPolyline
 90
       92
 70
   128
 43
0.0
 10
162.3982922895
 20
84.0643156419
 10
162.2327157003
 20
84.0596515126
 10
162.0694711758
 20
84.0433270602
 10
161.9085587158
 20
84.0176743491
 10
161.7499783205
 20
83.9815273473
 10
161.5937299899
 20
83.9337200222
 10
161.4386476915
 20
83.8765844386
 10
161.2870634901
 20
83.8089545642
 10
161.1366453211
 20
83.7308303988
 10
160.9920573136
 20
83.6445440073
 10
160.8556315323
 20
83.5500953895
 10
160.7273679773
 20
83.4486505778
 10
160.6072666485
 20
83.3402095722
 10
160.495327546
 20
83.2247723727
 10
160.3903846373
 20
83.1023389792
 10
160.2947699872
 20
82.9717433596
 10
160.2073175633
 20
82.834151546
 10
160.129193398
 20
82.6918956032
 10
160.0603974912
 20
82.544975531
 10
160.0032619076
 20
82.3933913297
 10
159.9566206149
 20
82.2383090313
 10
159.9193075807
 20
82.079728636
 10
159.8936548697
 20
81.9164841114
 10
159.8773304172
 20
81.7497414899
 10
159.8726662879
 20
81.5783347391
 10
159.8726662879
 20
81.5783347391
 10
159.8843266111
 20
81.3264717583
 10
159.9193075807
 20
81.0851030684
 10
159.9764431643
 20
80.8542286694
 10
160.0580654266
 20
80.6326825289
 10
160.1618423029
 20
80.420464647
 10
160.2889398256
 20
80.2187410559
 10
160.4393579947
 20
80.0275117557
 10
160.6130968101
 20
79.845610714
 10
160.803160078
 20
79.6800341248
 10
161.0025516044
 20
79.5366121496
 10
161.2112713894
 20
79.4153447885
 10
161.429319433
 20
79.3162320415
 10
161.6578617674
 20
79.2381078761
 10
161.894566328
 20
79.1833043572
 10
162.1417651795
 20
79.1494894199
 10
162.3982922895
 20
79.1389951291
 10
162.3982922895
 20
79.1389951291
 10
162.5708650727
 20
79.1436592583
 10
162.7399397588
 20
79.1588176785
 10
162.9066823804
 20
79.1844703895
 10
163.0699269049
 20
79.2206173914
 10
163.2296733325
 20
79.2660926518
 10
163.3859216632
 20
79.3208961707
 10
163.5386718969
 20
79.3873600129
 10
163.689090066
 20
79.4631521136
 10
163.8336780735
 20
79.5482724728
 10
163.9701038547
 20
79.640389026
 10
164.0972013774
 20
79.7406678053
 10
164.2173027062
 20
79.8479427786
 10
164.3292418088
 20
79.9622139458
 10
164.4330186851
 20
80.0846473393
 10
164.5274673029
 20
80.2140769266
 10
164.6149197268
 20
80.3516687402
 10
164.6930438921
 20
80.4950907153
 10
164.7606737666
 20
80.6420107875
 10
164.8178093502
 20
80.7924289565
 10
164.8644506429
 20
80.9475112549
 10
164.9005976448
 20
81.1060916502
 10
164.9262503558
 20
81.2681701424
 10
164.9425748082
 20
81.4349127639
 10
164.9472389375
 20
81.6051534824
 10
164.9472389375
 20
81.6051534824
 10
164.9425748082
 20
81.7742281686
 10
164.9262503558
 20
81.9398047578
 10
164.9005976448
 20
82.1007172177
 10
164.8644506429
 20
82.2581315807
 10
164.8178093502
 20
82.4108818144
 10
164.7606737666
 20
82.5589679189
 10
164.6930438921
 20
82.7035559263
 10
164.6149197268
 20
82.8446458369
 10
164.5274673029
 20
82.9799055858
 10
164.4318526528
 20
83.1081691408
 10
164.3269097441
 20
83.2294365019
 10
164.2149706416
 20
83.3437076691
 10
164.0937032805
 20
83.4509826424
 10
163.9631076608
 20
83.5512614218
 10
163.8255158472
 20
83.6445440073
 10
163.6785957751
 20
83.7308303988
 10
163.5270115737
 20
83.8089545642
 10
163.3719292754
 20
83.8765844386
 10
163.2156809447
 20
83.9337200222
 10
163.0571005494
 20
83.9815273473
 10
162.8950220572
 20
84.0176743491
 10
162.7317775326
 20
84.0433270602
 10
162.5662009434
 20
84.0596515126
 10
162.3982922895
 20
84.0643156419
  0
LWPOLYLINE
  5
78
330
1F
100
AcDbEntity
  8
0
  6
Continuous
 62
     7
100
AcDbPolyline
 90
       24
 70
   128
 43
0.0
 10
166.2531951341
 20
84.5120720521
 10
166.8560338427
 20
84.5120720521
 10
166.8560338427
 20
84.5120720521
 10
168.3800380828
 20
82.131034058
 10
168.3800380828
 20
82.131034058
 10
169.9040423229
 20
84.5120720521
 10
169.9040423229
 20
84.5120720521
 10
170.5068810315
 20
84.5120720521
 10
170.5068810315
 20
84.5120720521
 10
168.6820404533
 20
81.6599570014
 10
168.6820404533
 20
81.6599570014
 10
170.5815070999
 20
78.6912387188
 10
170.5815070999
 20
78.6912387188
 10
169.9786683913
 20
78.6912387188
 10
169.9786683913
 20
78.6912387188
 10
168.3800380828
 20
81.1888799448
 10
168.3800380828
 20
81.1888799448
 10
166.7814077743
 20
78.6912387188
 10
166.7814077743
 20
78.6912387188
 10
166.1785690657
 20
78.6912387188
 10
166.1785690657
 20
78.6912387188
 10
168.0792017447
 20
81.6599570014
 10
168.0792017447
 20
81.6599570014
 10
166.2531951341
 20
84.5120720521
  0
LWPOLYLINE
  5
79
330
1F
100
AcDbEntity
  8
0
  6
Continuous
 62
     7
100
AcDbPolyline
 90
       16
 70
   128
 43
0.0
 10
171.2904547495
 20
83.9150635051
 10
171.2904547495
 20
84.5120720521
 10
171.2904547495
 20
84.5120720521
 10
174.3501235529
 20
84.5120720521
 10
174.3501235529
 20
84.5120720521
 10
171.9084518782
 20
79.2882472658
 10
171.9084518782
 20
79.2882472658
 10
174.2754974845
 20
79.2882472658
 10
174.2754974845
 20
79.2882472658
 10
174.2754974845
 20
78.6912387188
 10
174.2754974845
 20
78.6912387188
 10
171.0665765444
 20
78.6912387188
 10
171.0665765444
 20
78.6912387188
 10
173.508248219
 20
83.9150635051
 10
173.508248219
 20
83.9150635051
 10
171.2904547495
 20
83.9150635051
  0
LWPOLYLINE
  5
7A
330
1F
100
AcDbEntity
  8
0
  6
Continuous
 62
     7
100
AcDbPolyline
 90
      106
 70
   128
 43
0.0
 10
175.6933927837
 20
82.7210464111
 10
175.171010305
 20
82.7210464111
 10
175.171010305
 20
82.7210464111
 10
175.1850026929
 20
82.9286001638
 10
175.2153195331
 20
83.1268256579
 10
175.2607947936
 20
83.3145568612
 10
175.3237605387
 20
83.4941258382
 10
175.4018847041
 20
83.6632005244
 10
175.4963333219
 20
83.8241129843
 10
175.6071063921
 20
83.9745311534
 10
175.7342039148
 20
84.1156210639
 10
175.8729617607
 20
84.2438846189
 10
176.0210478651
 20
84.3546576892
 10
176.1761301635
 20
84.4479402746
 10
176.3382086557
 20
84.5248984076
 10
176.5096154065
 20
84.5843660559
 10
176.6880183512
 20
84.6275092517
 10
176.8745835222
 20
84.6531619627
 10
177.0693109194
 20
84.6613241889
 10
177.0693109194
 20
84.6613241889
 10
177.2605402196
 20
84.6531619627
 10
177.4436072936
 20
84.628675284
 10
177.6161800767
 20
84.5890301852
 10
177.7805906336
 20
84.5330606339
 10
177.9345068996
 20
84.4596005978
 10
178.0790949071
 20
84.3709821416
 10
178.2155206883
 20
84.2672052653
 10
178.3414521787
 20
84.1459379042
 10
178.4557233459
 20
84.0141762522
 10
178.5536700606
 20
83.8765844386
 10
178.6376243876
 20
83.7331624635
 10
178.7064202944
 20
83.585076359
 10
178.7588917487
 20
83.4299940607
 10
178.7973708152
 20
83.2690816008
 10
178.8195254292
 20
83.1035050115
 10
178.8276876555
 20
82.9309322284
 10
178.8276876555
 20
82.9309322284
 10
178.8125292353
 20
82.6883975062
 10
178.7670539749
 20
82.4540250102
 10
178.6924279065
 20
82.2278147404
 10
178.5863189656
 20
82.0086006646
 10
178.5186890911
 20
81.896661562
 10
178.4370668288
 20
81.7742281686
 10
178.3414521787
 20
81.6424665166
 10
178.2318451408
 20
81.5025426384
 10
178.1070796827
 20
81.350958437
 10
177.9694878691
 20
81.1912120094
 10
177.8167376354
 20
81.0221373232
 10
177.6499950139
 20
80.8425683462
 10
177.6499950139
 20
80.8425683462
 10
176.1936206483
 20
79.2882472658
 10
176.1936206483
 20
79.2882472658
 10
178.9023137238
 20
79.2882472658
 10
178.9023137238
 20
79.2882472658
 10
178.9023137238
 20
78.6912387188
 10
178.9023137238
 20
78.6912387188
 10
174.9471320999
 20
78.6912387188
 10
174.9471320999
 20
78.6912387188
 10
177.2045706683
 20
81.1002614886
 10
177.2045706683
 20
81.1002614886
 10
177.3689812252
 20
81.2728342717
 10
177.5182333619
 20
81.4337467316
 10
177.6523270785
 20
81.5829988684
 10
177.771262375
 20
81.7205906819
 10
177.8750392514
 20
81.8476882047
 10
177.9648237399
 20
81.9619593719
 10
178.0382837759
 20
82.0657362482
 10
178.0977514242
 20
82.1578528013
 10
178.188701945
 20
82.3327576491
 10
178.2539997548
 20
82.5123266261
 10
178.2924788213
 20
82.6953937001
 10
178.3053051768
 20
82.8842909357
 10
178.3053051768
 20
82.8842909357
 10
178.2994750152
 20
83.0032262322
 10
178.2819845305
 20
83.1174973994
 10
178.2539997548
 20
83.2271044373
 10
178.214354656
 20
83.3332133783
 10
178.1618832017
 20
83.4358242223
 10
178.0989174565
 20
83.5326049047
 10
178.0254574204
 20
83.6258874902
 10
177.9391710289
 20
83.7156719787
 10
177.8447224111
 20
83.797294241
 10
177.745609664
 20
83.8684222124
 10
177.6418327877
 20
83.9278898606
 10
177.5322257497
 20
83.976863218
 10
177.4167885502
 20
84.0153422845
 10
177.2978532538
 20
84.0421610278
 10
177.1730877957
 20
84.0584854803
 10
177.042492176
 20
84.0643156419
 10
177.042492176
 20
84.0643156419
 10
176.9060663948
 20
84.0584854803
 10
176.7754707751
 20
84.0421610278
 10
176.6507053171
 20
84.0141762522
 10
176.5317700206
 20
83.9756971857
 10
176.4186648857
 20
83.9267238283
 10
176.3113899124
 20
83.8660901478
 10
176.2099451007
 20
83.793796144
 10
176.1143304506
 20
83.7110078494
 10
176.0268780267
 20
83.6188912963
 10
175.9499198937
 20
83.5174464846
 10
175.8822900192
 20
83.4066734143
 10
175.8239884033
 20
83.2877381178
 10
175.7761810783
 20
83.1594745628
 10
175.7388680441
 20
83.0218827493
 10
175.7108832684
 20
82.8761287095
 10
175.6933927837
 20
82.7210464111
  0
LINE
  5
7B
330
1F
100
AcDbEntity
  8
0
  6
Continuous
 62
     7
370
    25
100
AcDbLine
 10
56.4757111597
 20
25.6912387188
 30
0.0
 11
56.4757111597
 21
28.6912387188
 31
0.0
  0
LINE
  5
7C
330
1F
100
AcDbEntity
  8
0
  6
Continuous
 62
     7
370
    25
100
AcDbLine
 10
56.4757111597
 20
28.6912387188
 30
0.0
 11
42.4757111597
 21
28.6912387188
 31
0.0
  0
LINE
  5
7D
330
1F
100
AcDbEntity
  8
0
  6
Continuous
 62
     7
370
    25
100
AcDbLine
 10
42.4757111597
 20
28.6912387188
 30
0.0
 11
42.4757111597
 21
25.6912387188
 31
0.0
  0
LINE
  5
7E
330
1F
100
AcDbEntity
  8
0
  6
Continuous
 62
     7
370
    25
100
AcDbLine
 10
42.4757111597
 20
25.6912387188
 30
0.0
 11
56.4757111597
 21
25.6912387188
 31
0.0
  0
LINE
  5
7F
330
1F
100
AcDbEntity
  8
0
  6
Continuous
 62
     7
370
    25
100
AcDbLine
 10
172.4757111597
 20
25.6912387188
 30
0.0
 11
172.4757111597
 21
28.6912387188
 31
0.0
  0
LINE
  5
80
330
1F
100
AcDbEntity
  8
0
  6
Continuous
 62
     7
370
    25
100
AcDbLine
 10
172.4757111597
 20
28.6912387188
 30
0.0
 11
158.4757111597
 21
28.6912387188
 31
0.0
  0
LINE
  5
81
330
1F
100
AcDbEntity
  8
0
  6
Continuous
 62
     7
370
    25
100
AcDbLine
 10
158.4757111597
 20
28.6912387188
 30
0.0
 11
158.4757111597
 21
25.6912387188
 31
0.0
  0
LINE
  5
82
330
1F
100
AcDbEntity
  8
0
  6
Continuous
 62
     7
370
    25
100
AcDbLine
 10
158.4757111597
 20
25.6912387188
 30
0.0
 11
172.4757111597
 21
25.6912387188
 31
0.0
  0
LINE
  5
83
330
1F
100
AcDbEntity
  8
0
  6
Continuous
 62
     7
370
    25
100
AcDbLine
 10
274.4757111597
 20
28.6912387188
 30
0.0
 11
274.4757111597
 21
25.6912387188
 31
0.0
  0
LINE
  5
84
330
1F
100
AcDbEntity
  8
0
  6
Continuous
 62
     7
370
    25
100
AcDbLine
 10
274.4757111597
 20
25.6912387188
 30
0.0
 11
288.4757111597
 21
25.6912387188
 31
0.0
  0
LINE
  5
85
330
1F
100
AcDbEntity
  8
0
  6
Continuous
 62
     7
370
    25
100
AcDbLine
 10
288.4757111597
 20
25.6912387188
 30
0.0
 11
288.4757111597
 21
28.6912387188
 31
0.0
  0
LINE
  5
86
330
1F
100
AcDbEntity
  8
0
  6
Continuous
 62
     7
370
    25
100
AcDbLine
 10
288.4757111597
 20
28.6912387188
 30
0.0
 11
274.4757111597
 21
28.6912387188
 31
0.0
  0
CIRCLE
  5
87
330
1F
100
AcDbEntity
  8
0
  6
Continuous
 62
     7
370
    25
100
AcDbCircle
 10
85.4757111597
 20
78.6912387188
 30
0.0
 40
20.0
  0
CIRCLE
  5
88
330
1F
100
AcDbEntity
  8
0
  6
Continuous
 62
     7
370
    25
100
AcDbCircle
 10
69.4757111597
 20
94.6912387188
 30
0.0
 40
1.699999999999989
  0
CIRCLE
  5
89
330
1F
100
AcDbEntity
  8
0
  6
Continuous
 62
     7
370
    25
100
AcDbCircle
 10
69.4757111597
 20
62.6912387188
 30
0.0
 40
1.699999999999989
  0
CIRCLE
  5
8A
330
1F
100
AcDbEntity
  8
0
  6
Continuous
 62
     7
370
    25
100
AcDbCircle
 10
101.4757111597
 20
62.6912387188
 30
0.0
 40
1.699999999999989
  0
CIRCLE
  5
8B
330
1F
100
AcDbEntity
  8
0
  6
Continuous
 62
     7
370
    25
100
AcDbCircle
 10
101.4757111597
 20
94.6912387188
 30
0.0
 40
1.699999999999989
  0
LINE
  5
8C
330
1F
100
AcDbEntity
  8
0
  6
Continuous
 62
     7
370
    25
100
AcDbLine
 10
25.4757111597
 20
128.6912387188
 30
0.0
 11
25.4757111597
 21
112.6912387188
 31
0.0
  0
LINE
  5
8D
330
1F
100
AcDbEntity
  8
0
  6
Continuous
 62
     7
370
    25
100
AcDbLine
 10
41.4757111597
 20
128.6912387188
 30
0.0
 11
25.4757111597
 21
128.6912387188
 31
0.0
  0
LINE
  5
8E
330
1F
100
AcDbEntity
  8
0
  6
Continuous
 62
     7
370
    25
100
AcDbLine
 10
41.9757111597
 20
121.6890676269
 30
0.0
 11
41.4757111597
 21
128.6912387188
 31
0.0
  0
LINE
  5
8F
330
1F
100
AcDbEntity
  8
0
  6
Continuous
 62
     7
370
    25
100
AcDbLine
 10
42.4757111597
 20
121.6890676269
 30
0.0
 11
41.9757111597
 21
121.6890676269
 31
0.0
  0
LINE
  5
90
330
1F
100
AcDbEntity
  8
0
  6
Continuous
 62
     7
370
    25
100
AcDbLine
 10
42.4757111597
 20
130.6890676269
 30
0.0
 11
42.4757111597
 21
121.6890676269
 31
0.0
  0
LINE
  5
91
330
1F
100
AcDbEntity
  8
0
  6
Continuous
 62
     7
370
    25
100
AcDbLine
 10
41.9757111597
 20
131.6890676269
 30
0.0
 11
42.4757111597
 21
130.6890676269
 31
0.0
  0
LINE
  5
92
330
1F
100
AcDbEntity
  8
0
  6
Continuous
 62
     7
370
    25
100
AcDbLine
 10
41.4757111597
 20
132.1890676269
 30
0.0
 11
41.9757111597
 21
131.6890676269
 31
0.0
  0
LINE
  5
93
330
1F
100
AcDbEntity
  8
0
  6
Continuous
 62
     7
370
    25
100
AcDbLine
 10
41.4757111597
 20
133.1890676269
 30
0.0
 11
41.4757111597
 21
132.1890676269
 31
0.0
  0
LINE
  5
94
330
1F
100
AcDbEntity
  8
0
  6
Continuous
 62
     7
370
    25
100
AcDbLine
 10
42.9757111597
 20
134.6890676269
 30
0.0
 11
41.4757111597
 21
133.1890676269
 31
0.0
  0
LINE
  5
95
330
1F
100
AcDbEntity
  8
0
  6
Continuous
 62
     7
370
    25
100
AcDbLine
 10
44.4757111597
 20
134.6890676269
 30
0.0
 11
42.9757111597
 21
134.6890676269
 31
0.0
  0
LINE
  5
96
330
1F
100
AcDbEntity
  8
0
  6
Continuous
 62
     7
370
    25
100
AcDbLine
 10
44.9757111597
 20
121.6890676269
 30
0.0
 11
44.4757111597
 21
134.6890676269
 31
0.0
  0
LINE
  5
97
330
1F
100
AcDbEntity
  8
0
  6
Continuous
 62
     7
370
    25
100
AcDbLine
 10
45.4757111597
 20
121.6890676269
 30
0.0
 11
44.9757111597
 21
121.6890676269
 31
0.0
  0
LINE
  5
98
330
1F
100
AcDbEntity
  8
0
  6
Continuous
 62
     7
370
    25
100
AcDbLine
 10
45.4757111597
 20
134.6890676269
 30
0.0
 11
45.4757111597
 21
121.6890676269
 31
0.0
  0
LINE
  5
99
330
1F
100
AcDbEntity
  8
0
  6
Continuous
 62
     7
370
    25
100
AcDbLine
 10
53.4757111597
 20
134.6890676269
 30
0.0
 11
45.4757111597
 21
134.6890676269
 31
0.0
  0
LINE
  5
9A
330
1F
100
AcDbEntity
  8
0
  6
Continuous
 62
     7
370
    25
100
AcDbLine
 10
53.4757111597
 20
121.6890676269
 30
0.0
 11
53.4757111597
 21
134.6890676269
 31
0.0
  0
LINE
  5
9B
330
1F
100
AcDbEntity
  8
0
  6
Continuous
 62
     7
370
    25
100
AcDbLine
 10
53.9757111597
 20
121.6890676269
 30
0.0
 11
53.4757111597
 21
121.6890676269
 31
0.0
  0
LINE
  5
9C
330
1F
100
AcDbEntity
  8
0
  6
Continuous
 62
     7
370
    25
100
AcDbLine
 10
54.4757111597
 20
134.6890676269
 30
0.0
 11
53.9757111597
 21
121.6890676269
 31
0.0
  0
LINE
  5
9D
330
1F
100
AcDbEntity
  8
0
  6
Continuous
 62
     7
370
    25
100
AcDbLine
 10
55.9757111597
 20
134.6890676269
 30
0.0
 11
54.4757111597
 21
134.6890676269
 31
0.0
  0
LINE
  5
9E
330
1F
100
AcDbEntity
  8
0
  6
Continuous
 62
     7
370
    25
100
AcDbLine
 10
57.4757111597
 20
133.1890676269
 30
0.0
 11
55.9757111597
 21
134.6890676269
 31
0.0
  0
LINE
  5
9F
330
1F
100
AcDbEntity
  8
0
  6
Continuous
 62
     7
370
    25
100
AcDbLine
 10
57.4757111597
 20
132.1890676269
 30
0.0
 11
57.4757111597
 21
133.1890676269
 31
0.0
  0
LINE
  5
A0
330
1F
100
AcDbEntity
  8
0
  6
Continuous
 62
     7
370
    25
100
AcDbLine
 10
56.9757111597
 20
131.6890676269
 30
0.0
 11
57.4757111597
 21
132.1890676269
 31
0.0
  0
LINE
  5
A1
330
1F
100
AcDbEntity
  8
0
  6
Continuous
 62
     7
370
    25
100
AcDbLine
 10
56.4757111597
 20
130.6890676269
 30
0.0
 11
56.9757111597
 21
131.6890676269
 31
0.0
  0
LINE
  5
A2
330
1F
100
AcDbEntity
  8
0
  6
Continuous
 62
     7
370
    25
100
AcDbLine
 10
56.4757111597
 20
121.6890676269
 30
0.0
 11
56.4757111597
 21
130.6890676269
 31
0.0
  0
LINE
  5
A3
330
1F
100
AcDbEntity
  8
0
  6
Continuous
 62
     7
370
    25
100
AcDbLine
 10
56.9757111597
 20
121.6890676269
 30
0.0
 11
56.4757111597
 21
121.6890676269
 31
0.0
  0
LINE
  5
A4
330
1F
100
AcDbEntity
  8
0
  6
Continuous
 62
     7
370
    25
100
AcDbLine
 10
57.4757111597
 20
128.6912387188
 30
0.0
 11
56.9757111597
 21
121.6890676269
 31
0.0
  0
LINE
  5
A5
330
1F
100
AcDbEntity
  8
0
  6
Continuous
 62
     7
370
    25
100
AcDbLine
 10
157.4757111597
 20
128.6912387188
 30
0.0
 11
57.4757111597
 21
128.6912387188
 31
0.0
  0
LINE
  5
A6
330
1F
100
AcDbEntity
  8
0
  6
Continuous
 62
     7
370
    25
100
AcDbLine
 10
157.9757111597
 20
121.6890676269
 30
0.0
 11
157.4757111597
 21
128.6912387188
 31
0.0
  0
LINE
  5
A7
330
1F
100
AcDbEntity
  8
0
  6
Continuous
 62
     7
370
    25
100
AcDbLine
 10
158.4757111597
 20
121.6890676269
 30
0.0
 11
157.9757111597
 21
121.6890676269
 31
0.0
  0
LINE
  5
A8
330
1F
100
AcDbEntity
  8
0
  6
Continuous
 62
     7
370
    25
100
AcDbLine
 10
158.4757111597
 20
130.6890676269
 30
0.0
 11
158.4757111597
 21
121.6890676269
 31
0.0
  0
LINE
  5
A9
330
1F
100
AcDbEntity
  8
0
  6
Continuous
 62
     7
370
    25
100
AcDbLine
 10
157.9757111597
 20
131.6890676269
 30
0.0
 11
158.4757111597
 21
130.6890676269
 31
0.0
  0
LINE
  5
AA
330
1F
100
AcDbEntity
  8
0
  6
Continuous
 62
     7
370
    25
100
AcDbLine
 10
157.4757111597
 20
132.1890676269
 30
0.0
 11
157.9757111597
 21
131.6890676269
 31
0.0
  0
LINE
  5
AB
330
1F
100
AcDbEntity
  8
0
  6
Continuous
 62
     7
370
    25
100
AcDbLine
 10
157.4757111597
 20
133.1890676269
 30
0.0
 11
157.4757111597
 21
132.1890676269
 31
0.0
  0
LINE
  5
AC
330
1F
100
AcDbEntity
  8
0
  6
Continuous
 62
     7
370
    25
100
AcDbLine
 10
158.9757111597
 20
134.6890676269
 30
0.0
 11
157.4757111597
 21
133.1890676269
 31
0.0
  0
LINE
  5
AD
330
1F
100
AcDbEntity
  8
0
  6
Continuous
 62
     7
370
    25
100
AcDbLine
 10
160.4757111597
 20
134.6890676269
 30
0.0
 11
158.9757111597
 21
134.6890676269
 31
0.0
  0
LINE
  5
AE
330
1F
100
AcDbEntity
  8
0
  6
Continuous
 62
     7
370
    25
100
AcDbLine
 10
160.9757111597
 20
121.6890676269
 30
0.0
 11
160.4757111597
 21
134.6890676269
 31
0.0
  0
LINE
  5
AF
330
1F
100
AcDbEntity
  8
0
  6
Continuous
 62
     7
370
    25
100
AcDbLine
 10
161.4757111597
 20
121.6890676269
 30
0.0
 11
160.9757111597
 21
121.6890676269
 31
0.0
  0
LINE
  5
B0
330
1F
100
AcDbEntity
  8
0
  6
Continuous
 62
     7
370
    25
100
AcDbLine
 10
161.4757111597
 20
134.6890676269
 30
0.0
 11
161.4757111597
 21
121.6890676269
 31
0.0
  0
LINE
  5
B1
330
1F
100
AcDbEntity
  8
0
  6
Continuous
 62
     7
370
    25
100
AcDbLine
 10
169.4757111597
 20
134.6890676269
 30
0.0
 11
161.4757111597
 21
134.6890676269
 31
0.0
  0
LINE
  5
B2
330
1F
100
AcDbEntity
  8
0
  6
Continuous
 62
     7
370
    25
100
AcDbLine
 10
169.4757111597
 20
121.6890676269
 30
0.0
 11
169.4757111597
 21
134.6890676269
 31
0.0
  0
LINE
  5
B3
330
1F
100
AcDbEntity
  8
0
  6
Continuous
 62
     7
370
    25
100
AcDbLine
 10
169.9757111597
 20
121.6890676269
 30
0.0
 11
169.4757111597
 21
121.6890676269
 31
0.0
  0
LINE
  5
B4
330
1F
100
AcDbEntity
  8
0
  6
Continuous
 62
     7
370
    25
100
AcDbLine
 10
170.4757111597
 20
134.6890676269
 30
0.0
 11
169.9757111597
 21
121.6890676269
 31
0.0
  0
LINE
  5
B5
330
1F
100
AcDbEntity
  8
0
  6
Continuous
 62
     7
370
    25
100
AcDbLine
 10
171.9757111597
 20
134.6890676269
 30
0.0
 11
170.4757111597
 21
134.6890676269
 31
0.0
  0
LINE
  5
B6
330
1F
100
AcDbEntity
  8
0
  6
Continuous
 62
     7
370
    25
100
AcDbLine
 10
173.4757111597
 20
133.1890676269
 30
0.0
 11
171.9757111597
 21
134.6890676269
 31
0.0
  0
LINE
  5
B7
330
1F
100
AcDbEntity
  8
0
  6
Continuous
 62
     7
370
    25
100
AcDbLine
 10
173.4757111597
 20
132.1890676269
 30
0.0
 11
173.4757111597
 21
133.1890676269
 31
0.0
  0
LINE
  5
B8
330
1F
100
AcDbEntity
  8
0
  6
Continuous
 62
     7
370
    25
100
AcDbLine
 10
172.9757111597
 20
131.6890676269
 30
0.0
 11
173.4757111597
 21
132.1890676269
 31
0.0
  0
LINE
  5
B9
330
1F
100
AcDbEntity
  8
0
  6
Continuous
 62
     7
370
    25
100
AcDbLine
 10
172.4757111597
 20
130.6890676269
 30
0.0
 11
172.9757111597
 21
131.6890676269
 31
0.0
  0
LINE
  5
BA
330
1F
100
AcDbEntity
  8
0
  6
Continuous
 62
     7
370
    25
100
AcDbLine
 10
172.4757111597
 20
121.6890676269
 30
0.0
 11
172.4757111597
 21
130.6890676269
 31
0.0
  0
LINE
  5
BB
330
1F
100
AcDbEntity
  8
0
  6
Continuous
 62
     7
370
    25
100
AcDbLine
 10
172.9757111597
 20
121.6890676269
 30
0.0
 11
172.4757111597
 21
121.6890676269
 31
0.0
  0
LINE
  5
BC
330
1F
100
AcDbEntity
  8
0
  6
Continuous
 62
     7
370
    25
100
AcDbLine
 10
173.4757111597
 20
128.6912387188
 30
0.0
 11
172.9757111597
 21
121.6890676269
 31
0.0
  0
LINE
  5
BD
330
1F
100
AcDbEntity
  8
0
  6
Continuous
 62
     7
370
    25
100
AcDbLine
 10
273.4757111597
 20
128.6912387188
 30
0.0
 11
173.4757111597
 21
128.6912387188
 31
0.0
  0
LINE
  5
BE
330
1F
100
AcDbEntity
  8
0
  6
Continuous
 62
     7
370
    25
100
AcDbLine
 10
273.9757111597
 20
121.6890676269
 30
0.0
 11
273.4757111597
 21
128.6912387188
 31
0.0
  0
LINE
  5
BF
330
1F
100
AcDbEntity
  8
0
  6
Continuous
 62
     7
370
    25
100
AcDbLine
 10
274.4757111597
 20
121.6890676269
 30
0.0
 11
273.9757111597
 21
121.6890676269
 31
0.0
  0
LINE
  5
C0
330
1F
100
AcDbEntity
  8
0
  6
Continuous
 62
     7
370
    25
100
AcDbLine
 10
274.4757111597
 20
130.6890676269
 30
0.0
 11
274.4757111597
 21
121.6890676269
 31
0.0
  0
LINE
  5
C1
330
1F
100
AcDbEntity
  8
0
  6
Continuous
 62
     7
370
    25
100
AcDbLine
 10
273.9757111597
 20
131.6890676269
 30
0.0
 11
274.4757111597
 21
130.6890676269
 31
0.0
  0
LINE
  5
C2
330
1F
100
AcDbEntity
  8
0
  6
Continuous
 62
     7
370
    25
100
AcDbLine
 10
273.4757111597
 20
132.1890676269
 30
0.0
 11
273.9757111597
 21
131.6890676269
 31
0.0
  0
LINE
  5
C3
330
1F
100
AcDbEntity
  8
0
  6
Continuous
 62
     7
370
    25
100
AcDbLine
 10
273.4757111597
 20
133.1890676269
 30
0.0
 11
273.4757111597
 21
132.1890676269
 31
0.0
  0
LINE
  5
C4
330
1F
100
AcDbEntity
  8
0
  6
Continuous
 62
     7
370
    25
100
AcDbLine
 10
274.9757111597
 20
134.6890676269
 30
0.0
 11
273.4757111597
 21
133.1890676269
 31
0.0
  0
LINE
  5
C5
330
1F
100
AcDbEntity
  8
0
  6
Continuous
 62
     7
370
    25
100
AcDbLine
 10
276.4757111597
 20
134.6890676269
 30
0.0
 11
274.9757111597
 21
134.6890676269
 31
0.0
  0
LINE
  5
C6
330
1F
100
AcDbEntity
  8
0
  6
Continuous
 62
     7
370
    25
100
AcDbLine
 10
276.9757111597
 20
121.6890676269
 30
0.0
 11
276.4757111597
 21
134.6890676269
 31
0.0
  0
LINE
  5
C7
330
1F
100
AcDbEntity
  8
0
  6
Continuous
 62
     7
370
    25
100
AcDbLine
 10
277.4757111597
 20
121.6890676269
 30
0.0
 11
276.9757111597
 21
121.6890676269
 31
0.0
  0
LINE
  5
C8
330
1F
100
AcDbEntity
  8
0
  6
Continuous
 62
     7
370
    25
100
AcDbLine
 10
277.4757111597
 20
134.6890676269
 30
0.0
 11
277.4757111597
 21
121.6890676269
 31
0.0
  0
LINE
  5
C9
330
1F
100
AcDbEntity
  8
0
  6
Continuous
 62
     7
370
    25
100
AcDbLine
 10
285.4757111597
 20
134.6890676269
 30
0.0
 11
277.4757111597
 21
134.6890676269
 31
0.0
  0
LINE
  5
CA
330
1F
100
AcDbEntity
  8
0
  6
Continuous
 62
     7
370
    25
100
AcDbLine
 10
285.4757111597
 20
121.6890676269
 30
0.0
 11
285.4757111597
 21
134.6890676269
 31
0.0
  0
LINE
  5
CB
330
1F
100
AcDbEntity
  8
0
  6
Continuous
 62
     7
370
    25
100
AcDbLine
 10
285.9757111597
 20
121.6890676269
 30
0.0
 11
285.4757111597
 21
121.6890676269
 31
0.0
  0
LINE
  5
CC
330
1F
100
AcDbEntity
  8
0
  6
Continuous
 62
     7
370
    25
100
AcDbLine
 10
286.4757111597
 20
134.6890676269
 30
0.0
 11
285.9757111597
 21
121.6890676269
 31
0.0
  0
LINE
  5
CD
330
1F
100
AcDbEntity
  8
0
  6
Continuous
 62
     7
370
    25
100
AcDbLine
 10
287.9757111597
 20
134.6890676269
 30
0.0
 11
286.4757111597
 21
134.6890676269
 31
0.0
  0
LINE
  5
CE
330
1F
100
AcDbEntity
  8
0
  6
Continuous
 62
     7
370
    25
100
AcDbLine
 10
289.4757111597
 20
133.1890676269
 30
0.0
 11
287.9757111597
 21
134.6890676269
 31
0.0
  0
LINE
  5
CF
330
1F
100
AcDbEntity
  8
0
  6
Continuous
 62
     7
370
    25
100
AcDbLine
 10
289.4757111597
 20
132.1890676269
 30
0.0
 11
289.4757111597
 21
133.1890676269
 31
0.0
  0
LINE
  5
D0
330
1F
100
AcDbEntity
  8
0
  6
Continuous
 62
     7
370
    25
100
AcDbLine
 10
288.9757111597
 20
131.6890676269
 30
0.0
 11
289.4757111597
 21
132.1890676269
 31
0.0
  0
LINE
  5
D1
330
1F
100
AcDbEntity
  8
0
  6
Continuous
 62
     7
370
    25
100
AcDbLine
 10
288.4757111597
 20
130.6890676269
 30
0.0
 11
288.9757111597
 21
131.6890676269
 31
0.0
  0
LINE
  5
D2
330
1F
100
AcDbEntity
  8
0
  6
Continuous
 62
     7
370
    25
100
AcDbLine
 10
288.4757111597
 20
121.6890676269
 30
0.0
 11
288.4757111597
 21
130.6890676269
 31
0.0
  0
LINE
  5
D3
330
1F
100
AcDbEntity
  8
0
  6
Continuous
 62
     7
370
    25
100
AcDbLine
 10
288.9757111597
 20
121.6890676269
 30
0.0
 11
288.4757111597
 21
121.6890676269
 31
0.0
  0
LINE
  5
D4
330
1F
100
AcDbEntity
  8
0
  6
Continuous
 62
     7
370
    25
100
AcDbLine
 10
289.4757111597
 20
128.6912387188
 30
0.0
 11
288.9757111597
 21
121.6890676269
 31
0.0
  0
LINE
  5
D5
330
1F
100
AcDbEntity
  8
0
  6
Continuous
 62
     7
370
    25
100
AcDbLine
 10
305.4757111597
 20
128.6912387188
 30
0.0
 11
289.4757111597
 21
128.6912387188
 31
0.0
  0
LINE
  5
D6
330
1F
100
AcDbEntity
  8
0
  6
Continuous
 62
     7
370
    25
100
AcDbLine
 10
305.4757111597
 20
112.6912387188
 30
0.0
 11
305.4757111597
 21
128.6912387188
 31
0.0
  0
LINE
  5
D7
330
1F
100
AcDbEntity
  8
0
  6
Continuous
 62
     7
370
    25
100
AcDbLine
 10
298.4735400679
 20
112.1912387188
 30
0.0
 11
305.4757111597
 21
112.6912387188
 31
0.0
  0
LINE
  5
D8
330
1F
100
AcDbEntity
  8
0
  6
Continuous
 62
     7
370
    25
100
AcDbLine
 10
298.4735400679
 20
111.6912387188
 30
0.0
 11
298.4735400679
 21
112.1912387188
 31
0.0
  0
LINE
  5
D9
330
1F
100
AcDbEntity
  8
0
  6
Continuous
 62
     7
370
    25
100
AcDbLine
 10
307.4735400679
 20
111.6912387188
 30
0.0
 11
298.4735400679
 21
111.6912387188
 31
0.0
  0
LINE
  5
DA
330
1F
100
AcDbEntity
  8
0
  6
Continuous
 62
     7
370
    25
100
AcDbLine
 10
308.4735400679
 20
112.1912387188
 30
0.0
 11
307.4735400679
 21
111.6912387188
 31
0.0
  0
LINE
  5
DB
330
1F
100
AcDbEntity
  8
0
  6
Continuous
 62
     7
370
    25
100
AcDbLine
 10
308.9735400679
 20
112.6912387188
 30
0.0
 11
308.4735400679
 21
112.1912387188
 31
0.0
  0
LINE
  5
DC
330
1F
100
AcDbEntity
  8
0
  6
Continuous
 62
     7
370
    25
100
AcDbLine
 10
309.9735400679
 20
112.6912387188
 30
0.0
 11
308.9735400679
 21
112.6912387188
 31
0.0
  0
LINE
  5
DD
330
1F
100
AcDbEntity
  8
0
  6
Continuous
 62
     7
370
    25
100
AcDbLine
 10
311.4735400679
 20
111.1912387188
 30
0.0
 11
309.9735400679
 21
112.6912387188
 31
0.0
  0
LINE
  5
DE
330
1F
100
AcDbEntity
  8
0
  6
Continuous
 62
     7
370
    25
100
AcDbLine
 10
311.4735400679
 20
109.6912387188
 30
0.0
 11
311.4735400679
 21
111.1912387188
 31
0.0
  0
LINE
  5
DF
330
1F
100
AcDbEntity
  8
0
  6
Continuous
 62
     7
370
    25
100
AcDbLine
 10
298.4735400679
 20
109.1912387188
 30
0.0
 11
311.4735400679
 21
109.6912387188
 31
0.0
  0
LINE
  5
E0
330
1F
100
AcDbEntity
  8
0
  6
Continuous
 62
     7
370
    25
100
AcDbLine
 10
298.4735400679
 20
108.6912387188
 30
0.0
 11
298.4735400679
 21
109.1912387188
 31
0.0
  0
LINE
  5
E1
330
1F
100
AcDbEntity
  8
0
  6
Continuous
 62
     7
370
    25
100
AcDbLine
 10
311.4735400679
 20
108.6912387188
 30
0.0
 11
298.4735400679
 21
108.6912387188
 31
0.0
  0
LINE
  5
E2
330
1F
100
AcDbEntity
  8
0
  6
Continuous
 62
     7
370
    25
100
AcDbLine
 10
311.4735400679
 20
100.6912387188
 30
0.0
 11
311.4735400679
 21
108.6912387188
 31
0.0
  0
LINE
  5
E3
330
1F
100
AcDbEntity
  8
0
  6
Continuous
 62
     7
370
    25
100
AcDbLine
 10
298.4735400679
 20
100.6912387188
 30
0.0
 11
311.4735400679
 21
100.6912387188
 31
0.0
  0
LINE
  5
E4
330
1F
100
AcDbEntity
  8
0
  6
Continuous
 62
     7
370
    25
100
AcDbLine
 10
298.4735400679
 20
100.1912387188
 30
0.0
 11
298.4735400679
 21
100.6912387188
 31
0.0
  0
LINE
  5
E5
330
1F
100
AcDbEntity
  8
0
  6
Continuous
 62
     7
370
    25
100
AcDbLine
 10
311.4735400679
 20
99.6912387188
 30
0.0
 11
298.4735400679
 21
100.1912387188
 31
0.0
  0
LINE
  5
E6
330
1F
100
AcDbEntity
  8
0
  6
Continuous
 62
     7
370
    25
100
AcDbLine
 10
311.4735400679
 20
98.1912387188
 30
0.0
 11
311.4735400679
 21
99.6912387188
 31
0.0
  0
LINE
  5
E7
330
1F
100
AcDbEntity
  8
0
  6
Continuous
 62
     7
370
    25
100
AcDbLine
 10
309.9735400679
 20
96.6912387188
 30
0.0
 11
311.4735400679
 21
98.1912387188
 31
0.0
  0
LINE
  5
E8
330
1F
100
AcDbEntity
  8
0
  6
Continuous
 62
     7
370
    25
100
AcDbLine
 10
308.9735400679
 20
96.6912387188
 30
0.0
 11
309.9735400679
 21
96.6912387188
 31
0.0
  0
LINE
  5
E9
330
1F
100
AcDbEntity
  8
0
  6
Continuous
 62
     7
370
    25
100
AcDbLine
 10
308.4735400679
 20
97.1912387188
 30
0.0
 11
308.9735400679
 21
96.6912387188
 31
0.0
  0
LINE
  5
EA
330
1F
100
AcDbEntity
  8
0
  6
Continuous
 62
     7
370
    25
100
AcDbLine
 10
307.4735400679
 20
97.6912387188
 30
0.0
 11
308.4735400679
 21
97.1912387188
 31
0.0
  0
LINE
  5
EB
330
1F
100
AcDbEntity
  8
0
  6
Continuous
 62
     7
370
    25
100
AcDbLine
 10
298.4735400679
 20
97.6912387188
 30
0.0
 11
307.4735400679
 21
97.6912387188
 31
0.0
  0
LINE
  5
EC
330
1F
100
AcDbEntity
  8
0
  6
Continuous
 62
     7
370
    25
100
AcDbLine
 10
298.4735400679
 20
97.1912387188
 30
0.0
 11
298.4735400679
 21
97.6912387188
 31
0.0
  0
LINE
  5
ED
330
1F
100
AcDbEntity
  8
0
  6
Continuous
 62
     7
370
    25
100
AcDbLine
 10
305.4757111597
 20
96.6912387188
 30
0.0
 11
298.4735400679
 21
97.1912387188
 31
0.0
  0
LINE
  5
EE
330
1F
100
AcDbEntity
  8
0
  6
Continuous
 62
     7
370
    25
100
AcDbLine
 10
305.4757111597
 20
60.6912387188
 30
0.0
 11
305.4757111597
 21
96.6912387188
 31
0.0
  0
LINE
  5
EF
330
1F
100
AcDbEntity
  8
0
  6
Continuous
 62
     7
370
    25
100
AcDbLine
 10
298.4735400679
 20
60.1912387188
 30
0.0
 11
305.4757111597
 21
60.6912387188
 31
0.0
  0
LINE
  5
F0
330
1F
100
AcDbEntity
  8
0
  6
Continuous
 62
     7
370
    25
100
AcDbLine
 10
298.4735400679
 20
59.6912387188
 30
0.0
 11
298.4735400679
 21
60.1912387188
 31
0.0
  0
LINE
  5
F1
330
1F
100
AcDbEntity
  8
0
  6
Continuous
 62
     7
370
    25
100
AcDbLine
 10
307.4735400679
 20
59.6912387188
 30
0.0
 11
298.4735400679
 21
59.6912387188
 31
0.0
  0
LINE
  5
F2
330
1F
100
AcDbEntity
  8
0
  6
Continuous
 62
     7
370
    25
100
AcDbLine
 10
308.4735400679
 20
60.1912387188
 30
0.0
 11
307.4735400679
 21
59.6912387188
 31
0.0
  0
LINE
  5
F3
330
1F
100
AcDbEntity
  8
0
  6
Continuous
 62
     7
370
    25
100
AcDbLine
 10
308.9735400679
 20
60.6912387188
 30
0.0
 11
308.4735400679
 21
60.1912387188
 31
0.0
  0
LINE
  5
F4
330
1F
100
AcDbEntity
  8
0
  6
Continuous
 62
     7
370
    25
100
AcDbLine
 10
309.9735400679
 20
60.6912387188
 30
0.0
 11
308.9735400679
 21
60.6912387188
 31
0.0
  0
LINE
  5
F5
330
1F
100
AcDbEntity
  8
0
  6
Continuous
 62
     7
370
    25
100
AcDbLine
 10
311.4735400679
 20
59.1912387188
 30
0.0
 11
309.9735400679
 21
60.6912387188
 31
0.0
  0
LINE
  5
F6
330
1F
100
AcDbEntity
  8
0
  6
Continuous
 62
     7
370
    25
100
AcDbLine
 10
311.4735400679
 20
57.6912387188
 30
0.0
 11
311.4735400679
 21
59.1912387188
 31
0.0
  0
LINE
  5
F7
330
1F
100
AcDbEntity
  8
0
  6
Continuous
 62
     7
370
    25
100
AcDbLine
 10
298.4735400679
 20
57.1912387188
 30
0.0
 11
311.4735400679
 21
57.6912387188
 31
0.0
  0
LINE
  5
F8
330
1F
100
AcDbEntity
  8
0
  6
Continuous
 62
     7
370
    25
100
AcDbLine
 10
298.4735400679
 20
56.6912387188
 30
0.0
 11
298.4735400679
 21
57.1912387188
 31
0.0
  0
LINE
  5
F9
330
1F
100
AcDbEntity
  8
0
  6
Continuous
 62
     7
370
    25
100
AcDbLine
 10
311.4735400679
 20
56.6912387188
 30
0.0
 11
298.4735400679
 21
56.6912387188
 31
0.0
  0
LINE
  5
FA
330
1F
100
AcDbEntity
  8
0
  6
Continuous
 62
     7
370
    25
100
AcDbLine
 10
311.4735400679
 20
48.6912387188
 30
0.0
 11
311.4735400679
 21
56.6912387188
 31
0.0
  0
LINE
  5
FB
330
1F
100
AcDbEntity
  8
0
  6
Continuous
 62
     7
370
    25
100
AcDbLine
 10
298.4735400679
 20
48.6912387188
 30
0.0
 11
311.4735400679
 21
48.6912387188
 31
0.0
  0
LINE
  5
FC
330
1F
100
AcDbEntity
  8
0
  6
Continuous
 62
     7
370
    25
100
AcDbLine
 10
298.4735400679
 20
48.1912387188
 30
0.0
 11
298.4735400679
 21
48.6912387188
 31
0.0
  0
LINE
  5
FD
330
1F
100
AcDbEntity
  8
0
  6
Continuous
 62
     7
370
    25
100
AcDbLine
 10
311.4735400679
 20
47.6912387188
 30
0.0
 11
298.4735400679
 21
48.1912387188
 31
0.0
  0
LINE
  5
FE
330
1F
100
AcDbEntity
  8
0
  6
Continuous
 62
     7
370
    25
100
AcDbLine
 10
311.4735400679
 20
46.1912387188
 30
0.0
 11
311.4735400679
 21
47.6912387188
 31
0.0
  0
LINE
  5
FF
330
1F
100
AcDbEntity
  8
0
  6
Continuous
 62
     7
370
    25
100
AcDbLine
 10
309.9735400679
 20
44.6912387188
 30
0.0
 11
311.4735400679
 21
46.1912387188
 31
0.0
  0
LINE
  5
100
330
1F
100
AcDbEntity
  8
0
  6
Continuous
 62
     7
370
    25
100
AcDbLine
 10
308.9735400679
 20
44.6912387188
 30
0.0
 11
309.9735400679
 21
44.6912387188
 31
0.0
  0
LINE
  5
101
330
1F
100
AcDbEntity
  8
0
  6
Continuous
 62
     7
370
    25
100
AcDbLine
 10
308.4735400679
 20
45.1912387188
 30
0.0
 11
308.9735400679
 21
44.6912387188
 31
0.0
  0
LINE
  5
102
330
1F
100
AcDbEntity
  8
0
  6
Continuous
 62
     7
370
    25
100
AcDbLine
 10
307.4735400679
 20
45.6912387188
 30
0.0
 11
308.4735400679
 21
45.1912387188
 31
0.0
  0
LINE
  5
103
330
1F
100
AcDbEntity
  8
0
  6
Continuous
 62
     7
370
    25
100
AcDbLine
 10
298.4735400679
 20
45.6912387188
 30
0.0
 11
307.4735400679
 21
45.6912387188
 31
0.0
  0
LINE
  5
104
330
1F
100
AcDbEntity
  8
0
  6
Continuous
 62
     7
370
    25
100
AcDbLine
 10
298.4735400679
 20
45.1912387188
 30
0.0
 11
298.4735400679
 21
45.6912387188
 31
0.0
  0
LINE
  5
105
330
1F
100
AcDbEntity
  8
0
  6
Continuous
 62
     7
370
    25
100
AcDbLine
 10
305.4757111597
 20
44.6912387188
 30
0.0
 11
298.4735400679
 21
45.1912387188
 31
0.0
  0
LINE
  5
106
330
1F
100
AcDbEntity
  8
0
  6
Continuous
 62
     7
370
    25
100
AcDbLine
 10
305.4757111597
 20
22.6912387188
 30
0.0
 11
305.4757111597
 21
44.6912387188
 31
0.0
  0
LINE
  5
107
330
1F
100
AcDbEntity
  8
0
  6
Continuous
 62
     7
370
    25
100
AcDbLine
 10
25.4757111597
 20
22.6912387188
 30
0.0
 11
305.4757111597
 21
22.6912387188
 31
0.0
  0
LINE
  5
108
330
1F
100
AcDbEntity
  8
0
  6
Continuous
 62
     7
370
    25
100
AcDbLine
 10
25.4757111597
 20
44.6912387188
 30
0.0
 11
25.4757111597
 21
22.6912387188
 31
0.0
  0
LINE
  5
109
330
1F
100
AcDbEntity
  8
0
  6
Continuous
 62
     7
370
    25
100
AcDbLine
 10
32.4778822516
 20
45.1912387188
 30
0.0
 11
25.4757111597
 21
44.6912387188
 31
0.0
  0
LINE
  5
10A
330
1F
100
AcDbEntity
  8
0
  6
Continuous
 62
     7
370
    25
100
AcDbLine
 10
32.4778822516
 20
45.6912387188
 30
0.0
 11
32.4778822516
 21
45.1912387188
 31
0.0
  0
LINE
  5
10B
330
1F
100
AcDbEntity
  8
0
  6
Continuous
 62
     7
370
    25
100
AcDbLine
 10
23.4778822516
 20
45.6912387188
 30
0.0
 11
32.4778822516
 21
45.6912387188
 31
0.0
  0
LINE
  5
10C
330
1F
100
AcDbEntity
  8
0
  6
Continuous
 62
     7
370
    25
100
AcDbLine
 10
22.4778822516
 20
45.1912387188
 30
0.0
 11
23.4778822516
 21
45.6912387188
 31
0.0
  0
LINE
  5
10D
330
1F
100
AcDbEntity
  8
0
  6
Continuous
 62
     7
370
    25
100
AcDbLine
 10
21.9778822516
 20
44.6912387188
 30
0.0
 11
22.4778822516
 21
45.1912387188
 31
0.0
  0
LINE
  5
10E
330
1F
100
AcDbEntity
  8
0
  6
Continuous
 62
     7
370
    25
100
AcDbLine
 10
20.9778822516
 20
44.6912387188
 30
0.0
 11
21.9778822516
 21
44.6912387188
 31
0.0
  0
LINE
  5
10F
330
1F
100
AcDbEntity
  8
0
  6
Continuous
 62
     7
370
    25
100
AcDbLine
 10
19.4778822516
 20
46.1912387188
 30
0.0
 11
20.9778822516
 21
44.6912387188
 31
0.0
  0
LINE
  5
110
330
1F
100
AcDbEntity
  8
0
  6
Continuous
 62
     7
370
    25
100
AcDbLine
 10
19.4778822516
 20
47.6912387188
 30
0.0
 11
19.4778822516
 21
46.1912387188
 31
0.0
  0
LINE
  5
111
330
1F
100
AcDbEntity
  8
0
  6
Continuous
 62
     7
370
    25
100
AcDbLine
 10
32.4778822516
 20
48.1912387188
 30
0.0
 11
19.4778822516
 21
47.6912387188
 31
0.0
  0
LINE
  5
112
330
1F
100
AcDbEntity
  8
0
  6
Continuous
 62
     7
370
    25
100
AcDbLine
 10
32.4778822516
 20
48.6912387188
 30
0.0
 11
32.4778822516
 21
48.1912387188
 31
0.0
  0
LINE
  5
113
330
1F
100
AcDbEntity
  8
0
  6
Continuous
 62
     7
370
    25
100
AcDbLine
 10
19.4778822516
 20
48.6912387188
 30
0.0
 11
32.4778822516
 21
48.6912387188
 31
0.0
  0
LINE
  5
114
330
1F
100
AcDbEntity
  8
0
  6
Continuous
 62
     7
370
    25
100
AcDbLine
 10
19.4778822516
 20
56.6912387188
 30
0.0
 11
19.4778822516
 21
48.6912387188
 31
0.0
  0
LINE
  5
115
330
1F
100
AcDbEntity
  8
0
  6
Continuous
 62
     7
370
    25
100
AcDbLine
 10
32.4778822516
 20
56.6912387188
 30
0.0
 11
19.4778822516
 21
56.6912387188
 31
0.0
  0
LINE
  5
116
330
1F
100
AcDbEntity
  8
0
  6
Continuous
 62
     7
370
    25
100
AcDbLine
 10
32.4778822516
 20
57.1912387188
 30
0.0
 11
32.4778822516
 21
56.6912387188
 31
0.0
  0
LINE
  5
117
330
1F
100
AcDbEntity
  8
0
  6
Continuous
 62
     7
370
    25
100
AcDbLine
 10
19.4778822516
 20
57.6912387188
 30
0.0
 11
32.4778822516
 21
57.1912387188
 31
0.0
  0
LINE
  5
118
330
1F
100
AcDbEntity
  8
0
  6
Continuous
 62
     7
370
    25
100
AcDbLine
 10
19.4778822516
 20
59.1912387188
 30
0.0
 11
19.4778822516
 21
57.6912387188
 31
0.0
  0
LINE
  5
119
330
1F
100
AcDbEntity
  8
0
  6
Continuous
 62
     7
370
    25
100
AcDbLine
 10
20.9778822516
 20
60.6912387188
 30
0.0
 11
19.4778822516
 21
59.1912387188
 31
0.0
  0
LINE
  5
11A
330
1F
100
AcDbEntity
  8
0
  6
Continuous
 62
     7
370
    25
100
AcDbLine
 10
21.9778822516
 20
60.6912387188
 30
0.0
 11
20.9778822516
 21
60.6912387188
 31
0.0
  0
LINE
  5
11B
330
1F
100
AcDbEntity
  8
0
  6
Continuous
 62
     7
370
    25
100
AcDbLine
 10
22.4778822516
 20
60.1912387188
 30
0.0
 11
21.9778822516
 21
60.6912387188
 31
0.0
  0
LINE
  5
11C
330
1F
100
AcDbEntity
  8
0
  6
Continuous
 62
     7
370
    25
100
AcDbLine
 10
23.4778822516
 20
59.6912387188
 30
0.0
 11
22.4778822516
 21
60.1912387188
 31
0.0
  0
LINE
  5
11D
330
1F
100
AcDbEntity
  8
0
  6
Continuous
 62
     7
370
    25
100
AcDbLine
 10
32.4778822516
 20
59.6912387188
 30
0.0
 11
23.4778822516
 21
59.6912387188
 31
0.0
  0
LINE
  5
11E
330
1F
100
AcDbEntity
  8
0
  6
Continuous
 62
     7
370
    25
100
AcDbLine
 10
32.4778822516
 20
60.1912387188
 30
0.0
 11
32.4778822516
 21
59.6912387188
 31
0.0
  0
LINE
  5
11F
330
1F
100
AcDbEntity
  8
0
  6
Continuous
 62
     7
370
    25
100
AcDbLine
 10
25.4757111597
 20
60.6912387188
 30
0.0
 11
32.4778822516
 21
60.1912387188
 31
0.0
  0
LINE
  5
120
330
1F
100
AcDbEntity
  8
0
  6
Continuous
 62
     7
370
    25
100
AcDbLine
 10
25.4757111597
 20
96.6912387188
 30
0.0
 11
25.4757111597
 21
60.6912387188
 31
0.0
  0
LINE
  5
121
330
1F
100
AcDbEntity
  8
0
  6
Continuous
 62
     7
370
    25
100
AcDbLine
 10
32.4778822516
 20
97.1912387188
 30
0.0
 11
25.4757111597
 21
96.6912387188
 31
0.0
  0
LINE
  5
122
330
1F
100
AcDbEntity
  8
0
  6
Continuous
 62
     7
370
    25
100
AcDbLine
 10
32.4778822516
 20
97.6912387188
 30
0.0
 11
32.4778822516
 21
97.1912387188
 31
0.0
  0
LINE
  5
123
330
1F
100
AcDbEntity
  8
0
  6
Continuous
 62
     7
370
    25
100
AcDbLine
 10
23.4778822516
 20
97.6912387188
 30
0.0
 11
32.4778822516
 21
97.6912387188
 31
0.0
  0
LINE
  5
124
330
1F
100
AcDbEntity
  8
0
  6
Continuous
 62
     7
370
    25
100
AcDbLine
 10
22.4778822516
 20
97.1912387188
 30
0.0
 11
23.4778822516
 21
97.6912387188
 31
0.0
  0
LINE
  5
125
330
1F
100
AcDbEntity
  8
0
  6
Continuous
 62
     7
370
    25
100
AcDbLine
 10
21.9778822516
 20
96.6912387188
 30
0.0
 11
22.4778822516
 21
97.1912387188
 31
0.0
  0
LINE
  5
126
330
1F
100
AcDbEntity
  8
0
  6
Continuous
 62
     7
370
    25
100
AcDbLine
 10
20.9778822516
 20
96.6912387188
 30
0.0
 11
21.9778822516
 21
96.6912387188
 31
0.0
  0
LINE
  5
127
330
1F
100
AcDbEntity
  8
0
  6
Continuous
 62
     7
370
    25
100
AcDbLine
 10
19.4778822516
 20
98.1912387188
 30
0.0
 11
20.9778822516
 21
96.6912387188
 31
0.0
  0
LINE
  5
128
330
1F
100
AcDbEntity
  8
0
  6
Continuous
 62
     7
370
    25
100
AcDbLine
 10
19.4778822516
 20
99.6912387188
 30
0.0
 11
19.4778822516
 21
98.1912387188
 31
0.0
  0
LINE
  5
129
330
1F
100
AcDbEntity
  8
0
  6
Continuous
 62
     7
370
    25
100
AcDbLine
 10
32.4778822516
 20
100.1912387188
 30
0.0
 11
19.4778822516
 21
99.6912387188
 31
0.0
  0
LINE
  5
12A
330
1F
100
AcDbEntity
  8
0
  6
Continuous
 62
     7
370
    25
100
AcDbLine
 10
32.4778822516
 20
100.6912387188
 30
0.0
 11
32.4778822516
 21
100.1912387188
 31
0.0
  0
LINE
  5
12B
330
1F
100
AcDbEntity
  8
0
  6
Continuous
 62
     7
370
    25
100
AcDbLine
 10
19.4778822516
 20
100.6912387188
 30
0.0
 11
32.4778822516
 21
100.6912387188
 31
0.0
  0
LINE
  5
12C
330
1F
100
AcDbEntity
  8
0
  6
Continuous
 62
     7
370
    25
100
AcDbLine
 10
19.4778822516
 20
108.6912387188
 30
0.0
 11
19.4778822516
 21
100.6912387188
 31
0.0
  0
LINE
  5
12D
330
1F
100
AcDbEntity
  8
0
  6
Continuous
 62
     7
370
    25
100
AcDbLine
 10
32.4778822516
 20
108.6912387188
 30
0.0
 11
19.4778822516
 21
108.6912387188
 31
0.0
  0
LINE
  5
12E
330
1F
100
AcDbEntity
  8
0
  6
Continuous
 62
     7
370
    25
100
AcDbLine
 10
32.4778822516
 20
109.1912387188
 30
0.0
 11
32.4778822516
 21
108.6912387188
 31
0.0
  0
LINE
  5
12F
330
1F
100
AcDbEntity
  8
0
  6
Continuous
 62
     7
370
    25
100
AcDbLine
 10
19.4778822516
 20
109.6912387188
 30
0.0
 11
32.4778822516
 21
109.1912387188
 31
0.0
  0
LINE
  5
130
330
1F
100
AcDbEntity
  8
0
  6
Continuous
 62
     7
370
    25
100
AcDbLine
 10
19.4778822516
 20
111.1912387188
 30
0.0
 11
19.4778822516
 21
109.6912387188
 31
0.0
  0
LINE
  5
131
330
1F
100
AcDbEntity
  8
0
  6
Continuous
 62
     7
370
    25
100
AcDbLine
 10
20.9778822516
 20
112.6912387188
 30
0.0
 11
19.4778822516
 21
111.1912387188
 31
0.0
  0
LINE
  5
132
330
1F
100
AcDbEntity
  8
0
  6
Continuous
 62
     7
370
    25
100
AcDbLine
 10
21.9778822516
 20
112.6912387188
 30
0.0
 11
20.9778822516
 21
112.6912387188
 31
0.0
  0
LINE
  5
133
330
1F
100
AcDbEntity
  8
0
  6
Continuous
 62
     7
370
    25
100
AcDbLine
 10
22.4778822516
 20
112.1912387188
 30
0.0
 11
21.9778822516
 21
112.6912387188
 31
0.0
  0
LINE
  5
134
330
1F
100
AcDbEntity
  8
0
  6
Continuous
 62
     7
370
    25
100
AcDbLine
 10
23.4778822516
 20
111.6912387188
 30
0.0
 11
22.4778822516
 21
112.1912387188
 31
0.0
  0
LINE
  5
135
330
1F
100
AcDbEntity
  8
0
  6
Continuous
 62
     7
370
    25
100
AcDbLine
 10
32.4778822516
 20
111.6912387188
 30
0.0
 11
23.4778822516
 21
111.6912387188
 31
0.0
  0
LINE
  5
136
330
1F
100
AcDbEntity
  8
0
  6
Continuous
 62
     7
370
    25
100
AcDbLine
 10
32.4778822516
 20
112.1912387188
 30
0.0
 11
32.4778822516
 21
111.6912387188
 31
0.0
  0
LINE
  5
137
330
1F
100
AcDbEntity
  8
0
  6
Continuous
 62
     7
370
    25
100
AcDbLine
 10
25.4757111597
 20
112.6912387188
 30
0.0
 11
32.4778822516
 21
112.1912387188
 31
0.0
  0
ENDSEC
  0
SECTION
  2
OBJECTS
  0
DICTIONARY
  5
C
330
0
100
AcDbDictionary
281
     1
  3
ACAD_GROUP
350
D
  3
ACAD_LAYOUT
350
1A
  3
ACAD_MLINESTYLE
350
17
  3
ACAD_PLOTSETTINGS
350
19
  3
ACAD_PLOTSTYLENAME
350
E
  3
ACAD_SCALELIST
350
47
  0
DICTIONARY
  5
D
102
{ACAD_REACTORS
330
C
102
}
330
C
100
AcDbDictionary
281
     1
  0
DICTIONARY
  5
1A
102
{ACAD_REACTORS
330
C
102
}
330
C
100
AcDbDictionary
281
     1
  3
Layout1
350
1E
  3
Layout2
350
26
  3
Model
350
22
  0
DICTIONARY
  5
17
102
{ACAD_REACTORS
330
C
102
}
330
C
100
AcDbDictionary
281
     1
  3
Standard
350
18
  0
DICTIONARY
  5
19
102
{ACAD_REACTORS
330
C
102
}
330
C
100
AcDbDictionary
281
     1
  0
ACDBDICTIONARYWDFLT
  5
E
102
{ACAD_REACTORS
330
C
102
}
330
C
100
AcDbDictionary
281
     1
  3
Normal
350
F
100
AcDbDictionaryWithDefault
340
F
  0
DICTIONARY
  5
47
102
{ACAD_REACTORS
330
C
102
}
330
C
100
AcDbDictionary
281
     1
  3
A0
350
48
  3
A1
350
49
  3
A2
350
4A
  3
A3
350
4B
  3
A4
350
4C
  3
A5
350
4D
  3
A6
350
4E
  3
A7
350
4F
  3
A8
350
50
  3
A9
350
51
  3
B0
350
52
  3
B1
350
53
  3
B2
350
54
  3
B3
350
55
  3
B4
350
56
  3
B5
350
57
  3
B6
350
58
  3
B7
350
59
  3
B8
350
5A
  3
B9
350
5B
  3
C0
350
5C
  3
C1
350
5D
  3
C2
350
5E
  3
C3
350
5F
  3
C4
350
60
  3
C5
350
61
  3
C6
350
62
  3
C7
350
63
  3
C8
350
64
  3
C9
350
65
  3
D0
350
66
  3
D1
350
67
  3
D2
350
68
  0
LAYOUT
  5
1E
102
{ACAD_REACTORS
330
1A
102
}
330
1A
100
AcDbPlotSettings
  1

  2
none_device
  4

  6

 40
0.0
 41
0.0
 42
0.0
 43
0.0
 44
0.0
 45
0.0
 46
0.0
 47
0.0
 48
0.0
 49
0.0
140
0.0
141
0.0
142
1.0
143
1.0
 70
   688
 72
     1
 73
     0
 74
     5
  7

 75
    16
147
1.0
148
0.0
149
0.0
100
AcDbLayout
  1
Layout1
 70
     1
 71
     1
 10
0.0
 20
0.0
 11
420.0
 21
297.0
 12
0.0
 22
0.0
 32
0.0
 14
1.0000000000E+20
 24
1.0000000000E+20
 34
1.0000000000E+20
 15
-1.0000000000E+20
 25
-1.0000000000E+20
 35
-1.0000000000E+20
146
0.0
 13
0.0
 23
0.0
 33
0.0
 16
1.0
 26
0.0
 36
0.0
 17
0.0
 27
1.0
 37
0.0
 76
     0
330
1B
  0
LAYOUT
  5
26
102
{ACAD_REACTORS
330
1A
102
}
330
1A
100
AcDbPlotSettings
  1

  2
none_device
  4

  6

 40
0.0
 41
0.0
 42
0.0
 43
0.0
 44
0.0
 45
0.0
 46
0.0
 47
0.0
 48
0.0
 49
0.0
140
0.0
141
0.0
142
1.0
143
1.0
 70
   688
 72
     1
 73
     0
 74
     5
  7

 75
    16
147
1.0
148
0.0
149
0.0
100
AcDbLayout
  1
Layout2
 70
     1
 71
     2
 10
0.0
 20
0.0
 11
0.0
 21
0.0
 12
0.0
 22
0.0
 32
0.0
 14
0.0
 24
0.0
 34
0.0
 15
0.0
 25
0.0
 35
0.0
146
0.0
 13
0.0
 23
0.0
 33
0.0
 16
1.0
 26
0.0
 36
0.0
 17
0.0
 27
1.0
 37
0.0
 76
     0
330
23
  0
LAYOUT
  5
22
102
{ACAD_REACTORS
330
1A
102
}
330
1A
100
AcDbPlotSettings
  1

  2
none_device
  4
Letter_(8.50_x_11.00_Inches)
  6

 40
6.35
 41
6.35
 42
6.35000508
 43
6.35000508
 44
215.9
 45
279.4
 46
0.0
 47
0.0
 48
0.0
 49
0.0
140
0.0
141
0.0
142
1.0
143
1.0
 70
  1712
 72
     1
 73
     0
 74
     0
  7

 75
     0
147
1.0
148
0.0
149
0.0
100
AcDbLayout
  1
Model
 70
     1
 71
     0
 10
0.0
 20
0.0
 11
320.0
 21
150.0
 12
0.0
 22
0.0
 32
0.0
 14
0.0
 24
0.0
 34
0.0
 15
320.0
 25
150.0
 35
0.0
146
0.0
 13
0.0
 23
0.0
 33
0.0
 16
1.0
 26
0.0
 36
0.0
 17
0.0
 27
1.0
 37
0.0
 76
     0
330
1F
331
29
  0
MLINESTYLE
  5
18
102
{ACAD_REACTORS
330
17
102
}
330
17
100
AcDbMlineStyle
  2
Standard
 70
     0
  3

 62
   256
 51
90.0
 52
90.0
 71
     2
 49
0.5
 62
   256
  6
BYLAYER
 49
-0.5
 62
   256
  6
BYLAYER
  0
ACDBPLACEHOLDER
  5
F
102
{ACAD_REACTORS
330
E
102
}
330
E
  0
SCALE
  5
48
102
{ACAD_REACTORS
330
47
102
}
330
47
100
AcDbScale
 70
     0
300
1:1
140
1.0
141
1.0
290
     1
  0
SCALE
  5
49
102
{ACAD_REACTORS
330
47
102
}
330
47
100
AcDbScale
 70
     0
300
1:2
140
1.0
141
2.0
290
     0
  0
SCALE
  5
4A
102
{ACAD_REACTORS
330
47
102
}
330
47
100
AcDbScale
 70
     0
300
1:4
140
1.0
141
4.0
290
     0
  0
SCALE
  5
4B
102
{ACAD_REACTORS
330
47
102
}
330
47
100
AcDbScale
 70
     0
300
1:5
140
1.0
141
5.0
290
     0
  0
SCALE
  5
4C
102
{ACAD_REACTORS
330
47
102
}
330
47
100
AcDbScale
 70
     0
300
1:8
140
1.0
141
8.0
290
     0
  0
SCALE
  5
4D
102
{ACAD_REACTORS
330
47
102
}
330
47
100
AcDbScale
 70
     0
300
1:10
140
1.0
141
10.0
290
     0
  0
SCALE
  5
4E
102
{ACAD_REACTORS
330
47
102
}
330
47
100
AcDbScale
 70
     0
300
1:16
140
1.0
141
16.0
290
     0
  0
SCALE
  5
4F
102
{ACAD_REACTORS
330
47
102
}
330
47
100
AcDbScale
 70
     0
300
1:20
140
1.0
141
20.0
290
     0
  0
SCALE
  5
50
102
{ACAD_REACTORS
330
47
102
}
330
47
100
AcDbScale
 70
     0
300
1:30
140
1.0
141
30.0
290
     0
  0
SCALE
  5
51
102
{ACAD_REACTORS
330
47
102
}
330
47
100
AcDbScale
 70
     0
300
1:40
140
1.0
141
40.0
290
     0
  0
SCALE
  5
52
102
{ACAD_REACTORS
330
47
102
}
330
47
100
AcDbScale
 70
     0
300
1:50
140
1.0
141
50.0
290
     0
  0
SCALE
  5
53
102
{ACAD_REACTORS
330
47
102
}
330
47
100
AcDbScale
 70
     0
300
1:100
140
1.0
141
100.0
290
     0
  0
SCALE
  5
54
102
{ACAD_REACTORS
330
47
102
}
330
47
100
AcDbScale
 70
     0
300
2:1
140
2.0
141
1.0
290
     0
  0
SCALE
  5
55
102
{ACAD_REACTORS
330
47
102
}
330
47
100
AcDbScale
 70
     0
300
4:1
140
4.0
141
1.0
290
     0
  0
SCALE
  5
56
102
{ACAD_REACTORS
330
47
102
}
330
47
100
AcDbScale
 70
     0
300
8:1
140
8.0
141
1.0
290
     0
  0
SCALE
  5
57
102
{ACAD_REACTORS
330
47
102
}
330
47
100
AcDbScale
 70
     0
300
10:1
140
10.0
141
1.0
290
     0
  0
SCALE
  5
58
102
{ACAD_REACTORS
330
47
102
}
330
47
100
AcDbScale
 70
     0
300
100:1
140
100.0
141
1.0
290
     0
  0
SCALE
  5
59
102
{ACAD_REACTORS
330
47
102
}
330
47
100
AcDbScale
 70
     0
300
1/128" = 1'-0"
140
0.0078125
141
12.0
290
     0
  0
SCALE
  5
5A
102
{ACAD_REACTORS
330
47
102
}
330
47
100
AcDbScale
 70
     0
300
1/64" = 1'-0"
140
0.015625
141
12.0
290
     0
  0
SCALE
  5
5B
102
{ACAD_REACTORS
330
47
102
}
330
47
100
AcDbScale
 70
     0
300
1/32" = 1'-0"
140
0.03125
141
12.0
290
     0
  0
SCALE
  5
5C
102
{ACAD_REACTORS
330
47
102
}
330
47
100
AcDbScale
 70
     0
300
1/16" = 1'-0"
140
0.0625
141
12.0
290
     0
  0
SCALE
  5
5D
102
{ACAD_REACTORS
330
47
102
}
330
47
100
AcDbScale
 70
     0
300
3/32" = 1'-0"
140
0.09375
141
12.0
290
     0
  0
SCALE
  5
5E
102
{ACAD_REACTORS
330
47
102
}
330
47
100
AcDbScale
 70
     0
300
1/8" = 1'-0"
140
0.125
141
12.0
290
     0
  0
SCALE
  5
5F
102
{ACAD_REACTORS
330
47
102
}
330
47
100
AcDbScale
 70
     0
300
3/16" = 1'-0"
140
0.1875
141
12.0
290
     0
  0
SCALE
  5
60
102
{ACAD_REACTORS
330
47
102
}
330
47
100
AcDbScale
 70
     0
300
1/4" = 1'-0"
140
0.25
141
12.0
290
     0
  0
SCALE
  5
61
102
{ACAD_REACTORS
330
47
102
}
330
47
100
AcDbScale
 70
     0
300
3/8" = 1'-0"
140
0.375
141
12.0
290
     0
  0
SCALE
  5
62
102
{ACAD_REACTORS
330
47
102
}
330
47
100
AcDbScale
 70
     0
300
1/2" = 1'-0"
140
0.5
141
12.0
290
     0
  0
SCALE
  5
63
102
{ACAD_REACTORS
330
47
102
}
330
47
100
AcDbScale
 70
     0
300
3/4" = 1'-0"
140
0.75
141
12.0
290
     0
  0
SCALE
  5
64
102
{ACAD_REACTORS
330
47
102
}
330
47
100
AcDbScale
 70
     0
300
1" = 1'-0"
140
1.0
141
12.0
290
     0
  0
SCALE
  5
65
102
{ACAD_REACTORS
330
47
102
}
330
47
100
AcDbScale
 70
     0
300
1-1/2" = 1'-0"
140
1.5
141
12.0
290
     0
  0
SCALE
  5
66
102
{ACAD_REACTORS
330
47
102
}
330
47
100
AcDbScale
 70
     0
300
3" = 1'-0"
140
3.0
141
12.0
290
     0
  0
SCALE
  5
67
102
{ACAD_REACTORS
330
47
102
}
330
47
100
AcDbScale
 70
     0
300
6" = 1'-0"
140
6.0
141
12.0
290
     0
  0
SCALE
  5
68
102
{ACAD_REACTORS
330
47
102
}
330
47
100
AcDbScale
 70
     0
300
1'-0" = 1'-0"
140
12.0
141
12.0
290
     0
  0
ENDSEC
  0
EOF
