  0
SECTION
  2
HEADER
  9
$ACADVER
  1
AC1015
  9
$ACADMAINTVER
 70
     6
  9
$DWGCODEPAGE
  3
ANSI_1252
  9
$INSBASE
 10
0.0
 20
0.0
 30
0.0
  9
$EXTMIN
 10
0.0
 20
0.0
 30
0.0
  9
$EXTMAX
 10
320.0
 20
150.0
 30
0.0
  9
$LIMMIN
 10
0.0
 20
0.0
  9
$LIMMAX
 10
320.0
 20
150.0
  9
$ORTHOMODE
 70
     0
  9
$REGENMODE
 70
     1
  9
$FILLMODE
 70
     1
  9
$QTEXTMODE
 70
     0
  9
$MIRRTEXT
 70
     1
  9
$LTSCALE
 40
1.0
  9
$ATTMODE
 70
     1
  9
$TEXTSIZE
 40
3.5
  9
$TRACEWID
 40
1.0
  9
$TEXTSTYLE
  7
Standard
  9
$CLAYER
  8
0
  9
$CELTYPE
  6
ByLayer
  9
$CECOLOR
 62
   256
  9
$CELTSCALE
 40
1.0
  9
$DISPSILH
 70
     0
  9
$DIMSCALE
 40
1.0
  9
$DIMASZ
 40
3.302
  9
$DIMEXO
 40
1.0
  9
$DIMDLI
 40
3.75
  9
$DIMRND
 40
0.0
  9
$DIMDLE
 40
0.0
  9
$DIMEXE
 40
1.0
  9
$DIMTP
 40
0.0
  9
$DIMTM
 40
0.0
  9
$DIMTXT
 40
3.5
  9
$DIMCEN
 40
2.5
  9
$DIMTSZ
 40
0.0
  9
$DIMTOL
 70
     0
  9
$DIMLIM
 70
     0
  9
$DIMTIH
 70
     1
  9
$DIMTOH
 70
     1
  9
$DIMSE1
 70
     0
  9
$DIMSE2
 70
     0
  9
$DIMTAD
 70
     1
  9
$DIMZIN
 70
     0
  9
$DIMBLK
  1

  9
$DIMASO
 70
     1
  9
$DIMSHO
 70
     1
  9
$DIMPOST
  1

  9
$DIMAPOST
  1

  9
$DIMALT
 70
     0
  9
$DIMALTD
 70
     3
  9
$DIMALTF
 40
0.0393700787
  9
$DIMLFAC
 40
5.0
  9
$DIMTOFL
 70
     1
  9
$DIMTVP
 40
0.0
  9
$DIMTIX
 70
     0
  9
$DIMSOXD
 70
     0
  9
$DIMSAH
 70
     0
  9
$DIMBLK1
  1

  9
$DIMBLK2
  1

  9
$DIMSTYLE
  2
ISO-25
  9
$DIMCLRD
 70
     0
  9
$DIMCLRE
 70
     0
  9
$DIMCLRT
 70
     0
  9
$DIMTFAC
 40
1.0
  9
$DIMGAP
 40
1.524
  9
$DIMJUST
 70
     0
  9
$DIMSD1
 70
     0
  9
$DIMSD2
 70
     0
  9
$DIMTOLJ
 70
     0
  9
$DIMTZIN
 70
     0
  9
$DIMALTZ
 70
     0
  9
$DIMALTTZ
 70
     0
  9
$DIMUPT
 70
     0
  9
$DIMDEC
 70
     2
  9
$DIMTDEC
 70
     2
  9
$DIMALTU
 70
     2
  9
$DIMALTTD
 70
     3
  9
$DIMTXSTY
  7
Standard
  9
$DIMAUNIT
 70
     0
  9
$DIMADEC
 70
     2
  9
$DIMALTRND
 40
0.0
  9
$DIMAZIN
 70
     0
  9
$DIMDSEP
 70
    44
  9
$DIMATFIT
 70
     3
  9
$DIMFRAC
 70
     0
  9
$DIMLDRBLK
  1

  9
$DIMLUNIT
 70
     2
  9
$DIMLWD
 70
    -2
  9
$DIMLWE
 70
    -2
  9
$DIMTMOVE
 70
     0
  9
$LUNITS
 70
     2
  9
$LUPREC
 70
     2
  9
$SKETCHINC
 40
1.0
  9
$FILLETRAD
 40
10.0
  9
$AUNITS
 70
     0
  9
$AUPREC
 70
     2
  9
$MENU
  1
.
  9
$ELEVATION
 40
0.0
  9
$PELEVATION
 40
0.0
  9
$THICKNESS
 40
0.0
  9
$LIMCHECK
 70
     0
  9
$CHAMFERA
 40
0.0
  9
$CHAMFERB
 40
0.0
  9
$CHAMFERC
 40
0.0
  9
$CHAMFERD
 40
0.0
  9
$SKPOLY
 70
     0
  9
$TDCREATE
 40
2457890.409470822
  9
$TDUCREATE
 40
2457890.326137488
  9
$TDUPDATE
 40
2457890.409471296
  9
$TDUUPDATE
 40
2457890.326137963
  9
$TDINDWG
 40
0.0000000116
  9
$TDUSRTIMER
 40
0.0000000116
  9
$USRTIMER
 70
     1
  9
$ANGBASE
 50
0.0
  9
$ANGDIR
 70
     0
  9
$PDMODE
 70
     0
  9
$PDSIZE
 40
-1.0
  9
$PLINEWID
 40
0.0
  9
$SPLFRAME
 70
     0
  9
$SPLINETYPE
 70
     6
  9
$SPLINESEGS
 70
     8
  9
$HANDSEED
  5
138
  9
$SURFTAB1
 70
     6
  9
$SURFTAB2
 70
     6
  9
$SURFTYPE
 70
     6
  9
$SURFU
 70
     6
  9
$SURFV
 70
     6
  9
$UCSBASE
  2

  9
$UCSNAME
  2

  9
$UCSORG
 10
0.0
 20
0.0
 30
0.0
  9
$UCSXDIR
 10
1.0
 20
0.0
 30
0.0
  9
$UCSYDIR
 10
0.0
 20
1.0
 30
0.0
  9
$UCSORTHOREF
  2

  9
$UCSORTHOVIEW
 70
     0
  9
$UCSORGTOP
 10
0.0
 20
0.0
 30
0.0
  9
$UCSORGBOTTOM
 10
0.0
 20
0.0
 30
0.0
  9
$UCSORGLEFT
 10
0.0
 20
0.0
 30
0.0
  9
$UCSORGRIGHT
 10
0.0
 20
0.0
 30
0.0
  9
$UCSORGFRONT
 10
0.0
 20
0.0
 30
0.0
  9
$UCSORGBACK
 10
0.0
 20
0.0
 30
0.0
  9
$PUCSBASE
  2

  9
$PUCSNAME
  2

  9
$PUCSORG
 10
0.0
 20
0.0
 30
0.0
  9
$PUCSXDIR
 10
1.0
 20
0.0
 30
0.0
  9
$PUCSYDIR
 10
0.0
 20
1.0
 30
0.0
  9
$PUCSORTHOREF
  2

  9
$PUCSORTHOVIEW
 70
     0
  9
$PUCSORGTOP
 10
0.0
 20
0.0
 30
0.0
  9
$PUCSORGBOTTOM
 10
0.0
 20
0.0
 30
0.0
  9
$PUCSORGLEFT
 10
0.0
 20
0.0
 30
0.0
  9
$PUCSORGRIGHT
 10
0.0
 20
0.0
 30
0.0
  9
$PUCSORGFRONT
 10
0.0
 20
0.0
 30
0.0
  9
$PUCSORGBACK
 10
0.0
 20
0.0
 30
0.0
  9
$USERI1
 70
     0
  9
$USERI2
 70
     0
  9
$USERI3
 70
     0
  9
$USERI4
 70
     0
  9
$USERI5
 70
     0
  9
$USERR1
 40
0.0
  9
$USERR2
 40
0.0
  9
$USERR3
 40
0.0
  9
$USERR4
 40
0.0
  9
$USERR5
 40
0.0
  9
$WORLDVIEW
 70
     1
  9
$SHADEDGE
 70
     3
  9
$SHADEDIF
 70
    70
  9
$TILEMODE
 70
     1
  9
$MAXACTVP
 70
    64
  9
$PINSBASE
 10
0.0
 20
0.0
 30
0.0
  9
$PLIMCHECK
 70
     0
  9
$PEXTMIN
 10
1.0000000000E+20
 20
1.0000000000E+20
 30
1.0000000000E+20
  9
$PEXTMAX
 10
-1.0000000000E+20
 20
-1.0000000000E+20
 30
-1.0000000000E+20
  9
$PLIMMIN
 10
0.0
 20
0.0
  9
$PLIMMAX
 10
420.0
 20
297.0
  9
$UNITMODE
 70
     0
  9
$VISRETAIN
 70
     1
  9
$PLINEGEN
 70
     0
  9
$PSLTSCALE
 70
     1
  9
$TREEDEPTH
 70
  3020
  9
$CMLSTYLE
  2
Standard
  9
$CMLJUST
 70
     0
  9
$CMLSCALE
 40
20.0
  9
$PROXYGRAPHICS
 70
     1
  9
$MEASUREMENT
 70
     1
  9
$CELWEIGHT
370
    -1
  9
$ENDCAPS
280
     0
  9
$JOINSTYLE
280
     0
  9
$LWDISPLAY
290
     1
  9
$INSUNITS
 70
     4
  9
$HYPERLINKBASE
  1

  9
$STYLESHEET
  1

  9
$XEDIT
290
     1
  9
$CEPSNTYPE
380
     0
  9
$PSTYLEMODE
290
     1
  9
$FINGERPRINTGUID
  2
{69D175C7-876E-4998-A9D9-29D4A9F8BCD0}
  9
$VERSIONGUID
  2
{FAEB1C32-E019-11D5-929B-00C0DF256EC4}
  9
$EXTNAMES
290
     1
  9
$PSVPSCALE
 40
0.0
  9
$OLESTARTUP
290
     0
  0
ENDSEC
  0
SECTION
  2
CLASSES
  0
CLASS
  1
ACDBDICTIONARYWDFLT
  2
AcDbDictionaryWithDefault
  3
ObjectDBX Classes
 90
        0
280
     0
281
     0
  0
CLASS
  1
VISUALSTYLE
  2
AcDbVisualStyle
  3
ObjectDBX Classes
 90
     4095
280
     0
281
     0
  0
CLASS
  1
MATERIAL
  2
AcDbMaterial
  3
ObjectDBX Classes
 90
     1153
280
     0
281
     0
  0
CLASS
  1
SCALE
  2
AcDbScale
  3
ObjectDBX Classes
 90
     1153
280
     0
281
     0
  0
CLASS
  1
TABLESTYLE
  2
AcDbTableStyle
  3
ObjectDBX Classes
 90
     4095
280
     0
281
     0
  0
CLASS
  1
MLEADERSTYLE
  2
AcDbMLeaderStyle
  3
ACDB_MLEADERSTYLE_CLASS
 90
     4095
280
     0
281
     0
  0
CLASS
  1
SUN
  2
AcDbSun
  3
SCENEOE
 90
     1153
280
     0
281
     0
  0
CLASS
  1
ACDBPLACEHOLDER
  2
AcDbPlaceHolder
  3
ObjectDBX Classes
 90
        0
280
     0
281
     0
  0
CLASS
  1
LAYOUT
  2
AcDbLayout
  3
ObjectDBX Classes
 90
        0
280
     0
281
     0
  0
ENDSEC
  0
SECTION
  2
TABLES
  0
TABLE
  2
VPORT
  5
8
330
0
100
AcDbSymbolTable
 70
     1
  0
VPORT
  5
29
330
8
100
AcDbSymbolTableRecord
100
AcDbViewportTableRecord
  2
*Active
 70
     0
 10
0.0
 20
0.0
 11
1.0
 21
1.0
 12
160.0
 22
75.0
 13
0.0
 23
0.0
 14
10.0
 24
10.0
 15
10.0
 25
10.0
 16
0.0
 26
0.0
 36
1.0
 17
0.0
 27
0.0
 37
0.0
 40
150.0
 41
2.1333333333
 42
50.0
 43
0.0
 44
0.0
 50
0.0
 51
0.0
 71
     0
 72
  2000
 73
     1
 74
     3
 75
     0
 76
     0
 77
     0
 78
     0
281
     0
 65
     1
110
0.0
120
0.0
130
0.0
111
1.0
121
0.0
131
0.0
112
0.0
122
1.0
132
0.0
 79
     0
146
0.0
  0
ENDTAB
  0
TABLE
  2
LTYPE
  5
5
330
0
100
AcDbSymbolTable
 70
     6
  0
LTYPE
  5
14
330
5
100
AcDbSymbolTableRecord
100
AcDbLinetypeTableRecord
  2
ByBlock
 70
     0
  3

 72
    65
 73
     0
 40
0.0
  0
LTYPE
  5
15
330
5
100
AcDbSymbolTableRecord
100
AcDbLinetypeTableRecord
  2
ByLayer
 70
     0
  3

 72
    65
 73
     0
 40
0.0
  0
LTYPE
  5
16
330
5
100
AcDbSymbolTableRecord
100
AcDbLinetypeTableRecord
  2
Continuous
 70
     0
  3
Solid line
 72
    65
 73
     0
 40
0.0
  0
LTYPE
  5
6E
330
5
100
AcDbSymbolTableRecord
100
AcDbLinetypeTableRecord
  2
HIDDEN
 70
     0
  3
Hidden __ __ __ __ __ __ __ __ __ __ __ __ __ __
 72
    65
 73
     2
 40
1.905
 49
1.27
 74
     0
 49
-0.635
 74
     0
  0
LTYPE
  5
6F
330
5
100
AcDbSymbolTableRecord
100
AcDbLinetypeTableRecord
  2
PHANTOM
 70
     0
  3
Phantom ______  __  __  ______  __  __  ______
 72
    65
 73
     6
 40
12.7
 49
6.35
 74
     0
 49
-1.27
 74
     0
 49
1.27
 74
     0
 49
-1.27
 74
     0
 49
1.27
 74
     0
 49
-1.27
 74
     0
  0
LTYPE
  5
70
330
5
100
AcDbSymbolTableRecord
100
AcDbLinetypeTableRecord
  2
CENTER
 70
     0
  3
Center ____ _ ____ _ ____ _ ____ _ ____ _ ____
 72
    65
 73
     4
 40
10.16
 49
6.35
 74
     0
 49
-1.27
 74
     0
 49
1.27
 74
     0
 49
-1.27
 74
     0
  0
LTYPE
  5
71
330
5
100
AcDbSymbolTableRecord
100
AcDbLinetypeTableRecord
  2
CENTERX2
 70
     0
  3
Center (2x) ________  __  ________  __  _____
 72
    65
 73
     4
 40
20.32
 49
12.7
 74
     0
 49
-2.54
 74
     0
 49
2.54
 74
     0
 49
-2.54
 74
     0
  0
LTYPE
  5
72
330
5
100
AcDbSymbolTableRecord
100
AcDbLinetypeTableRecord
  2
DOT2
 70
     0
  3
Dot (.5x) ........................................
 72
    65
 73
     2
 40
0.635
 49
0.0
 74
     0
 49
-0.635
 74
     0
  0
ENDTAB
  0
TABLE
  2
LAYER
  5
2
330
0
100
AcDbSymbolTable
 70
     1
  0
LAYER
  5
10
330
2
100
AcDbSymbolTableRecord
100
AcDbLayerTableRecord
  2
0
 70
     0
 62
     7
  6
Continuous
370
    -3
390
F
  0
ENDTAB
  0
TABLE
  2
STYLE
  5
3
330
0
100
AcDbSymbolTable
 70
     1
  0
STYLE
  5
11
330
3
100
AcDbSymbolTableRecord
100
AcDbTextStyleTableRecord
  2
Standard
 70
     0
 40
0.0
 41
1.0
 50
0.0
 71
     0
 42
3.5
  3
txt
  4

  0
ENDTAB
  0
TABLE
  2
VIEW
  5
6
330
0
100
AcDbSymbolTable
 70
     0
  0
ENDTAB
  0
TABLE
  2
UCS
  5
7
330
0
100
AcDbSymbolTable
 70
     0
  0
ENDTAB
  0
TABLE
  2
APPID
  5
9
330
0
100
AcDbSymbolTable
 70
     1
  0
APPID
  5
12
330
9
100
AcDbSymbolTableRecord
100
AcDbRegAppTableRecord
  2
ACAD
 70
     0
  0
ENDTAB
  0
TABLE
  2
DIMSTYLE
  5
A
330
0
100
AcDbSymbolTable
 70
     1
100
AcDbDimStyleTable
  0
DIMSTYLE
105
27
330
A
100
AcDbSymbolTableRecord
100
AcDbDimStyleTableRecord
  2
ISO-25
 70
     0
 41
2.5
 42
0.625
 43
3.75
 44
1.25
 73
     0
 74
     0
 77
     1
 78
     8
140
2.5
141
2.5
143
0.0393700787
147
0.625
171
     3
172
     1
178
     0
271
     2
272
     2
274
     3
278
    44
283
     0
284
     8
340
11
  0
ENDTAB
  0
TABLE
  2
BLOCK_RECORD
  5
1
330
0
100
AcDbSymbolTable
 70
     1
  0
BLOCK_RECORD
  5
1F
330
1
100
AcDbSymbolTableRecord
100
AcDbBlockTableRecord
  2
*Model_Space
340
22
  0
BLOCK_RECORD
  5
1B
330
1
100
AcDbSymbolTableRecord
100
AcDbBlockTableRecord
  2
*Paper_Space
340
1E
  0
BLOCK_RECORD
  5
23
330
1
100
AcDbSymbolTableRecord
100
AcDbBlockTableRecord
  2
*Paper_Space0
340
26
  0
ENDTAB
  0
ENDSEC
  0
SECTION
  2
BLOCKS
  0
BLOCK
  5
20
330
1F
100
AcDbEntity
  8
0
100
AcDbBlockBegin
  2
*Model_Space
 70
     0
 10
0.0
 20
0.0
 30
0.0
  3
*Model_Space
  1

  0
ENDBLK
  5
21
330
1F
100
AcDbEntity
  8
0
100
AcDbBlockEnd
  0
BLOCK
  5
1C
330
1B
100
AcDbEntity
 67
     1
  8
0
100
AcDbBlockBegin
  2
*Paper_Space
 70
     0
 10
0.0
 20
0.0
 30
0.0
  3
*Paper_Space
  1

  0
ENDBLK
  5
1D
330
1B
100
AcDbEntity
 67
     1
  8
0
100
AcDbBlockEnd
  0
BLOCK
  5
24
330
23
100
AcDbEntity
  8
0
100
AcDbBlockBegin
  2
*Paper_Space0
 70
     0
 10
0.0
 20
0.0
 30
0.0
  3
*Paper_Space0
  1

  0
ENDBLK
  5
25
330
23
100
AcDbEntity
  8
0
100
AcDbBlockEnd
  0
ENDSEC
  0
SECTION
  2
ENTITIES
  0
LWPOLYLINE
  5
73
330
1F
100
AcDbEntity
  8
0
  6
Continuous
 62
     7
100
AcDbPolyline
 90
       62
 70
   128
 43
0.0
 10
150.2604838785
 20
85.9405184416
 10
151.3961993566
 20
85.9405184416
 10
151.3961993566
 20
85.9405184416
 10
151.5629419781
 20
85.938186377
 10
151.7191903088
 20
85.9300241508
 10
151.8661103809
 20
85.9171977953
 10
152.0025361622
 20
85.8985412782
 10
152.1296336849
 20
85.8752206318
 10
152.2462369167
 20
85.8472358562
 10
152.35351189
 20
85.8134209189
 10
152.4502925724
 20
85.7737758201
 10
152.6251974202
 20
85.6793272023
 10
152.7802797185
 20
85.5638900028
 10
152.9155394675
 20
85.4239661246
 10
153.0321426993
 20
85.2630536647
 10
153.1254252848
 20
85.0858167523
 10
153.1918891269
 20
84.9004176136
 10
153.232700258
 20
84.7033581518
 10
153.2455266136
 20
84.4981364638
 10
153.2455266136
 20
84.4981364638
 10
153.2350323227
 20
84.3057411313
 10
153.2023834178
 20
84.1226740573
 10
153.1487459311
 20
83.9477692095
 10
153.0741198628
 20
83.7821926203
 10
152.9785052126
 20
83.6294423866
 10
152.8642340454
 20
83.4906845407
 10
152.7278082642
 20
83.3682511473
 10
152.5727259658
 20
83.2598101417
 10
152.5727259658
 20
83.2598101417
 10
152.7697854277
 20
83.180519944
 10
152.9435242431
 20
83.0942335525
 10
153.0916103475
 20
83.000950967
 10
153.2163758056
 20
82.9006721876
 10
153.3236507789
 20
82.792231182
 10
153.4169333644
 20
82.6744619179
 10
153.4985556266
 20
82.5438662982
 10
153.5673515334
 20
82.40394242
 10
153.6221550524
 20
82.2546902833
 10
153.6618001512
 20
82.1007740172
 10
153.6851207976
 20
81.938695525
 10
153.6932830238
 20
81.7719529034
 10
153.6932830238
 20
81.7719529034
 10
153.6851207976
 20
81.601712185
 10
153.6618001512
 20
81.4384676604
 10
153.6221550524
 20
81.2822193297
 10
153.5673515334
 20
81.132967193
 10
153.496223562
 20
80.9895452178
 10
153.4087711381
 20
80.8519534042
 10
153.3061602941
 20
80.7225238169
 10
153.18839103
 20
80.5989243912
 10
153.056629378
 20
80.4869852886
 10
152.9143734351
 20
80.3890385738
 10
152.7616232014
 20
80.3074163116
 10
152.5983786769
 20
80.2397864371
 10
152.4234738291
 20
80.1873149828
 10
152.2380746905
 20
80.1500019486
 10
152.042181261
 20
80.1266813022
 10
151.8346275083
 20
80.1196851083
 10
151.8346275083
 20
80.1196851083
 10
150.2604838785
 20
80.1196851083
 10
150.2604838785
 20
80.1196851083
 10
150.2604838785
 20
85.9405184416
  0
LWPOLYLINE
  5
74
330
1F
100
AcDbEntity
  8
0
  6
Continuous
 62
     7
100
AcDbPolyline
 90
       40
 70
   128
 43
0.0
 10
150.7828663571
 20
85.3435098946
 10
150.7828663571
 20
83.4778581852
 10
150.7828663571
 20
83.4778581852
 10
151.133842085
 20
83.4778581852
 10
151.133842085
 20
83.4778581852
 10
151.287758351
 20
83.4801902499
 10
151.4311803262
 20
83.4848543791
 10
151.5641080105
 20
83.4941826377
 10
151.6877074362
 20
83.5058429609
 10
151.7984805064
 20
83.5221674133
 10
151.8999253181
 20
83.5419899627
 10
151.990875839
 20
83.5641445768
 10
152.0713320689
 20
83.5909633201
 10
152.2135880118
 20
83.6550950976
 10
152.3406855345
 20
83.7367173599
 10
152.4514586047
 20
83.8334980423
 10
152.5470732548
 20
83.9466031772
 10
152.6240313879
 20
84.0713686353
 10
152.6788349068
 20
84.2042963196
 10
152.7126498441
 20
84.3418881331
 10
152.7231441349
 20
84.4876421729
 10
152.7231441349
 20
84.4876421729
 10
152.7184800056
 20
84.5844228554
 10
152.7044876178
 20
84.6765394085
 10
152.6811669715
 20
84.7628258001
 10
152.6496840989
 20
84.8444480624
 10
152.6077069354
 20
84.9202401631
 10
152.5575675457
 20
84.9902021022
 10
152.4969338652
 20
85.055499912
 10
152.4281379584
 20
85.1149675602
 10
152.3488477607
 20
85.1686050469
 10
152.2590632722
 20
85.2152463396
 10
152.1587844928
 20
85.2537254061
 10
152.0468453903
 20
85.286374311
 10
151.9244119968
 20
85.3108609897
 10
151.7914843125
 20
85.3295175068
 10
151.6468963051
 20
85.3400117977
 10
151.4918140067
 20
85.3435098946
 10
151.4918140067
 20
85.3435098946
 10
150.7828663571
 20
85.3435098946
  0
LWPOLYLINE
  5
75
330
1F
100
AcDbEntity
  8
0
  6
Continuous
 62
     7
100
AcDbPolyline
 90
       45
 70
   128
 43
0.0
 10
150.7828663571
 20
82.8808496382
 10
150.7828663571
 20
80.7166936553
 10
150.7828663571
 20
80.7166936553
 10
151.5267949763
 20
80.7166936553
 10
151.5267949763
 20
80.7166936553
 10
151.6865414039
 20
80.7190257199
 10
151.8346275083
 20
80.7236898492
 10
151.9710532896
 20
80.7330181078
 10
152.0981508123
 20
80.7470104956
 10
152.2124219795
 20
80.763334948
 10
152.3173648881
 20
80.7843235298
 10
152.4106474736
 20
80.8088102085
 10
152.4922697359
 20
80.8367949841
 10
152.6380237757
 20
80.9055908909
 10
152.7686193953
 20
80.9918772824
 10
152.8840565949
 20
81.0944881265
 10
152.9843353742
 20
81.2145894553
 10
153.0659576365
 20
81.3463511072
 10
153.1242592524
 20
81.4827768885
 10
153.159240222
 20
81.6250328313
 10
153.1709005452
 20
81.7719529034
 10
153.1709005452
 20
81.7719529034
 10
153.1674024482
 20
81.8640694566
 10
153.1545760927
 20
81.9538539451
 10
153.1347535433
 20
82.0401403367
 10
153.1079348
 20
82.1240946636
 10
153.0717877981
 20
82.2033848612
 10
153.02747857
 20
82.2815090266
 10
152.976173148
 20
82.3561350949
 10
152.9167054998
 20
82.4272630664
 10
152.7779476539
 20
82.5566926537
 10
152.6147031293
 20
82.663967627
 10
152.4281379584
 20
82.7490879862
 10
152.2182521411
 20
82.8120537314
 10
152.2182521411
 20
82.8120537314
 10
152.1331317818
 20
82.8283781839
 10
152.0328530024
 20
82.8423705717
 10
151.9185818352
 20
82.8540308949
 10
151.7903182802
 20
82.8633591534
 10
151.6468963051
 20
82.8715213797
 10
151.4883159098
 20
82.8761855089
 10
151.3157431266
 20
82.8796836059
 10
151.1291779557
 20
82.8808496382
 10
151.1291779557
 20
82.8808496382
 10
150.7828663571
 20
82.8808496382
  0
CIRCLE
  5
76
330
1F
100
AcDbEntity
  8
0
  6
Continuous
 62
     7
100
AcDbCircle
 10
157.5983491978
 20
83.0400009579
 30
0.0
 40
3.049796491558552
  0
LWPOLYLINE
  5
77
330
1F
100
AcDbEntity
  8
0
  6
Continuous
 62
     7
100
AcDbPolyline
 90
       92
 70
   128
 43
0.0
 10
157.6368043246
 20
85.4927620314
 10
157.4712277353
 20
85.4880979021
 10
157.3079832108
 20
85.4717734497
 10
157.1470707508
 20
85.4461207386
 10
156.9884903555
 20
85.4099737368
 10
156.8322420249
 20
85.3621664117
 10
156.6771597265
 20
85.3050308281
 10
156.5255755251
 20
85.2374009537
 10
156.3751573561
 20
85.1592767883
 10
156.2305693486
 20
85.0729903968
 10
156.0941435673
 20
84.978541779
 10
155.9658800123
 20
84.8770969673
 10
155.8457786835
 20
84.7686559617
 10
155.733839581
 20
84.6532187622
 10
155.6288966723
 20
84.5307853687
 10
155.5332820222
 20
84.4001897491
 10
155.4458295983
 20
84.2625979355
 10
155.367705433
 20
84.1203419927
 10
155.2989095262
 20
83.9734219205
 10
155.2417739426
 20
83.8218377191
 10
155.1951326499
 20
83.6667554208
 10
155.1578196157
 20
83.5081750255
 10
155.1321669047
 20
83.3449305009
 10
155.1158424522
 20
83.1781878794
 10
155.111178323
 20
83.0067811286
 10
155.111178323
 20
83.0067811286
 10
155.1228386461
 20
82.7549181478
 10
155.1578196157
 20
82.5135494579
 10
155.2149551993
 20
82.2826750589
 10
155.2965774616
 20
82.0611289184
 10
155.4003543379
 20
81.8489110365
 10
155.5274518606
 20
81.6471874454
 10
155.6778700297
 20
81.4559581452
 10
155.8516088451
 20
81.2740571035
 10
156.041672113
 20
81.1084805143
 10
156.2410636395
 20
80.9650585391
 10
156.4497834244
 20
80.843791178
 10
156.667831468
 20
80.744678431
 10
156.8963738024
 20
80.6665542656
 10
157.133078363
 20
80.6117507467
 10
157.3802772145
 20
80.5779358094
 10
157.6368043246
 20
80.5674415186
 10
157.6368043246
 20
80.5674415186
 10
157.8093771077
 20
80.5721056478
 10
157.9784517938
 20
80.587264068
 10
158.1451944154
 20
80.612916779
 10
158.3084389399
 20
80.6490637808
 10
158.4681853676
 20
80.6945390413
 10
158.6244336982
 20
80.7493425602
 10
158.7771839319
 20
80.8158064024
 10
158.927602101
 20
80.8915985031
 10
159.0721901085
 20
80.9767188623
 10
159.2086158897
 20
81.0688354155
 10
159.3357134124
 20
81.1691141948
 10
159.4558147412
 20
81.2763891681
 10
159.5677538438
 20
81.3906603353
 10
159.6715307201
 20
81.5130937288
 10
159.7659793379
 20
81.6425233161
 10
159.8534317618
 20
81.7801151297
 10
159.9315559271
 20
81.9235371048
 10
159.9991858016
 20
82.0704571769
 10
160.0563213852
 20
82.220875346
 10
160.1029626779
 20
82.3759576444
 10
160.1391096798
 20
82.5345380397
 10
160.1647623908
 20
82.6966165319
 10
160.1810868433
 20
82.8633591534
 10
160.1857509725
 20
83.0335998719
 10
160.1857509725
 20
83.0335998719
 10
160.1810868433
 20
83.2026745581
 10
160.1647623908
 20
83.3682511473
 10
160.1391096798
 20
83.5291636072
 10
160.1029626779
 20
83.6865779702
 10
160.0563213852
 20
83.8393282039
 10
159.9991858016
 20
83.9874143084
 10
159.9315559271
 20
84.1320023158
 10
159.8534317618
 20
84.2730922264
 10
159.7659793379
 20
84.4083519753
 10
159.6703646878
 20
84.5366155303
 10
159.5654217791
 20
84.6578828914
 10
159.4534826766
 20
84.7721540586
 10
159.3322153155
 20
84.8794290319
 10
159.2016196958
 20
84.9797078113
 10
159.0640278822
 20
85.0729903968
 10
158.9171078101
 20
85.1592767883
 10
158.7655236087
 20
85.2374009537
 10
158.6104413104
 20
85.3050308281
 10
158.4541929797
 20
85.3621664117
 10
158.2956125844
 20
85.4099737368
 10
158.1335340922
 20
85.4461207386
 10
157.9702895676
 20
85.4717734497
 10
157.8047129784
 20
85.4880979021
 10
157.6368043246
 20
85.4927620314
  0
LWPOLYLINE
  5
78
330
1F
100
AcDbEntity
  8
0
  6
Continuous
 62
     7
100
AcDbPolyline
 90
       24
 70
   128
 43
0.0
 10
161.4917071691
 20
85.9405184416
 10
162.0945458777
 20
85.9405184416
 10
162.0945458777
 20
85.9405184416
 10
163.6185501178
 20
83.5594804475
 10
163.6185501178
 20
83.5594804475
 10
165.1425543579
 20
85.9405184416
 10
165.1425543579
 20
85.9405184416
 10
165.7453930665
 20
85.9405184416
 10
165.7453930665
 20
85.9405184416
 10
163.9205524883
 20
83.0884033909
 10
163.9205524883
 20
83.0884033909
 10
165.8200191349
 20
80.1196851083
 10
165.8200191349
 20
80.1196851083
 10
165.2171804263
 20
80.1196851083
 10
165.2171804263
 20
80.1196851083
 10
163.6185501178
 20
82.6173263343
 10
163.6185501178
 20
82.6173263343
 10
162.0199198093
 20
80.1196851083
 10
162.0199198093
 20
80.1196851083
 10
161.4170811007
 20
80.1196851083
 10
161.4170811007
 20
80.1196851083
 10
163.3177137797
 20
83.0884033909
 10
163.3177137797
 20
83.0884033909
 10
161.4917071691
 20
85.9405184416
  0
LWPOLYLINE
  5
79
330
1F
100
AcDbEntity
  8
0
  6
Continuous
 62
     7
100
AcDbPolyline
 90
       16
 70
   128
 43
0.0
 10
166.5289667845
 20
85.3435098946
 10
166.5289667845
 20
85.9405184416
 10
166.5289667845
 20
85.9405184416
 10
169.5886355879
 20
85.9405184416
 10
169.5886355879
 20
85.9405184416
 10
167.1469639132
 20
80.7166936553
 10
167.1469639132
 20
80.7166936553
 10
169.5140095195
 20
80.7166936553
 10
169.5140095195
 20
80.7166936553
 10
169.5140095195
 20
80.1196851083
 10
169.5140095195
 20
80.1196851083
 10
166.3050885794
 20
80.1196851083
 10
166.3050885794
 20
80.1196851083
 10
168.746760254
 20
85.3435098946
 10
168.746760254
 20
85.3435098946
 10
166.5289667845
 20
85.3435098946
  0
LWPOLYLINE
  5
7A
330
1F
100
AcDbEntity
  8
0
  6
Continuous
 62
     7
100
AcDbPolyline
 90
       12
 70
   128
 43
0.0
 10
171.4228044247
 20
85.9405184416
 10
172.4990522546
 20
85.9405184416
 10
172.4990522546
 20
85.9405184416
 10
172.4990522546
 20
80.1196851083
 10
172.4990522546
 20
80.1196851083
 10
171.9766697759
 20
80.1196851083
 10
171.9766697759
 20
80.1196851083
 10
171.9766697759
 20
85.3435098946
 10
171.9766697759
 20
85.3435098946
 10
171.0811569554
 20
85.3435098946
 10
171.0811569554
 20
85.3435098946
 10
171.4228044247
 20
85.9405184416
  0
LINE
  5
7B
330
1F
100
AcDbEntity
  8
0
  6
Continuous
 62
     7
370
    25
100
AcDbLine
 10
51.7142231947
 20
27.1196851083
 30
0.0
 11
51.7142231947
 21
30.1196851083
 31
0.0
  0
LINE
  5
7C
330
1F
100
AcDbEntity
  8
0
  6
Continuous
 62
     7
370
    25
100
AcDbLine
 10
51.7142231947
 20
30.1196851083
 30
0.0
 11
37.7142231947
 21
30.1196851083
 31
0.0
  0
LINE
  5
7D
330
1F
100
AcDbEntity
  8
0
  6
Continuous
 62
     7
370
    25
100
AcDbLine
 10
37.7142231947
 20
30.1196851083
 30
0.0
 11
37.7142231947
 21
27.1196851083
 31
0.0
  0
LINE
  5
7E
330
1F
100
AcDbEntity
  8
0
  6
Continuous
 62
     7
370
    25
100
AcDbLine
 10
37.7142231947
 20
27.1196851083
 30
0.0
 11
51.7142231947
 21
27.1196851083
 31
0.0
  0
LINE
  5
7F
330
1F
100
AcDbEntity
  8
0
  6
Continuous
 62
     7
370
    25
100
AcDbLine
 10
167.7142231947
 20
27.1196851083
 30
0.0
 11
167.7142231947
 21
30.1196851083
 31
0.0
  0
LINE
  5
80
330
1F
100
AcDbEntity
  8
0
  6
Continuous
 62
     7
370
    25
100
AcDbLine
 10
167.7142231947
 20
30.1196851083
 30
0.0
 11
153.7142231947
 21
30.1196851083
 31
0.0
  0
LINE
  5
81
330
1F
100
AcDbEntity
  8
0
  6
Continuous
 62
     7
370
    25
100
AcDbLine
 10
153.7142231947
 20
30.1196851083
 30
0.0
 11
153.7142231947
 21
27.1196851083
 31
0.0
  0
LINE
  5
82
330
1F
100
AcDbEntity
  8
0
  6
Continuous
 62
     7
370
    25
100
AcDbLine
 10
153.7142231947
 20
27.1196851083
 30
0.0
 11
167.7142231947
 21
27.1196851083
 31
0.0
  0
LINE
  5
83
330
1F
100
AcDbEntity
  8
0
  6
Continuous
 62
     7
370
    25
100
AcDbLine
 10
269.7142231947
 20
30.1196851083
 30
0.0
 11
269.7142231947
 21
27.1196851083
 31
0.0
  0
LINE
  5
84
330
1F
100
AcDbEntity
  8
0
  6
Continuous
 62
     7
370
    25
100
AcDbLine
 10
269.7142231947
 20
27.1196851083
 30
0.0
 11
283.7142231947
 21
27.1196851083
 31
0.0
  0
LINE
  5
85
330
1F
100
AcDbEntity
  8
0
  6
Continuous
 62
     7
370
    25
100
AcDbLine
 10
283.7142231947
 20
27.1196851083
 30
0.0
 11
283.7142231947
 21
30.1196851083
 31
0.0
  0
LINE
  5
86
330
1F
100
AcDbEntity
  8
0
  6
Continuous
 62
     7
370
    25
100
AcDbLine
 10
283.7142231947
 20
30.1196851083
 30
0.0
 11
269.7142231947
 21
30.1196851083
 31
0.0
  0
CIRCLE
  5
87
330
1F
100
AcDbEntity
  8
0
  6
Continuous
 62
     7
370
    25
100
AcDbCircle
 10
240.7142231947
 20
80.1196851083
 30
0.0
 40
20.0
  0
CIRCLE
  5
88
330
1F
100
AcDbEntity
  8
0
  6
Continuous
 62
     7
370
    25
100
AcDbCircle
 10
224.7142231947
 20
96.1196851083
 30
0.0
 40
1.700000000000017
  0
CIRCLE
  5
89
330
1F
100
AcDbEntity
  8
0
  6
Continuous
 62
     7
370
    25
100
AcDbCircle
 10
224.7142231947
 20
64.1196851083
 30
0.0
 40
1.700000000000017
  0
CIRCLE
  5
8A
330
1F
100
AcDbEntity
  8
0
  6
Continuous
 62
     7
370
    25
100
AcDbCircle
 10
256.7142231947
 20
64.1196851083
 30
0.0
 40
1.700000000000045
  0
CIRCLE
  5
8B
330
1F
100
AcDbEntity
  8
0
  6
Continuous
 62
     7
370
    25
100
AcDbCircle
 10
256.7142231947
 20
96.1196851083
 30
0.0
 40
1.700000000000045
  0
LINE
  5
8C
330
1F
100
AcDbEntity
  8
0
  6
Continuous
 62
     7
370
    25
100
AcDbLine
 10
20.7142231947
 20
130.1196851083
 30
0.0
 11
20.7142231947
 21
114.1196851083
 31
0.0
  0
LINE
  5
8D
330
1F
100
AcDbEntity
  8
0
  6
Continuous
 62
     7
370
    25
100
AcDbLine
 10
36.7142231947
 20
130.1196851083
 30
0.0
 11
20.7142231947
 21
130.1196851083
 31
0.0
  0
LINE
  5
8E
330
1F
100
AcDbEntity
  8
0
  6
Continuous
 62
     7
370
    25
100
AcDbLine
 10
37.2142231947
 20
123.1175140164
 30
0.0
 11
36.7142231947
 21
130.1196851083
 31
0.0
  0
LINE
  5
8F
330
1F
100
AcDbEntity
  8
0
  6
Continuous
 62
     7
370
    25
100
AcDbLine
 10
37.7142231947
 20
123.1175140164
 30
0.0
 11
37.2142231947
 21
123.1175140164
 31
0.0
  0
LINE
  5
90
330
1F
100
AcDbEntity
  8
0
  6
Continuous
 62
     7
370
    25
100
AcDbLine
 10
37.7142231947
 20
132.1175140164
 30
0.0
 11
37.7142231947
 21
123.1175140164
 31
0.0
  0
LINE
  5
91
330
1F
100
AcDbEntity
  8
0
  6
Continuous
 62
     7
370
    25
100
AcDbLine
 10
37.2142231947
 20
133.1175140164
 30
0.0
 11
37.7142231947
 21
132.1175140164
 31
0.0
  0
LINE
  5
92
330
1F
100
AcDbEntity
  8
0
  6
Continuous
 62
     7
370
    25
100
AcDbLine
 10
36.7142231947
 20
133.6175140164
 30
0.0
 11
37.2142231947
 21
133.1175140164
 31
0.0
  0
LINE
  5
93
330
1F
100
AcDbEntity
  8
0
  6
Continuous
 62
     7
370
    25
100
AcDbLine
 10
36.7142231947
 20
134.6175140164
 30
0.0
 11
36.7142231947
 21
133.6175140164
 31
0.0
  0
LINE
  5
94
330
1F
100
AcDbEntity
  8
0
  6
Continuous
 62
     7
370
    25
100
AcDbLine
 10
38.2142231947
 20
136.1175140164
 30
0.0
 11
36.7142231947
 21
134.6175140164
 31
0.0
  0
LINE
  5
95
330
1F
100
AcDbEntity
  8
0
  6
Continuous
 62
     7
370
    25
100
AcDbLine
 10
39.7142231947
 20
136.1175140164
 30
0.0
 11
38.2142231947
 21
136.1175140164
 31
0.0
  0
LINE
  5
96
330
1F
100
AcDbEntity
  8
0
  6
Continuous
 62
     7
370
    25
100
AcDbLine
 10
40.2142231947
 20
123.1175140164
 30
0.0
 11
39.7142231947
 21
136.1175140164
 31
0.0
  0
LINE
  5
97
330
1F
100
AcDbEntity
  8
0
  6
Continuous
 62
     7
370
    25
100
AcDbLine
 10
40.7142231947
 20
123.1175140164
 30
0.0
 11
40.2142231947
 21
123.1175140164
 31
0.0
  0
LINE
  5
98
330
1F
100
AcDbEntity
  8
0
  6
Continuous
 62
     7
370
    25
100
AcDbLine
 10
40.7142231947
 20
136.1175140164
 30
0.0
 11
40.7142231947
 21
123.1175140164
 31
0.0
  0
LINE
  5
99
330
1F
100
AcDbEntity
  8
0
  6
Continuous
 62
     7
370
    25
100
AcDbLine
 10
48.7142231947
 20
136.1175140164
 30
0.0
 11
40.7142231947
 21
136.1175140164
 31
0.0
  0
LINE
  5
9A
330
1F
100
AcDbEntity
  8
0
  6
Continuous
 62
     7
370
    25
100
AcDbLine
 10
48.7142231947
 20
123.1175140164
 30
0.0
 11
48.7142231947
 21
136.1175140164
 31
0.0
  0
LINE
  5
9B
330
1F
100
AcDbEntity
  8
0
  6
Continuous
 62
     7
370
    25
100
AcDbLine
 10
49.2142231947
 20
123.1175140164
 30
0.0
 11
48.7142231947
 21
123.1175140164
 31
0.0
  0
LINE
  5
9C
330
1F
100
AcDbEntity
  8
0
  6
Continuous
 62
     7
370
    25
100
AcDbLine
 10
49.7142231947
 20
136.1175140164
 30
0.0
 11
49.2142231947
 21
123.1175140164
 31
0.0
  0
LINE
  5
9D
330
1F
100
AcDbEntity
  8
0
  6
Continuous
 62
     7
370
    25
100
AcDbLine
 10
51.2142231947
 20
136.1175140164
 30
0.0
 11
49.7142231947
 21
136.1175140164
 31
0.0
  0
LINE
  5
9E
330
1F
100
AcDbEntity
  8
0
  6
Continuous
 62
     7
370
    25
100
AcDbLine
 10
52.7142231947
 20
134.6175140164
 30
0.0
 11
51.2142231947
 21
136.1175140164
 31
0.0
  0
LINE
  5
9F
330
1F
100
AcDbEntity
  8
0
  6
Continuous
 62
     7
370
    25
100
AcDbLine
 10
52.7142231947
 20
133.6175140164
 30
0.0
 11
52.7142231947
 21
134.6175140164
 31
0.0
  0
LINE
  5
A0
330
1F
100
AcDbEntity
  8
0
  6
Continuous
 62
     7
370
    25
100
AcDbLine
 10
52.2142231947
 20
133.1175140164
 30
0.0
 11
52.7142231947
 21
133.6175140164
 31
0.0
  0
LINE
  5
A1
330
1F
100
AcDbEntity
  8
0
  6
Continuous
 62
     7
370
    25
100
AcDbLine
 10
51.7142231947
 20
132.1175140164
 30
0.0
 11
52.2142231947
 21
133.1175140164
 31
0.0
  0
LINE
  5
A2
330
1F
100
AcDbEntity
  8
0
  6
Continuous
 62
     7
370
    25
100
AcDbLine
 10
51.7142231947
 20
123.1175140164
 30
0.0
 11
51.7142231947
 21
132.1175140164
 31
0.0
  0
LINE
  5
A3
330
1F
100
AcDbEntity
  8
0
  6
Continuous
 62
     7
370
    25
100
AcDbLine
 10
52.2142231947
 20
123.1175140164
 30
0.0
 11
51.7142231947
 21
123.1175140164
 31
0.0
  0
LINE
  5
A4
330
1F
100
AcDbEntity
  8
0
  6
Continuous
 62
     7
370
    25
100
AcDbLine
 10
52.7142231947
 20
130.1196851083
 30
0.0
 11
52.2142231947
 21
123.1175140164
 31
0.0
  0
LINE
  5
A5
330
1F
100
AcDbEntity
  8
0
  6
Continuous
 62
     7
370
    25
100
AcDbLine
 10
152.7142231947
 20
130.1196851083
 30
0.0
 11
52.7142231947
 21
130.1196851083
 31
0.0
  0
LINE
  5
A6
330
1F
100
AcDbEntity
  8
0
  6
Continuous
 62
     7
370
    25
100
AcDbLine
 10
153.2142231947
 20
123.1175140164
 30
0.0
 11
152.7142231947
 21
130.1196851083
 31
0.0
  0
LINE
  5
A7
330
1F
100
AcDbEntity
  8
0
  6
Continuous
 62
     7
370
    25
100
AcDbLine
 10
153.7142231947
 20
123.1175140164
 30
0.0
 11
153.2142231947
 21
123.1175140164
 31
0.0
  0
LINE
  5
A8
330
1F
100
AcDbEntity
  8
0
  6
Continuous
 62
     7
370
    25
100
AcDbLine
 10
153.7142231947
 20
132.1175140164
 30
0.0
 11
153.7142231947
 21
123.1175140164
 31
0.0
  0
LINE
  5
A9
330
1F
100
AcDbEntity
  8
0
  6
Continuous
 62
     7
370
    25
100
AcDbLine
 10
153.2142231947
 20
133.1175140164
 30
0.0
 11
153.7142231947
 21
132.1175140164
 31
0.0
  0
LINE
  5
AA
330
1F
100
AcDbEntity
  8
0
  6
Continuous
 62
     7
370
    25
100
AcDbLine
 10
152.7142231947
 20
133.6175140164
 30
0.0
 11
153.2142231947
 21
133.1175140164
 31
0.0
  0
LINE
  5
AB
330
1F
100
AcDbEntity
  8
0
  6
Continuous
 62
     7
370
    25
100
AcDbLine
 10
152.7142231947
 20
134.6175140164
 30
0.0
 11
152.7142231947
 21
133.6175140164
 31
0.0
  0
LINE
  5
AC
330
1F
100
AcDbEntity
  8
0
  6
Continuous
 62
     7
370
    25
100
AcDbLine
 10
154.2142231947
 20
136.1175140164
 30
0.0
 11
152.7142231947
 21
134.6175140164
 31
0.0
  0
LINE
  5
AD
330
1F
100
AcDbEntity
  8
0
  6
Continuous
 62
     7
370
    25
100
AcDbLine
 10
155.7142231947
 20
136.1175140164
 30
0.0
 11
154.2142231947
 21
136.1175140164
 31
0.0
  0
LINE
  5
AE
330
1F
100
AcDbEntity
  8
0
  6
Continuous
 62
     7
370
    25
100
AcDbLine
 10
156.2142231947
 20
123.1175140164
 30
0.0
 11
155.7142231947
 21
136.1175140164
 31
0.0
  0
LINE
  5
AF
330
1F
100
AcDbEntity
  8
0
  6
Continuous
 62
     7
370
    25
100
AcDbLine
 10
156.7142231947
 20
123.1175140164
 30
0.0
 11
156.2142231947
 21
123.1175140164
 31
0.0
  0
LINE
  5
B0
330
1F
100
AcDbEntity
  8
0
  6
Continuous
 62
     7
370
    25
100
AcDbLine
 10
156.7142231947
 20
136.1175140164
 30
0.0
 11
156.7142231947
 21
123.1175140164
 31
0.0
  0
LINE
  5
B1
330
1F
100
AcDbEntity
  8
0
  6
Continuous
 62
     7
370
    25
100
AcDbLine
 10
164.7142231947
 20
136.1175140164
 30
0.0
 11
156.7142231947
 21
136.1175140164
 31
0.0
  0
LINE
  5
B2
330
1F
100
AcDbEntity
  8
0
  6
Continuous
 62
     7
370
    25
100
AcDbLine
 10
164.7142231947
 20
123.1175140164
 30
0.0
 11
164.7142231947
 21
136.1175140164
 31
0.0
  0
LINE
  5
B3
330
1F
100
AcDbEntity
  8
0
  6
Continuous
 62
     7
370
    25
100
AcDbLine
 10
165.2142231947
 20
123.1175140164
 30
0.0
 11
164.7142231947
 21
123.1175140164
 31
0.0
  0
LINE
  5
B4
330
1F
100
AcDbEntity
  8
0
  6
Continuous
 62
     7
370
    25
100
AcDbLine
 10
165.7142231947
 20
136.1175140164
 30
0.0
 11
165.2142231947
 21
123.1175140164
 31
0.0
  0
LINE
  5
B5
330
1F
100
AcDbEntity
  8
0
  6
Continuous
 62
     7
370
    25
100
AcDbLine
 10
167.2142231947
 20
136.1175140164
 30
0.0
 11
165.7142231947
 21
136.1175140164
 31
0.0
  0
LINE
  5
B6
330
1F
100
AcDbEntity
  8
0
  6
Continuous
 62
     7
370
    25
100
AcDbLine
 10
168.7142231947
 20
134.6175140164
 30
0.0
 11
167.2142231947
 21
136.1175140164
 31
0.0
  0
LINE
  5
B7
330
1F
100
AcDbEntity
  8
0
  6
Continuous
 62
     7
370
    25
100
AcDbLine
 10
168.7142231947
 20
133.6175140164
 30
0.0
 11
168.7142231947
 21
134.6175140164
 31
0.0
  0
LINE
  5
B8
330
1F
100
AcDbEntity
  8
0
  6
Continuous
 62
     7
370
    25
100
AcDbLine
 10
168.2142231947
 20
133.1175140164
 30
0.0
 11
168.7142231947
 21
133.6175140164
 31
0.0
  0
LINE
  5
B9
330
1F
100
AcDbEntity
  8
0
  6
Continuous
 62
     7
370
    25
100
AcDbLine
 10
167.7142231947
 20
132.1175140164
 30
0.0
 11
168.2142231947
 21
133.1175140164
 31
0.0
  0
LINE
  5
BA
330
1F
100
AcDbEntity
  8
0
  6
Continuous
 62
     7
370
    25
100
AcDbLine
 10
167.7142231947
 20
123.1175140164
 30
0.0
 11
167.7142231947
 21
132.1175140164
 31
0.0
  0
LINE
  5
BB
330
1F
100
AcDbEntity
  8
0
  6
Continuous
 62
     7
370
    25
100
AcDbLine
 10
168.2142231947
 20
123.1175140164
 30
0.0
 11
167.7142231947
 21
123.1175140164
 31
0.0
  0
LINE
  5
BC
330
1F
100
AcDbEntity
  8
0
  6
Continuous
 62
     7
370
    25
100
AcDbLine
 10
168.7142231947
 20
130.1196851083
 30
0.0
 11
168.2142231947
 21
123.1175140164
 31
0.0
  0
LINE
  5
BD
330
1F
100
AcDbEntity
  8
0
  6
Continuous
 62
     7
370
    25
100
AcDbLine
 10
268.7142231947
 20
130.1196851083
 30
0.0
 11
168.7142231947
 21
130.1196851083
 31
0.0
  0
LINE
  5
BE
330
1F
100
AcDbEntity
  8
0
  6
Continuous
 62
     7
370
    25
100
AcDbLine
 10
269.2142231947
 20
123.1175140164
 30
0.0
 11
268.7142231947
 21
130.1196851083
 31
0.0
  0
LINE
  5
BF
330
1F
100
AcDbEntity
  8
0
  6
Continuous
 62
     7
370
    25
100
AcDbLine
 10
269.7142231947
 20
123.1175140164
 30
0.0
 11
269.2142231947
 21
123.1175140164
 31
0.0
  0
LINE
  5
C0
330
1F
100
AcDbEntity
  8
0
  6
Continuous
 62
     7
370
    25
100
AcDbLine
 10
269.7142231947
 20
132.1175140164
 30
0.0
 11
269.7142231947
 21
123.1175140164
 31
0.0
  0
LINE
  5
C1
330
1F
100
AcDbEntity
  8
0
  6
Continuous
 62
     7
370
    25
100
AcDbLine
 10
269.2142231947
 20
133.1175140164
 30
0.0
 11
269.7142231947
 21
132.1175140164
 31
0.0
  0
LINE
  5
C2
330
1F
100
AcDbEntity
  8
0
  6
Continuous
 62
     7
370
    25
100
AcDbLine
 10
268.7142231947
 20
133.6175140164
 30
0.0
 11
269.2142231947
 21
133.1175140164
 31
0.0
  0
LINE
  5
C3
330
1F
100
AcDbEntity
  8
0
  6
Continuous
 62
     7
370
    25
100
AcDbLine
 10
268.7142231947
 20
134.6175140164
 30
0.0
 11
268.7142231947
 21
133.6175140164
 31
0.0
  0
LINE
  5
C4
330
1F
100
AcDbEntity
  8
0
  6
Continuous
 62
     7
370
    25
100
AcDbLine
 10
270.2142231947
 20
136.1175140164
 30
0.0
 11
268.7142231947
 21
134.6175140164
 31
0.0
  0
LINE
  5
C5
330
1F
100
AcDbEntity
  8
0
  6
Continuous
 62
     7
370
    25
100
AcDbLine
 10
271.7142231947
 20
136.1175140164
 30
0.0
 11
270.2142231947
 21
136.1175140164
 31
0.0
  0
LINE
  5
C6
330
1F
100
AcDbEntity
  8
0
  6
Continuous
 62
     7
370
    25
100
AcDbLine
 10
272.2142231947
 20
123.1175140164
 30
0.0
 11
271.7142231947
 21
136.1175140164
 31
0.0
  0
LINE
  5
C7
330
1F
100
AcDbEntity
  8
0
  6
Continuous
 62
     7
370
    25
100
AcDbLine
 10
272.7142231947
 20
123.1175140164
 30
0.0
 11
272.2142231947
 21
123.1175140164
 31
0.0
  0
LINE
  5
C8
330
1F
100
AcDbEntity
  8
0
  6
Continuous
 62
     7
370
    25
100
AcDbLine
 10
272.7142231947
 20
136.1175140164
 30
0.0
 11
272.7142231947
 21
123.1175140164
 31
0.0
  0
LINE
  5
C9
330
1F
100
AcDbEntity
  8
0
  6
Continuous
 62
     7
370
    25
100
AcDbLine
 10
280.7142231947
 20
136.1175140164
 30
0.0
 11
272.7142231947
 21
136.1175140164
 31
0.0
  0
LINE
  5
CA
330
1F
100
AcDbEntity
  8
0
  6
Continuous
 62
     7
370
    25
100
AcDbLine
 10
280.7142231947
 20
123.1175140164
 30
0.0
 11
280.7142231947
 21
136.1175140164
 31
0.0
  0
LINE
  5
CB
330
1F
100
AcDbEntity
  8
0
  6
Continuous
 62
     7
370
    25
100
AcDbLine
 10
281.2142231947
 20
123.1175140164
 30
0.0
 11
280.7142231947
 21
123.1175140164
 31
0.0
  0
LINE
  5
CC
330
1F
100
AcDbEntity
  8
0
  6
Continuous
 62
     7
370
    25
100
AcDbLine
 10
281.7142231947
 20
136.1175140164
 30
0.0
 11
281.2142231947
 21
123.1175140164
 31
0.0
  0
LINE
  5
CD
330
1F
100
AcDbEntity
  8
0
  6
Continuous
 62
     7
370
    25
100
AcDbLine
 10
283.2142231947
 20
136.1175140164
 30
0.0
 11
281.7142231947
 21
136.1175140164
 31
0.0
  0
LINE
  5
CE
330
1F
100
AcDbEntity
  8
0
  6
Continuous
 62
     7
370
    25
100
AcDbLine
 10
284.7142231947
 20
134.6175140164
 30
0.0
 11
283.2142231947
 21
136.1175140164
 31
0.0
  0
LINE
  5
CF
330
1F
100
AcDbEntity
  8
0
  6
Continuous
 62
     7
370
    25
100
AcDbLine
 10
284.7142231947
 20
133.6175140164
 30
0.0
 11
284.7142231947
 21
134.6175140164
 31
0.0
  0
LINE
  5
D0
330
1F
100
AcDbEntity
  8
0
  6
Continuous
 62
     7
370
    25
100
AcDbLine
 10
284.2142231947
 20
133.1175140164
 30
0.0
 11
284.7142231947
 21
133.6175140164
 31
0.0
  0
LINE
  5
D1
330
1F
100
AcDbEntity
  8
0
  6
Continuous
 62
     7
370
    25
100
AcDbLine
 10
283.7142231947
 20
132.1175140164
 30
0.0
 11
284.2142231947
 21
133.1175140164
 31
0.0
  0
LINE
  5
D2
330
1F
100
AcDbEntity
  8
0
  6
Continuous
 62
     7
370
    25
100
AcDbLine
 10
283.7142231947
 20
123.1175140164
 30
0.0
 11
283.7142231947
 21
132.1175140164
 31
0.0
  0
LINE
  5
D3
330
1F
100
AcDbEntity
  8
0
  6
Continuous
 62
     7
370
    25
100
AcDbLine
 10
284.2142231947
 20
123.1175140164
 30
0.0
 11
283.7142231947
 21
123.1175140164
 31
0.0
  0
LINE
  5
D4
330
1F
100
AcDbEntity
  8
0
  6
Continuous
 62
     7
370
    25
100
AcDbLine
 10
284.7142231947
 20
130.1196851083
 30
0.0
 11
284.2142231947
 21
123.1175140164
 31
0.0
  0
LINE
  5
D5
330
1F
100
AcDbEntity
  8
0
  6
Continuous
 62
     7
370
    25
100
AcDbLine
 10
300.7142231947
 20
130.1196851083
 30
0.0
 11
284.7142231947
 21
130.1196851083
 31
0.0
  0
LINE
  5
D6
330
1F
100
AcDbEntity
  8
0
  6
Continuous
 62
     7
370
    25
100
AcDbLine
 10
300.7142231947
 20
114.1196851083
 30
0.0
 11
300.7142231947
 21
130.1196851083
 31
0.0
  0
LINE
  5
D7
330
1F
100
AcDbEntity
  8
0
  6
Continuous
 62
     7
370
    25
100
AcDbLine
 10
293.7120521029
 20
113.6196851083
 30
0.0
 11
300.7142231947
 21
114.1196851083
 31
0.0
  0
LINE
  5
D8
330
1F
100
AcDbEntity
  8
0
  6
Continuous
 62
     7
370
    25
100
AcDbLine
 10
293.7120521029
 20
113.1196851083
 30
0.0
 11
293.7120521029
 21
113.6196851083
 31
0.0
  0
LINE
  5
D9
330
1F
100
AcDbEntity
  8
0
  6
Continuous
 62
     7
370
    25
100
AcDbLine
 10
302.7120521029
 20
113.1196851083
 30
0.0
 11
293.7120521029
 21
113.1196851083
 31
0.0
  0
LINE
  5
DA
330
1F
100
AcDbEntity
  8
0
  6
Continuous
 62
     7
370
    25
100
AcDbLine
 10
303.7120521029
 20
113.6196851083
 30
0.0
 11
302.7120521029
 21
113.1196851083
 31
0.0
  0
LINE
  5
DB
330
1F
100
AcDbEntity
  8
0
  6
Continuous
 62
     7
370
    25
100
AcDbLine
 10
304.2120521029
 20
114.1196851083
 30
0.0
 11
303.7120521029
 21
113.6196851083
 31
0.0
  0
LINE
  5
DC
330
1F
100
AcDbEntity
  8
0
  6
Continuous
 62
     7
370
    25
100
AcDbLine
 10
305.2120521029
 20
114.1196851083
 30
0.0
 11
304.2120521029
 21
114.1196851083
 31
0.0
  0
LINE
  5
DD
330
1F
100
AcDbEntity
  8
0
  6
Continuous
 62
     7
370
    25
100
AcDbLine
 10
306.7120521029
 20
112.6196851083
 30
0.0
 11
305.2120521029
 21
114.1196851083
 31
0.0
  0
LINE
  5
DE
330
1F
100
AcDbEntity
  8
0
  6
Continuous
 62
     7
370
    25
100
AcDbLine
 10
306.7120521029
 20
111.1196851083
 30
0.0
 11
306.7120521029
 21
112.6196851083
 31
0.0
  0
LINE
  5
DF
330
1F
100
AcDbEntity
  8
0
  6
Continuous
 62
     7
370
    25
100
AcDbLine
 10
293.7120521029
 20
110.6196851083
 30
0.0
 11
306.7120521029
 21
111.1196851083
 31
0.0
  0
LINE
  5
E0
330
1F
100
AcDbEntity
  8
0
  6
Continuous
 62
     7
370
    25
100
AcDbLine
 10
293.7120521029
 20
110.1196851083
 30
0.0
 11
293.7120521029
 21
110.6196851083
 31
0.0
  0
LINE
  5
E1
330
1F
100
AcDbEntity
  8
0
  6
Continuous
 62
     7
370
    25
100
AcDbLine
 10
306.7120521029
 20
110.1196851083
 30
0.0
 11
293.7120521029
 21
110.1196851083
 31
0.0
  0
LINE
  5
E2
330
1F
100
AcDbEntity
  8
0
  6
Continuous
 62
     7
370
    25
100
AcDbLine
 10
306.7120521029
 20
102.1196851083
 30
0.0
 11
306.7120521029
 21
110.1196851083
 31
0.0
  0
LINE
  5
E3
330
1F
100
AcDbEntity
  8
0
  6
Continuous
 62
     7
370
    25
100
AcDbLine
 10
293.7120521029
 20
102.1196851083
 30
0.0
 11
306.7120521029
 21
102.1196851083
 31
0.0
  0
LINE
  5
E4
330
1F
100
AcDbEntity
  8
0
  6
Continuous
 62
     7
370
    25
100
AcDbLine
 10
293.7120521029
 20
101.6196851083
 30
0.0
 11
293.7120521029
 21
102.1196851083
 31
0.0
  0
LINE
  5
E5
330
1F
100
AcDbEntity
  8
0
  6
Continuous
 62
     7
370
    25
100
AcDbLine
 10
306.7120521029
 20
101.1196851083
 30
0.0
 11
293.7120521029
 21
101.6196851083
 31
0.0
  0
LINE
  5
E6
330
1F
100
AcDbEntity
  8
0
  6
Continuous
 62
     7
370
    25
100
AcDbLine
 10
306.7120521029
 20
99.6196851083
 30
0.0
 11
306.7120521029
 21
101.1196851083
 31
0.0
  0
LINE
  5
E7
330
1F
100
AcDbEntity
  8
0
  6
Continuous
 62
     7
370
    25
100
AcDbLine
 10
305.2120521029
 20
98.1196851083
 30
0.0
 11
306.7120521029
 21
99.6196851083
 31
0.0
  0
LINE
  5
E8
330
1F
100
AcDbEntity
  8
0
  6
Continuous
 62
     7
370
    25
100
AcDbLine
 10
304.2120521029
 20
98.1196851083
 30
0.0
 11
305.2120521029
 21
98.1196851083
 31
0.0
  0
LINE
  5
E9
330
1F
100
AcDbEntity
  8
0
  6
Continuous
 62
     7
370
    25
100
AcDbLine
 10
303.7120521029
 20
98.6196851083
 30
0.0
 11
304.2120521029
 21
98.1196851083
 31
0.0
  0
LINE
  5
EA
330
1F
100
AcDbEntity
  8
0
  6
Continuous
 62
     7
370
    25
100
AcDbLine
 10
302.7120521029
 20
99.1196851083
 30
0.0
 11
303.7120521029
 21
98.6196851083
 31
0.0
  0
LINE
  5
EB
330
1F
100
AcDbEntity
  8
0
  6
Continuous
 62
     7
370
    25
100
AcDbLine
 10
293.7120521029
 20
99.1196851083
 30
0.0
 11
302.7120521029
 21
99.1196851083
 31
0.0
  0
LINE
  5
EC
330
1F
100
AcDbEntity
  8
0
  6
Continuous
 62
     7
370
    25
100
AcDbLine
 10
293.7120521029
 20
98.6196851083
 30
0.0
 11
293.7120521029
 21
99.1196851083
 31
0.0
  0
LINE
  5
ED
330
1F
100
AcDbEntity
  8
0
  6
Continuous
 62
     7
370
    25
100
AcDbLine
 10
300.7142231947
 20
98.1196851083
 30
0.0
 11
293.7120521029
 21
98.6196851083
 31
0.0
  0
LINE
  5
EE
330
1F
100
AcDbEntity
  8
0
  6
Continuous
 62
     7
370
    25
100
AcDbLine
 10
300.7142231947
 20
62.1196851083
 30
0.0
 11
300.7142231947
 21
98.1196851083
 31
0.0
  0
LINE
  5
EF
330
1F
100
AcDbEntity
  8
0
  6
Continuous
 62
     7
370
    25
100
AcDbLine
 10
293.7120521029
 20
61.6196851083
 30
0.0
 11
300.7142231947
 21
62.1196851083
 31
0.0
  0
LINE
  5
F0
330
1F
100
AcDbEntity
  8
0
  6
Continuous
 62
     7
370
    25
100
AcDbLine
 10
293.7120521029
 20
61.1196851083
 30
0.0
 11
293.7120521029
 21
61.6196851083
 31
0.0
  0
LINE
  5
F1
330
1F
100
AcDbEntity
  8
0
  6
Continuous
 62
     7
370
    25
100
AcDbLine
 10
302.7120521029
 20
61.1196851083
 30
0.0
 11
293.7120521029
 21
61.1196851083
 31
0.0
  0
LINE
  5
F2
330
1F
100
AcDbEntity
  8
0
  6
Continuous
 62
     7
370
    25
100
AcDbLine
 10
303.7120521029
 20
61.6196851083
 30
0.0
 11
302.7120521029
 21
61.1196851083
 31
0.0
  0
LINE
  5
F3
330
1F
100
AcDbEntity
  8
0
  6
Continuous
 62
     7
370
    25
100
AcDbLine
 10
304.2120521029
 20
62.1196851083
 30
0.0
 11
303.7120521029
 21
61.6196851083
 31
0.0
  0
LINE
  5
F4
330
1F
100
AcDbEntity
  8
0
  6
Continuous
 62
     7
370
    25
100
AcDbLine
 10
305.2120521029
 20
62.1196851083
 30
0.0
 11
304.2120521029
 21
62.1196851083
 31
0.0
  0
LINE
  5
F5
330
1F
100
AcDbEntity
  8
0
  6
Continuous
 62
     7
370
    25
100
AcDbLine
 10
306.7120521029
 20
60.6196851083
 30
0.0
 11
305.2120521029
 21
62.1196851083
 31
0.0
  0
LINE
  5
F6
330
1F
100
AcDbEntity
  8
0
  6
Continuous
 62
     7
370
    25
100
AcDbLine
 10
306.7120521029
 20
59.1196851083
 30
0.0
 11
306.7120521029
 21
60.6196851083
 31
0.0
  0
LINE
  5
F7
330
1F
100
AcDbEntity
  8
0
  6
Continuous
 62
     7
370
    25
100
AcDbLine
 10
293.7120521029
 20
58.6196851083
 30
0.0
 11
306.7120521029
 21
59.1196851083
 31
0.0
  0
LINE
  5
F8
330
1F
100
AcDbEntity
  8
0
  6
Continuous
 62
     7
370
    25
100
AcDbLine
 10
293.7120521029
 20
58.1196851083
 30
0.0
 11
293.7120521029
 21
58.6196851083
 31
0.0
  0
LINE
  5
F9
330
1F
100
AcDbEntity
  8
0
  6
Continuous
 62
     7
370
    25
100
AcDbLine
 10
306.7120521029
 20
58.1196851083
 30
0.0
 11
293.7120521029
 21
58.1196851083
 31
0.0
  0
LINE
  5
FA
330
1F
100
AcDbEntity
  8
0
  6
Continuous
 62
     7
370
    25
100
AcDbLine
 10
306.7120521029
 20
50.1196851083
 30
0.0
 11
306.7120521029
 21
58.1196851083
 31
0.0
  0
LINE
  5
FB
330
1F
100
AcDbEntity
  8
0
  6
Continuous
 62
     7
370
    25
100
AcDbLine
 10
293.7120521029
 20
50.1196851083
 30
0.0
 11
306.7120521029
 21
50.1196851083
 31
0.0
  0
LINE
  5
FC
330
1F
100
AcDbEntity
  8
0
  6
Continuous
 62
     7
370
    25
100
AcDbLine
 10
293.7120521029
 20
49.6196851083
 30
0.0
 11
293.7120521029
 21
50.1196851083
 31
0.0
  0
LINE
  5
FD
330
1F
100
AcDbEntity
  8
0
  6
Continuous
 62
     7
370
    25
100
AcDbLine
 10
306.7120521029
 20
49.1196851083
 30
0.0
 11
293.7120521029
 21
49.6196851083
 31
0.0
  0
LINE
  5
FE
330
1F
100
AcDbEntity
  8
0
  6
Continuous
 62
     7
370
    25
100
AcDbLine
 10
306.7120521029
 20
47.6196851083
 30
0.0
 11
306.7120521029
 21
49.1196851083
 31
0.0
  0
LINE
  5
FF
330
1F
100
AcDbEntity
  8
0
  6
Continuous
 62
     7
370
    25
100
AcDbLine
 10
305.2120521029
 20
46.1196851083
 30
0.0
 11
306.7120521029
 21
47.6196851083
 31
0.0
  0
LINE
  5
100
330
1F
100
AcDbEntity
  8
0
  6
Continuous
 62
     7
370
    25
100
AcDbLine
 10
304.2120521029
 20
46.1196851083
 30
0.0
 11
305.2120521029
 21
46.1196851083
 31
0.0
  0
LINE
  5
101
330
1F
100
AcDbEntity
  8
0
  6
Continuous
 62
     7
370
    25
100
AcDbLine
 10
303.7120521029
 20
46.6196851083
 30
0.0
 11
304.2120521029
 21
46.1196851083
 31
0.0
  0
LINE
  5
102
330
1F
100
AcDbEntity
  8
0
  6
Continuous
 62
     7
370
    25
100
AcDbLine
 10
302.7120521029
 20
47.1196851083
 30
0.0
 11
303.7120521029
 21
46.6196851083
 31
0.0
  0
LINE
  5
103
330
1F
100
AcDbEntity
  8
0
  6
Continuous
 62
     7
370
    25
100
AcDbLine
 10
293.7120521029
 20
47.1196851083
 30
0.0
 11
302.7120521029
 21
47.1196851083
 31
0.0
  0
LINE
  5
104
330
1F
100
AcDbEntity
  8
0
  6
Continuous
 62
     7
370
    25
100
AcDbLine
 10
293.7120521029
 20
46.6196851083
 30
0.0
 11
293.7120521029
 21
47.1196851083
 31
0.0
  0
LINE
  5
105
330
1F
100
AcDbEntity
  8
0
  6
Continuous
 62
     7
370
    25
100
AcDbLine
 10
300.7142231947
 20
46.1196851083
 30
0.0
 11
293.7120521029
 21
46.6196851083
 31
0.0
  0
LINE
  5
106
330
1F
100
AcDbEntity
  8
0
  6
Continuous
 62
     7
370
    25
100
AcDbLine
 10
300.7142231947
 20
24.1196851083
 30
0.0
 11
300.7142231947
 21
46.1196851083
 31
0.0
  0
LINE
  5
107
330
1F
100
AcDbEntity
  8
0
  6
Continuous
 62
     7
370
    25
100
AcDbLine
 10
20.7142231947
 20
24.1196851083
 30
0.0
 11
300.7142231947
 21
24.1196851083
 31
0.0
  0
LINE
  5
108
330
1F
100
AcDbEntity
  8
0
  6
Continuous
 62
     7
370
    25
100
AcDbLine
 10
20.7142231947
 20
46.1196851083
 30
0.0
 11
20.7142231947
 21
24.1196851083
 31
0.0
  0
LINE
  5
109
330
1F
100
AcDbEntity
  8
0
  6
Continuous
 62
     7
370
    25
100
AcDbLine
 10
27.7163942866
 20
46.6196851083
 30
0.0
 11
20.7142231947
 21
46.1196851083
 31
0.0
  0
LINE
  5
10A
330
1F
100
AcDbEntity
  8
0
  6
Continuous
 62
     7
370
    25
100
AcDbLine
 10
27.7163942866
 20
47.1196851083
 30
0.0
 11
27.7163942866
 21
46.6196851083
 31
0.0
  0
LINE
  5
10B
330
1F
100
AcDbEntity
  8
0
  6
Continuous
 62
     7
370
    25
100
AcDbLine
 10
18.7163942866
 20
47.1196851083
 30
0.0
 11
27.7163942866
 21
47.1196851083
 31
0.0
  0
LINE
  5
10C
330
1F
100
AcDbEntity
  8
0
  6
Continuous
 62
     7
370
    25
100
AcDbLine
 10
17.7163942866
 20
46.6196851083
 30
0.0
 11
18.7163942866
 21
47.1196851083
 31
0.0
  0
LINE
  5
10D
330
1F
100
AcDbEntity
  8
0
  6
Continuous
 62
     7
370
    25
100
AcDbLine
 10
17.2163942866
 20
46.1196851083
 30
0.0
 11
17.7163942866
 21
46.6196851083
 31
0.0
  0
LINE
  5
10E
330
1F
100
AcDbEntity
  8
0
  6
Continuous
 62
     7
370
    25
100
AcDbLine
 10
16.2163942866
 20
46.1196851083
 30
0.0
 11
17.2163942866
 21
46.1196851083
 31
0.0
  0
LINE
  5
10F
330
1F
100
AcDbEntity
  8
0
  6
Continuous
 62
     7
370
    25
100
AcDbLine
 10
14.7163942866
 20
47.6196851083
 30
0.0
 11
16.2163942866
 21
46.1196851083
 31
0.0
  0
LINE
  5
110
330
1F
100
AcDbEntity
  8
0
  6
Continuous
 62
     7
370
    25
100
AcDbLine
 10
14.7163942866
 20
49.1196851083
 30
0.0
 11
14.7163942866
 21
47.6196851083
 31
0.0
  0
LINE
  5
111
330
1F
100
AcDbEntity
  8
0
  6
Continuous
 62
     7
370
    25
100
AcDbLine
 10
27.7163942866
 20
49.6196851083
 30
0.0
 11
14.7163942866
 21
49.1196851083
 31
0.0
  0
LINE
  5
112
330
1F
100
AcDbEntity
  8
0
  6
Continuous
 62
     7
370
    25
100
AcDbLine
 10
27.7163942866
 20
50.1196851083
 30
0.0
 11
27.7163942866
 21
49.6196851083
 31
0.0
  0
LINE
  5
113
330
1F
100
AcDbEntity
  8
0
  6
Continuous
 62
     7
370
    25
100
AcDbLine
 10
14.7163942866
 20
50.1196851083
 30
0.0
 11
27.7163942866
 21
50.1196851083
 31
0.0
  0
LINE
  5
114
330
1F
100
AcDbEntity
  8
0
  6
Continuous
 62
     7
370
    25
100
AcDbLine
 10
14.7163942866
 20
58.1196851083
 30
0.0
 11
14.7163942866
 21
50.1196851083
 31
0.0
  0
LINE
  5
115
330
1F
100
AcDbEntity
  8
0
  6
Continuous
 62
     7
370
    25
100
AcDbLine
 10
27.7163942866
 20
58.1196851083
 30
0.0
 11
14.7163942866
 21
58.1196851083
 31
0.0
  0
LINE
  5
116
330
1F
100
AcDbEntity
  8
0
  6
Continuous
 62
     7
370
    25
100
AcDbLine
 10
27.7163942866
 20
58.6196851083
 30
0.0
 11
27.7163942866
 21
58.1196851083
 31
0.0
  0
LINE
  5
117
330
1F
100
AcDbEntity
  8
0
  6
Continuous
 62
     7
370
    25
100
AcDbLine
 10
14.7163942866
 20
59.1196851083
 30
0.0
 11
27.7163942866
 21
58.6196851083
 31
0.0
  0
LINE
  5
118
330
1F
100
AcDbEntity
  8
0
  6
Continuous
 62
     7
370
    25
100
AcDbLine
 10
14.7163942866
 20
60.6196851083
 30
0.0
 11
14.7163942866
 21
59.1196851083
 31
0.0
  0
LINE
  5
119
330
1F
100
AcDbEntity
  8
0
  6
Continuous
 62
     7
370
    25
100
AcDbLine
 10
16.2163942866
 20
62.1196851083
 30
0.0
 11
14.7163942866
 21
60.6196851083
 31
0.0
  0
LINE
  5
11A
330
1F
100
AcDbEntity
  8
0
  6
Continuous
 62
     7
370
    25
100
AcDbLine
 10
17.2163942866
 20
62.1196851083
 30
0.0
 11
16.2163942866
 21
62.1196851083
 31
0.0
  0
LINE
  5
11B
330
1F
100
AcDbEntity
  8
0
  6
Continuous
 62
     7
370
    25
100
AcDbLine
 10
17.7163942866
 20
61.6196851083
 30
0.0
 11
17.2163942866
 21
62.1196851083
 31
0.0
  0
LINE
  5
11C
330
1F
100
AcDbEntity
  8
0
  6
Continuous
 62
     7
370
    25
100
AcDbLine
 10
18.7163942866
 20
61.1196851083
 30
0.0
 11
17.7163942866
 21
61.6196851083
 31
0.0
  0
LINE
  5
11D
330
1F
100
AcDbEntity
  8
0
  6
Continuous
 62
     7
370
    25
100
AcDbLine
 10
27.7163942866
 20
61.1196851083
 30
0.0
 11
18.7163942866
 21
61.1196851083
 31
0.0
  0
LINE
  5
11E
330
1F
100
AcDbEntity
  8
0
  6
Continuous
 62
     7
370
    25
100
AcDbLine
 10
27.7163942866
 20
61.6196851083
 30
0.0
 11
27.7163942866
 21
61.1196851083
 31
0.0
  0
LINE
  5
11F
330
1F
100
AcDbEntity
  8
0
  6
Continuous
 62
     7
370
    25
100
AcDbLine
 10
20.7142231947
 20
62.1196851083
 30
0.0
 11
27.7163942866
 21
61.6196851083
 31
0.0
  0
LINE
  5
120
330
1F
100
AcDbEntity
  8
0
  6
Continuous
 62
     7
370
    25
100
AcDbLine
 10
20.7142231947
 20
98.1196851083
 30
0.0
 11
20.7142231947
 21
62.1196851083
 31
0.0
  0
LINE
  5
121
330
1F
100
AcDbEntity
  8
0
  6
Continuous
 62
     7
370
    25
100
AcDbLine
 10
27.7163942866
 20
98.6196851083
 30
0.0
 11
20.7142231947
 21
98.1196851083
 31
0.0
  0
LINE
  5
122
330
1F
100
AcDbEntity
  8
0
  6
Continuous
 62
     7
370
    25
100
AcDbLine
 10
27.7163942866
 20
99.1196851083
 30
0.0
 11
27.7163942866
 21
98.6196851083
 31
0.0
  0
LINE
  5
123
330
1F
100
AcDbEntity
  8
0
  6
Continuous
 62
     7
370
    25
100
AcDbLine
 10
18.7163942866
 20
99.1196851083
 30
0.0
 11
27.7163942866
 21
99.1196851083
 31
0.0
  0
LINE
  5
124
330
1F
100
AcDbEntity
  8
0
  6
Continuous
 62
     7
370
    25
100
AcDbLine
 10
17.7163942866
 20
98.6196851083
 30
0.0
 11
18.7163942866
 21
99.1196851083
 31
0.0
  0
LINE
  5
125
330
1F
100
AcDbEntity
  8
0
  6
Continuous
 62
     7
370
    25
100
AcDbLine
 10
17.2163942866
 20
98.1196851083
 30
0.0
 11
17.7163942866
 21
98.6196851083
 31
0.0
  0
LINE
  5
126
330
1F
100
AcDbEntity
  8
0
  6
Continuous
 62
     7
370
    25
100
AcDbLine
 10
16.2163942866
 20
98.1196851083
 30
0.0
 11
17.2163942866
 21
98.1196851083
 31
0.0
  0
LINE
  5
127
330
1F
100
AcDbEntity
  8
0
  6
Continuous
 62
     7
370
    25
100
AcDbLine
 10
14.7163942866
 20
99.6196851083
 30
0.0
 11
16.2163942866
 21
98.1196851083
 31
0.0
  0
LINE
  5
128
330
1F
100
AcDbEntity
  8
0
  6
Continuous
 62
     7
370
    25
100
AcDbLine
 10
14.7163942866
 20
101.1196851083
 30
0.0
 11
14.7163942866
 21
99.6196851083
 31
0.0
  0
LINE
  5
129
330
1F
100
AcDbEntity
  8
0
  6
Continuous
 62
     7
370
    25
100
AcDbLine
 10
27.7163942866
 20
101.6196851083
 30
0.0
 11
14.7163942866
 21
101.1196851083
 31
0.0
  0
LINE
  5
12A
330
1F
100
AcDbEntity
  8
0
  6
Continuous
 62
     7
370
    25
100
AcDbLine
 10
27.7163942866
 20
102.1196851083
 30
0.0
 11
27.7163942866
 21
101.6196851083
 31
0.0
  0
LINE
  5
12B
330
1F
100
AcDbEntity
  8
0
  6
Continuous
 62
     7
370
    25
100
AcDbLine
 10
14.7163942866
 20
102.1196851083
 30
0.0
 11
27.7163942866
 21
102.1196851083
 31
0.0
  0
LINE
  5
12C
330
1F
100
AcDbEntity
  8
0
  6
Continuous
 62
     7
370
    25
100
AcDbLine
 10
14.7163942866
 20
110.1196851083
 30
0.0
 11
14.7163942866
 21
102.1196851083
 31
0.0
  0
LINE
  5
12D
330
1F
100
AcDbEntity
  8
0
  6
Continuous
 62
     7
370
    25
100
AcDbLine
 10
27.7163942866
 20
110.1196851083
 30
0.0
 11
14.7163942866
 21
110.1196851083
 31
0.0
  0
LINE
  5
12E
330
1F
100
AcDbEntity
  8
0
  6
Continuous
 62
     7
370
    25
100
AcDbLine
 10
27.7163942866
 20
110.6196851083
 30
0.0
 11
27.7163942866
 21
110.1196851083
 31
0.0
  0
LINE
  5
12F
330
1F
100
AcDbEntity
  8
0
  6
Continuous
 62
     7
370
    25
100
AcDbLine
 10
14.7163942866
 20
111.1196851083
 30
0.0
 11
27.7163942866
 21
110.6196851083
 31
0.0
  0
LINE
  5
130
330
1F
100
AcDbEntity
  8
0
  6
Continuous
 62
     7
370
    25
100
AcDbLine
 10
14.7163942866
 20
112.6196851083
 30
0.0
 11
14.7163942866
 21
111.1196851083
 31
0.0
  0
LINE
  5
131
330
1F
100
AcDbEntity
  8
0
  6
Continuous
 62
     7
370
    25
100
AcDbLine
 10
16.2163942866
 20
114.1196851083
 30
0.0
 11
14.7163942866
 21
112.6196851083
 31
0.0
  0
LINE
  5
132
330
1F
100
AcDbEntity
  8
0
  6
Continuous
 62
     7
370
    25
100
AcDbLine
 10
17.2163942866
 20
114.1196851083
 30
0.0
 11
16.2163942866
 21
114.1196851083
 31
0.0
  0
LINE
  5
133
330
1F
100
AcDbEntity
  8
0
  6
Continuous
 62
     7
370
    25
100
AcDbLine
 10
17.7163942866
 20
113.6196851083
 30
0.0
 11
17.2163942866
 21
114.1196851083
 31
0.0
  0
LINE
  5
134
330
1F
100
AcDbEntity
  8
0
  6
Continuous
 62
     7
370
    25
100
AcDbLine
 10
18.7163942866
 20
113.1196851083
 30
0.0
 11
17.7163942866
 21
113.6196851083
 31
0.0
  0
LINE
  5
135
330
1F
100
AcDbEntity
  8
0
  6
Continuous
 62
     7
370
    25
100
AcDbLine
 10
27.7163942866
 20
113.1196851083
 30
0.0
 11
18.7163942866
 21
113.1196851083
 31
0.0
  0
LINE
  5
136
330
1F
100
AcDbEntity
  8
0
  6
Continuous
 62
     7
370
    25
100
AcDbLine
 10
27.7163942866
 20
113.6196851083
 30
0.0
 11
27.7163942866
 21
113.1196851083
 31
0.0
  0
LINE
  5
137
330
1F
100
AcDbEntity
  8
0
  6
Continuous
 62
     7
370
    25
100
AcDbLine
 10
20.7142231947
 20
114.1196851083
 30
0.0
 11
27.7163942866
 21
113.6196851083
 31
0.0
  0
ENDSEC
  0
SECTION
  2
OBJECTS
  0
DICTIONARY
  5
C
330
0
100
AcDbDictionary
281
     1
  3
ACAD_GROUP
350
D
  3
ACAD_LAYOUT
350
1A
  3
ACAD_MLINESTYLE
350
17
  3
ACAD_PLOTSETTINGS
350
19
  3
ACAD_PLOTSTYLENAME
350
E
  3
ACAD_SCALELIST
350
47
  0
DICTIONARY
  5
D
102
{ACAD_REACTORS
330
C
102
}
330
C
100
AcDbDictionary
281
     1
  0
DICTIONARY
  5
1A
102
{ACAD_REACTORS
330
C
102
}
330
C
100
AcDbDictionary
281
     1
  3
Layout1
350
1E
  3
Layout2
350
26
  3
Model
350
22
  0
DICTIONARY
  5
17
102
{ACAD_REACTORS
330
C
102
}
330
C
100
AcDbDictionary
281
     1
  3
Standard
350
18
  0
DICTIONARY
  5
19
102
{ACAD_REACTORS
330
C
102
}
330
C
100
AcDbDictionary
281
     1
  0
ACDBDICTIONARYWDFLT
  5
E
102
{ACAD_REACTORS
330
C
102
}
330
C
100
AcDbDictionary
281
     1
  3
Normal
350
F
100
AcDbDictionaryWithDefault
340
F
  0
DICTIONARY
  5
47
102
{ACAD_REACTORS
330
C
102
}
330
C
100
AcDbDictionary
281
     1
  3
A0
350
48
  3
A1
350
49
  3
A2
350
4A
  3
A3
350
4B
  3
A4
350
4C
  3
A5
350
4D
  3
A6
350
4E
  3
A7
350
4F
  3
A8
350
50
  3
A9
350
51
  3
B0
350
52
  3
B1
350
53
  3
B2
350
54
  3
B3
350
55
  3
B4
350
56
  3
B5
350
57
  3
B6
350
58
  3
B7
350
59
  3
B8
350
5A
  3
B9
350
5B
  3
C0
350
5C
  3
C1
350
5D
  3
C2
350
5E
  3
C3
350
5F
  3
C4
350
60
  3
C5
350
61
  3
C6
350
62
  3
C7
350
63
  3
C8
350
64
  3
C9
350
65
  3
D0
350
66
  3
D1
350
67
  3
D2
350
68
  0
LAYOUT
  5
1E
102
{ACAD_REACTORS
330
1A
102
}
330
1A
100
AcDbPlotSettings
  1

  2
none_device
  4

  6

 40
0.0
 41
0.0
 42
0.0
 43
0.0
 44
0.0
 45
0.0
 46
0.0
 47
0.0
 48
0.0
 49
0.0
140
0.0
141
0.0
142
1.0
143
1.0
 70
   688
 72
     1
 73
     0
 74
     5
  7

 75
    16
147
1.0
148
0.0
149
0.0
100
AcDbLayout
  1
Layout1
 70
     1
 71
     1
 10
0.0
 20
0.0
 11
420.0
 21
297.0
 12
0.0
 22
0.0
 32
0.0
 14
1.0000000000E+20
 24
1.0000000000E+20
 34
1.0000000000E+20
 15
-1.0000000000E+20
 25
-1.0000000000E+20
 35
-1.0000000000E+20
146
0.0
 13
0.0
 23
0.0
 33
0.0
 16
1.0
 26
0.0
 36
0.0
 17
0.0
 27
1.0
 37
0.0
 76
     0
330
1B
  0
LAYOUT
  5
26
102
{ACAD_REACTORS
330
1A
102
}
330
1A
100
AcDbPlotSettings
  1

  2
none_device
  4

  6

 40
0.0
 41
0.0
 42
0.0
 43
0.0
 44
0.0
 45
0.0
 46
0.0
 47
0.0
 48
0.0
 49
0.0
140
0.0
141
0.0
142
1.0
143
1.0
 70
   688
 72
     1
 73
     0
 74
     5
  7

 75
    16
147
1.0
148
0.0
149
0.0
100
AcDbLayout
  1
Layout2
 70
     1
 71
     2
 10
0.0
 20
0.0
 11
0.0
 21
0.0
 12
0.0
 22
0.0
 32
0.0
 14
0.0
 24
0.0
 34
0.0
 15
0.0
 25
0.0
 35
0.0
146
0.0
 13
0.0
 23
0.0
 33
0.0
 16
1.0
 26
0.0
 36
0.0
 17
0.0
 27
1.0
 37
0.0
 76
     0
330
23
  0
LAYOUT
  5
22
102
{ACAD_REACTORS
330
1A
102
}
330
1A
100
AcDbPlotSettings
  1

  2
none_device
  4
Letter_(8.50_x_11.00_Inches)
  6

 40
6.35
 41
6.35
 42
6.35000508
 43
6.35000508
 44
215.9
 45
279.4
 46
0.0
 47
0.0
 48
0.0
 49
0.0
140
0.0
141
0.0
142
1.0
143
1.0
 70
  1712
 72
     1
 73
     0
 74
     0
  7

 75
     0
147
1.0
148
0.0
149
0.0
100
AcDbLayout
  1
Model
 70
     1
 71
     0
 10
0.0
 20
0.0
 11
320.0
 21
150.0
 12
0.0
 22
0.0
 32
0.0
 14
0.0
 24
0.0
 34
0.0
 15
320.0
 25
150.0
 35
0.0
146
0.0
 13
0.0
 23
0.0
 33
0.0
 16
1.0
 26
0.0
 36
0.0
 17
0.0
 27
1.0
 37
0.0
 76
     0
330
1F
331
29
  0
MLINESTYLE
  5
18
102
{ACAD_REACTORS
330
17
102
}
330
17
100
AcDbMlineStyle
  2
Standard
 70
     0
  3

 62
   256
 51
90.0
 52
90.0
 71
     2
 49
0.5
 62
   256
  6
BYLAYER
 49
-0.5
 62
   256
  6
BYLAYER
  0
ACDBPLACEHOLDER
  5
F
102
{ACAD_REACTORS
330
E
102
}
330
E
  0
SCALE
  5
48
102
{ACAD_REACTORS
330
47
102
}
330
47
100
AcDbScale
 70
     0
300
1:1
140
1.0
141
1.0
290
     1
  0
SCALE
  5
49
102
{ACAD_REACTORS
330
47
102
}
330
47
100
AcDbScale
 70
     0
300
1:2
140
1.0
141
2.0
290
     0
  0
SCALE
  5
4A
102
{ACAD_REACTORS
330
47
102
}
330
47
100
AcDbScale
 70
     0
300
1:4
140
1.0
141
4.0
290
     0
  0
SCALE
  5
4B
102
{ACAD_REACTORS
330
47
102
}
330
47
100
AcDbScale
 70
     0
300
1:5
140
1.0
141
5.0
290
     0
  0
SCALE
  5
4C
102
{ACAD_REACTORS
330
47
102
}
330
47
100
AcDbScale
 70
     0
300
1:8
140
1.0
141
8.0
290
     0
  0
SCALE
  5
4D
102
{ACAD_REACTORS
330
47
102
}
330
47
100
AcDbScale
 70
     0
300
1:10
140
1.0
141
10.0
290
     0
  0
SCALE
  5
4E
102
{ACAD_REACTORS
330
47
102
}
330
47
100
AcDbScale
 70
     0
300
1:16
140
1.0
141
16.0
290
     0
  0
SCALE
  5
4F
102
{ACAD_REACTORS
330
47
102
}
330
47
100
AcDbScale
 70
     0
300
1:20
140
1.0
141
20.0
290
     0
  0
SCALE
  5
50
102
{ACAD_REACTORS
330
47
102
}
330
47
100
AcDbScale
 70
     0
300
1:30
140
1.0
141
30.0
290
     0
  0
SCALE
  5
51
102
{ACAD_REACTORS
330
47
102
}
330
47
100
AcDbScale
 70
     0
300
1:40
140
1.0
141
40.0
290
     0
  0
SCALE
  5
52
102
{ACAD_REACTORS
330
47
102
}
330
47
100
AcDbScale
 70
     0
300
1:50
140
1.0
141
50.0
290
     0
  0
SCALE
  5
53
102
{ACAD_REACTORS
330
47
102
}
330
47
100
AcDbScale
 70
     0
300
1:100
140
1.0
141
100.0
290
     0
  0
SCALE
  5
54
102
{ACAD_REACTORS
330
47
102
}
330
47
100
AcDbScale
 70
     0
300
2:1
140
2.0
141
1.0
290
     0
  0
SCALE
  5
55
102
{ACAD_REACTORS
330
47
102
}
330
47
100
AcDbScale
 70
     0
300
4:1
140
4.0
141
1.0
290
     0
  0
SCALE
  5
56
102
{ACAD_REACTORS
330
47
102
}
330
47
100
AcDbScale
 70
     0
300
8:1
140
8.0
141
1.0
290
     0
  0
SCALE
  5
57
102
{ACAD_REACTORS
330
47
102
}
330
47
100
AcDbScale
 70
     0
300
10:1
140
10.0
141
1.0
290
     0
  0
SCALE
  5
58
102
{ACAD_REACTORS
330
47
102
}
330
47
100
AcDbScale
 70
     0
300
100:1
140
100.0
141
1.0
290
     0
  0
SCALE
  5
59
102
{ACAD_REACTORS
330
47
102
}
330
47
100
AcDbScale
 70
     0
300
1/128" = 1'-0"
140
0.0078125
141
12.0
290
     0
  0
SCALE
  5
5A
102
{ACAD_REACTORS
330
47
102
}
330
47
100
AcDbScale
 70
     0
300
1/64" = 1'-0"
140
0.015625
141
12.0
290
     0
  0
SCALE
  5
5B
102
{ACAD_REACTORS
330
47
102
}
330
47
100
AcDbScale
 70
     0
300
1/32" = 1'-0"
140
0.03125
141
12.0
290
     0
  0
SCALE
  5
5C
102
{ACAD_REACTORS
330
47
102
}
330
47
100
AcDbScale
 70
     0
300
1/16" = 1'-0"
140
0.0625
141
12.0
290
     0
  0
SCALE
  5
5D
102
{ACAD_REACTORS
330
47
102
}
330
47
100
AcDbScale
 70
     0
300
3/32" = 1'-0"
140
0.09375
141
12.0
290
     0
  0
SCALE
  5
5E
102
{ACAD_REACTORS
330
47
102
}
330
47
100
AcDbScale
 70
     0
300
1/8" = 1'-0"
140
0.125
141
12.0
290
     0
  0
SCALE
  5
5F
102
{ACAD_REACTORS
330
47
102
}
330
47
100
AcDbScale
 70
     0
300
3/16" = 1'-0"
140
0.1875
141
12.0
290
     0
  0
SCALE
  5
60
102
{ACAD_REACTORS
330
47
102
}
330
47
100
AcDbScale
 70
     0
300
1/4" = 1'-0"
140
0.25
141
12.0
290
     0
  0
SCALE
  5
61
102
{ACAD_REACTORS
330
47
102
}
330
47
100
AcDbScale
 70
     0
300
3/8" = 1'-0"
140
0.375
141
12.0
290
     0
  0
SCALE
  5
62
102
{ACAD_REACTORS
330
47
102
}
330
47
100
AcDbScale
 70
     0
300
1/2" = 1'-0"
140
0.5
141
12.0
290
     0
  0
SCALE
  5
63
102
{ACAD_REACTORS
330
47
102
}
330
47
100
AcDbScale
 70
     0
300
3/4" = 1'-0"
140
0.75
141
12.0
290
     0
  0
SCALE
  5
64
102
{ACAD_REACTORS
330
47
102
}
330
47
100
AcDbScale
 70
     0
300
1" = 1'-0"
140
1.0
141
12.0
290
     0
  0
SCALE
  5
65
102
{ACAD_REACTORS
330
47
102
}
330
47
100
AcDbScale
 70
     0
300
1-1/2" = 1'-0"
140
1.5
141
12.0
290
     0
  0
SCALE
  5
66
102
{ACAD_REACTORS
330
47
102
}
330
47
100
AcDbScale
 70
     0
300
3" = 1'-0"
140
3.0
141
12.0
290
     0
  0
SCALE
  5
67
102
{ACAD_REACTORS
330
47
102
}
330
47
100
AcDbScale
 70
     0
300
6" = 1'-0"
140
6.0
141
12.0
290
     0
  0
SCALE
  5
68
102
{ACAD_REACTORS
330
47
102
}
330
47
100
AcDbScale
 70
     0
300
1'-0" = 1'-0"
140
12.0
141
12.0
290
     0
  0
ENDSEC
  0
EOF
