  0
SECTION
  2
HEADER
  9
$ACADVER
  1
AC1015
  9
$ACADMAINTVER
 70
     6
  9
$DWGCODEPAGE
  3
ANSI_1252
  9
$INSBASE
 10
0.0
 20
0.0
 30
0.0
  9
$EXTMIN
 10
0.0
 20
0.0
 30
0.0
  9
$EXTMAX
 10
250.0
 20
100.0
 30
0.0
  9
$LIMMIN
 10
0.0
 20
0.0
  9
$LIMMAX
 10
250.0
 20
100.0
  9
$ORTHOMODE
 70
     0
  9
$REGENMODE
 70
     1
  9
$FILLMODE
 70
     1
  9
$QTEXTMODE
 70
     0
  9
$MIRRTEXT
 70
     1
  9
$LTSCALE
 40
1.0
  9
$ATTMODE
 70
     1
  9
$TEXTSIZE
 40
3.5
  9
$TRACEWID
 40
1.0
  9
$TEXTSTYLE
  7
Standard
  9
$CLAYER
  8
0
  9
$CELTYPE
  6
ByLayer
  9
$CECOLOR
 62
   256
  9
$CELTSCALE
 40
1.0
  9
$DISPSILH
 70
     0
  9
$DIMSCALE
 40
1.0
  9
$DIMASZ
 40
3.302
  9
$DIMEXO
 40
1.0
  9
$DIMDLI
 40
3.75
  9
$DIMRND
 40
0.0
  9
$DIMDLE
 40
0.0
  9
$DIMEXE
 40
1.0
  9
$DIMTP
 40
0.0
  9
$DIMTM
 40
0.0
  9
$DIMTXT
 40
3.5
  9
$DIMCEN
 40
2.5
  9
$DIMTSZ
 40
0.0
  9
$DIMTOL
 70
     0
  9
$DIMLIM
 70
     0
  9
$DIMTIH
 70
     1
  9
$DIMTOH
 70
     1
  9
$DIMSE1
 70
     0
  9
$DIMSE2
 70
     0
  9
$DIMTAD
 70
     1
  9
$DIMZIN
 70
     0
  9
$DIMBLK
  1

  9
$DIMASO
 70
     1
  9
$DIMSHO
 70
     1
  9
$DIMPOST
  1

  9
$DIMAPOST
  1

  9
$DIMALT
 70
     0
  9
$DIMALTD
 70
     3
  9
$DIMALTF
 40
0.0393700787
  9
$DIMLFAC
 40
2.0
  9
$DIMTOFL
 70
     1
  9
$DIMTVP
 40
0.0
  9
$DIMTIX
 70
     0
  9
$DIMSOXD
 70
     0
  9
$DIMSAH
 70
     0
  9
$DIMBLK1
  1

  9
$DIMBLK2
  1

  9
$DIMSTYLE
  2
ISO-25
  9
$DIMCLRD
 70
     0
  9
$DIMCLRE
 70
     0
  9
$DIMCLRT
 70
     0
  9
$DIMTFAC
 40
1.0
  9
$DIMGAP
 40
1.524
  9
$DIMJUST
 70
     0
  9
$DIMSD1
 70
     0
  9
$DIMSD2
 70
     0
  9
$DIMTOLJ
 70
     0
  9
$DIMTZIN
 70
     0
  9
$DIMALTZ
 70
     0
  9
$DIMALTTZ
 70
     0
  9
$DIMUPT
 70
     0
  9
$DIMDEC
 70
     2
  9
$DIMTDEC
 70
     2
  9
$DIMALTU
 70
     2
  9
$DIMALTTD
 70
     3
  9
$DIMTXSTY
  7
Standard
  9
$DIMAUNIT
 70
     0
  9
$DIMADEC
 70
     2
  9
$DIMALTRND
 40
0.0
  9
$DIMAZIN
 70
     0
  9
$DIMDSEP
 70
    44
  9
$DIMATFIT
 70
     3
  9
$DIMFRAC
 70
     0
  9
$DIMLDRBLK
  1

  9
$DIMLUNIT
 70
     2
  9
$DIMLWD
 70
    -2
  9
$DIMLWE
 70
    -2
  9
$DIMTMOVE
 70
     0
  9
$LUNITS
 70
     2
  9
$LUPREC
 70
     2
  9
$SKETCHINC
 40
1.0
  9
$FILLETRAD
 40
10.0
  9
$AUNITS
 70
     0
  9
$AUPREC
 70
     2
  9
$MENU
  1
.
  9
$ELEVATION
 40
0.0
  9
$PELEVATION
 40
0.0
  9
$THICKNESS
 40
0.0
  9
$LIMCHECK
 70
     0
  9
$CHAMFERA
 40
0.0
  9
$CHAMFERB
 40
0.0
  9
$CHAMFERC
 40
0.0
  9
$CHAMFERD
 40
0.0
  9
$SKPOLY
 70
     0
  9
$TDCREATE
 40
2457890.418889028
  9
$TDUCREATE
 40
2457890.335555695
  9
$TDUPDATE
 40
2457890.418889433
  9
$TDUUPDATE
 40
2457890.3355561
  9
$TDINDWG
 40
0.0000000116
  9
$TDUSRTIMER
 40
0.0000000116
  9
$USRTIMER
 70
     1
  9
$ANGBASE
 50
0.0
  9
$ANGDIR
 70
     0
  9
$PDMODE
 70
     0
  9
$PDSIZE
 40
-1.0
  9
$PLINEWID
 40
0.0
  9
$SPLFRAME
 70
     0
  9
$SPLINETYPE
 70
     6
  9
$SPLINESEGS
 70
     8
  9
$HANDSEED
  5
102
  9
$SURFTAB1
 70
     6
  9
$SURFTAB2
 70
     6
  9
$SURFTYPE
 70
     6
  9
$SURFU
 70
     6
  9
$SURFV
 70
     6
  9
$UCSBASE
  2

  9
$UCSNAME
  2

  9
$UCSORG
 10
0.0
 20
0.0
 30
0.0
  9
$UCSXDIR
 10
1.0
 20
0.0
 30
0.0
  9
$UCSYDIR
 10
0.0
 20
1.0
 30
0.0
  9
$UCSORTHOREF
  2

  9
$UCSORTHOVIEW
 70
     0
  9
$UCSORGTOP
 10
0.0
 20
0.0
 30
0.0
  9
$UCSORGBOTTOM
 10
0.0
 20
0.0
 30
0.0
  9
$UCSORGLEFT
 10
0.0
 20
0.0
 30
0.0
  9
$UCSORGRIGHT
 10
0.0
 20
0.0
 30
0.0
  9
$UCSORGFRONT
 10
0.0
 20
0.0
 30
0.0
  9
$UCSORGBACK
 10
0.0
 20
0.0
 30
0.0
  9
$PUCSBASE
  2

  9
$PUCSNAME
  2

  9
$PUCSORG
 10
0.0
 20
0.0
 30
0.0
  9
$PUCSXDIR
 10
1.0
 20
0.0
 30
0.0
  9
$PUCSYDIR
 10
0.0
 20
1.0
 30
0.0
  9
$PUCSORTHOREF
  2

  9
$PUCSORTHOVIEW
 70
     0
  9
$PUCSORGTOP
 10
0.0
 20
0.0
 30
0.0
  9
$PUCSORGBOTTOM
 10
0.0
 20
0.0
 30
0.0
  9
$PUCSORGLEFT
 10
0.0
 20
0.0
 30
0.0
  9
$PUCSORGRIGHT
 10
0.0
 20
0.0
 30
0.0
  9
$PUCSORGFRONT
 10
0.0
 20
0.0
 30
0.0
  9
$PUCSORGBACK
 10
0.0
 20
0.0
 30
0.0
  9
$USERI1
 70
     0
  9
$USERI2
 70
     0
  9
$USERI3
 70
     0
  9
$USERI4
 70
     0
  9
$USERI5
 70
     0
  9
$USERR1
 40
0.0
  9
$USERR2
 40
0.0
  9
$USERR3
 40
0.0
  9
$USERR4
 40
0.0
  9
$USERR5
 40
0.0
  9
$WORLDVIEW
 70
     1
  9
$SHADEDGE
 70
     3
  9
$SHADEDIF
 70
    70
  9
$TILEMODE
 70
     1
  9
$MAXACTVP
 70
    64
  9
$PINSBASE
 10
0.0
 20
0.0
 30
0.0
  9
$PLIMCHECK
 70
     0
  9
$PEXTMIN
 10
1.0000000000E+20
 20
1.0000000000E+20
 30
1.0000000000E+20
  9
$PEXTMAX
 10
-1.0000000000E+20
 20
-1.0000000000E+20
 30
-1.0000000000E+20
  9
$PLIMMIN
 10
0.0
 20
0.0
  9
$PLIMMAX
 10
420.0
 20
297.0
  9
$UNITMODE
 70
     0
  9
$VISRETAIN
 70
     1
  9
$PLINEGEN
 70
     0
  9
$PSLTSCALE
 70
     1
  9
$TREEDEPTH
 70
  3020
  9
$CMLSTYLE
  2
Standard
  9
$CMLJUST
 70
     0
  9
$CMLSCALE
 40
20.0
  9
$PROXYGRAPHICS
 70
     1
  9
$MEASUREMENT
 70
     1
  9
$CELWEIGHT
370
    -1
  9
$ENDCAPS
280
     0
  9
$JOINSTYLE
280
     0
  9
$LWDISPLAY
290
     1
  9
$INSUNITS
 70
     4
  9
$HYPERLINKBASE
  1

  9
$STYLESHEET
  1

  9
$XEDIT
290
     1
  9
$CEPSNTYPE
380
     0
  9
$PSTYLEMODE
290
     1
  9
$FINGERPRINTGUID
  2
{375EACBD-DB8F-4713-B9C0-06EE3A33FA3E}
  9
$VERSIONGUID
  2
{FAEB1C32-E019-11D5-929B-00C0DF256EC4}
  9
$EXTNAMES
290
     1
  9
$PSVPSCALE
 40
0.0
  9
$OLESTARTUP
290
     0
  0
ENDSEC
  0
SECTION
  2
CLASSES
  0
CLASS
  1
ACDBDICTIONARYWDFLT
  2
AcDbDictionaryWithDefault
  3
ObjectDBX Classes
 90
        0
280
     0
281
     0
  0
CLASS
  1
VISUALSTYLE
  2
AcDbVisualStyle
  3
ObjectDBX Classes
 90
     4095
280
     0
281
     0
  0
CLASS
  1
MATERIAL
  2
AcDbMaterial
  3
ObjectDBX Classes
 90
     1153
280
     0
281
     0
  0
CLASS
  1
SCALE
  2
AcDbScale
  3
ObjectDBX Classes
 90
     1153
280
     0
281
     0
  0
CLASS
  1
TABLESTYLE
  2
AcDbTableStyle
  3
ObjectDBX Classes
 90
     4095
280
     0
281
     0
  0
CLASS
  1
MLEADERSTYLE
  2
AcDbMLeaderStyle
  3
ACDB_MLEADERSTYLE_CLASS
 90
     4095
280
     0
281
     0
  0
CLASS
  1
SUN
  2
AcDbSun
  3
SCENEOE
 90
     1153
280
     0
281
     0
  0
CLASS
  1
ACDBPLACEHOLDER
  2
AcDbPlaceHolder
  3
ObjectDBX Classes
 90
        0
280
     0
281
     0
  0
CLASS
  1
LAYOUT
  2
AcDbLayout
  3
ObjectDBX Classes
 90
        0
280
     0
281
     0
  0
ENDSEC
  0
SECTION
  2
TABLES
  0
TABLE
  2
VPORT
  5
8
330
0
100
AcDbSymbolTable
 70
     1
  0
VPORT
  5
29
330
8
100
AcDbSymbolTableRecord
100
AcDbViewportTableRecord
  2
*Active
 70
     0
 10
0.0
 20
0.0
 11
1.0
 21
1.0
 12
125.0
 22
50.0
 13
0.0
 23
0.0
 14
10.0
 24
10.0
 15
10.0
 25
10.0
 16
0.0
 26
0.0
 36
1.0
 17
0.0
 27
0.0
 37
0.0
 40
100.0
 41
2.5
 42
50.0
 43
0.0
 44
0.0
 50
0.0
 51
0.0
 71
     0
 72
  2000
 73
     1
 74
     3
 75
     0
 76
     0
 77
     0
 78
     0
281
     0
 65
     1
110
0.0
120
0.0
130
0.0
111
1.0
121
0.0
131
0.0
112
0.0
122
1.0
132
0.0
 79
     0
146
0.0
  0
ENDTAB
  0
TABLE
  2
LTYPE
  5
5
330
0
100
AcDbSymbolTable
 70
     6
  0
LTYPE
  5
14
330
5
100
AcDbSymbolTableRecord
100
AcDbLinetypeTableRecord
  2
ByBlock
 70
     0
  3

 72
    65
 73
     0
 40
0.0
  0
LTYPE
  5
15
330
5
100
AcDbSymbolTableRecord
100
AcDbLinetypeTableRecord
  2
ByLayer
 70
     0
  3

 72
    65
 73
     0
 40
0.0
  0
LTYPE
  5
16
330
5
100
AcDbSymbolTableRecord
100
AcDbLinetypeTableRecord
  2
Continuous
 70
     0
  3
Solid line
 72
    65
 73
     0
 40
0.0
  0
LTYPE
  5
6E
330
5
100
AcDbSymbolTableRecord
100
AcDbLinetypeTableRecord
  2
HIDDEN
 70
     0
  3
Hidden __ __ __ __ __ __ __ __ __ __ __ __ __ __
 72
    65
 73
     2
 40
1.905
 49
1.27
 74
     0
 49
-0.635
 74
     0
  0
LTYPE
  5
6F
330
5
100
AcDbSymbolTableRecord
100
AcDbLinetypeTableRecord
  2
PHANTOM
 70
     0
  3
Phantom ______  __  __  ______  __  __  ______
 72
    65
 73
     6
 40
12.7
 49
6.35
 74
     0
 49
-1.27
 74
     0
 49
1.27
 74
     0
 49
-1.27
 74
     0
 49
1.27
 74
     0
 49
-1.27
 74
     0
  0
LTYPE
  5
70
330
5
100
AcDbSymbolTableRecord
100
AcDbLinetypeTableRecord
  2
CENTER
 70
     0
  3
Center ____ _ ____ _ ____ _ ____ _ ____ _ ____
 72
    65
 73
     4
 40
10.16
 49
6.35
 74
     0
 49
-1.27
 74
     0
 49
1.27
 74
     0
 49
-1.27
 74
     0
  0
LTYPE
  5
71
330
5
100
AcDbSymbolTableRecord
100
AcDbLinetypeTableRecord
  2
CENTERX2
 70
     0
  3
Center (2x) ________  __  ________  __  _____
 72
    65
 73
     4
 40
20.32
 49
12.7
 74
     0
 49
-2.54
 74
     0
 49
2.54
 74
     0
 49
-2.54
 74
     0
  0
LTYPE
  5
72
330
5
100
AcDbSymbolTableRecord
100
AcDbLinetypeTableRecord
  2
DOT2
 70
     0
  3
Dot (.5x) ........................................
 72
    65
 73
     2
 40
0.635
 49
0.0
 74
     0
 49
-0.635
 74
     0
  0
ENDTAB
  0
TABLE
  2
LAYER
  5
2
330
0
100
AcDbSymbolTable
 70
     1
  0
LAYER
  5
10
330
2
100
AcDbSymbolTableRecord
100
AcDbLayerTableRecord
  2
0
 70
     0
 62
     7
  6
Continuous
370
    -3
390
F
  0
ENDTAB
  0
TABLE
  2
STYLE
  5
3
330
0
100
AcDbSymbolTable
 70
     1
  0
STYLE
  5
11
330
3
100
AcDbSymbolTableRecord
100
AcDbTextStyleTableRecord
  2
Standard
 70
     0
 40
0.0
 41
1.0
 50
0.0
 71
     0
 42
3.5
  3
txt
  4

  0
ENDTAB
  0
TABLE
  2
VIEW
  5
6
330
0
100
AcDbSymbolTable
 70
     0
  0
ENDTAB
  0
TABLE
  2
UCS
  5
7
330
0
100
AcDbSymbolTable
 70
     0
  0
ENDTAB
  0
TABLE
  2
APPID
  5
9
330
0
100
AcDbSymbolTable
 70
     1
  0
APPID
  5
12
330
9
100
AcDbSymbolTableRecord
100
AcDbRegAppTableRecord
  2
ACAD
 70
     0
  0
ENDTAB
  0
TABLE
  2
DIMSTYLE
  5
A
330
0
100
AcDbSymbolTable
 70
     1
100
AcDbDimStyleTable
  0
DIMSTYLE
105
27
330
A
100
AcDbSymbolTableRecord
100
AcDbDimStyleTableRecord
  2
ISO-25
 70
     0
 41
2.5
 42
0.625
 43
3.75
 44
1.25
 73
     0
 74
     0
 77
     1
 78
     8
140
2.5
141
2.5
143
0.0393700787
147
0.625
171
     3
172
     1
178
     0
271
     2
272
     2
274
     3
278
    44
283
     0
284
     8
340
11
  0
ENDTAB
  0
TABLE
  2
BLOCK_RECORD
  5
1
330
0
100
AcDbSymbolTable
 70
     1
  0
BLOCK_RECORD
  5
1F
330
1
100
AcDbSymbolTableRecord
100
AcDbBlockTableRecord
  2
*Model_Space
340
22
  0
BLOCK_RECORD
  5
1B
330
1
100
AcDbSymbolTableRecord
100
AcDbBlockTableRecord
  2
*Paper_Space
340
1E
  0
BLOCK_RECORD
  5
23
330
1
100
AcDbSymbolTableRecord
100
AcDbBlockTableRecord
  2
*Paper_Space0
340
26
  0
ENDTAB
  0
ENDSEC
  0
SECTION
  2
BLOCKS
  0
BLOCK
  5
20
330
1F
100
AcDbEntity
  8
0
100
AcDbBlockBegin
  2
*Model_Space
 70
     0
 10
0.0
 20
0.0
 30
0.0
  3
*Model_Space
  1

  0
ENDBLK
  5
21
330
1F
100
AcDbEntity
  8
0
100
AcDbBlockEnd
  0
BLOCK
  5
1C
330
1B
100
AcDbEntity
 67
     1
  8
0
100
AcDbBlockBegin
  2
*Paper_Space
 70
     0
 10
0.0
 20
0.0
 30
0.0
  3
*Paper_Space
  1

  0
ENDBLK
  5
1D
330
1B
100
AcDbEntity
 67
     1
  8
0
100
AcDbBlockEnd
  0
BLOCK
  5
24
330
23
100
AcDbEntity
  8
0
100
AcDbBlockBegin
  2
*Paper_Space0
 70
     0
 10
0.0
 20
0.0
 30
0.0
  3
*Paper_Space0
  1

  0
ENDBLK
  5
25
330
23
100
AcDbEntity
  8
0
100
AcDbBlockEnd
  0
ENDSEC
  0
SECTION
  2
ENTITIES
  0
LWPOLYLINE
  5
73
330
1F
100
AcDbEntity
  8
0
  6
Continuous
 62
     7
100
AcDbPolyline
 90
       24
 70
   128
 43
0.0
 10
98.8896863004
 20
72.2412887362
 10
99.3645703549
 20
72.2412887362
 10
99.3645703549
 20
72.2412887362
 10
99.3645703549
 20
70.0703485653
 10
99.3645703549
 20
70.0703485653
 10
102.0782455686
 20
70.0703485653
 10
102.0782455686
 20
70.0703485653
 10
102.0782455686
 20
72.2412887362
 10
102.0782455686
 20
72.2412887362
 10
102.553138731
 20
72.2412887362
 10
102.553138731
 20
72.2412887362
 10
102.553138731
 20
66.9496220695
 10
102.553138731
 20
66.9496220695
 10
102.0782455686
 20
66.9496220695
 10
102.0782455686
 20
66.9496220695
 10
102.0782455686
 20
69.5276135225
 10
102.0782455686
 20
69.5276135225
 10
99.3645703549
 20
69.5276135225
 10
99.3645703549
 20
69.5276135225
 10
99.3645703549
 20
66.9496220695
 10
99.3645703549
 20
66.9496220695
 10
98.8896771925
 20
66.9496220695
 10
98.8896771925
 20
66.9496220695
 10
98.8896771925
 20
72.2412887362
  0
LWPOLYLINE
  5
74
330
1F
100
AcDbEntity
  8
0
  6
Continuous
 62
     7
100
AcDbPolyline
 90
       18
 70
   128
 43
0.0
 10
103.5029367944
 20
72.2412887362
 10
104.0467201279
 20
72.2412887362
 10
104.0467201279
 20
72.2412887362
 10
105.4374786749
 20
69.9675257154
 10
105.4374786749
 20
69.9675257154
 10
106.8261171631
 20
72.2412887362
 10
106.8261171631
 20
72.2412887362
 10
107.3699122353
 20
72.2412887362
 10
107.3699122353
 20
72.2412887362
 10
105.6738652267
 20
69.4650717891
 10
105.6738652267
 20
69.4650717891
 10
105.6738652267
 20
66.9496220695
 10
105.6738652267
 20
66.9496220695
 10
105.1989720643
 20
66.9496220695
 10
105.1989720643
 20
66.9496220695
 10
105.1989720643
 20
69.4650717891
 10
105.1989720643
 20
69.4650717891
 10
103.5029250558
 20
72.2412887362
  0
LWPOLYLINE
  5
75
330
1F
100
AcDbEntity
  8
0
  6
Continuous
 62
     7
100
AcDbPolyline
 90
      106
 70
   128
 43
0.0
 10
108.5232274075
 20
70.613083608
 10
108.0483310387
 20
70.613083608
 10
108.0483310387
 20
70.613083608
 10
108.0610513912
 20
70.8017688377
 10
108.0886121551
 20
70.9819738323
 10
108.129953301
 20
71.1526385626
 10
108.1871948875
 20
71.3158830872
 10
108.258216856
 20
71.4695873473
 10
108.3440792358
 20
71.6158714018
 10
108.4447820269
 20
71.7526151919
 10
108.5603252294
 20
71.8808787469
 10
108.6864687256
 20
71.9974819787
 10
108.8210924569
 20
72.0981847698
 10
108.9620763645
 20
72.1829871203
 10
109.1094204484
 20
72.2529490594
 10
109.2652447673
 20
72.3070105578
 10
109.4274292625
 20
72.3462316448
 10
109.5970339634
 20
72.3695522912
 10
109.7740588699
 20
72.3769724969
 10
109.7740588699
 20
72.3769724969
 10
109.9479036882
 20
72.3695522912
 10
110.114328301
 20
72.3472916742
 10
110.2712126492
 20
72.3112506753
 10
110.4206767919
 20
72.260369265
 10
110.5606006701
 20
72.1935874141
 10
110.6920443132
 20
72.1130251812
 10
110.8160677507
 20
72.0186825663
 10
110.9305509238
 20
71.9084395108
 10
111.0344338031
 20
71.7886561908
 10
111.123476271
 20
71.6635727239
 10
111.1997983864
 20
71.5331891101
 10
111.2623401199
 20
71.3985653788
 10
111.310041442
 20
71.2575814712
 10
111.3450224115
 20
71.1112974167
 10
111.3651629698
 20
70.9607732447
 10
111.3725831754
 20
70.8038888964
 10
111.3725831754
 20
70.8038888964
 10
111.3588027935
 20
70.5834027853
 10
111.3174616476
 20
70.3703368799
 10
111.2496197673
 20
70.1646911801
 10
111.1531570937
 20
69.9654056566
 10
111.0916753896
 20
69.8636428361
 10
111.017473333
 20
69.7523397512
 10
110.9305509238
 20
69.6325564312
 10
110.8309081621
 20
69.5053529055
 10
110.7174850184
 20
69.3675490861
 10
110.5924015515
 20
69.222325061
 10
110.4535377027
 20
69.0686208008
 10
110.3019535013
 20
68.9053762763
 10
110.3019535013
 20
68.9053762763
 10
108.9779768052
 20
67.4923571123
 10
108.9779768052
 20
67.4923571123
 10
111.4404250558
 20
67.4923571123
 10
111.4404250558
 20
67.4923571123
 10
111.4404250558
 20
66.9496220695
 10
111.4404250558
 20
66.9496220695
 10
107.8448053976
 20
66.9496220695
 10
107.8448053976
 20
66.9496220695
 10
109.897022278
 20
69.1396427693
 10
109.897022278
 20
69.1396427693
 10
110.0464864206
 20
69.2965271176
 10
110.1821701813
 20
69.4428111721
 10
110.30407356
 20
69.5784949328
 10
110.4121965568
 20
69.7035783997
 10
110.5065391717
 20
69.8191216021
 10
110.588161434
 20
69.9230044814
 10
110.6549432849
 20
70.0173470962
 10
110.7090047833
 20
70.1010894173
 10
110.791687075
 20
70.2600938243
 10
110.8510487203
 20
70.4233383489
 10
110.8860296898
 20
70.5897629616
 10
110.897690013
 20
70.7614877212
 10
110.897690013
 20
70.7614877212
 10
110.8923898661
 20
70.869610718
 10
110.8764894254
 20
70.9734935973
 10
110.8510487203
 20
71.0731363591
 10
110.8150077214
 20
71.1695990327
 10
110.7673063992
 20
71.2628816181
 10
110.7100648127
 20
71.3508640567
 10
110.6432829617
 20
71.4356664071
 10
110.5648407876
 20
71.5172886694
 10
110.4789784078
 20
71.591490726
 10
110.3888759105
 20
71.6561525182
 10
110.2945332956
 20
71.7102140166
 10
110.1948905339
 20
71.7547352506
 10
110.0899476252
 20
71.7897162202
 10
109.9818246284
 20
71.8140968959
 10
109.8684014847
 20
71.8289373072
 10
109.7496781941
 20
71.8342374541
 10
109.7496781941
 20
71.8342374541
 10
109.6256547566
 20
71.8289373072
 10
109.506931466
 20
71.8140968959
 10
109.3935083223
 20
71.7886561908
 10
109.2853853255
 20
71.7536752212
 10
109.1825624756
 20
71.7091539873
 10
109.0850397726
 20
71.6540324595
 10
108.9928172166
 20
71.5883106379
 10
108.9058948074
 20
71.5130485519
 10
108.8263926038
 20
71.4293062309
 10
108.7564306647
 20
71.3370836748
 10
108.6949489607
 20
71.2363808836
 10
108.6419474917
 20
71.1282578868
 10
108.5984862871
 20
71.011654655
 10
108.5645653469
 20
70.8865711881
 10
108.5391246418
 20
70.7540675156
 10
108.5232242011
 20
70.613083608
  0
LWPOLYLINE
  5
76
330
1F
100
AcDbEntity
  8
0
  6
Continuous
 62
     7
100
AcDbPolyline
 90
       62
 70
   128
 43
0.0
 10
116.1893607517
 20
70.816609249
 10
116.1893566797
 20
66.9496220695
 10
116.1893566797
 20
66.9496220695
 10
115.7144635173
 20
66.9496220695
 10
115.7144635173
 20
66.9496220695
 10
115.7144635173
 20
67.6185006085
 10
115.7144635173
 20
67.6185006085
 10
115.5501589634
 20
67.4404156726
 10
115.3773741744
 20
67.2877714419
 10
115.1929290622
 20
67.1605679162
 10
115.000003715
 20
67.0588050957
 10
114.7975381033
 20
66.9814229509
 10
114.5865922566
 20
66.9263014232
 10
114.3650461161
 20
66.892380483
 10
114.1350197406
 20
66.8817801892
 10
114.1350197406
 20
66.8817801892
 10
113.9304340702
 20
66.8913204536
 10
113.7332686054
 20
66.9188812175
 10
113.5435233464
 20
66.9644624809
 10
113.3611982929
 20
67.0280642437
 10
113.1873534746
 20
67.1107465353
 10
113.0198688325
 20
67.2114493265
 10
112.8608644254
 20
67.3301726171
 10
112.709280224
 20
67.4679764365
 10
112.5704163752
 20
67.6185006085
 10
112.4506330552
 20
67.7764449862
 10
112.3499302641
 20
67.9428695989
 10
112.2661879431
 20
68.1177744467
 10
112.2015261509
 20
68.3000995001
 10
112.1559448875
 20
68.4898447592
 10
112.1283841236
 20
68.6880702533
 10
112.1188438592
 20
68.8937159531
 10
112.1188438592
 20
68.8937159531
 10
112.1283841236
 20
69.0951215353
 10
112.1559448875
 20
69.2901669413
 10
112.2025861802
 20
69.4767321123
 10
112.2683080018
 20
69.6569371069
 10
112.3520503229
 20
69.8286618665
 10
112.4538131434
 20
69.9929664205
 10
112.5746564927
 20
70.1509107982
 10
112.7145803709
 20
70.3003749408
 10
112.8672246017
 20
70.4371187309
 10
113.0283490675
 20
70.5558420214
 10
113.1958337096
 20
70.6565448126
 10
113.3717985867
 20
70.7381670749
 10
113.5551836695
 20
70.8028288671
 10
113.745988958
 20
70.8484101304
 10
113.9442144521
 20
70.8749108649
 10
114.1498601519
 20
70.8844511294
 10
114.1498601519
 20
70.8844511294
 10
114.3862467037
 20
70.8727908062
 10
114.6109729324
 20
70.8378098366
 10
114.8240388378
 20
70.7784481913
 10
115.0254444201
 20
70.696825929
 10
115.2151896792
 20
70.5897629616
 10
115.3943346444
 20
70.4540792009
 10
115.5596992278
 20
70.2918947057
 10
115.7144635173
 20
70.1010894173
 10
115.7144635173
 20
70.1010894173
 10
115.7144635173
 20
70.816609249
 10
115.7144635173
 20
70.816609249
 10
116.1893566797
 20
70.816609249
  0
LWPOLYLINE
  5
77
330
1F
100
AcDbEntity
  8
0
  6
Continuous
 62
     7
100
AcDbPolyline
 90
       56
 70
   128
 43
0.0
 10
114.1562239667
 20
70.409557967
 10
113.9484545697
 20
70.3968376144
 10
113.7491690461
 20
70.3597365861
 10
113.5583637577
 20
70.2971948526
 10
113.3749786749
 20
70.2102724435
 10
113.205373974
 20
70.1010894173
 10
113.0537897726
 20
69.9707058035
 10
112.9202260707
 20
69.8212416609
 10
112.8046828683
 20
69.6505769306
 10
112.7124603122
 20
69.4682518772
 10
112.6467384906
 20
69.2795666475
 10
112.6064573741
 20
69.0866413003
 10
112.5937370216
 20
68.8884158062
 10
112.5937370216
 20
68.8884158062
 10
112.6075174035
 20
68.6912503414
 10
112.6467384906
 20
68.4983249942
 10
112.7135203416
 20
68.3096397645
 10
112.806802927
 20
68.1251946523
 10
112.9234061589
 20
67.9534698927
 10
113.0569698608
 20
67.8018856913
 10
113.2096140916
 20
67.6704420482
 10
113.3802788218
 20
67.5591389632
 10
113.5636639046
 20
67.4700964953
 10
113.7534091637
 20
67.4075547618
 10
113.949514599
 20
67.3693937041
 10
114.1519802107
 20
67.3566733516
 10
114.1519802107
 20
67.3566733516
 10
114.3576259105
 20
67.3693937041
 10
114.5579714634
 20
67.4064947325
 10
114.75195684
 20
67.4690364659
 10
114.9406420697
 20
67.5570189045
 10
115.1155469174
 20
67.6662019306
 10
115.2703112069
 20
67.7934054563
 10
115.4017548501
 20
67.9386294814
 10
115.513057935
 20
68.1008139766
 10
115.6010403736
 20
68.2778388831
 10
115.6646421364
 20
68.4665241128
 10
115.7017431647
 20
68.6647496069
 10
115.7144635173
 20
68.8746354242
 10
115.7144635173
 20
68.8746354242
 10
115.7070433116
 20
69.0346998607
 10
115.685842724
 20
69.1884041208
 10
115.6508617545
 20
69.3357482047
 10
115.602100403
 20
69.4756720829
 10
115.5384986402
 20
69.6092357848
 10
115.4611164954
 20
69.7364393104
 10
115.3699539687
 20
69.8562226304
 10
115.2639510307
 20
69.9696457741
 10
115.1484078282
 20
70.072468624
 10
115.0265044495
 20
70.1625711213
 10
114.8971808651
 20
70.2378332073
 10
114.7625571338
 20
70.2993149114
 10
114.6205131968
 20
70.3480762629
 10
114.4721090835
 20
70.3819972031
 10
114.317344794
 20
70.4031977907
 10
114.1562203282
 20
70.409557967
  0
LINE
  5
78
330
1F
100
AcDbEntity
  8
0
  6
Continuous
 62
     7
370
    25
100
AcDbLine
 10
139.4907901897
 20
78.7019958706
 30
0.0
 11
139.9907901897
 21
71.6998247787
 31
0.0
  0
LINE
  5
79
330
1F
100
AcDbEntity
  8
0
  6
Continuous
 62
     7
370
    25
100
AcDbLine
 10
139.9907901897
 20
71.6998247787
 30
0.0
 11
140.4907901897
 21
71.6998247787
 31
0.0
  0
LINE
  5
7A
330
1F
100
AcDbEntity
  8
0
  6
Continuous
 62
     7
370
    25
100
AcDbLine
 10
140.4907901897
 20
71.6998247787
 30
0.0
 11
140.4907901897
 21
80.6998247787
 31
0.0
  0
LINE
  5
7B
330
1F
100
AcDbEntity
  8
0
  6
Continuous
 62
     7
370
    25
100
AcDbLine
 10
140.4907901897
 20
80.6998247787
 30
0.0
 11
139.9907901897
 21
81.6998247787
 31
0.0
  0
LINE
  5
7C
330
1F
100
AcDbEntity
  8
0
  6
Continuous
 62
     7
370
    25
100
AcDbLine
 10
139.9907901897
 20
81.6998247787
 30
0.0
 11
139.4907901897
 21
82.1998247787
 31
0.0
  0
LINE
  5
7D
330
1F
100
AcDbEntity
  8
0
  6
Continuous
 62
     7
370
    25
100
AcDbLine
 10
139.4907901897
 20
82.1998247787
 30
0.0
 11
139.4907901897
 21
83.1998247787
 31
0.0
  0
LINE
  5
7E
330
1F
100
AcDbEntity
  8
0
  6
Continuous
 62
     7
370
    25
100
AcDbLine
 10
139.4907901897
 20
83.1998247787
 30
0.0
 11
140.9907901897
 21
84.6998247787
 31
0.0
  0
LINE
  5
7F
330
1F
100
AcDbEntity
  8
0
  6
Continuous
 62
     7
370
    25
100
AcDbLine
 10
140.9907901897
 20
84.6998247787
 30
0.0
 11
142.4907901897
 21
84.6998247787
 31
0.0
  0
LINE
  5
80
330
1F
100
AcDbEntity
  8
0
  6
Continuous
 62
     7
370
    25
100
AcDbLine
 10
142.4907901897
 20
84.6998247787
 30
0.0
 11
142.9907901897
 21
71.6998247787
 31
0.0
  0
LINE
  5
81
330
1F
100
AcDbEntity
  8
0
  6
Continuous
 62
     7
370
    25
100
AcDbLine
 10
142.9907901897
 20
71.6998247787
 30
0.0
 11
143.4907901897
 21
71.6998247787
 31
0.0
  0
LINE
  5
82
330
1F
100
AcDbEntity
  8
0
  6
Continuous
 62
     7
370
    25
100
AcDbLine
 10
143.4907901897
 20
71.6998247787
 30
0.0
 11
143.4907901897
 21
84.6998247787
 31
0.0
  0
LINE
  5
83
330
1F
100
AcDbEntity
  8
0
  6
Continuous
 62
     7
370
    25
100
AcDbLine
 10
143.4907901897
 20
84.6998247787
 30
0.0
 11
151.4907901897
 21
84.6998247787
 31
0.0
  0
LINE
  5
84
330
1F
100
AcDbEntity
  8
0
  6
Continuous
 62
     7
370
    25
100
AcDbLine
 10
151.4907901897
 20
71.6998247787
 30
0.0
 11
151.4907901897
 21
84.6998247787
 31
0.0
  0
LINE
  5
85
330
1F
100
AcDbEntity
  8
0
  6
Continuous
 62
     7
370
    25
100
AcDbLine
 10
151.9907901897
 20
71.6998247787
 30
0.0
 11
151.4907901897
 21
71.6998247787
 31
0.0
  0
LINE
  5
86
330
1F
100
AcDbEntity
  8
0
  6
Continuous
 62
     7
370
    25
100
AcDbLine
 10
152.4907901897
 20
84.6998247787
 30
0.0
 11
151.9907901897
 21
71.6998247787
 31
0.0
  0
LINE
  5
87
330
1F
100
AcDbEntity
  8
0
  6
Continuous
 62
     7
370
    25
100
AcDbLine
 10
153.9907901897
 20
84.6998247787
 30
0.0
 11
152.4907901897
 21
84.6998247787
 31
0.0
  0
LINE
  5
88
330
1F
100
AcDbEntity
  8
0
  6
Continuous
 62
     7
370
    25
100
AcDbLine
 10
155.4907901897
 20
83.1998247787
 30
0.0
 11
153.9907901897
 21
84.6998247787
 31
0.0
  0
LINE
  5
89
330
1F
100
AcDbEntity
  8
0
  6
Continuous
 62
     7
370
    25
100
AcDbLine
 10
155.4907901897
 20
82.1998247787
 30
0.0
 11
155.4907901897
 21
83.1998247787
 31
0.0
  0
LINE
  5
8A
330
1F
100
AcDbEntity
  8
0
  6
Continuous
 62
     7
370
    25
100
AcDbLine
 10
154.9907901897
 20
81.6998247787
 30
0.0
 11
155.4907901897
 21
82.1998247787
 31
0.0
  0
LINE
  5
8B
330
1F
100
AcDbEntity
  8
0
  6
Continuous
 62
     7
370
    25
100
AcDbLine
 10
154.4907901897
 20
80.6998247787
 30
0.0
 11
154.9907901897
 21
81.6998247787
 31
0.0
  0
LINE
  5
8C
330
1F
100
AcDbEntity
  8
0
  6
Continuous
 62
     7
370
    25
100
AcDbLine
 10
154.4907901897
 20
71.6998247787
 30
0.0
 11
154.4907901897
 21
80.6998247787
 31
0.0
  0
LINE
  5
8D
330
1F
100
AcDbEntity
  8
0
  6
Continuous
 62
     7
370
    25
100
AcDbLine
 10
154.9907901897
 20
71.6998247787
 30
0.0
 11
154.4907901897
 21
71.6998247787
 31
0.0
  0
LINE
  5
8E
330
1F
100
AcDbEntity
  8
0
  6
Continuous
 62
     7
370
    25
100
AcDbLine
 10
155.4907901897
 20
78.7019958706
 30
0.0
 11
154.9907901897
 21
71.6998247787
 31
0.0
  0
LINE
  5
8F
330
1F
100
AcDbEntity
  8
0
  6
Continuous
 62
     7
370
    25
100
AcDbLine
 10
155.4907901897
 20
78.7019958706
 30
0.0
 11
179.4569855471
 21
78.7019958706
 31
0.0
  0
LINE
  5
90
330
1F
100
AcDbEntity
  8
0
  6
Continuous
 62
     7
370
    25
100
AcDbLine
 10
179.4569855471
 20
78.7019958706
 30
0.0
 11
179.4569855471
 21
74.7019958706
 31
0.0
  0
LINE
  5
91
330
1F
100
AcDbEntity
  8
0
  6
Continuous
 62
     7
370
    25
100
AcDbLine
 10
179.4569855471
 20
74.7019958706
 30
0.0
 11
195.4569855471
 21
74.7019958706
 31
0.0
  0
LINE
  5
92
330
1F
100
AcDbEntity
  8
0
  6
Continuous
 62
     7
370
    25
100
AcDbLine
 10
195.4569855471
 20
74.7019958706
 30
0.0
 11
195.4569855471
 21
78.7019958706
 31
0.0
  0
LINE
  5
93
330
1F
100
AcDbEntity
  8
0
  6
Continuous
 62
     7
370
    25
100
AcDbLine
 10
195.4569855471
 20
78.7019958706
 30
0.0
 11
207.4231809046
 21
78.7019958706
 31
0.0
  0
ELLIPSE
  5
94
330
1F
100
AcDbEntity
  8
0
  6
Continuous
 62
     7
370
    25
100
AcDbEllipse
 10
127.4569855471
 20
22.7019958706
 30
0.0
 11
-2.842170943040401E-14
 21
122.0440017371994
 31
0.0
210
0.0
220
0.0
230
1.0
 40
0.7374389459
 41
4.7123889803847
 42
5.18909046204519
  0
LINE
  5
95
330
1F
100
AcDbEntity
  8
0
  6
Continuous
 62
     7
370
    25
100
AcDbLine
 10
217.4569855471
 20
22.7019958706
 30
0.0
 11
200.4569855471
 21
22.7019958706
 31
0.0
  0
LINE
  5
96
330
1F
100
AcDbEntity
  8
0
  6
Continuous
 62
     7
370
    25
100
AcDbLine
 10
200.4569855471
 20
26.7019958706
 30
0.0
 11
200.4569855471
 21
22.7019958706
 31
0.0
  0
LINE
  5
97
330
1F
100
AcDbEntity
  8
0
  6
Continuous
 62
     7
370
    25
100
AcDbLine
 10
184.4569855471
 20
26.7019958706
 30
0.0
 11
200.4569855471
 21
26.7019958706
 31
0.0
  0
LINE
  5
98
330
1F
100
AcDbEntity
  8
0
  6
Continuous
 62
     7
370
    25
100
AcDbLine
 10
184.4569855471
 20
22.7019958706
 30
0.0
 11
184.4569855471
 21
26.7019958706
 31
0.0
  0
LINE
  5
99
330
1F
100
AcDbEntity
  8
0
  6
Continuous
 62
     7
370
    25
100
AcDbLine
 10
184.4569855471
 20
22.7019958706
 30
0.0
 11
160.4569855471
 21
22.7019958706
 31
0.0
  0
LINE
  5
9A
330
1F
100
AcDbEntity
  8
0
  6
Continuous
 62
     7
370
    25
100
AcDbLine
 10
160.4569855471
 20
22.7019958706
 30
0.0
 11
159.9569855471
 21
29.7041669625
 31
0.0
  0
LINE
  5
9B
330
1F
100
AcDbEntity
  8
0
  6
Continuous
 62
     7
370
    25
100
AcDbLine
 10
159.9569855471
 20
29.7041669625
 30
0.0
 11
159.4569855471
 21
29.7041669625
 31
0.0
  0
LINE
  5
9C
330
1F
100
AcDbEntity
  8
0
  6
Continuous
 62
     7
370
    25
100
AcDbLine
 10
159.4569855471
 20
29.7041669625
 30
0.0
 11
159.4569855471
 21
20.7041669625
 31
0.0
  0
LINE
  5
9D
330
1F
100
AcDbEntity
  8
0
  6
Continuous
 62
     7
370
    25
100
AcDbLine
 10
159.4569855471
 20
20.7041669625
 30
0.0
 11
159.9569855471
 21
19.7041669625
 31
0.0
  0
LINE
  5
9E
330
1F
100
AcDbEntity
  8
0
  6
Continuous
 62
     7
370
    25
100
AcDbLine
 10
159.9569855471
 20
19.7041669625
 30
0.0
 11
160.4569855471
 21
19.2041669625
 31
0.0
  0
LINE
  5
9F
330
1F
100
AcDbEntity
  8
0
  6
Continuous
 62
     7
370
    25
100
AcDbLine
 10
160.4569855471
 20
19.2041669625
 30
0.0
 11
160.4569855471
 21
18.2041669625
 31
0.0
  0
LINE
  5
A0
330
1F
100
AcDbEntity
  8
0
  6
Continuous
 62
     7
370
    25
100
AcDbLine
 10
160.4569855471
 20
18.2041669625
 30
0.0
 11
158.9569855471
 21
16.7041669625
 31
0.0
  0
LINE
  5
A1
330
1F
100
AcDbEntity
  8
0
  6
Continuous
 62
     7
370
    25
100
AcDbLine
 10
158.9569855471
 20
16.7041669625
 30
0.0
 11
157.4569855471
 21
16.7041669625
 31
0.0
  0
LINE
  5
A2
330
1F
100
AcDbEntity
  8
0
  6
Continuous
 62
     7
370
    25
100
AcDbLine
 10
157.4569855471
 20
16.7041669625
 30
0.0
 11
156.9569855471
 21
29.7041669625
 31
0.0
  0
LINE
  5
A3
330
1F
100
AcDbEntity
  8
0
  6
Continuous
 62
     7
370
    25
100
AcDbLine
 10
156.9569855471
 20
29.7041669625
 30
0.0
 11
156.4569855471
 21
29.7041669625
 31
0.0
  0
LINE
  5
A4
330
1F
100
AcDbEntity
  8
0
  6
Continuous
 62
     7
370
    25
100
AcDbLine
 10
156.4569855471
 20
29.7041669625
 30
0.0
 11
156.4569855471
 21
16.7041669625
 31
0.0
  0
LINE
  5
A5
330
1F
100
AcDbEntity
  8
0
  6
Continuous
 62
     7
370
    25
100
AcDbLine
 10
156.4569855471
 20
16.7041669625
 30
0.0
 11
148.4569855471
 21
16.7041669625
 31
0.0
  0
LINE
  5
A6
330
1F
100
AcDbEntity
  8
0
  6
Continuous
 62
     7
370
    25
100
AcDbLine
 10
148.4569855471
 20
29.7041669625
 30
0.0
 11
148.4569855471
 21
16.7041669625
 31
0.0
  0
LINE
  5
A7
330
1F
100
AcDbEntity
  8
0
  6
Continuous
 62
     7
370
    25
100
AcDbLine
 10
147.9569855471
 20
29.7041669625
 30
0.0
 11
148.4569855471
 21
29.7041669625
 31
0.0
  0
LINE
  5
A8
330
1F
100
AcDbEntity
  8
0
  6
Continuous
 62
     7
370
    25
100
AcDbLine
 10
147.4569855471
 20
16.7041669625
 30
0.0
 11
147.9569855471
 21
29.7041669625
 31
0.0
  0
LINE
  5
A9
330
1F
100
AcDbEntity
  8
0
  6
Continuous
 62
     7
370
    25
100
AcDbLine
 10
145.9569855471
 20
16.7041669625
 30
0.0
 11
147.4569855471
 21
16.7041669625
 31
0.0
  0
LINE
  5
AA
330
1F
100
AcDbEntity
  8
0
  6
Continuous
 62
     7
370
    25
100
AcDbLine
 10
144.4569855471
 20
18.2041669625
 30
0.0
 11
145.9569855471
 21
16.7041669625
 31
0.0
  0
LINE
  5
AB
330
1F
100
AcDbEntity
  8
0
  6
Continuous
 62
     7
370
    25
100
AcDbLine
 10
144.4569855471
 20
19.2041669625
 30
0.0
 11
144.4569855471
 21
18.2041669625
 31
0.0
  0
LINE
  5
AC
330
1F
100
AcDbEntity
  8
0
  6
Continuous
 62
     7
370
    25
100
AcDbLine
 10
144.9569855471
 20
19.7041669625
 30
0.0
 11
144.4569855471
 21
19.2041669625
 31
0.0
  0
LINE
  5
AD
330
1F
100
AcDbEntity
  8
0
  6
Continuous
 62
     7
370
    25
100
AcDbLine
 10
145.4569855471
 20
20.7041669625
 30
0.0
 11
144.9569855471
 21
19.7041669625
 31
0.0
  0
LINE
  5
AE
330
1F
100
AcDbEntity
  8
0
  6
Continuous
 62
     7
370
    25
100
AcDbLine
 10
145.4569855471
 20
29.7041669625
 30
0.0
 11
145.4569855471
 21
20.7041669625
 31
0.0
  0
LINE
  5
AF
330
1F
100
AcDbEntity
  8
0
  6
Continuous
 62
     7
370
    25
100
AcDbLine
 10
144.9569855471
 20
29.7041669625
 30
0.0
 11
145.4569855471
 21
29.7041669625
 31
0.0
  0
LINE
  5
B0
330
1F
100
AcDbEntity
  8
0
  6
Continuous
 62
     7
370
    25
100
AcDbLine
 10
144.4569855471
 20
22.7019958706
 30
0.0
 11
144.9569855471
 21
29.7041669625
 31
0.0
  0
LINE
  5
B1
330
1F
100
AcDbEntity
  8
0
  6
Continuous
 62
     7
370
    25
100
AcDbLine
 10
144.4569855471
 20
22.7019958706
 30
0.0
 11
110.4569855471
 21
22.7019958706
 31
0.0
  0
LINE
  5
B2
330
1F
100
AcDbEntity
  8
0
  6
Continuous
 62
     7
370
    25
100
AcDbLine
 10
110.4569855471
 20
26.7019958706
 30
0.0
 11
110.4569855471
 21
22.7019958706
 31
0.0
  0
LINE
  5
B3
330
1F
100
AcDbEntity
  8
0
  6
Continuous
 62
     7
370
    25
100
AcDbLine
 10
94.4569855471
 20
26.7019958706
 30
0.0
 11
110.4569855471
 21
26.7019958706
 31
0.0
  0
LINE
  5
B4
330
1F
100
AcDbEntity
  8
0
  6
Continuous
 62
     7
370
    25
100
AcDbLine
 10
94.4569855471
 20
22.7019958706
 30
0.0
 11
94.4569855471
 21
26.7019958706
 31
0.0
  0
LINE
  5
B5
330
1F
100
AcDbEntity
  8
0
  6
Continuous
 62
     7
370
    25
100
AcDbLine
 10
94.4569855471
 20
22.7019958706
 30
0.0
 11
70.4569855471
 21
22.7019958706
 31
0.0
  0
LINE
  5
B6
330
1F
100
AcDbEntity
  8
0
  6
Continuous
 62
     7
370
    25
100
AcDbLine
 10
70.4569855471
 20
22.7019958706
 30
0.0
 11
69.9569855471
 21
29.7041669625
 31
0.0
  0
LINE
  5
B7
330
1F
100
AcDbEntity
  8
0
  6
Continuous
 62
     7
370
    25
100
AcDbLine
 10
69.9569855471
 20
29.7041669625
 30
0.0
 11
69.4569855471
 21
29.7041669625
 31
0.0
  0
LINE
  5
B8
330
1F
100
AcDbEntity
  8
0
  6
Continuous
 62
     7
370
    25
100
AcDbLine
 10
69.4569855471
 20
29.7041669625
 30
0.0
 11
69.4569855471
 21
20.7041669625
 31
0.0
  0
LINE
  5
B9
330
1F
100
AcDbEntity
  8
0
  6
Continuous
 62
     7
370
    25
100
AcDbLine
 10
69.4569855471
 20
20.7041669625
 30
0.0
 11
69.9569855471
 21
19.7041669625
 31
0.0
  0
LINE
  5
BA
330
1F
100
AcDbEntity
  8
0
  6
Continuous
 62
     7
370
    25
100
AcDbLine
 10
69.9569855471
 20
19.7041669625
 30
0.0
 11
70.4569855471
 21
19.2041669625
 31
0.0
  0
LINE
  5
BB
330
1F
100
AcDbEntity
  8
0
  6
Continuous
 62
     7
370
    25
100
AcDbLine
 10
70.4569855471
 20
19.2041669625
 30
0.0
 11
70.4569855471
 21
18.2041669625
 31
0.0
  0
LINE
  5
BC
330
1F
100
AcDbEntity
  8
0
  6
Continuous
 62
     7
370
    25
100
AcDbLine
 10
70.4569855471
 20
18.2041669625
 30
0.0
 11
68.9569855471
 21
16.7041669625
 31
0.0
  0
LINE
  5
BD
330
1F
100
AcDbEntity
  8
0
  6
Continuous
 62
     7
370
    25
100
AcDbLine
 10
68.9569855471
 20
16.7041669625
 30
0.0
 11
67.4569855471
 21
16.7041669625
 31
0.0
  0
LINE
  5
BE
330
1F
100
AcDbEntity
  8
0
  6
Continuous
 62
     7
370
    25
100
AcDbLine
 10
67.4569855471
 20
16.7041669625
 30
0.0
 11
66.9569855471
 21
29.7041669625
 31
0.0
  0
LINE
  5
BF
330
1F
100
AcDbEntity
  8
0
  6
Continuous
 62
     7
370
    25
100
AcDbLine
 10
66.9569855471
 20
29.7041669625
 30
0.0
 11
66.4569855471
 21
29.7041669625
 31
0.0
  0
LINE
  5
C0
330
1F
100
AcDbEntity
  8
0
  6
Continuous
 62
     7
370
    25
100
AcDbLine
 10
66.4569855471
 20
29.7041669625
 30
0.0
 11
66.4569855471
 21
16.7041669625
 31
0.0
  0
LINE
  5
C1
330
1F
100
AcDbEntity
  8
0
  6
Continuous
 62
     7
370
    25
100
AcDbLine
 10
66.4569855471
 20
16.7041669625
 30
0.0
 11
58.4569855471
 21
16.7041669625
 31
0.0
  0
LINE
  5
C2
330
1F
100
AcDbEntity
  8
0
  6
Continuous
 62
     7
370
    25
100
AcDbLine
 10
58.4569855471
 20
29.7041669625
 30
0.0
 11
58.4569855471
 21
16.7041669625
 31
0.0
  0
LINE
  5
C3
330
1F
100
AcDbEntity
  8
0
  6
Continuous
 62
     7
370
    25
100
AcDbLine
 10
57.9569855471
 20
29.7041669625
 30
0.0
 11
58.4569855471
 21
29.7041669625
 31
0.0
  0
LINE
  5
C4
330
1F
100
AcDbEntity
  8
0
  6
Continuous
 62
     7
370
    25
100
AcDbLine
 10
57.4569855471
 20
16.7041669625
 30
0.0
 11
57.9569855471
 21
29.7041669625
 31
0.0
  0
LINE
  5
C5
330
1F
100
AcDbEntity
  8
0
  6
Continuous
 62
     7
370
    25
100
AcDbLine
 10
55.9569855471
 20
16.7041669625
 30
0.0
 11
57.4569855471
 21
16.7041669625
 31
0.0
  0
LINE
  5
C6
330
1F
100
AcDbEntity
  8
0
  6
Continuous
 62
     7
370
    25
100
AcDbLine
 10
54.4569855471
 20
18.2041669625
 30
0.0
 11
55.9569855471
 21
16.7041669625
 31
0.0
  0
LINE
  5
C7
330
1F
100
AcDbEntity
  8
0
  6
Continuous
 62
     7
370
    25
100
AcDbLine
 10
54.4569855471
 20
19.2041669625
 30
0.0
 11
54.4569855471
 21
18.2041669625
 31
0.0
  0
LINE
  5
C8
330
1F
100
AcDbEntity
  8
0
  6
Continuous
 62
     7
370
    25
100
AcDbLine
 10
54.9569855471
 20
19.7041669625
 30
0.0
 11
54.4569855471
 21
19.2041669625
 31
0.0
  0
LINE
  5
C9
330
1F
100
AcDbEntity
  8
0
  6
Continuous
 62
     7
370
    25
100
AcDbLine
 10
55.4569855471
 20
20.7041669625
 30
0.0
 11
54.9569855471
 21
19.7041669625
 31
0.0
  0
LINE
  5
CA
330
1F
100
AcDbEntity
  8
0
  6
Continuous
 62
     7
370
    25
100
AcDbLine
 10
55.4569855471
 20
29.7041669625
 30
0.0
 11
55.4569855471
 21
20.7041669625
 31
0.0
  0
LINE
  5
CB
330
1F
100
AcDbEntity
  8
0
  6
Continuous
 62
     7
370
    25
100
AcDbLine
 10
54.9569855471
 20
29.7041669625
 30
0.0
 11
55.4569855471
 21
29.7041669625
 31
0.0
  0
LINE
  5
CC
330
1F
100
AcDbEntity
  8
0
  6
Continuous
 62
     7
370
    25
100
AcDbLine
 10
54.4569855471
 20
22.7019958706
 30
0.0
 11
54.9569855471
 21
29.7041669625
 31
0.0
  0
LINE
  5
CD
330
1F
100
AcDbEntity
  8
0
  6
Continuous
 62
     7
370
    25
100
AcDbLine
 10
37.4569855471
 20
22.7019958706
 30
0.0
 11
54.4569855471
 21
22.7019958706
 31
0.0
  0
ELLIPSE
  5
CE
330
1F
100
AcDbEntity
  8
0
  6
Continuous
 62
     7
370
    25
100
AcDbEllipse
 10
127.4569855471
 20
22.7019958706
 30
0.0
 11
2.842170943040401E-14
 21
-122.0440017371994
 31
0.0
210
0.0
220
0.0
230
1.0
 40
0.7374389459
 41
4.235687498724213
 42
4.7123889803847
  0
LINE
  5
CF
330
1F
100
AcDbEntity
  8
0
  6
Continuous
 62
     7
370
    25
100
AcDbLine
 10
59.4907901897
 20
78.7019958706
 30
0.0
 11
47.4907901897
 21
78.7019958706
 31
0.0
  0
LINE
  5
D0
330
1F
100
AcDbEntity
  8
0
  6
Continuous
 62
     7
370
    25
100
AcDbLine
 10
59.4907901897
 20
78.7019958706
 30
0.0
 11
59.9907901897
 21
71.6998247787
 31
0.0
  0
LINE
  5
D1
330
1F
100
AcDbEntity
  8
0
  6
Continuous
 62
     7
370
    25
100
AcDbLine
 10
59.9907901897
 20
71.6998247787
 30
0.0
 11
60.4907901897
 21
71.6998247787
 31
0.0
  0
LINE
  5
D2
330
1F
100
AcDbEntity
  8
0
  6
Continuous
 62
     7
370
    25
100
AcDbLine
 10
60.4907901897
 20
71.6998247787
 30
0.0
 11
60.4907901897
 21
80.6998247787
 31
0.0
  0
LINE
  5
D3
330
1F
100
AcDbEntity
  8
0
  6
Continuous
 62
     7
370
    25
100
AcDbLine
 10
60.4907901897
 20
80.6998247787
 30
0.0
 11
59.9907901897
 21
81.6998247787
 31
0.0
  0
LINE
  5
D4
330
1F
100
AcDbEntity
  8
0
  6
Continuous
 62
     7
370
    25
100
AcDbLine
 10
59.9907901897
 20
81.6998247787
 30
0.0
 11
59.4907901897
 21
82.1998247787
 31
0.0
  0
LINE
  5
D5
330
1F
100
AcDbEntity
  8
0
  6
Continuous
 62
     7
370
    25
100
AcDbLine
 10
59.4907901897
 20
82.1998247787
 30
0.0
 11
59.4907901897
 21
83.1998247787
 31
0.0
  0
LINE
  5
D6
330
1F
100
AcDbEntity
  8
0
  6
Continuous
 62
     7
370
    25
100
AcDbLine
 10
59.4907901897
 20
83.1998247787
 30
0.0
 11
60.9907901897
 21
84.6998247787
 31
0.0
  0
LINE
  5
D7
330
1F
100
AcDbEntity
  8
0
  6
Continuous
 62
     7
370
    25
100
AcDbLine
 10
60.9907901897
 20
84.6998247787
 30
0.0
 11
62.4907901897
 21
84.6998247787
 31
0.0
  0
LINE
  5
D8
330
1F
100
AcDbEntity
  8
0
  6
Continuous
 62
     7
370
    25
100
AcDbLine
 10
62.4907901897
 20
84.6998247787
 30
0.0
 11
62.9907901897
 21
71.6998247787
 31
0.0
  0
LINE
  5
D9
330
1F
100
AcDbEntity
  8
0
  6
Continuous
 62
     7
370
    25
100
AcDbLine
 10
62.9907901897
 20
71.6998247787
 30
0.0
 11
63.4907901897
 21
71.6998247787
 31
0.0
  0
LINE
  5
DA
330
1F
100
AcDbEntity
  8
0
  6
Continuous
 62
     7
370
    25
100
AcDbLine
 10
63.4907901897
 20
71.6998247787
 30
0.0
 11
63.4907901897
 21
84.6998247787
 31
0.0
  0
LINE
  5
DB
330
1F
100
AcDbEntity
  8
0
  6
Continuous
 62
     7
370
    25
100
AcDbLine
 10
63.4907901897
 20
84.6998247787
 30
0.0
 11
71.4907901897
 21
84.6998247787
 31
0.0
  0
LINE
  5
DC
330
1F
100
AcDbEntity
  8
0
  6
Continuous
 62
     7
370
    25
100
AcDbLine
 10
71.4907901897
 20
71.6998247787
 30
0.0
 11
71.4907901897
 21
84.6998247787
 31
0.0
  0
LINE
  5
DD
330
1F
100
AcDbEntity
  8
0
  6
Continuous
 62
     7
370
    25
100
AcDbLine
 10
71.9907901897
 20
71.6998247787
 30
0.0
 11
71.4907901897
 21
71.6998247787
 31
0.0
  0
LINE
  5
DE
330
1F
100
AcDbEntity
  8
0
  6
Continuous
 62
     7
370
    25
100
AcDbLine
 10
72.4907901897
 20
84.6998247787
 30
0.0
 11
71.9907901897
 21
71.6998247787
 31
0.0
  0
LINE
  5
DF
330
1F
100
AcDbEntity
  8
0
  6
Continuous
 62
     7
370
    25
100
AcDbLine
 10
73.9907901897
 20
84.6998247787
 30
0.0
 11
72.4907901897
 21
84.6998247787
 31
0.0
  0
LINE
  5
E0
330
1F
100
AcDbEntity
  8
0
  6
Continuous
 62
     7
370
    25
100
AcDbLine
 10
75.4907901897
 20
83.1998247787
 30
0.0
 11
73.9907901897
 21
84.6998247787
 31
0.0
  0
LINE
  5
E1
330
1F
100
AcDbEntity
  8
0
  6
Continuous
 62
     7
370
    25
100
AcDbLine
 10
75.4907901897
 20
82.1998247787
 30
0.0
 11
75.4907901897
 21
83.1998247787
 31
0.0
  0
LINE
  5
E2
330
1F
100
AcDbEntity
  8
0
  6
Continuous
 62
     7
370
    25
100
AcDbLine
 10
74.9907901897
 20
81.6998247787
 30
0.0
 11
75.4907901897
 21
82.1998247787
 31
0.0
  0
LINE
  5
E3
330
1F
100
AcDbEntity
  8
0
  6
Continuous
 62
     7
370
    25
100
AcDbLine
 10
74.4907901897
 20
80.6998247787
 30
0.0
 11
74.9907901897
 21
81.6998247787
 31
0.0
  0
LINE
  5
E4
330
1F
100
AcDbEntity
  8
0
  6
Continuous
 62
     7
370
    25
100
AcDbLine
 10
74.4907901897
 20
71.6998247787
 30
0.0
 11
74.4907901897
 21
80.6998247787
 31
0.0
  0
LINE
  5
E5
330
1F
100
AcDbEntity
  8
0
  6
Continuous
 62
     7
370
    25
100
AcDbLine
 10
74.9907901897
 20
71.6998247787
 30
0.0
 11
74.4907901897
 21
71.6998247787
 31
0.0
  0
LINE
  5
E6
330
1F
100
AcDbEntity
  8
0
  6
Continuous
 62
     7
370
    25
100
AcDbLine
 10
75.4907901897
 20
78.7019958706
 30
0.0
 11
74.9907901897
 21
71.6998247787
 31
0.0
  0
LINE
  5
E7
330
1F
100
AcDbEntity
  8
0
  6
Continuous
 62
     7
370
    25
100
AcDbLine
 10
75.4907901897
 20
78.7019958706
 30
0.0
 11
99.4569855471
 21
78.7019958706
 31
0.0
  0
LINE
  5
E8
330
1F
100
AcDbEntity
  8
0
  6
Continuous
 62
     7
370
    25
100
AcDbLine
 10
99.4569855471
 20
78.7019958706
 30
0.0
 11
99.4569855471
 21
74.7019958706
 31
0.0
  0
LINE
  5
E9
330
1F
100
AcDbEntity
  8
0
  6
Continuous
 62
     7
370
    25
100
AcDbLine
 10
99.4569855471
 20
74.7019958706
 30
0.0
 11
115.4569855471
 21
74.7019958706
 31
0.0
  0
LINE
  5
EA
330
1F
100
AcDbEntity
  8
0
  6
Continuous
 62
     7
370
    25
100
AcDbLine
 10
115.4569855471
 20
74.7019958706
 30
0.0
 11
115.4569855471
 21
78.7019958706
 31
0.0
  0
LINE
  5
EB
330
1F
100
AcDbEntity
  8
0
  6
Continuous
 62
     7
370
    25
100
AcDbLine
 10
115.4569855471
 20
78.7019958706
 30
0.0
 11
125.9569855471
 21
78.7019958706
 31
0.0
  0
LINE
  5
EC
330
1F
100
AcDbEntity
  8
0
  6
Continuous
 62
     7
370
    25
100
AcDbLine
 10
125.9569855471
 20
78.7019958706
 30
0.0
 11
125.9569855471
 21
50.7019958706
 31
0.0
  0
LINE
  5
ED
330
1F
100
AcDbEntity
  8
0
  6
Continuous
 62
     7
370
    25
100
AcDbLine
 10
125.9569855471
 20
50.7019958706
 30
0.0
 11
128.9569855471
 21
50.7019958706
 31
0.0
  0
LINE
  5
EE
330
1F
100
AcDbEntity
  8
0
  6
Continuous
 62
     7
370
    25
100
AcDbLine
 10
128.9569855471
 20
50.7019958706
 30
0.0
 11
128.9569855471
 21
78.7019958706
 31
0.0
  0
LINE
  5
EF
330
1F
100
AcDbEntity
  8
0
  6
Continuous
 62
     7
370
    25
100
AcDbLine
 10
128.9569855471
 20
78.7019958706
 30
0.0
 11
139.4907901897
 21
78.7019958706
 31
0.0
  0
LINE
  5
F0
330
1F
100
AcDbEntity
  8
0
  6
Continuous
 62
     7
370
    25
100
AcDbLine
 10
71.4569855471
 20
63.7019958706
 30
0.0
 11
71.4569855471
 21
33.7019958706
 31
0.0
  0
LINE
  5
F1
330
1F
100
AcDbEntity
  8
0
  6
Continuous
 62
     7
370
    25
100
AcDbLine
 10
71.4569855471
 20
33.7019958706
 30
0.0
 11
74.4569855471
 21
33.7019958706
 31
0.0
  0
LINE
  5
F2
330
1F
100
AcDbEntity
  8
0
  6
Continuous
 62
     7
370
    25
100
AcDbLine
 10
74.4569855471
 20
33.7019958706
 30
0.0
 11
74.4569855471
 21
63.7019958706
 31
0.0
  0
LINE
  5
F3
330
1F
100
AcDbEntity
  8
0
  6
Continuous
 62
     7
370
    25
100
AcDbLine
 10
74.4569855471
 20
63.7019958706
 30
0.0
 11
71.4569855471
 21
63.7019958706
 31
0.0
  0
LINE
  5
F4
330
1F
100
AcDbEntity
  8
0
  6
Continuous
 62
     7
370
    25
100
AcDbLine
 10
159.4569855471
 20
63.7019958706
 30
0.0
 11
159.4569855471
 21
33.7019958706
 31
0.0
  0
LINE
  5
F5
330
1F
100
AcDbEntity
  8
0
  6
Continuous
 62
     7
370
    25
100
AcDbLine
 10
159.4569855471
 20
33.7019958706
 30
0.0
 11
162.4569855471
 21
33.7019958706
 31
0.0
  0
LINE
  5
F6
330
1F
100
AcDbEntity
  8
0
  6
Continuous
 62
     7
370
    25
100
AcDbLine
 10
162.4569855471
 20
33.7019958706
 30
0.0
 11
162.4569855471
 21
63.7019958706
 31
0.0
  0
LINE
  5
F7
330
1F
100
AcDbEntity
  8
0
  6
Continuous
 62
     7
370
    25
100
AcDbLine
 10
162.4569855471
 20
63.7019958706
 30
0.0
 11
159.4569855471
 21
63.7019958706
 31
0.0
  0
LINE
  5
F8
330
1F
100
AcDbEntity
  8
0
  6
Continuous
 62
     7
370
    25
100
AcDbLine
 10
92.4569855471
 20
63.7019958706
 30
0.0
 11
92.4569855471
 21
33.7019958706
 31
0.0
  0
LINE
  5
F9
330
1F
100
AcDbEntity
  8
0
  6
Continuous
 62
     7
370
    25
100
AcDbLine
 10
92.4569855471
 20
33.7019958706
 30
0.0
 11
95.4569855471
 21
33.7019958706
 31
0.0
  0
LINE
  5
FA
330
1F
100
AcDbEntity
  8
0
  6
Continuous
 62
     7
370
    25
100
AcDbLine
 10
95.4569855471
 20
33.7019958706
 30
0.0
 11
95.4569855471
 21
63.7019958706
 31
0.0
  0
LINE
  5
FB
330
1F
100
AcDbEntity
  8
0
  6
Continuous
 62
     7
370
    25
100
AcDbLine
 10
95.4569855471
 20
63.7019958706
 30
0.0
 11
92.4569855471
 21
63.7019958706
 31
0.0
  0
LINE
  5
FC
330
1F
100
AcDbEntity
  8
0
  6
Continuous
 62
     7
370
    25
100
AcDbLine
 10
180.4569855471
 20
63.7019958706
 30
0.0
 11
180.4569855471
 21
33.7019958706
 31
0.0
  0
LINE
  5
FD
330
1F
100
AcDbEntity
  8
0
  6
Continuous
 62
     7
370
    25
100
AcDbLine
 10
180.4569855471
 20
33.7019958706
 30
0.0
 11
183.4569855471
 21
33.7019958706
 31
0.0
  0
LINE
  5
FE
330
1F
100
AcDbEntity
  8
0
  6
Continuous
 62
     7
370
    25
100
AcDbLine
 10
183.4569855471
 20
33.7019958706
 30
0.0
 11
183.4569855471
 21
63.7019958706
 31
0.0
  0
LINE
  5
FF
330
1F
100
AcDbEntity
  8
0
  6
Continuous
 62
     7
370
    25
100
AcDbLine
 10
183.4569855471
 20
63.7019958706
 30
0.0
 11
180.4569855471
 21
63.7019958706
 31
0.0
  0
CIRCLE
  5
100
330
1F
100
AcDbEntity
  8
0
  6
Continuous
 62
     7
370
    25
100
AcDbCircle
 10
55.4569855471
 20
50.7019958706
 30
0.0
 40
7.000000000000007
  0
CIRCLE
  5
101
330
1F
100
AcDbEntity
  8
0
  6
Continuous
 62
     7
370
    25
100
AcDbCircle
 10
199.4569855471
 20
50.7019958706
 30
0.0
 40
7.0
  0
ENDSEC
  0
SECTION
  2
OBJECTS
  0
DICTIONARY
  5
C
330
0
100
AcDbDictionary
281
     1
  3
ACAD_GROUP
350
D
  3
ACAD_LAYOUT
350
1A
  3
ACAD_MLINESTYLE
350
17
  3
ACAD_PLOTSETTINGS
350
19
  3
ACAD_PLOTSTYLENAME
350
E
  3
ACAD_SCALELIST
350
47
  0
DICTIONARY
  5
D
102
{ACAD_REACTORS
330
C
102
}
330
C
100
AcDbDictionary
281
     1
  0
DICTIONARY
  5
1A
102
{ACAD_REACTORS
330
C
102
}
330
C
100
AcDbDictionary
281
     1
  3
Layout1
350
1E
  3
Layout2
350
26
  3
Model
350
22
  0
DICTIONARY
  5
17
102
{ACAD_REACTORS
330
C
102
}
330
C
100
AcDbDictionary
281
     1
  3
Standard
350
18
  0
DICTIONARY
  5
19
102
{ACAD_REACTORS
330
C
102
}
330
C
100
AcDbDictionary
281
     1
  0
ACDBDICTIONARYWDFLT
  5
E
102
{ACAD_REACTORS
330
C
102
}
330
C
100
AcDbDictionary
281
     1
  3
Normal
350
F
100
AcDbDictionaryWithDefault
340
F
  0
DICTIONARY
  5
47
102
{ACAD_REACTORS
330
C
102
}
330
C
100
AcDbDictionary
281
     1
  3
A0
350
48
  3
A1
350
49
  3
A2
350
4A
  3
A3
350
4B
  3
A4
350
4C
  3
A5
350
4D
  3
A6
350
4E
  3
A7
350
4F
  3
A8
350
50
  3
A9
350
51
  3
B0
350
52
  3
B1
350
53
  3
B2
350
54
  3
B3
350
55
  3
B4
350
56
  3
B5
350
57
  3
B6
350
58
  3
B7
350
59
  3
B8
350
5A
  3
B9
350
5B
  3
C0
350
5C
  3
C1
350
5D
  3
C2
350
5E
  3
C3
350
5F
  3
C4
350
60
  3
C5
350
61
  3
C6
350
62
  3
C7
350
63
  3
C8
350
64
  3
C9
350
65
  3
D0
350
66
  3
D1
350
67
  3
D2
350
68
  0
LAYOUT
  5
1E
102
{ACAD_REACTORS
330
1A
102
}
330
1A
100
AcDbPlotSettings
  1

  2
none_device
  4

  6

 40
0.0
 41
0.0
 42
0.0
 43
0.0
 44
0.0
 45
0.0
 46
0.0
 47
0.0
 48
0.0
 49
0.0
140
0.0
141
0.0
142
1.0
143
1.0
 70
   688
 72
     1
 73
     0
 74
     5
  7

 75
    16
147
1.0
148
0.0
149
0.0
100
AcDbLayout
  1
Layout1
 70
     1
 71
     1
 10
0.0
 20
0.0
 11
420.0
 21
297.0
 12
0.0
 22
0.0
 32
0.0
 14
1.0000000000E+20
 24
1.0000000000E+20
 34
1.0000000000E+20
 15
-1.0000000000E+20
 25
-1.0000000000E+20
 35
-1.0000000000E+20
146
0.0
 13
0.0
 23
0.0
 33
0.0
 16
1.0
 26
0.0
 36
0.0
 17
0.0
 27
1.0
 37
0.0
 76
     0
330
1B
  0
LAYOUT
  5
26
102
{ACAD_REACTORS
330
1A
102
}
330
1A
100
AcDbPlotSettings
  1

  2
none_device
  4

  6

 40
0.0
 41
0.0
 42
0.0
 43
0.0
 44
0.0
 45
0.0
 46
0.0
 47
0.0
 48
0.0
 49
0.0
140
0.0
141
0.0
142
1.0
143
1.0
 70
   688
 72
     1
 73
     0
 74
     5
  7

 75
    16
147
1.0
148
0.0
149
0.0
100
AcDbLayout
  1
Layout2
 70
     1
 71
     2
 10
0.0
 20
0.0
 11
0.0
 21
0.0
 12
0.0
 22
0.0
 32
0.0
 14
0.0
 24
0.0
 34
0.0
 15
0.0
 25
0.0
 35
0.0
146
0.0
 13
0.0
 23
0.0
 33
0.0
 16
1.0
 26
0.0
 36
0.0
 17
0.0
 27
1.0
 37
0.0
 76
     0
330
23
  0
LAYOUT
  5
22
102
{ACAD_REACTORS
330
1A
102
}
330
1A
100
AcDbPlotSettings
  1

  2
none_device
  4
Letter_(8.50_x_11.00_Inches)
  6

 40
6.35
 41
6.35
 42
6.35000508
 43
6.35000508
 44
215.9
 45
279.4
 46
0.0
 47
0.0
 48
0.0
 49
0.0
140
0.0
141
0.0
142
1.0
143
1.0
 70
  1712
 72
     1
 73
     0
 74
     0
  7

 75
     0
147
1.0
148
0.0
149
0.0
100
AcDbLayout
  1
Model
 70
     1
 71
     0
 10
0.0
 20
0.0
 11
250.0
 21
100.0
 12
0.0
 22
0.0
 32
0.0
 14
0.0
 24
0.0
 34
0.0
 15
250.0
 25
100.0
 35
0.0
146
0.0
 13
0.0
 23
0.0
 33
0.0
 16
1.0
 26
0.0
 36
0.0
 17
0.0
 27
1.0
 37
0.0
 76
     0
330
1F
331
29
  0
MLINESTYLE
  5
18
102
{ACAD_REACTORS
330
17
102
}
330
17
100
AcDbMlineStyle
  2
Standard
 70
     0
  3

 62
   256
 51
90.0
 52
90.0
 71
     2
 49
0.5
 62
   256
  6
BYLAYER
 49
-0.5
 62
   256
  6
BYLAYER
  0
ACDBPLACEHOLDER
  5
F
102
{ACAD_REACTORS
330
E
102
}
330
E
  0
SCALE
  5
48
102
{ACAD_REACTORS
330
47
102
}
330
47
100
AcDbScale
 70
     0
300
1:1
140
1.0
141
1.0
290
     1
  0
SCALE
  5
49
102
{ACAD_REACTORS
330
47
102
}
330
47
100
AcDbScale
 70
     0
300
1:2
140
1.0
141
2.0
290
     0
  0
SCALE
  5
4A
102
{ACAD_REACTORS
330
47
102
}
330
47
100
AcDbScale
 70
     0
300
1:4
140
1.0
141
4.0
290
     0
  0
SCALE
  5
4B
102
{ACAD_REACTORS
330
47
102
}
330
47
100
AcDbScale
 70
     0
300
1:5
140
1.0
141
5.0
290
     0
  0
SCALE
  5
4C
102
{ACAD_REACTORS
330
47
102
}
330
47
100
AcDbScale
 70
     0
300
1:8
140
1.0
141
8.0
290
     0
  0
SCALE
  5
4D
102
{ACAD_REACTORS
330
47
102
}
330
47
100
AcDbScale
 70
     0
300
1:10
140
1.0
141
10.0
290
     0
  0
SCALE
  5
4E
102
{ACAD_REACTORS
330
47
102
}
330
47
100
AcDbScale
 70
     0
300
1:16
140
1.0
141
16.0
290
     0
  0
SCALE
  5
4F
102
{ACAD_REACTORS
330
47
102
}
330
47
100
AcDbScale
 70
     0
300
1:20
140
1.0
141
20.0
290
     0
  0
SCALE
  5
50
102
{ACAD_REACTORS
330
47
102
}
330
47
100
AcDbScale
 70
     0
300
1:30
140
1.0
141
30.0
290
     0
  0
SCALE
  5
51
102
{ACAD_REACTORS
330
47
102
}
330
47
100
AcDbScale
 70
     0
300
1:40
140
1.0
141
40.0
290
     0
  0
SCALE
  5
52
102
{ACAD_REACTORS
330
47
102
}
330
47
100
AcDbScale
 70
     0
300
1:50
140
1.0
141
50.0
290
     0
  0
SCALE
  5
53
102
{ACAD_REACTORS
330
47
102
}
330
47
100
AcDbScale
 70
     0
300
1:100
140
1.0
141
100.0
290
     0
  0
SCALE
  5
54
102
{ACAD_REACTORS
330
47
102
}
330
47
100
AcDbScale
 70
     0
300
2:1
140
2.0
141
1.0
290
     0
  0
SCALE
  5
55
102
{ACAD_REACTORS
330
47
102
}
330
47
100
AcDbScale
 70
     0
300
4:1
140
4.0
141
1.0
290
     0
  0
SCALE
  5
56
102
{ACAD_REACTORS
330
47
102
}
330
47
100
AcDbScale
 70
     0
300
8:1
140
8.0
141
1.0
290
     0
  0
SCALE
  5
57
102
{ACAD_REACTORS
330
47
102
}
330
47
100
AcDbScale
 70
     0
300
10:1
140
10.0
141
1.0
290
     0
  0
SCALE
  5
58
102
{ACAD_REACTORS
330
47
102
}
330
47
100
AcDbScale
 70
     0
300
100:1
140
100.0
141
1.0
290
     0
  0
SCALE
  5
59
102
{ACAD_REACTORS
330
47
102
}
330
47
100
AcDbScale
 70
     0
300
1/128" = 1'-0"
140
0.0078125
141
12.0
290
     0
  0
SCALE
  5
5A
102
{ACAD_REACTORS
330
47
102
}
330
47
100
AcDbScale
 70
     0
300
1/64" = 1'-0"
140
0.015625
141
12.0
290
     0
  0
SCALE
  5
5B
102
{ACAD_REACTORS
330
47
102
}
330
47
100
AcDbScale
 70
     0
300
1/32" = 1'-0"
140
0.03125
141
12.0
290
     0
  0
SCALE
  5
5C
102
{ACAD_REACTORS
330
47
102
}
330
47
100
AcDbScale
 70
     0
300
1/16" = 1'-0"
140
0.0625
141
12.0
290
     0
  0
SCALE
  5
5D
102
{ACAD_REACTORS
330
47
102
}
330
47
100
AcDbScale
 70
     0
300
3/32" = 1'-0"
140
0.09375
141
12.0
290
     0
  0
SCALE
  5
5E
102
{ACAD_REACTORS
330
47
102
}
330
47
100
AcDbScale
 70
     0
300
1/8" = 1'-0"
140
0.125
141
12.0
290
     0
  0
SCALE
  5
5F
102
{ACAD_REACTORS
330
47
102
}
330
47
100
AcDbScale
 70
     0
300
3/16" = 1'-0"
140
0.1875
141
12.0
290
     0
  0
SCALE
  5
60
102
{ACAD_REACTORS
330
47
102
}
330
47
100
AcDbScale
 70
     0
300
1/4" = 1'-0"
140
0.25
141
12.0
290
     0
  0
SCALE
  5
61
102
{ACAD_REACTORS
330
47
102
}
330
47
100
AcDbScale
 70
     0
300
3/8" = 1'-0"
140
0.375
141
12.0
290
     0
  0
SCALE
  5
62
102
{ACAD_REACTORS
330
47
102
}
330
47
100
AcDbScale
 70
     0
300
1/2" = 1'-0"
140
0.5
141
12.0
290
     0
  0
SCALE
  5
63
102
{ACAD_REACTORS
330
47
102
}
330
47
100
AcDbScale
 70
     0
300
3/4" = 1'-0"
140
0.75
141
12.0
290
     0
  0
SCALE
  5
64
102
{ACAD_REACTORS
330
47
102
}
330
47
100
AcDbScale
 70
     0
300
1" = 1'-0"
140
1.0
141
12.0
290
     0
  0
SCALE
  5
65
102
{ACAD_REACTORS
330
47
102
}
330
47
100
AcDbScale
 70
     0
300
1-1/2" = 1'-0"
140
1.5
141
12.0
290
     0
  0
SCALE
  5
66
102
{ACAD_REACTORS
330
47
102
}
330
47
100
AcDbScale
 70
     0
300
3" = 1'-0"
140
3.0
141
12.0
290
     0
  0
SCALE
  5
67
102
{ACAD_REACTORS
330
47
102
}
330
47
100
AcDbScale
 70
     0
300
6" = 1'-0"
140
6.0
141
12.0
290
     0
  0
SCALE
  5
68
102
{ACAD_REACTORS
330
47
102
}
330
47
100
AcDbScale
 70
     0
300
1'-0" = 1'-0"
140
12.0
141
12.0
290
     0
  0
ENDSEC
  0
EOF
