  0
SECTION
  2
HEADER
  9
$ACADVER
  1
AC1015
  9
$ACADMAINTVER
 70
     6
  9
$DWGCODEPAGE
  3
ANSI_1252
  9
$INSBASE
 10
0.0
 20
0.0
 30
0.0
  9
$EXTMIN
 10
0.0
 20
0.0
 30
0.0
  9
$EXTMAX
 10
250.0
 20
100.0
 30
0.0
  9
$LIMMIN
 10
0.0
 20
0.0
  9
$LIMMAX
 10
250.0
 20
100.0
  9
$ORTHOMODE
 70
     0
  9
$REGENMODE
 70
     1
  9
$FILLMODE
 70
     1
  9
$QTEXTMODE
 70
     0
  9
$MIRRTEXT
 70
     1
  9
$LTSCALE
 40
1.0
  9
$ATTMODE
 70
     1
  9
$TEXTSIZE
 40
3.5
  9
$TRACEWID
 40
1.0
  9
$TEXTSTYLE
  7
Standard
  9
$CLAYER
  8
0
  9
$CELTYPE
  6
ByLayer
  9
$CECOLOR
 62
   256
  9
$CELTSCALE
 40
1.0
  9
$DISPSILH
 70
     0
  9
$DIMSCALE
 40
1.0
  9
$DIMASZ
 40
3.302
  9
$DIMEXO
 40
1.0
  9
$DIMDLI
 40
3.75
  9
$DIMRND
 40
0.0
  9
$DIMDLE
 40
0.0
  9
$DIMEXE
 40
1.0
  9
$DIMTP
 40
0.0
  9
$DIMTM
 40
0.0
  9
$DIMTXT
 40
3.5
  9
$DIMCEN
 40
2.5
  9
$DIMTSZ
 40
0.0
  9
$DIMTOL
 70
     0
  9
$DIMLIM
 70
     0
  9
$DIMTIH
 70
     1
  9
$DIMTOH
 70
     1
  9
$DIMSE1
 70
     0
  9
$DIMSE2
 70
     0
  9
$DIMTAD
 70
     1
  9
$DIMZIN
 70
     0
  9
$DIMBLK
  1

  9
$DIMASO
 70
     1
  9
$DIMSHO
 70
     1
  9
$DIMPOST
  1

  9
$DIMAPOST
  1

  9
$DIMALT
 70
     0
  9
$DIMALTD
 70
     3
  9
$DIMALTF
 40
0.0393700787
  9
$DIMLFAC
 40
2.0
  9
$DIMTOFL
 70
     1
  9
$DIMTVP
 40
0.0
  9
$DIMTIX
 70
     0
  9
$DIMSOXD
 70
     0
  9
$DIMSAH
 70
     0
  9
$DIMBLK1
  1

  9
$DIMBLK2
  1

  9
$DIMSTYLE
  2
ISO-25
  9
$DIMCLRD
 70
     0
  9
$DIMCLRE
 70
     0
  9
$DIMCLRT
 70
     0
  9
$DIMTFAC
 40
1.0
  9
$DIMGAP
 40
1.524
  9
$DIMJUST
 70
     0
  9
$DIMSD1
 70
     0
  9
$DIMSD2
 70
     0
  9
$DIMTOLJ
 70
     0
  9
$DIMTZIN
 70
     0
  9
$DIMALTZ
 70
     0
  9
$DIMALTTZ
 70
     0
  9
$DIMUPT
 70
     0
  9
$DIMDEC
 70
     2
  9
$DIMTDEC
 70
     2
  9
$DIMALTU
 70
     2
  9
$DIMALTTD
 70
     3
  9
$DIMTXSTY
  7
Standard
  9
$DIMAUNIT
 70
     0
  9
$DIMADEC
 70
     2
  9
$DIMALTRND
 40
0.0
  9
$DIMAZIN
 70
     0
  9
$DIMDSEP
 70
    44
  9
$DIMATFIT
 70
     3
  9
$DIMFRAC
 70
     0
  9
$DIMLDRBLK
  1

  9
$DIMLUNIT
 70
     2
  9
$DIMLWD
 70
    -2
  9
$DIMLWE
 70
    -2
  9
$DIMTMOVE
 70
     0
  9
$LUNITS
 70
     2
  9
$LUPREC
 70
     2
  9
$SKETCHINC
 40
1.0
  9
$FILLETRAD
 40
10.0
  9
$AUNITS
 70
     0
  9
$AUPREC
 70
     2
  9
$MENU
  1
.
  9
$ELEVATION
 40
0.0
  9
$PELEVATION
 40
0.0
  9
$THICKNESS
 40
0.0
  9
$LIMCHECK
 70
     0
  9
$CHAMFERA
 40
0.0
  9
$CHAMFERB
 40
0.0
  9
$CHAMFERC
 40
0.0
  9
$CHAMFERD
 40
0.0
  9
$SKPOLY
 70
     0
  9
$TDCREATE
 40
2457890.418295104
  9
$TDUCREATE
 40
2457890.334961771
  9
$TDUPDATE
 40
2457890.418295475
  9
$TDUUPDATE
 40
2457890.334962141
  9
$TDINDWG
 40
0.0000000116
  9
$TDUSRTIMER
 40
0.0000000116
  9
$USRTIMER
 70
     1
  9
$ANGBASE
 50
0.0
  9
$ANGDIR
 70
     0
  9
$PDMODE
 70
     0
  9
$PDSIZE
 40
-1.0
  9
$PLINEWID
 40
0.0
  9
$SPLFRAME
 70
     0
  9
$SPLINETYPE
 70
     6
  9
$SPLINESEGS
 70
     8
  9
$HANDSEED
  5
E8
  9
$SURFTAB1
 70
     6
  9
$SURFTAB2
 70
     6
  9
$SURFTYPE
 70
     6
  9
$SURFU
 70
     6
  9
$SURFV
 70
     6
  9
$UCSBASE
  2

  9
$UCSNAME
  2

  9
$UCSORG
 10
0.0
 20
0.0
 30
0.0
  9
$UCSXDIR
 10
1.0
 20
0.0
 30
0.0
  9
$UCSYDIR
 10
0.0
 20
1.0
 30
0.0
  9
$UCSORTHOREF
  2

  9
$UCSORTHOVIEW
 70
     0
  9
$UCSORGTOP
 10
0.0
 20
0.0
 30
0.0
  9
$UCSORGBOTTOM
 10
0.0
 20
0.0
 30
0.0
  9
$UCSORGLEFT
 10
0.0
 20
0.0
 30
0.0
  9
$UCSORGRIGHT
 10
0.0
 20
0.0
 30
0.0
  9
$UCSORGFRONT
 10
0.0
 20
0.0
 30
0.0
  9
$UCSORGBACK
 10
0.0
 20
0.0
 30
0.0
  9
$PUCSBASE
  2

  9
$PUCSNAME
  2

  9
$PUCSORG
 10
0.0
 20
0.0
 30
0.0
  9
$PUCSXDIR
 10
1.0
 20
0.0
 30
0.0
  9
$PUCSYDIR
 10
0.0
 20
1.0
 30
0.0
  9
$PUCSORTHOREF
  2

  9
$PUCSORTHOVIEW
 70
     0
  9
$PUCSORGTOP
 10
0.0
 20
0.0
 30
0.0
  9
$PUCSORGBOTTOM
 10
0.0
 20
0.0
 30
0.0
  9
$PUCSORGLEFT
 10
0.0
 20
0.0
 30
0.0
  9
$PUCSORGRIGHT
 10
0.0
 20
0.0
 30
0.0
  9
$PUCSORGFRONT
 10
0.0
 20
0.0
 30
0.0
  9
$PUCSORGBACK
 10
0.0
 20
0.0
 30
0.0
  9
$USERI1
 70
     0
  9
$USERI2
 70
     0
  9
$USERI3
 70
     0
  9
$USERI4
 70
     0
  9
$USERI5
 70
     0
  9
$USERR1
 40
0.0
  9
$USERR2
 40
0.0
  9
$USERR3
 40
0.0
  9
$USERR4
 40
0.0
  9
$USERR5
 40
0.0
  9
$WORLDVIEW
 70
     1
  9
$SHADEDGE
 70
     3
  9
$SHADEDIF
 70
    70
  9
$TILEMODE
 70
     1
  9
$MAXACTVP
 70
    64
  9
$PINSBASE
 10
0.0
 20
0.0
 30
0.0
  9
$PLIMCHECK
 70
     0
  9
$PEXTMIN
 10
1.0000000000E+20
 20
1.0000000000E+20
 30
1.0000000000E+20
  9
$PEXTMAX
 10
-1.0000000000E+20
 20
-1.0000000000E+20
 30
-1.0000000000E+20
  9
$PLIMMIN
 10
0.0
 20
0.0
  9
$PLIMMAX
 10
420.0
 20
297.0
  9
$UNITMODE
 70
     0
  9
$VISRETAIN
 70
     1
  9
$PLINEGEN
 70
     0
  9
$PSLTSCALE
 70
     1
  9
$TREEDEPTH
 70
  3020
  9
$CMLSTYLE
  2
Standard
  9
$CMLJUST
 70
     0
  9
$CMLSCALE
 40
20.0
  9
$PROXYGRAPHICS
 70
     1
  9
$MEASUREMENT
 70
     1
  9
$CELWEIGHT
370
    -1
  9
$ENDCAPS
280
     0
  9
$JOINSTYLE
280
     0
  9
$LWDISPLAY
290
     1
  9
$INSUNITS
 70
     4
  9
$HYPERLINKBASE
  1

  9
$STYLESHEET
  1

  9
$XEDIT
290
     1
  9
$CEPSNTYPE
380
     0
  9
$PSTYLEMODE
290
     1
  9
$FINGERPRINTGUID
  2
{191ABFF8-81F8-4388-999B-25BA96968958}
  9
$VERSIONGUID
  2
{FAEB1C32-E019-11D5-929B-00C0DF256EC4}
  9
$EXTNAMES
290
     1
  9
$PSVPSCALE
 40
0.0
  9
$OLESTARTUP
290
     0
  0
ENDSEC
  0
SECTION
  2
CLASSES
  0
CLASS
  1
ACDBDICTIONARYWDFLT
  2
AcDbDictionaryWithDefault
  3
ObjectDBX Classes
 90
        0
280
     0
281
     0
  0
CLASS
  1
VISUALSTYLE
  2
AcDbVisualStyle
  3
ObjectDBX Classes
 90
     4095
280
     0
281
     0
  0
CLASS
  1
MATERIAL
  2
AcDbMaterial
  3
ObjectDBX Classes
 90
     1153
280
     0
281
     0
  0
CLASS
  1
SCALE
  2
AcDbScale
  3
ObjectDBX Classes
 90
     1153
280
     0
281
     0
  0
CLASS
  1
TABLESTYLE
  2
AcDbTableStyle
  3
ObjectDBX Classes
 90
     4095
280
     0
281
     0
  0
CLASS
  1
MLEADERSTYLE
  2
AcDbMLeaderStyle
  3
ACDB_MLEADERSTYLE_CLASS
 90
     4095
280
     0
281
     0
  0
CLASS
  1
SUN
  2
AcDbSun
  3
SCENEOE
 90
     1153
280
     0
281
     0
  0
CLASS
  1
ACDBPLACEHOLDER
  2
AcDbPlaceHolder
  3
ObjectDBX Classes
 90
        0
280
     0
281
     0
  0
CLASS
  1
LAYOUT
  2
AcDbLayout
  3
ObjectDBX Classes
 90
        0
280
     0
281
     0
  0
ENDSEC
  0
SECTION
  2
TABLES
  0
TABLE
  2
VPORT
  5
8
330
0
100
AcDbSymbolTable
 70
     1
  0
VPORT
  5
29
330
8
100
AcDbSymbolTableRecord
100
AcDbViewportTableRecord
  2
*Active
 70
     0
 10
0.0
 20
0.0
 11
1.0
 21
1.0
 12
125.0
 22
50.0
 13
0.0
 23
0.0
 14
10.0
 24
10.0
 15
10.0
 25
10.0
 16
0.0
 26
0.0
 36
1.0
 17
0.0
 27
0.0
 37
0.0
 40
100.0
 41
2.5
 42
50.0
 43
0.0
 44
0.0
 50
0.0
 51
0.0
 71
     0
 72
  2000
 73
     1
 74
     3
 75
     0
 76
     0
 77
     0
 78
     0
281
     0
 65
     1
110
0.0
120
0.0
130
0.0
111
1.0
121
0.0
131
0.0
112
0.0
122
1.0
132
0.0
 79
     0
146
0.0
  0
ENDTAB
  0
TABLE
  2
LTYPE
  5
5
330
0
100
AcDbSymbolTable
 70
     6
  0
LTYPE
  5
14
330
5
100
AcDbSymbolTableRecord
100
AcDbLinetypeTableRecord
  2
ByBlock
 70
     0
  3

 72
    65
 73
     0
 40
0.0
  0
LTYPE
  5
15
330
5
100
AcDbSymbolTableRecord
100
AcDbLinetypeTableRecord
  2
ByLayer
 70
     0
  3

 72
    65
 73
     0
 40
0.0
  0
LTYPE
  5
16
330
5
100
AcDbSymbolTableRecord
100
AcDbLinetypeTableRecord
  2
Continuous
 70
     0
  3
Solid line
 72
    65
 73
     0
 40
0.0
  0
LTYPE
  5
6E
330
5
100
AcDbSymbolTableRecord
100
AcDbLinetypeTableRecord
  2
HIDDEN
 70
     0
  3
Hidden __ __ __ __ __ __ __ __ __ __ __ __ __ __
 72
    65
 73
     2
 40
1.905
 49
1.27
 74
     0
 49
-0.635
 74
     0
  0
LTYPE
  5
6F
330
5
100
AcDbSymbolTableRecord
100
AcDbLinetypeTableRecord
  2
PHANTOM
 70
     0
  3
Phantom ______  __  __  ______  __  __  ______
 72
    65
 73
     6
 40
12.7
 49
6.35
 74
     0
 49
-1.27
 74
     0
 49
1.27
 74
     0
 49
-1.27
 74
     0
 49
1.27
 74
     0
 49
-1.27
 74
     0
  0
LTYPE
  5
70
330
5
100
AcDbSymbolTableRecord
100
AcDbLinetypeTableRecord
  2
CENTER
 70
     0
  3
Center ____ _ ____ _ ____ _ ____ _ ____ _ ____
 72
    65
 73
     4
 40
10.16
 49
6.35
 74
     0
 49
-1.27
 74
     0
 49
1.27
 74
     0
 49
-1.27
 74
     0
  0
LTYPE
  5
71
330
5
100
AcDbSymbolTableRecord
100
AcDbLinetypeTableRecord
  2
CENTERX2
 70
     0
  3
Center (2x) ________  __  ________  __  _____
 72
    65
 73
     4
 40
20.32
 49
12.7
 74
     0
 49
-2.54
 74
     0
 49
2.54
 74
     0
 49
-2.54
 74
     0
  0
LTYPE
  5
72
330
5
100
AcDbSymbolTableRecord
100
AcDbLinetypeTableRecord
  2
DOT2
 70
     0
  3
Dot (.5x) ........................................
 72
    65
 73
     2
 40
0.635
 49
0.0
 74
     0
 49
-0.635
 74
     0
  0
ENDTAB
  0
TABLE
  2
LAYER
  5
2
330
0
100
AcDbSymbolTable
 70
     1
  0
LAYER
  5
10
330
2
100
AcDbSymbolTableRecord
100
AcDbLayerTableRecord
  2
0
 70
     0
 62
     7
  6
Continuous
370
    -3
390
F
  0
ENDTAB
  0
TABLE
  2
STYLE
  5
3
330
0
100
AcDbSymbolTable
 70
     1
  0
STYLE
  5
11
330
3
100
AcDbSymbolTableRecord
100
AcDbTextStyleTableRecord
  2
Standard
 70
     0
 40
0.0
 41
1.0
 50
0.0
 71
     0
 42
3.5
  3
txt
  4

  0
ENDTAB
  0
TABLE
  2
VIEW
  5
6
330
0
100
AcDbSymbolTable
 70
     0
  0
ENDTAB
  0
TABLE
  2
UCS
  5
7
330
0
100
AcDbSymbolTable
 70
     0
  0
ENDTAB
  0
TABLE
  2
APPID
  5
9
330
0
100
AcDbSymbolTable
 70
     1
  0
APPID
  5
12
330
9
100
AcDbSymbolTableRecord
100
AcDbRegAppTableRecord
  2
ACAD
 70
     0
  0
ENDTAB
  0
TABLE
  2
DIMSTYLE
  5
A
330
0
100
AcDbSymbolTable
 70
     1
100
AcDbDimStyleTable
  0
DIMSTYLE
105
27
330
A
100
AcDbSymbolTableRecord
100
AcDbDimStyleTableRecord
  2
ISO-25
 70
     0
 41
2.5
 42
0.625
 43
3.75
 44
1.25
 73
     0
 74
     0
 77
     1
 78
     8
140
2.5
141
2.5
143
0.0393700787
147
0.625
171
     3
172
     1
178
     0
271
     2
272
     2
274
     3
278
    44
283
     0
284
     8
340
11
  0
ENDTAB
  0
TABLE
  2
BLOCK_RECORD
  5
1
330
0
100
AcDbSymbolTable
 70
     1
  0
BLOCK_RECORD
  5
1F
330
1
100
AcDbSymbolTableRecord
100
AcDbBlockTableRecord
  2
*Model_Space
340
22
  0
BLOCK_RECORD
  5
1B
330
1
100
AcDbSymbolTableRecord
100
AcDbBlockTableRecord
  2
*Paper_Space
340
1E
  0
BLOCK_RECORD
  5
23
330
1
100
AcDbSymbolTableRecord
100
AcDbBlockTableRecord
  2
*Paper_Space0
340
26
  0
ENDTAB
  0
ENDSEC
  0
SECTION
  2
BLOCKS
  0
BLOCK
  5
20
330
1F
100
AcDbEntity
  8
0
100
AcDbBlockBegin
  2
*Model_Space
 70
     0
 10
0.0
 20
0.0
 30
0.0
  3
*Model_Space
  1

  0
ENDBLK
  5
21
330
1F
100
AcDbEntity
  8
0
100
AcDbBlockEnd
  0
BLOCK
  5
1C
330
1B
100
AcDbEntity
 67
     1
  8
0
100
AcDbBlockBegin
  2
*Paper_Space
 70
     0
 10
0.0
 20
0.0
 30
0.0
  3
*Paper_Space
  1

  0
ENDBLK
  5
1D
330
1B
100
AcDbEntity
 67
     1
  8
0
100
AcDbBlockEnd
  0
BLOCK
  5
24
330
23
100
AcDbEntity
  8
0
100
AcDbBlockBegin
  2
*Paper_Space0
 70
     0
 10
0.0
 20
0.0
 30
0.0
  3
*Paper_Space0
  1

  0
ENDBLK
  5
25
330
23
100
AcDbEntity
  8
0
100
AcDbBlockEnd
  0
ENDSEC
  0
SECTION
  2
ENTITIES
  0
LWPOLYLINE
  5
73
330
1F
100
AcDbEntity
  8
0
  6
Continuous
 62
     7
100
AcDbPolyline
 90
       24
 70
   128
 43
0.0
 10
74.7163496963
 20
71.4797659426
 10
75.1911890053
 20
71.4797659426
 10
75.1911890053
 20
71.4797659426
 10
75.1911890053
 20
69.3088257716
 10
75.1911890053
 20
69.3088257716
 10
77.904864219
 20
69.3088257716
 10
77.904864219
 20
69.3088257716
 10
77.904864219
 20
71.4797659426
 10
77.904864219
 20
71.4797659426
 10
78.3797573814
 20
71.4797659426
 10
78.3797573814
 20
71.4797659426
 10
78.3797573814
 20
66.1880992759
 10
78.3797573814
 20
66.1880992759
 10
77.904864219
 20
66.1880992759
 10
77.904864219
 20
66.1880992759
 10
77.904864219
 20
68.7660907289
 10
77.904864219
 20
68.7660907289
 10
75.1911890053
 20
68.7660907289
 10
75.1911890053
 20
68.7660907289
 10
75.1911890053
 20
66.1880992759
 10
75.1911890053
 20
66.1880992759
 10
74.7162958429
 20
66.1880992759
 10
74.7162958429
 20
66.1880992759
 10
74.7162958429
 20
71.4797659426
  0
LWPOLYLINE
  5
74
330
1F
100
AcDbEntity
  8
0
  6
Continuous
 62
     7
100
AcDbPolyline
 90
       18
 70
   128
 43
0.0
 10
79.3295703879
 20
71.4797659426
 10
79.8733387783
 20
71.4797659426
 10
79.8733387783
 20
71.4797659426
 10
81.2640973253
 20
69.2060029218
 10
81.2640973253
 20
69.2060029218
 10
82.6527358135
 20
71.4797659426
 10
82.6527358135
 20
71.4797659426
 10
83.1965308856
 20
71.4797659426
 10
83.1965308856
 20
71.4797659426
 10
81.5004838771
 20
68.7035489955
 10
81.5004838771
 20
68.7035489955
 10
81.5004838771
 20
66.1880992759
 10
81.5004838771
 20
66.1880992759
 10
81.0255907147
 20
66.1880992759
 10
81.0255907147
 20
66.1880992759
 10
81.0255907147
 20
68.7035489955
 10
81.0255907147
 20
68.7035489955
 10
79.3295437062
 20
71.4797659426
  0
LWPOLYLINE
  5
75
330
1F
100
AcDbEntity
  8
0
  6
Continuous
 62
     7
100
AcDbPolyline
 90
      106
 70
   128
 43
0.0
 10
84.3498908034
 20
69.8515608144
 10
83.8749496891
 20
69.8515608144
 10
83.8749496891
 20
69.8515608144
 10
83.8876700416
 20
70.0402460441
 10
83.9152308055
 20
70.2204510387
 10
83.9565719513
 20
70.391115769
 10
84.0138135379
 20
70.5543602935
 10
84.0848355064
 20
70.7080645537
 10
84.1706978862
 20
70.8543486082
 10
84.2714006773
 20
70.9910923982
 10
84.3869438798
 20
71.1193559533
 10
84.513087376
 20
71.2359591851
 10
84.6477111073
 20
71.3366619762
 10
84.7886950149
 20
71.4214643267
 10
84.9360390988
 20
71.4914262658
 10
85.0918634177
 20
71.5454877642
 10
85.2540479129
 20
71.5847088512
 10
85.4236526137
 20
71.6080294976
 10
85.6006775203
 20
71.6154497033
 10
85.6006775203
 20
71.6154497033
 10
85.7745223386
 20
71.6080294976
 10
85.9409469513
 20
71.5857688806
 10
86.0978312996
 20
71.5497278817
 10
86.2472954423
 20
71.4988464714
 10
86.3872193205
 20
71.4320646205
 10
86.5186629636
 20
71.3515023876
 10
86.6426864011
 20
71.2571597727
 10
86.7571695742
 20
71.1469167172
 10
86.8610524535
 20
71.0271333972
 10
86.9500949214
 20
70.9020499303
 10
87.0264170368
 20
70.7716663165
 10
87.0889587703
 20
70.6370425852
 10
87.1366600924
 20
70.4960586776
 10
87.1716410619
 20
70.3497746231
 10
87.1917816201
 20
70.1992504511
 10
87.1992018258
 20
70.0423661028
 10
87.1992018258
 20
70.0423661028
 10
87.1854214439
 20
69.8218799917
 10
87.144080298
 20
69.6088140863
 10
87.0762384177
 20
69.4031683865
 10
86.9797757441
 20
69.203882863
 10
86.91829404
 20
69.1021200425
 10
86.8440919834
 20
68.9908169575
 10
86.7571695742
 20
68.8710336376
 10
86.6575268125
 20
68.7438301119
 10
86.5441036688
 20
68.6060262925
 10
86.4190202019
 20
68.4608022674
 10
86.2801563531
 20
68.3070980072
 10
86.1285721517
 20
68.1438534827
 10
86.1285721517
 20
68.1438534827
 10
84.8045954556
 20
66.7308343187
 10
84.8045954556
 20
66.7308343187
 10
87.2670437062
 20
66.7308343187
 10
87.2670437062
 20
66.7308343187
 10
87.2670437062
 20
66.1880992759
 10
87.2670437062
 20
66.1880992759
 10
83.671424048
 20
66.1880992759
 10
83.671424048
 20
66.1880992759
 10
85.7236409284
 20
68.3781199757
 10
85.7236409284
 20
68.3781199757
 10
85.873105071
 20
68.535004324
 10
86.0087888317
 20
68.6812883785
 10
86.1306922104
 20
68.8169721392
 10
86.2388152072
 20
68.942055606
 10
86.3331578221
 20
69.0575988085
 10
86.4147800844
 20
69.1614816878
 10
86.4815619353
 20
69.2558243026
 10
86.5356234337
 20
69.3395666237
 10
86.6183057254
 20
69.4985710307
 10
86.6776673707
 20
69.6618155553
 10
86.7126483402
 20
69.828240168
 10
86.7243086634
 20
69.9999649276
 10
86.7243086634
 20
69.9999649276
 10
86.7190085165
 20
70.1080879244
 10
86.7031080758
 20
70.2119708037
 10
86.6776673707
 20
70.3116135655
 10
86.6416263717
 20
70.4080762391
 10
86.5939250496
 20
70.5013588245
 10
86.5366834631
 20
70.5893412631
 10
86.4699016121
 20
70.6741436135
 10
86.391459438
 20
70.7557658758
 10
86.3055970582
 20
70.8299679324
 10
86.2154945609
 20
70.8946297246
 10
86.121151946
 20
70.948691223
 10
86.0215091842
 20
70.993212457
 10
85.9165662756
 20
71.0281934266
 10
85.8084432788
 20
71.0525741023
 10
85.6950201351
 20
71.0674145136
 10
85.5762968445
 20
71.0727146605
 10
85.5762968445
 20
71.0727146605
 10
85.452273407
 20
71.0674145136
 10
85.3335501164
 20
71.0525741023
 10
85.2201269727
 20
71.0271333972
 10
85.1120039759
 20
70.9921524276
 10
85.009181126
 20
70.9476311937
 10
84.911658423
 20
70.8925096659
 10
84.8194358669
 20
70.8267878443
 10
84.7325134578
 20
70.7515257583
 10
84.6530112542
 20
70.6677834372
 10
84.5830493151
 20
70.5755608812
 10
84.5215676111
 20
70.47485809
 10
84.468566142
 20
70.3667350932
 10
84.4251049375
 20
70.2501318614
 10
84.3911839973
 20
70.1250483945
 10
84.3657432922
 20
69.992544722
 10
84.3498428515
 20
69.8515608144
  0
LWPOLYLINE
  5
76
330
1F
100
AcDbEntity
  8
0
  6
Continuous
 62
     7
100
AcDbPolyline
 90
       62
 70
   128
 43
0.0
 10
88.081201171
 20
66.1880992759
 10
88.0811462703
 20
71.6154497033
 10
88.0811462703
 20
71.6154497033
 10
88.5560394326
 20
71.6154497033
 10
88.5560394326
 20
71.6154497033
 10
88.5560394326
 20
69.3533470056
 10
88.5560394326
 20
69.3533470056
 10
88.7203439866
 20
69.5346120297
 10
88.8931287756
 20
69.6904363486
 10
89.0765138584
 20
69.8229400211
 10
89.2683791762
 20
69.9310630179
 10
89.4708447879
 20
70.014805339
 10
89.6817906346
 20
70.0752270136
 10
89.9033367751
 20
70.1112680126
 10
90.1333631506
 20
70.1229283357
 10
90.1333631506
 20
70.1229283357
 10
90.337948821
 20
70.1133880713
 10
90.5361743151
 20
70.0858273074
 10
90.7259195742
 20
70.0402460441
 10
90.9082446276
 20
69.9766442813
 10
91.082089446
 20
69.8939619896
 10
91.2495740881
 20
69.7932591985
 10
91.4085784951
 20
69.6745359079
 10
91.5601626965
 20
69.5367320884
 10
91.6990265454
 20
69.3862079164
 10
91.8188098653
 20
69.2282635387
 10
91.9205726859
 20
69.061838926
 10
92.0043150069
 20
68.8879941077
 10
92.0689767991
 20
68.7067290836
 10
92.1145580625
 20
68.5169838245
 10
92.1421188263
 20
68.3198183598
 10
92.1516590908
 20
68.11417266
 10
92.1516590908
 20
68.11417266
 10
92.1421188263
 20
67.9117070484
 10
92.1145580625
 20
67.7166616424
 10
92.0679167697
 20
67.5290364421
 10
92.0021949481
 20
67.3488314474
 10
91.9184526271
 20
67.1760466584
 10
91.8156297772
 20
67.0117421044
 10
91.6947864278
 20
66.8537977268
 10
91.5548625496
 20
66.7043335841
 10
91.4022183189
 20
66.5675897941
 10
91.2410938531
 20
66.4488665035
 10
91.073609211
 20
66.3481637124
 10
90.8976443338
 20
66.2665414501
 10
90.714259251
 20
66.2018796579
 10
90.5234539626
 20
66.1562983945
 10
90.3241684391
 20
66.12979766
 10
90.1185227393
 20
66.1202573956
 10
90.1185227393
 20
66.1202573956
 10
89.8831962168
 20
66.1319177188
 10
89.6595300176
 20
66.1668986883
 10
89.4475241415
 20
66.2262603336
 10
89.2461185592
 20
66.3078825959
 10
89.0563733002
 20
66.4160055927
 10
88.8782883643
 20
66.550629324
 10
88.7118637516
 20
66.7138738486
 10
88.5560394326
 20
66.9036191077
 10
88.5560394326
 20
66.9036191077
 10
88.5560394326
 20
66.1880992759
 10
88.5560394326
 20
66.1880992759
 10
88.0811462703
 20
66.1880992759
  0
LWPOLYLINE
  5
77
330
1F
100
AcDbEntity
  8
0
  6
Continuous
 62
     7
100
AcDbPolyline
 90
       56
 70
   128
 43
0.0
 10
90.1143156043
 20
66.595150558
 10
90.3220483803
 20
66.6078709105
 10
90.5213339038
 20
66.6449719388
 10
90.7121391923
 20
66.7075136723
 10
90.8955242751
 20
66.7944360815
 10
91.0651289759
 20
66.9036191077
 10
91.2167131773
 20
67.0340027214
 10
91.3502768792
 20
67.1834668641
 10
91.4647600523
 20
67.3530715649
 10
91.5580426378
 20
67.5353966183
 10
91.6237644594
 20
67.724081848
 10
91.6640455758
 20
67.9159471659
 10
91.6767659284
 20
68.11417266
 10
91.6767659284
 20
68.11417266
 10
91.6629855464
 20
68.3123981541
 10
91.6237644594
 20
68.5063835307
 10
91.555922579
 20
68.6950687604
 10
91.4626399935
 20
68.8795138726
 10
91.3470967911
 20
69.0512386322
 10
91.2135330892
 20
69.2028228336
 10
91.0608888584
 20
69.3342664768
 10
90.8902241282
 20
69.4455695617
 10
90.7078990747
 20
69.5346120297
 10
90.5181538157
 20
69.5971537631
 10
90.3231084097
 20
69.6353148208
 10
90.1217028274
 20
69.6480351734
 10
90.1217028274
 20
69.6480351734
 10
89.9160571276
 20
69.6353148208
 10
89.7167716041
 20
69.5971537631
 10
89.5217261981
 20
69.5346120297
 10
89.3319809391
 20
69.4455695617
 10
89.1560160619
 20
69.3353265062
 10
89.0012517724
 20
69.2081229805
 10
88.8676880705
 20
69.0628989554
 10
88.7563849855
 20
68.8996544308
 10
88.668402547
 20
68.7226295243
 10
88.6058608135
 20
68.5360643534
 10
88.5687597852
 20
68.3378388593
 10
88.5560394326
 20
68.1290130713
 10
88.5560394326
 20
68.1290130713
 10
88.5634596383
 20
67.9689486349
 10
88.5846602259
 20
67.8152443747
 10
88.6196411955
 20
67.6679002909
 10
88.668402547
 20
67.5279764127
 10
88.7320043098
 20
67.3944127107
 10
88.8093864545
 20
67.2672091851
 10
88.9005489813
 20
67.1474258651
 10
89.0054918899
 20
67.0340027214
 10
89.1210350924
 20
66.9311798715
 10
89.2439985005
 20
66.8421374036
 10
89.3722620555
 20
66.7668753176
 10
89.5079458162
 20
66.7053936135
 10
89.6499897532
 20
66.656632262
 10
89.7983938664
 20
66.6227113219
 10
89.9531581559
 20
66.6015107343
 10
90.1142826217
 20
66.595150558
  0
LINE
  5
78
330
1F
100
AcDbEntity
  8
0
  6
Continuous
 62
     7
370
    25
100
AcDbLine
 10
136.1589814178
 20
78.8774948383
 30
0.0
 11
136.1589814178
 21
74.8774948383
 31
0.0
  0
LINE
  5
79
330
1F
100
AcDbEntity
  8
0
  6
Continuous
 62
     7
370
    25
100
AcDbLine
 10
136.1589814178
 20
74.8774948383
 30
0.0
 11
150.1589814178
 21
74.8774948383
 31
0.0
  0
LINE
  5
7A
330
1F
100
AcDbEntity
  8
0
  6
Continuous
 62
     7
370
    25
100
AcDbLine
 10
150.1589814178
 20
74.8774948383
 30
0.0
 11
150.1589814178
 21
78.8774948383
 31
0.0
  0
LINE
  5
7B
330
1F
100
AcDbEntity
  8
0
  6
Continuous
 62
     7
370
    25
100
AcDbLine
 10
165.1589814178
 20
78.8774948383
 30
0.0
 11
150.1589814178
 21
78.8774948383
 31
0.0
  0
LINE
  5
7C
330
1F
100
AcDbEntity
  8
0
  6
Continuous
 62
     7
370
    25
100
AcDbLine
 10
165.6589814178
 20
71.8753237464
 30
0.0
 11
165.1589814178
 21
78.8774948383
 31
0.0
  0
LINE
  5
7D
330
1F
100
AcDbEntity
  8
0
  6
Continuous
 62
     7
370
    25
100
AcDbLine
 10
166.1589814178
 20
71.8753237464
 30
0.0
 11
165.6589814178
 21
71.8753237464
 31
0.0
  0
LINE
  5
7E
330
1F
100
AcDbEntity
  8
0
  6
Continuous
 62
     7
370
    25
100
AcDbLine
 10
166.1589814178
 20
80.8753237464
 30
0.0
 11
166.1589814178
 21
71.8753237464
 31
0.0
  0
LINE
  5
7F
330
1F
100
AcDbEntity
  8
0
  6
Continuous
 62
     7
370
    25
100
AcDbLine
 10
165.6589814178
 20
81.8753237464
 30
0.0
 11
166.1589814178
 21
80.8753237464
 31
0.0
  0
LINE
  5
80
330
1F
100
AcDbEntity
  8
0
  6
Continuous
 62
     7
370
    25
100
AcDbLine
 10
165.1589814178
 20
82.3753237464
 30
0.0
 11
165.6589814178
 21
81.8753237464
 31
0.0
  0
LINE
  5
81
330
1F
100
AcDbEntity
  8
0
  6
Continuous
 62
     7
370
    25
100
AcDbLine
 10
165.1589814178
 20
83.3753237464
 30
0.0
 11
165.1589814178
 21
82.3753237464
 31
0.0
  0
LINE
  5
82
330
1F
100
AcDbEntity
  8
0
  6
Continuous
 62
     7
370
    25
100
AcDbLine
 10
166.6589814178
 20
84.8753237464
 30
0.0
 11
165.1589814178
 21
83.3753237464
 31
0.0
  0
LINE
  5
83
330
1F
100
AcDbEntity
  8
0
  6
Continuous
 62
     7
370
    25
100
AcDbLine
 10
168.1589814178
 20
84.8753237464
 30
0.0
 11
166.6589814178
 21
84.8753237464
 31
0.0
  0
LINE
  5
84
330
1F
100
AcDbEntity
  8
0
  6
Continuous
 62
     7
370
    25
100
AcDbLine
 10
168.6589814178
 20
71.8753237464
 30
0.0
 11
168.1589814178
 21
84.8753237464
 31
0.0
  0
LINE
  5
85
330
1F
100
AcDbEntity
  8
0
  6
Continuous
 62
     7
370
    25
100
AcDbLine
 10
169.1589814178
 20
71.8753237464
 30
0.0
 11
168.6589814178
 21
71.8753237464
 31
0.0
  0
LINE
  5
86
330
1F
100
AcDbEntity
  8
0
  6
Continuous
 62
     7
370
    25
100
AcDbLine
 10
169.1589814178
 20
84.8753237464
 30
0.0
 11
169.1589814178
 21
71.8753237464
 31
0.0
  0
LINE
  5
87
330
1F
100
AcDbEntity
  8
0
  6
Continuous
 62
     7
370
    25
100
AcDbLine
 10
177.1589814178
 20
84.8753237464
 30
0.0
 11
169.1589814178
 21
84.8753237464
 31
0.0
  0
LINE
  5
88
330
1F
100
AcDbEntity
  8
0
  6
Continuous
 62
     7
370
    25
100
AcDbLine
 10
177.1589814178
 20
71.8753237464
 30
0.0
 11
177.1589814178
 21
84.8753237464
 31
0.0
  0
LINE
  5
89
330
1F
100
AcDbEntity
  8
0
  6
Continuous
 62
     7
370
    25
100
AcDbLine
 10
177.6589814178
 20
71.8753237464
 30
0.0
 11
177.1589814178
 21
71.8753237464
 31
0.0
  0
LINE
  5
8A
330
1F
100
AcDbEntity
  8
0
  6
Continuous
 62
     7
370
    25
100
AcDbLine
 10
178.1589814178
 20
84.8753237464
 30
0.0
 11
177.6589814178
 21
71.8753237464
 31
0.0
  0
LINE
  5
8B
330
1F
100
AcDbEntity
  8
0
  6
Continuous
 62
     7
370
    25
100
AcDbLine
 10
179.6589814178
 20
84.8753237464
 30
0.0
 11
178.1589814178
 21
84.8753237464
 31
0.0
  0
LINE
  5
8C
330
1F
100
AcDbEntity
  8
0
  6
Continuous
 62
     7
370
    25
100
AcDbLine
 10
181.1589814178
 20
83.3753237464
 30
0.0
 11
179.6589814178
 21
84.8753237464
 31
0.0
  0
LINE
  5
8D
330
1F
100
AcDbEntity
  8
0
  6
Continuous
 62
     7
370
    25
100
AcDbLine
 10
181.1589814178
 20
82.3753237464
 30
0.0
 11
181.1589814178
 21
83.3753237464
 31
0.0
  0
LINE
  5
8E
330
1F
100
AcDbEntity
  8
0
  6
Continuous
 62
     7
370
    25
100
AcDbLine
 10
180.6589814178
 20
81.8753237464
 30
0.0
 11
181.1589814178
 21
82.3753237464
 31
0.0
  0
LINE
  5
8F
330
1F
100
AcDbEntity
  8
0
  6
Continuous
 62
     7
370
    25
100
AcDbLine
 10
180.1589814178
 20
80.8753237464
 30
0.0
 11
180.6589814178
 21
81.8753237464
 31
0.0
  0
LINE
  5
90
330
1F
100
AcDbEntity
  8
0
  6
Continuous
 62
     7
370
    25
100
AcDbLine
 10
180.1589814178
 20
71.8753237464
 30
0.0
 11
180.1589814178
 21
80.8753237464
 31
0.0
  0
LINE
  5
91
330
1F
100
AcDbEntity
  8
0
  6
Continuous
 62
     7
370
    25
100
AcDbLine
 10
180.6589814178
 20
71.8753237464
 30
0.0
 11
180.1589814178
 21
71.8753237464
 31
0.0
  0
LINE
  5
92
330
1F
100
AcDbEntity
  8
0
  6
Continuous
 62
     7
370
    25
100
AcDbLine
 10
181.1589814178
 20
78.8774948383
 30
0.0
 11
180.6589814178
 21
71.8753237464
 31
0.0
  0
LINE
  5
93
330
1F
100
AcDbEntity
  8
0
  6
Continuous
 62
     7
370
    25
100
AcDbLine
 10
194.3039814178
 20
78.8774948383
 30
0.0
 11
181.1589814178
 21
78.8774948383
 31
0.0
  0
ELLIPSE
  5
94
330
1F
100
AcDbEntity
  8
0
  6
Continuous
 62
     7
370
    25
100
AcDbEllipse
 10
128.1589814178
 20
22.8774948383
 30
0.0
 11
0.0
 21
-105.874182609986
 31
0.0
210
0.0
220
0.0
230
1.0
 40
0.736156805
 41
1.570796326794897
 42
2.128135243438627
  0
LINE
  5
95
330
1F
100
AcDbEntity
  8
0
  6
Continuous
 62
     7
370
    25
100
AcDbLine
 10
175.1589814178
 20
22.8774948383
 30
0.0
 11
206.0989814178
 21
22.8774948383
 31
0.0
  0
LINE
  5
96
330
1F
100
AcDbEntity
  8
0
  6
Continuous
 62
     7
370
    25
100
AcDbLine
 10
174.6589814178
 20
29.8796659301
 30
0.0
 11
175.1589814178
 21
22.8774948383
 31
0.0
  0
LINE
  5
97
330
1F
100
AcDbEntity
  8
0
  6
Continuous
 62
     7
370
    25
100
AcDbLine
 10
174.1589814178
 20
29.8796659301
 30
0.0
 11
174.6589814178
 21
29.8796659301
 31
0.0
  0
LINE
  5
98
330
1F
100
AcDbEntity
  8
0
  6
Continuous
 62
     7
370
    25
100
AcDbLine
 10
174.1589814178
 20
20.8796659301
 30
0.0
 11
174.1589814178
 21
29.8796659301
 31
0.0
  0
LINE
  5
99
330
1F
100
AcDbEntity
  8
0
  6
Continuous
 62
     7
370
    25
100
AcDbLine
 10
174.6589814178
 20
19.8796659301
 30
0.0
 11
174.1589814178
 21
20.8796659301
 31
0.0
  0
LINE
  5
9A
330
1F
100
AcDbEntity
  8
0
  6
Continuous
 62
     7
370
    25
100
AcDbLine
 10
175.1589814178
 20
19.3796659301
 30
0.0
 11
174.6589814178
 21
19.8796659301
 31
0.0
  0
LINE
  5
9B
330
1F
100
AcDbEntity
  8
0
  6
Continuous
 62
     7
370
    25
100
AcDbLine
 10
175.1589814178
 20
18.3796659301
 30
0.0
 11
175.1589814178
 21
19.3796659301
 31
0.0
  0
LINE
  5
9C
330
1F
100
AcDbEntity
  8
0
  6
Continuous
 62
     7
370
    25
100
AcDbLine
 10
173.6589814178
 20
16.8796659301
 30
0.0
 11
175.1589814178
 21
18.3796659301
 31
0.0
  0
LINE
  5
9D
330
1F
100
AcDbEntity
  8
0
  6
Continuous
 62
     7
370
    25
100
AcDbLine
 10
172.1589814178
 20
16.8796659301
 30
0.0
 11
173.6589814178
 21
16.8796659301
 31
0.0
  0
LINE
  5
9E
330
1F
100
AcDbEntity
  8
0
  6
Continuous
 62
     7
370
    25
100
AcDbLine
 10
171.6589814178
 20
29.8796659301
 30
0.0
 11
172.1589814178
 21
16.8796659301
 31
0.0
  0
LINE
  5
9F
330
1F
100
AcDbEntity
  8
0
  6
Continuous
 62
     7
370
    25
100
AcDbLine
 10
171.1589814178
 20
29.8796659301
 30
0.0
 11
171.6589814178
 21
29.8796659301
 31
0.0
  0
LINE
  5
A0
330
1F
100
AcDbEntity
  8
0
  6
Continuous
 62
     7
370
    25
100
AcDbLine
 10
171.1589814178
 20
16.8796659301
 30
0.0
 11
171.1589814178
 21
29.8796659301
 31
0.0
  0
LINE
  5
A1
330
1F
100
AcDbEntity
  8
0
  6
Continuous
 62
     7
370
    25
100
AcDbLine
 10
163.1589814178
 20
16.8796659301
 30
0.0
 11
171.1589814178
 21
16.8796659301
 31
0.0
  0
LINE
  5
A2
330
1F
100
AcDbEntity
  8
0
  6
Continuous
 62
     7
370
    25
100
AcDbLine
 10
163.1589814178
 20
29.8796659301
 30
0.0
 11
163.1589814178
 21
16.8796659301
 31
0.0
  0
LINE
  5
A3
330
1F
100
AcDbEntity
  8
0
  6
Continuous
 62
     7
370
    25
100
AcDbLine
 10
162.6589814178
 20
29.8796659301
 30
0.0
 11
163.1589814178
 21
29.8796659301
 31
0.0
  0
LINE
  5
A4
330
1F
100
AcDbEntity
  8
0
  6
Continuous
 62
     7
370
    25
100
AcDbLine
 10
162.1589814178
 20
16.8796659301
 30
0.0
 11
162.6589814178
 21
29.8796659301
 31
0.0
  0
LINE
  5
A5
330
1F
100
AcDbEntity
  8
0
  6
Continuous
 62
     7
370
    25
100
AcDbLine
 10
160.6589814178
 20
16.8796659301
 30
0.0
 11
162.1589814178
 21
16.8796659301
 31
0.0
  0
LINE
  5
A6
330
1F
100
AcDbEntity
  8
0
  6
Continuous
 62
     7
370
    25
100
AcDbLine
 10
159.1589814178
 20
18.3796659301
 30
0.0
 11
160.6589814178
 21
16.8796659301
 31
0.0
  0
LINE
  5
A7
330
1F
100
AcDbEntity
  8
0
  6
Continuous
 62
     7
370
    25
100
AcDbLine
 10
159.1589814178
 20
19.3796659301
 30
0.0
 11
159.1589814178
 21
18.3796659301
 31
0.0
  0
LINE
  5
A8
330
1F
100
AcDbEntity
  8
0
  6
Continuous
 62
     7
370
    25
100
AcDbLine
 10
159.6589814178
 20
19.8796659301
 30
0.0
 11
159.1589814178
 21
19.3796659301
 31
0.0
  0
LINE
  5
A9
330
1F
100
AcDbEntity
  8
0
  6
Continuous
 62
     7
370
    25
100
AcDbLine
 10
160.1589814178
 20
20.8796659301
 30
0.0
 11
159.6589814178
 21
19.8796659301
 31
0.0
  0
LINE
  5
AA
330
1F
100
AcDbEntity
  8
0
  6
Continuous
 62
     7
370
    25
100
AcDbLine
 10
160.1589814178
 20
29.8796659301
 30
0.0
 11
160.1589814178
 21
20.8796659301
 31
0.0
  0
LINE
  5
AB
330
1F
100
AcDbEntity
  8
0
  6
Continuous
 62
     7
370
    25
100
AcDbLine
 10
159.6589814178
 20
29.8796659301
 30
0.0
 11
160.1589814178
 21
29.8796659301
 31
0.0
  0
LINE
  5
AC
330
1F
100
AcDbEntity
  8
0
  6
Continuous
 62
     7
370
    25
100
AcDbLine
 10
159.1589814178
 20
22.8774948383
 30
0.0
 11
159.6589814178
 21
29.8796659301
 31
0.0
  0
LINE
  5
AD
330
1F
100
AcDbEntity
  8
0
  6
Continuous
 62
     7
370
    25
100
AcDbLine
 10
97.1589814178
 20
22.8774948383
 30
0.0
 11
159.1589814178
 21
22.8774948383
 31
0.0
  0
LINE
  5
AE
330
1F
100
AcDbEntity
  8
0
  6
Continuous
 62
     7
370
    25
100
AcDbLine
 10
96.6589814178
 20
29.8796659301
 30
0.0
 11
97.1589814178
 21
22.8774948383
 31
0.0
  0
LINE
  5
AF
330
1F
100
AcDbEntity
  8
0
  6
Continuous
 62
     7
370
    25
100
AcDbLine
 10
96.1589814178
 20
29.8796659301
 30
0.0
 11
96.6589814178
 21
29.8796659301
 31
0.0
  0
LINE
  5
B0
330
1F
100
AcDbEntity
  8
0
  6
Continuous
 62
     7
370
    25
100
AcDbLine
 10
96.1589814178
 20
20.8796659301
 30
0.0
 11
96.1589814178
 21
29.8796659301
 31
0.0
  0
LINE
  5
B1
330
1F
100
AcDbEntity
  8
0
  6
Continuous
 62
     7
370
    25
100
AcDbLine
 10
96.6589814178
 20
19.8796659301
 30
0.0
 11
96.1589814178
 21
20.8796659301
 31
0.0
  0
LINE
  5
B2
330
1F
100
AcDbEntity
  8
0
  6
Continuous
 62
     7
370
    25
100
AcDbLine
 10
97.1589814178
 20
19.3796659301
 30
0.0
 11
96.6589814178
 21
19.8796659301
 31
0.0
  0
LINE
  5
B3
330
1F
100
AcDbEntity
  8
0
  6
Continuous
 62
     7
370
    25
100
AcDbLine
 10
97.1589814178
 20
18.3796659301
 30
0.0
 11
97.1589814178
 21
19.3796659301
 31
0.0
  0
LINE
  5
B4
330
1F
100
AcDbEntity
  8
0
  6
Continuous
 62
     7
370
    25
100
AcDbLine
 10
95.6589814178
 20
16.8796659301
 30
0.0
 11
97.1589814178
 21
18.3796659301
 31
0.0
  0
LINE
  5
B5
330
1F
100
AcDbEntity
  8
0
  6
Continuous
 62
     7
370
    25
100
AcDbLine
 10
94.1589814178
 20
16.8796659301
 30
0.0
 11
95.6589814178
 21
16.8796659301
 31
0.0
  0
LINE
  5
B6
330
1F
100
AcDbEntity
  8
0
  6
Continuous
 62
     7
370
    25
100
AcDbLine
 10
93.6589814178
 20
29.8796659301
 30
0.0
 11
94.1589814178
 21
16.8796659301
 31
0.0
  0
LINE
  5
B7
330
1F
100
AcDbEntity
  8
0
  6
Continuous
 62
     7
370
    25
100
AcDbLine
 10
93.1589814178
 20
29.8796659301
 30
0.0
 11
93.6589814178
 21
29.8796659301
 31
0.0
  0
LINE
  5
B8
330
1F
100
AcDbEntity
  8
0
  6
Continuous
 62
     7
370
    25
100
AcDbLine
 10
93.1589814178
 20
16.8796659301
 30
0.0
 11
93.1589814178
 21
29.8796659301
 31
0.0
  0
LINE
  5
B9
330
1F
100
AcDbEntity
  8
0
  6
Continuous
 62
     7
370
    25
100
AcDbLine
 10
85.1589814178
 20
16.8796659301
 30
0.0
 11
93.1589814178
 21
16.8796659301
 31
0.0
  0
LINE
  5
BA
330
1F
100
AcDbEntity
  8
0
  6
Continuous
 62
     7
370
    25
100
AcDbLine
 10
85.1589814178
 20
29.8796659301
 30
0.0
 11
85.1589814178
 21
16.8796659301
 31
0.0
  0
LINE
  5
BB
330
1F
100
AcDbEntity
  8
0
  6
Continuous
 62
     7
370
    25
100
AcDbLine
 10
84.6589814178
 20
29.8796659301
 30
0.0
 11
85.1589814178
 21
29.8796659301
 31
0.0
  0
LINE
  5
BC
330
1F
100
AcDbEntity
  8
0
  6
Continuous
 62
     7
370
    25
100
AcDbLine
 10
84.1589814178
 20
16.8796659301
 30
0.0
 11
84.6589814178
 21
29.8796659301
 31
0.0
  0
LINE
  5
BD
330
1F
100
AcDbEntity
  8
0
  6
Continuous
 62
     7
370
    25
100
AcDbLine
 10
82.6589814178
 20
16.8796659301
 30
0.0
 11
84.1589814178
 21
16.8796659301
 31
0.0
  0
LINE
  5
BE
330
1F
100
AcDbEntity
  8
0
  6
Continuous
 62
     7
370
    25
100
AcDbLine
 10
81.1589814178
 20
18.3796659301
 30
0.0
 11
82.6589814178
 21
16.8796659301
 31
0.0
  0
LINE
  5
BF
330
1F
100
AcDbEntity
  8
0
  6
Continuous
 62
     7
370
    25
100
AcDbLine
 10
81.1589814178
 20
19.3796659301
 30
0.0
 11
81.1589814178
 21
18.3796659301
 31
0.0
  0
LINE
  5
C0
330
1F
100
AcDbEntity
  8
0
  6
Continuous
 62
     7
370
    25
100
AcDbLine
 10
81.6589814178
 20
19.8796659301
 30
0.0
 11
81.1589814178
 21
19.3796659301
 31
0.0
  0
LINE
  5
C1
330
1F
100
AcDbEntity
  8
0
  6
Continuous
 62
     7
370
    25
100
AcDbLine
 10
82.1589814178
 20
20.8796659301
 30
0.0
 11
81.6589814178
 21
19.8796659301
 31
0.0
  0
LINE
  5
C2
330
1F
100
AcDbEntity
  8
0
  6
Continuous
 62
     7
370
    25
100
AcDbLine
 10
82.1589814178
 20
29.8796659301
 30
0.0
 11
82.1589814178
 21
20.8796659301
 31
0.0
  0
LINE
  5
C3
330
1F
100
AcDbEntity
  8
0
  6
Continuous
 62
     7
370
    25
100
AcDbLine
 10
81.6589814178
 20
29.8796659301
 30
0.0
 11
82.1589814178
 21
29.8796659301
 31
0.0
  0
LINE
  5
C4
330
1F
100
AcDbEntity
  8
0
  6
Continuous
 62
     7
370
    25
100
AcDbLine
 10
81.1589814178
 20
22.8774948383
 30
0.0
 11
81.6589814178
 21
29.8796659301
 31
0.0
  0
LINE
  5
C5
330
1F
100
AcDbEntity
  8
0
  6
Continuous
 62
     7
370
    25
100
AcDbLine
 10
50.2189814178
 20
22.8774948383
 30
0.0
 11
81.1589814178
 21
22.8774948383
 31
0.0
  0
ELLIPSE
  5
C6
330
1F
100
AcDbEntity
  8
0
  6
Continuous
 62
     7
370
    25
100
AcDbEllipse
 10
128.1589814178
 20
22.8774948383
 30
0.0
 11
0.0
 21
-105.874182609986
 31
0.0
210
0.0
220
0.0
230
1.0
 40
0.736156805
 41
4.155050063740972
 42
4.7123889803847
  0
LINE
  5
C7
330
1F
100
AcDbEntity
  8
0
  6
Continuous
 62
     7
370
    25
100
AcDbLine
 10
76.1589814178
 20
78.8774948383
 30
0.0
 11
62.0139814178
 21
78.8774948383
 31
0.0
  0
LINE
  5
C8
330
1F
100
AcDbEntity
  8
0
  6
Continuous
 62
     7
370
    25
100
AcDbLine
 10
76.1589814178
 20
78.8774948383
 30
0.0
 11
76.1589814178
 21
74.8774948383
 31
0.0
  0
LINE
  5
C9
330
1F
100
AcDbEntity
  8
0
  6
Continuous
 62
     7
370
    25
100
AcDbLine
 10
76.1589814178
 20
74.8774948383
 30
0.0
 11
90.1589814178
 21
74.8774948383
 31
0.0
  0
LINE
  5
CA
330
1F
100
AcDbEntity
  8
0
  6
Continuous
 62
     7
370
    25
100
AcDbLine
 10
90.1589814178
 20
74.8774948383
 30
0.0
 11
90.1589814178
 21
78.8774948383
 31
0.0
  0
LINE
  5
CB
330
1F
100
AcDbEntity
  8
0
  6
Continuous
 62
     7
370
    25
100
AcDbLine
 10
105.1589814178
 20
78.8774948383
 30
0.0
 11
90.1589814178
 21
78.8774948383
 31
0.0
  0
LINE
  5
CC
330
1F
100
AcDbEntity
  8
0
  6
Continuous
 62
     7
370
    25
100
AcDbLine
 10
105.6589814178
 20
71.8753237464
 30
0.0
 11
105.1589814178
 21
78.8774948383
 31
0.0
  0
LINE
  5
CD
330
1F
100
AcDbEntity
  8
0
  6
Continuous
 62
     7
370
    25
100
AcDbLine
 10
106.1589814178
 20
71.8753237464
 30
0.0
 11
105.6589814178
 21
71.8753237464
 31
0.0
  0
LINE
  5
CE
330
1F
100
AcDbEntity
  8
0
  6
Continuous
 62
     7
370
    25
100
AcDbLine
 10
106.1589814178
 20
80.8753237464
 30
0.0
 11
106.1589814178
 21
71.8753237464
 31
0.0
  0
LINE
  5
CF
330
1F
100
AcDbEntity
  8
0
  6
Continuous
 62
     7
370
    25
100
AcDbLine
 10
105.6589814178
 20
81.8753237464
 30
0.0
 11
106.1589814178
 21
80.8753237464
 31
0.0
  0
LINE
  5
D0
330
1F
100
AcDbEntity
  8
0
  6
Continuous
 62
     7
370
    25
100
AcDbLine
 10
105.1589814178
 20
82.3753237464
 30
0.0
 11
105.6589814178
 21
81.8753237464
 31
0.0
  0
LINE
  5
D1
330
1F
100
AcDbEntity
  8
0
  6
Continuous
 62
     7
370
    25
100
AcDbLine
 10
105.1589814178
 20
83.3753237464
 30
0.0
 11
105.1589814178
 21
82.3753237464
 31
0.0
  0
LINE
  5
D2
330
1F
100
AcDbEntity
  8
0
  6
Continuous
 62
     7
370
    25
100
AcDbLine
 10
106.6589814178
 20
84.8753237464
 30
0.0
 11
105.1589814178
 21
83.3753237464
 31
0.0
  0
LINE
  5
D3
330
1F
100
AcDbEntity
  8
0
  6
Continuous
 62
     7
370
    25
100
AcDbLine
 10
108.1589814178
 20
84.8753237464
 30
0.0
 11
106.6589814178
 21
84.8753237464
 31
0.0
  0
LINE
  5
D4
330
1F
100
AcDbEntity
  8
0
  6
Continuous
 62
     7
370
    25
100
AcDbLine
 10
108.6589814178
 20
71.8753237464
 30
0.0
 11
108.1589814178
 21
84.8753237464
 31
0.0
  0
LINE
  5
D5
330
1F
100
AcDbEntity
  8
0
  6
Continuous
 62
     7
370
    25
100
AcDbLine
 10
109.1589814178
 20
71.8753237464
 30
0.0
 11
108.6589814178
 21
71.8753237464
 31
0.0
  0
LINE
  5
D6
330
1F
100
AcDbEntity
  8
0
  6
Continuous
 62
     7
370
    25
100
AcDbLine
 10
109.1589814178
 20
84.8753237464
 30
0.0
 11
109.1589814178
 21
71.8753237464
 31
0.0
  0
LINE
  5
D7
330
1F
100
AcDbEntity
  8
0
  6
Continuous
 62
     7
370
    25
100
AcDbLine
 10
117.1589814178
 20
84.8753237464
 30
0.0
 11
109.1589814178
 21
84.8753237464
 31
0.0
  0
LINE
  5
D8
330
1F
100
AcDbEntity
  8
0
  6
Continuous
 62
     7
370
    25
100
AcDbLine
 10
117.1589814178
 20
71.8753237464
 30
0.0
 11
117.1589814178
 21
84.8753237464
 31
0.0
  0
LINE
  5
D9
330
1F
100
AcDbEntity
  8
0
  6
Continuous
 62
     7
370
    25
100
AcDbLine
 10
117.6589814178
 20
71.8753237464
 30
0.0
 11
117.1589814178
 21
71.8753237464
 31
0.0
  0
LINE
  5
DA
330
1F
100
AcDbEntity
  8
0
  6
Continuous
 62
     7
370
    25
100
AcDbLine
 10
118.1589814178
 20
84.8753237464
 30
0.0
 11
117.6589814178
 21
71.8753237464
 31
0.0
  0
LINE
  5
DB
330
1F
100
AcDbEntity
  8
0
  6
Continuous
 62
     7
370
    25
100
AcDbLine
 10
119.6589814178
 20
84.8753237464
 30
0.0
 11
118.1589814178
 21
84.8753237464
 31
0.0
  0
LINE
  5
DC
330
1F
100
AcDbEntity
  8
0
  6
Continuous
 62
     7
370
    25
100
AcDbLine
 10
121.1589814178
 20
83.3753237464
 30
0.0
 11
119.6589814178
 21
84.8753237464
 31
0.0
  0
LINE
  5
DD
330
1F
100
AcDbEntity
  8
0
  6
Continuous
 62
     7
370
    25
100
AcDbLine
 10
121.1589814178
 20
82.3753237464
 30
0.0
 11
121.1589814178
 21
83.3753237464
 31
0.0
  0
LINE
  5
DE
330
1F
100
AcDbEntity
  8
0
  6
Continuous
 62
     7
370
    25
100
AcDbLine
 10
120.6589814178
 20
81.8753237464
 30
0.0
 11
121.1589814178
 21
82.3753237464
 31
0.0
  0
LINE
  5
DF
330
1F
100
AcDbEntity
  8
0
  6
Continuous
 62
     7
370
    25
100
AcDbLine
 10
120.1589814178
 20
80.8753237464
 30
0.0
 11
120.6589814178
 21
81.8753237464
 31
0.0
  0
LINE
  5
E0
330
1F
100
AcDbEntity
  8
0
  6
Continuous
 62
     7
370
    25
100
AcDbLine
 10
120.1589814178
 20
71.8753237464
 30
0.0
 11
120.1589814178
 21
80.8753237464
 31
0.0
  0
LINE
  5
E1
330
1F
100
AcDbEntity
  8
0
  6
Continuous
 62
     7
370
    25
100
AcDbLine
 10
120.6589814178
 20
71.8753237464
 30
0.0
 11
120.1589814178
 21
71.8753237464
 31
0.0
  0
LINE
  5
E2
330
1F
100
AcDbEntity
  8
0
  6
Continuous
 62
     7
370
    25
100
AcDbLine
 10
121.1589814178
 20
78.8774948383
 30
0.0
 11
120.6589814178
 21
71.8753237464
 31
0.0
  0
LINE
  5
E3
330
1F
100
AcDbEntity
  8
0
  6
Continuous
 62
     7
370
    25
100
AcDbLine
 10
126.6589814178
 20
78.8774948383
 30
0.0
 11
126.6589814178
 21
50.8774948383
 31
0.0
  0
LINE
  5
E4
330
1F
100
AcDbEntity
  8
0
  6
Continuous
 62
     7
370
    25
100
AcDbLine
 10
126.6589814178
 20
50.8774948383
 30
0.0
 11
129.6589814178
 21
50.8774948383
 31
0.0
  0
LINE
  5
E5
330
1F
100
AcDbEntity
  8
0
  6
Continuous
 62
     7
370
    25
100
AcDbLine
 10
129.6589814178
 20
50.8774948383
 30
0.0
 11
129.6589814178
 21
78.8774948383
 31
0.0
  0
LINE
  5
E6
330
1F
100
AcDbEntity
  8
0
  6
Continuous
 62
     7
370
    25
100
AcDbLine
 10
126.6589814178
 20
78.8774948383
 30
0.0
 11
121.1589814178
 21
78.8774948383
 31
0.0
  0
LINE
  5
E7
330
1F
100
AcDbEntity
  8
0
  6
Continuous
 62
     7
370
    25
100
AcDbLine
 10
136.1589814178
 20
78.8774948383
 30
0.0
 11
129.6589814178
 21
78.8774948383
 31
0.0
  0
ENDSEC
  0
SECTION
  2
OBJECTS
  0
DICTIONARY
  5
C
330
0
100
AcDbDictionary
281
     1
  3
ACAD_GROUP
350
D
  3
ACAD_LAYOUT
350
1A
  3
ACAD_MLINESTYLE
350
17
  3
ACAD_PLOTSETTINGS
350
19
  3
ACAD_PLOTSTYLENAME
350
E
  3
ACAD_SCALELIST
350
47
  0
DICTIONARY
  5
D
102
{ACAD_REACTORS
330
C
102
}
330
C
100
AcDbDictionary
281
     1
  0
DICTIONARY
  5
1A
102
{ACAD_REACTORS
330
C
102
}
330
C
100
AcDbDictionary
281
     1
  3
Layout1
350
1E
  3
Layout2
350
26
  3
Model
350
22
  0
DICTIONARY
  5
17
102
{ACAD_REACTORS
330
C
102
}
330
C
100
AcDbDictionary
281
     1
  3
Standard
350
18
  0
DICTIONARY
  5
19
102
{ACAD_REACTORS
330
C
102
}
330
C
100
AcDbDictionary
281
     1
  0
ACDBDICTIONARYWDFLT
  5
E
102
{ACAD_REACTORS
330
C
102
}
330
C
100
AcDbDictionary
281
     1
  3
Normal
350
F
100
AcDbDictionaryWithDefault
340
F
  0
DICTIONARY
  5
47
102
{ACAD_REACTORS
330
C
102
}
330
C
100
AcDbDictionary
281
     1
  3
A0
350
48
  3
A1
350
49
  3
A2
350
4A
  3
A3
350
4B
  3
A4
350
4C
  3
A5
350
4D
  3
A6
350
4E
  3
A7
350
4F
  3
A8
350
50
  3
A9
350
51
  3
B0
350
52
  3
B1
350
53
  3
B2
350
54
  3
B3
350
55
  3
B4
350
56
  3
B5
350
57
  3
B6
350
58
  3
B7
350
59
  3
B8
350
5A
  3
B9
350
5B
  3
C0
350
5C
  3
C1
350
5D
  3
C2
350
5E
  3
C3
350
5F
  3
C4
350
60
  3
C5
350
61
  3
C6
350
62
  3
C7
350
63
  3
C8
350
64
  3
C9
350
65
  3
D0
350
66
  3
D1
350
67
  3
D2
350
68
  0
LAYOUT
  5
1E
102
{ACAD_REACTORS
330
1A
102
}
330
1A
100
AcDbPlotSettings
  1

  2
none_device
  4

  6

 40
0.0
 41
0.0
 42
0.0
 43
0.0
 44
0.0
 45
0.0
 46
0.0
 47
0.0
 48
0.0
 49
0.0
140
0.0
141
0.0
142
1.0
143
1.0
 70
   688
 72
     1
 73
     0
 74
     5
  7

 75
    16
147
1.0
148
0.0
149
0.0
100
AcDbLayout
  1
Layout1
 70
     1
 71
     1
 10
0.0
 20
0.0
 11
420.0
 21
297.0
 12
0.0
 22
0.0
 32
0.0
 14
1.0000000000E+20
 24
1.0000000000E+20
 34
1.0000000000E+20
 15
-1.0000000000E+20
 25
-1.0000000000E+20
 35
-1.0000000000E+20
146
0.0
 13
0.0
 23
0.0
 33
0.0
 16
1.0
 26
0.0
 36
0.0
 17
0.0
 27
1.0
 37
0.0
 76
     0
330
1B
  0
LAYOUT
  5
26
102
{ACAD_REACTORS
330
1A
102
}
330
1A
100
AcDbPlotSettings
  1

  2
none_device
  4

  6

 40
0.0
 41
0.0
 42
0.0
 43
0.0
 44
0.0
 45
0.0
 46
0.0
 47
0.0
 48
0.0
 49
0.0
140
0.0
141
0.0
142
1.0
143
1.0
 70
   688
 72
     1
 73
     0
 74
     5
  7

 75
    16
147
1.0
148
0.0
149
0.0
100
AcDbLayout
  1
Layout2
 70
     1
 71
     2
 10
0.0
 20
0.0
 11
0.0
 21
0.0
 12
0.0
 22
0.0
 32
0.0
 14
0.0
 24
0.0
 34
0.0
 15
0.0
 25
0.0
 35
0.0
146
0.0
 13
0.0
 23
0.0
 33
0.0
 16
1.0
 26
0.0
 36
0.0
 17
0.0
 27
1.0
 37
0.0
 76
     0
330
23
  0
LAYOUT
  5
22
102
{ACAD_REACTORS
330
1A
102
}
330
1A
100
AcDbPlotSettings
  1

  2
none_device
  4
Letter_(8.50_x_11.00_Inches)
  6

 40
6.35
 41
6.35
 42
6.35000508
 43
6.35000508
 44
215.9
 45
279.4
 46
0.0
 47
0.0
 48
0.0
 49
0.0
140
0.0
141
0.0
142
1.0
143
1.0
 70
  1712
 72
     1
 73
     0
 74
     0
  7

 75
     0
147
1.0
148
0.0
149
0.0
100
AcDbLayout
  1
Model
 70
     1
 71
     0
 10
0.0
 20
0.0
 11
250.0
 21
100.0
 12
0.0
 22
0.0
 32
0.0
 14
0.0
 24
0.0
 34
0.0
 15
250.0
 25
100.0
 35
0.0
146
0.0
 13
0.0
 23
0.0
 33
0.0
 16
1.0
 26
0.0
 36
0.0
 17
0.0
 27
1.0
 37
0.0
 76
     0
330
1F
331
29
  0
MLINESTYLE
  5
18
102
{ACAD_REACTORS
330
17
102
}
330
17
100
AcDbMlineStyle
  2
Standard
 70
     0
  3

 62
   256
 51
90.0
 52
90.0
 71
     2
 49
0.5
 62
   256
  6
BYLAYER
 49
-0.5
 62
   256
  6
BYLAYER
  0
ACDBPLACEHOLDER
  5
F
102
{ACAD_REACTORS
330
E
102
}
330
E
  0
SCALE
  5
48
102
{ACAD_REACTORS
330
47
102
}
330
47
100
AcDbScale
 70
     0
300
1:1
140
1.0
141
1.0
290
     1
  0
SCALE
  5
49
102
{ACAD_REACTORS
330
47
102
}
330
47
100
AcDbScale
 70
     0
300
1:2
140
1.0
141
2.0
290
     0
  0
SCALE
  5
4A
102
{ACAD_REACTORS
330
47
102
}
330
47
100
AcDbScale
 70
     0
300
1:4
140
1.0
141
4.0
290
     0
  0
SCALE
  5
4B
102
{ACAD_REACTORS
330
47
102
}
330
47
100
AcDbScale
 70
     0
300
1:5
140
1.0
141
5.0
290
     0
  0
SCALE
  5
4C
102
{ACAD_REACTORS
330
47
102
}
330
47
100
AcDbScale
 70
     0
300
1:8
140
1.0
141
8.0
290
     0
  0
SCALE
  5
4D
102
{ACAD_REACTORS
330
47
102
}
330
47
100
AcDbScale
 70
     0
300
1:10
140
1.0
141
10.0
290
     0
  0
SCALE
  5
4E
102
{ACAD_REACTORS
330
47
102
}
330
47
100
AcDbScale
 70
     0
300
1:16
140
1.0
141
16.0
290
     0
  0
SCALE
  5
4F
102
{ACAD_REACTORS
330
47
102
}
330
47
100
AcDbScale
 70
     0
300
1:20
140
1.0
141
20.0
290
     0
  0
SCALE
  5
50
102
{ACAD_REACTORS
330
47
102
}
330
47
100
AcDbScale
 70
     0
300
1:30
140
1.0
141
30.0
290
     0
  0
SCALE
  5
51
102
{ACAD_REACTORS
330
47
102
}
330
47
100
AcDbScale
 70
     0
300
1:40
140
1.0
141
40.0
290
     0
  0
SCALE
  5
52
102
{ACAD_REACTORS
330
47
102
}
330
47
100
AcDbScale
 70
     0
300
1:50
140
1.0
141
50.0
290
     0
  0
SCALE
  5
53
102
{ACAD_REACTORS
330
47
102
}
330
47
100
AcDbScale
 70
     0
300
1:100
140
1.0
141
100.0
290
     0
  0
SCALE
  5
54
102
{ACAD_REACTORS
330
47
102
}
330
47
100
AcDbScale
 70
     0
300
2:1
140
2.0
141
1.0
290
     0
  0
SCALE
  5
55
102
{ACAD_REACTORS
330
47
102
}
330
47
100
AcDbScale
 70
     0
300
4:1
140
4.0
141
1.0
290
     0
  0
SCALE
  5
56
102
{ACAD_REACTORS
330
47
102
}
330
47
100
AcDbScale
 70
     0
300
8:1
140
8.0
141
1.0
290
     0
  0
SCALE
  5
57
102
{ACAD_REACTORS
330
47
102
}
330
47
100
AcDbScale
 70
     0
300
10:1
140
10.0
141
1.0
290
     0
  0
SCALE
  5
58
102
{ACAD_REACTORS
330
47
102
}
330
47
100
AcDbScale
 70
     0
300
100:1
140
100.0
141
1.0
290
     0
  0
SCALE
  5
59
102
{ACAD_REACTORS
330
47
102
}
330
47
100
AcDbScale
 70
     0
300
1/128" = 1'-0"
140
0.0078125
141
12.0
290
     0
  0
SCALE
  5
5A
102
{ACAD_REACTORS
330
47
102
}
330
47
100
AcDbScale
 70
     0
300
1/64" = 1'-0"
140
0.015625
141
12.0
290
     0
  0
SCALE
  5
5B
102
{ACAD_REACTORS
330
47
102
}
330
47
100
AcDbScale
 70
     0
300
1/32" = 1'-0"
140
0.03125
141
12.0
290
     0
  0
SCALE
  5
5C
102
{ACAD_REACTORS
330
47
102
}
330
47
100
AcDbScale
 70
     0
300
1/16" = 1'-0"
140
0.0625
141
12.0
290
     0
  0
SCALE
  5
5D
102
{ACAD_REACTORS
330
47
102
}
330
47
100
AcDbScale
 70
     0
300
3/32" = 1'-0"
140
0.09375
141
12.0
290
     0
  0
SCALE
  5
5E
102
{ACAD_REACTORS
330
47
102
}
330
47
100
AcDbScale
 70
     0
300
1/8" = 1'-0"
140
0.125
141
12.0
290
     0
  0
SCALE
  5
5F
102
{ACAD_REACTORS
330
47
102
}
330
47
100
AcDbScale
 70
     0
300
3/16" = 1'-0"
140
0.1875
141
12.0
290
     0
  0
SCALE
  5
60
102
{ACAD_REACTORS
330
47
102
}
330
47
100
AcDbScale
 70
     0
300
1/4" = 1'-0"
140
0.25
141
12.0
290
     0
  0
SCALE
  5
61
102
{ACAD_REACTORS
330
47
102
}
330
47
100
AcDbScale
 70
     0
300
3/8" = 1'-0"
140
0.375
141
12.0
290
     0
  0
SCALE
  5
62
102
{ACAD_REACTORS
330
47
102
}
330
47
100
AcDbScale
 70
     0
300
1/2" = 1'-0"
140
0.5
141
12.0
290
     0
  0
SCALE
  5
63
102
{ACAD_REACTORS
330
47
102
}
330
47
100
AcDbScale
 70
     0
300
3/4" = 1'-0"
140
0.75
141
12.0
290
     0
  0
SCALE
  5
64
102
{ACAD_REACTORS
330
47
102
}
330
47
100
AcDbScale
 70
     0
300
1" = 1'-0"
140
1.0
141
12.0
290
     0
  0
SCALE
  5
65
102
{ACAD_REACTORS
330
47
102
}
330
47
100
AcDbScale
 70
     0
300
1-1/2" = 1'-0"
140
1.5
141
12.0
290
     0
  0
SCALE
  5
66
102
{ACAD_REACTORS
330
47
102
}
330
47
100
AcDbScale
 70
     0
300
3" = 1'-0"
140
3.0
141
12.0
290
     0
  0
SCALE
  5
67
102
{ACAD_REACTORS
330
47
102
}
330
47
100
AcDbScale
 70
     0
300
6" = 1'-0"
140
6.0
141
12.0
290
     0
  0
SCALE
  5
68
102
{ACAD_REACTORS
330
47
102
}
330
47
100
AcDbScale
 70
     0
300
1'-0" = 1'-0"
140
12.0
141
12.0
290
     0
  0
ENDSEC
  0
EOF
