  0
SECTION
  2
HEADER
  9
$ACADVER
  1
AC1015
  9
$ACADMAINTVER
 70
     6
  9
$DWGCODEPAGE
  3
ANSI_1252
  9
$INSBASE
 10
0.0
 20
0.0
 30
0.0
  9
$EXTMIN
 10
0.0
 20
0.0
 30
0.0
  9
$EXTMAX
 10
250.0
 20
100.0
 30
0.0
  9
$LIMMIN
 10
0.0
 20
0.0
  9
$LIMMAX
 10
250.0
 20
100.0
  9
$ORTHOMODE
 70
     0
  9
$REGENMODE
 70
     1
  9
$FILLMODE
 70
     1
  9
$QTEXTMODE
 70
     0
  9
$MIRRTEXT
 70
     1
  9
$LTSCALE
 40
1.0
  9
$ATTMODE
 70
     1
  9
$TEXTSIZE
 40
3.5
  9
$TRACEWID
 40
1.0
  9
$TEXTSTYLE
  7
Standard
  9
$CLAYER
  8
0
  9
$CELTYPE
  6
ByLayer
  9
$CECOLOR
 62
   256
  9
$CELTSCALE
 40
1.0
  9
$DISPSILH
 70
     0
  9
$DIMSCALE
 40
1.0
  9
$DIMASZ
 40
3.302
  9
$DIMEXO
 40
1.0
  9
$DIMDLI
 40
3.75
  9
$DIMRND
 40
0.0
  9
$DIMDLE
 40
0.0
  9
$DIMEXE
 40
1.0
  9
$DIMTP
 40
0.0
  9
$DIMTM
 40
0.0
  9
$DIMTXT
 40
3.5
  9
$DIMCEN
 40
2.5
  9
$DIMTSZ
 40
0.0
  9
$DIMTOL
 70
     0
  9
$DIMLIM
 70
     0
  9
$DIMTIH
 70
     1
  9
$DIMTOH
 70
     1
  9
$DIMSE1
 70
     0
  9
$DIMSE2
 70
     0
  9
$DIMTAD
 70
     1
  9
$DIMZIN
 70
     0
  9
$DIMBLK
  1

  9
$DIMASO
 70
     1
  9
$DIMSHO
 70
     1
  9
$DIMPOST
  1

  9
$DIMAPOST
  1

  9
$DIMALT
 70
     0
  9
$DIMALTD
 70
     3
  9
$DIMALTF
 40
0.0393700787
  9
$DIMLFAC
 40
2.0
  9
$DIMTOFL
 70
     1
  9
$DIMTVP
 40
0.0
  9
$DIMTIX
 70
     0
  9
$DIMSOXD
 70
     0
  9
$DIMSAH
 70
     0
  9
$DIMBLK1
  1

  9
$DIMBLK2
  1

  9
$DIMSTYLE
  2
ISO-25
  9
$DIMCLRD
 70
     0
  9
$DIMCLRE
 70
     0
  9
$DIMCLRT
 70
     0
  9
$DIMTFAC
 40
1.0
  9
$DIMGAP
 40
1.524
  9
$DIMJUST
 70
     0
  9
$DIMSD1
 70
     0
  9
$DIMSD2
 70
     0
  9
$DIMTOLJ
 70
     0
  9
$DIMTZIN
 70
     0
  9
$DIMALTZ
 70
     0
  9
$DIMALTTZ
 70
     0
  9
$DIMUPT
 70
     0
  9
$DIMDEC
 70
     2
  9
$DIMTDEC
 70
     2
  9
$DIMALTU
 70
     2
  9
$DIMALTTD
 70
     3
  9
$DIMTXSTY
  7
Standard
  9
$DIMAUNIT
 70
     0
  9
$DIMADEC
 70
     2
  9
$DIMALTRND
 40
0.0
  9
$DIMAZIN
 70
     0
  9
$DIMDSEP
 70
    44
  9
$DIMATFIT
 70
     3
  9
$DIMFRAC
 70
     0
  9
$DIMLDRBLK
  1

  9
$DIMLUNIT
 70
     2
  9
$DIMLWD
 70
    -2
  9
$DIMLWE
 70
    -2
  9
$DIMTMOVE
 70
     0
  9
$LUNITS
 70
     2
  9
$LUPREC
 70
     2
  9
$SKETCHINC
 40
1.0
  9
$FILLETRAD
 40
10.0
  9
$AUNITS
 70
     0
  9
$AUPREC
 70
     2
  9
$MENU
  1
.
  9
$ELEVATION
 40
0.0
  9
$PELEVATION
 40
0.0
  9
$THICKNESS
 40
0.0
  9
$LIMCHECK
 70
     0
  9
$CHAMFERA
 40
0.0
  9
$CHAMFERB
 40
0.0
  9
$CHAMFERC
 40
0.0
  9
$CHAMFERD
 40
0.0
  9
$SKPOLY
 70
     0
  9
$TDCREATE
 40
2457890.416844826
  9
$TDUCREATE
 40
2457890.333511493
  9
$TDUPDATE
 40
2457890.416845139
  9
$TDUUPDATE
 40
2457890.333511806
  9
$TDINDWG
 40
0.0000000116
  9
$TDUSRTIMER
 40
0.0000000116
  9
$USRTIMER
 70
     1
  9
$ANGBASE
 50
0.0
  9
$ANGDIR
 70
     0
  9
$PDMODE
 70
     0
  9
$PDSIZE
 40
-1.0
  9
$PLINEWID
 40
0.0
  9
$SPLFRAME
 70
     0
  9
$SPLINETYPE
 70
     6
  9
$SPLINESEGS
 70
     8
  9
$HANDSEED
  5
B6
  9
$SURFTAB1
 70
     6
  9
$SURFTAB2
 70
     6
  9
$SURFTYPE
 70
     6
  9
$SURFU
 70
     6
  9
$SURFV
 70
     6
  9
$UCSBASE
  2

  9
$UCSNAME
  2

  9
$UCSORG
 10
0.0
 20
0.0
 30
0.0
  9
$UCSXDIR
 10
1.0
 20
0.0
 30
0.0
  9
$UCSYDIR
 10
0.0
 20
1.0
 30
0.0
  9
$UCSORTHOREF
  2

  9
$UCSORTHOVIEW
 70
     0
  9
$UCSORGTOP
 10
0.0
 20
0.0
 30
0.0
  9
$UCSORGBOTTOM
 10
0.0
 20
0.0
 30
0.0
  9
$UCSORGLEFT
 10
0.0
 20
0.0
 30
0.0
  9
$UCSORGRIGHT
 10
0.0
 20
0.0
 30
0.0
  9
$UCSORGFRONT
 10
0.0
 20
0.0
 30
0.0
  9
$UCSORGBACK
 10
0.0
 20
0.0
 30
0.0
  9
$PUCSBASE
  2

  9
$PUCSNAME
  2

  9
$PUCSORG
 10
0.0
 20
0.0
 30
0.0
  9
$PUCSXDIR
 10
1.0
 20
0.0
 30
0.0
  9
$PUCSYDIR
 10
0.0
 20
1.0
 30
0.0
  9
$PUCSORTHOREF
  2

  9
$PUCSORTHOVIEW
 70
     0
  9
$PUCSORGTOP
 10
0.0
 20
0.0
 30
0.0
  9
$PUCSORGBOTTOM
 10
0.0
 20
0.0
 30
0.0
  9
$PUCSORGLEFT
 10
0.0
 20
0.0
 30
0.0
  9
$PUCSORGRIGHT
 10
0.0
 20
0.0
 30
0.0
  9
$PUCSORGFRONT
 10
0.0
 20
0.0
 30
0.0
  9
$PUCSORGBACK
 10
0.0
 20
0.0
 30
0.0
  9
$USERI1
 70
     0
  9
$USERI2
 70
     0
  9
$USERI3
 70
     0
  9
$USERI4
 70
     0
  9
$USERI5
 70
     0
  9
$USERR1
 40
0.0
  9
$USERR2
 40
0.0
  9
$USERR3
 40
0.0
  9
$USERR4
 40
0.0
  9
$USERR5
 40
0.0
  9
$WORLDVIEW
 70
     1
  9
$SHADEDGE
 70
     3
  9
$SHADEDIF
 70
    70
  9
$TILEMODE
 70
     1
  9
$MAXACTVP
 70
    64
  9
$PINSBASE
 10
0.0
 20
0.0
 30
0.0
  9
$PLIMCHECK
 70
     0
  9
$PEXTMIN
 10
1.0000000000E+20
 20
1.0000000000E+20
 30
1.0000000000E+20
  9
$PEXTMAX
 10
-1.0000000000E+20
 20
-1.0000000000E+20
 30
-1.0000000000E+20
  9
$PLIMMIN
 10
0.0
 20
0.0
  9
$PLIMMAX
 10
420.0
 20
297.0
  9
$UNITMODE
 70
     0
  9
$VISRETAIN
 70
     1
  9
$PLINEGEN
 70
     0
  9
$PSLTSCALE
 70
     1
  9
$TREEDEPTH
 70
  3020
  9
$CMLSTYLE
  2
Standard
  9
$CMLJUST
 70
     0
  9
$CMLSCALE
 40
20.0
  9
$PROXYGRAPHICS
 70
     1
  9
$MEASUREMENT
 70
     1
  9
$CELWEIGHT
370
    -1
  9
$ENDCAPS
280
     0
  9
$JOINSTYLE
280
     0
  9
$LWDISPLAY
290
     1
  9
$INSUNITS
 70
     4
  9
$HYPERLINKBASE
  1

  9
$STYLESHEET
  1

  9
$XEDIT
290
     1
  9
$CEPSNTYPE
380
     0
  9
$PSTYLEMODE
290
     1
  9
$FINGERPRINTGUID
  2
{8572E204-4EF7-4F77-8992-87D4A6EAD1E1}
  9
$VERSIONGUID
  2
{FAEB1C32-E019-11D5-929B-00C0DF256EC4}
  9
$EXTNAMES
290
     1
  9
$PSVPSCALE
 40
0.0
  9
$OLESTARTUP
290
     0
  0
ENDSEC
  0
SECTION
  2
CLASSES
  0
CLASS
  1
ACDBDICTIONARYWDFLT
  2
AcDbDictionaryWithDefault
  3
ObjectDBX Classes
 90
        0
280
     0
281
     0
  0
CLASS
  1
VISUALSTYLE
  2
AcDbVisualStyle
  3
ObjectDBX Classes
 90
     4095
280
     0
281
     0
  0
CLASS
  1
MATERIAL
  2
AcDbMaterial
  3
ObjectDBX Classes
 90
     1153
280
     0
281
     0
  0
CLASS
  1
SCALE
  2
AcDbScale
  3
ObjectDBX Classes
 90
     1153
280
     0
281
     0
  0
CLASS
  1
TABLESTYLE
  2
AcDbTableStyle
  3
ObjectDBX Classes
 90
     4095
280
     0
281
     0
  0
CLASS
  1
MLEADERSTYLE
  2
AcDbMLeaderStyle
  3
ACDB_MLEADERSTYLE_CLASS
 90
     4095
280
     0
281
     0
  0
CLASS
  1
SUN
  2
AcDbSun
  3
SCENEOE
 90
     1153
280
     0
281
     0
  0
CLASS
  1
ACDBPLACEHOLDER
  2
AcDbPlaceHolder
  3
ObjectDBX Classes
 90
        0
280
     0
281
     0
  0
CLASS
  1
LAYOUT
  2
AcDbLayout
  3
ObjectDBX Classes
 90
        0
280
     0
281
     0
  0
ENDSEC
  0
SECTION
  2
TABLES
  0
TABLE
  2
VPORT
  5
8
330
0
100
AcDbSymbolTable
 70
     1
  0
VPORT
  5
29
330
8
100
AcDbSymbolTableRecord
100
AcDbViewportTableRecord
  2
*Active
 70
     0
 10
0.0
 20
0.0
 11
1.0
 21
1.0
 12
125.0
 22
50.0
 13
0.0
 23
0.0
 14
10.0
 24
10.0
 15
10.0
 25
10.0
 16
0.0
 26
0.0
 36
1.0
 17
0.0
 27
0.0
 37
0.0
 40
100.0
 41
2.5
 42
50.0
 43
0.0
 44
0.0
 50
0.0
 51
0.0
 71
     0
 72
  2000
 73
     1
 74
     3
 75
     0
 76
     0
 77
     0
 78
     0
281
     0
 65
     1
110
0.0
120
0.0
130
0.0
111
1.0
121
0.0
131
0.0
112
0.0
122
1.0
132
0.0
 79
     0
146
0.0
  0
ENDTAB
  0
TABLE
  2
LTYPE
  5
5
330
0
100
AcDbSymbolTable
 70
     6
  0
LTYPE
  5
14
330
5
100
AcDbSymbolTableRecord
100
AcDbLinetypeTableRecord
  2
ByBlock
 70
     0
  3

 72
    65
 73
     0
 40
0.0
  0
LTYPE
  5
15
330
5
100
AcDbSymbolTableRecord
100
AcDbLinetypeTableRecord
  2
ByLayer
 70
     0
  3

 72
    65
 73
     0
 40
0.0
  0
LTYPE
  5
16
330
5
100
AcDbSymbolTableRecord
100
AcDbLinetypeTableRecord
  2
Continuous
 70
     0
  3
Solid line
 72
    65
 73
     0
 40
0.0
  0
LTYPE
  5
6E
330
5
100
AcDbSymbolTableRecord
100
AcDbLinetypeTableRecord
  2
HIDDEN
 70
     0
  3
Hidden __ __ __ __ __ __ __ __ __ __ __ __ __ __
 72
    65
 73
     2
 40
1.905
 49
1.27
 74
     0
 49
-0.635
 74
     0
  0
LTYPE
  5
6F
330
5
100
AcDbSymbolTableRecord
100
AcDbLinetypeTableRecord
  2
PHANTOM
 70
     0
  3
Phantom ______  __  __  ______  __  __  ______
 72
    65
 73
     6
 40
12.7
 49
6.35
 74
     0
 49
-1.27
 74
     0
 49
1.27
 74
     0
 49
-1.27
 74
     0
 49
1.27
 74
     0
 49
-1.27
 74
     0
  0
LTYPE
  5
70
330
5
100
AcDbSymbolTableRecord
100
AcDbLinetypeTableRecord
  2
CENTER
 70
     0
  3
Center ____ _ ____ _ ____ _ ____ _ ____ _ ____
 72
    65
 73
     4
 40
10.16
 49
6.35
 74
     0
 49
-1.27
 74
     0
 49
1.27
 74
     0
 49
-1.27
 74
     0
  0
LTYPE
  5
71
330
5
100
AcDbSymbolTableRecord
100
AcDbLinetypeTableRecord
  2
CENTERX2
 70
     0
  3
Center (2x) ________  __  ________  __  _____
 72
    65
 73
     4
 40
20.32
 49
12.7
 74
     0
 49
-2.54
 74
     0
 49
2.54
 74
     0
 49
-2.54
 74
     0
  0
LTYPE
  5
72
330
5
100
AcDbSymbolTableRecord
100
AcDbLinetypeTableRecord
  2
DOT2
 70
     0
  3
Dot (.5x) ........................................
 72
    65
 73
     2
 40
0.635
 49
0.0
 74
     0
 49
-0.635
 74
     0
  0
ENDTAB
  0
TABLE
  2
LAYER
  5
2
330
0
100
AcDbSymbolTable
 70
     1
  0
LAYER
  5
10
330
2
100
AcDbSymbolTableRecord
100
AcDbLayerTableRecord
  2
0
 70
     0
 62
     7
  6
Continuous
370
    -3
390
F
  0
ENDTAB
  0
TABLE
  2
STYLE
  5
3
330
0
100
AcDbSymbolTable
 70
     1
  0
STYLE
  5
11
330
3
100
AcDbSymbolTableRecord
100
AcDbTextStyleTableRecord
  2
Standard
 70
     0
 40
0.0
 41
1.0
 50
0.0
 71
     0
 42
3.5
  3
txt
  4

  0
ENDTAB
  0
TABLE
  2
VIEW
  5
6
330
0
100
AcDbSymbolTable
 70
     0
  0
ENDTAB
  0
TABLE
  2
UCS
  5
7
330
0
100
AcDbSymbolTable
 70
     0
  0
ENDTAB
  0
TABLE
  2
APPID
  5
9
330
0
100
AcDbSymbolTable
 70
     1
  0
APPID
  5
12
330
9
100
AcDbSymbolTableRecord
100
AcDbRegAppTableRecord
  2
ACAD
 70
     0
  0
ENDTAB
  0
TABLE
  2
DIMSTYLE
  5
A
330
0
100
AcDbSymbolTable
 70
     1
100
AcDbDimStyleTable
  0
DIMSTYLE
105
27
330
A
100
AcDbSymbolTableRecord
100
AcDbDimStyleTableRecord
  2
ISO-25
 70
     0
 41
2.5
 42
0.625
 43
3.75
 44
1.25
 73
     0
 74
     0
 77
     1
 78
     8
140
2.5
141
2.5
143
0.0393700787
147
0.625
171
     3
172
     1
178
     0
271
     2
272
     2
274
     3
278
    44
283
     0
284
     8
340
11
  0
ENDTAB
  0
TABLE
  2
BLOCK_RECORD
  5
1
330
0
100
AcDbSymbolTable
 70
     1
  0
BLOCK_RECORD
  5
1F
330
1
100
AcDbSymbolTableRecord
100
AcDbBlockTableRecord
  2
*Model_Space
340
22
  0
BLOCK_RECORD
  5
1B
330
1
100
AcDbSymbolTableRecord
100
AcDbBlockTableRecord
  2
*Paper_Space
340
1E
  0
BLOCK_RECORD
  5
23
330
1
100
AcDbSymbolTableRecord
100
AcDbBlockTableRecord
  2
*Paper_Space0
340
26
  0
ENDTAB
  0
ENDSEC
  0
SECTION
  2
BLOCKS
  0
BLOCK
  5
20
330
1F
100
AcDbEntity
  8
0
100
AcDbBlockBegin
  2
*Model_Space
 70
     0
 10
0.0
 20
0.0
 30
0.0
  3
*Model_Space
  1

  0
ENDBLK
  5
21
330
1F
100
AcDbEntity
  8
0
100
AcDbBlockEnd
  0
BLOCK
  5
1C
330
1B
100
AcDbEntity
 67
     1
  8
0
100
AcDbBlockBegin
  2
*Paper_Space
 70
     0
 10
0.0
 20
0.0
 30
0.0
  3
*Paper_Space
  1

  0
ENDBLK
  5
1D
330
1B
100
AcDbEntity
 67
     1
  8
0
100
AcDbBlockEnd
  0
BLOCK
  5
24
330
23
100
AcDbEntity
  8
0
100
AcDbBlockBegin
  2
*Paper_Space0
 70
     0
 10
0.0
 20
0.0
 30
0.0
  3
*Paper_Space0
  1

  0
ENDBLK
  5
25
330
23
100
AcDbEntity
  8
0
100
AcDbBlockEnd
  0
ENDSEC
  0
SECTION
  2
ENTITIES
  0
LWPOLYLINE
  5
73
330
1F
100
AcDbEntity
  8
0
  6
Continuous
 62
     7
100
AcDbPolyline
 90
       24
 70
   128
 43
0.0
 10
97.258198265
 20
43.6831708683
 10
97.7330797931
 20
43.6831708683
 10
97.7330797931
 20
43.6831708683
 10
97.7330797931
 20
41.5122306973
 10
97.7330797931
 20
41.5122306973
 10
100.4467550067
 20
41.5122306973
 10
100.4467550067
 20
41.5122306973
 10
100.4467550067
 20
43.6831708683
 10
100.4467550067
 20
43.6831708683
 10
100.9216481691
 20
43.6831708683
 10
100.9216481691
 20
43.6831708683
 10
100.9216481691
 20
38.3915042016
 10
100.9216481691
 20
38.3915042016
 10
100.4467550067
 20
38.3915042016
 10
100.4467550067
 20
38.3915042016
 10
100.4467550067
 20
40.9694956546
 10
100.4467550067
 20
40.9694956546
 10
97.7330797931
 20
40.9694956546
 10
97.7330797931
 20
40.9694956546
 10
97.7330797931
 20
38.3915042016
 10
97.7330797931
 20
38.3915042016
 10
97.2581866307
 20
38.3915042016
 10
97.2581866307
 20
38.3915042016
 10
97.2581866307
 20
43.6831708683
  0
LWPOLYLINE
  5
74
330
1F
100
AcDbEntity
  8
0
  6
Continuous
 62
     7
100
AcDbPolyline
 90
       18
 70
   128
 43
0.0
 10
101.871448759
 20
43.6831708683
 10
102.415229566
 20
43.6831708683
 10
102.415229566
 20
43.6831708683
 10
103.805988113
 20
41.4094078474
 10
103.805988113
 20
41.4094078474
 10
105.1946266013
 20
43.6831708683
 10
105.1946266013
 20
43.6831708683
 10
105.7384216734
 20
43.6831708683
 10
105.7384216734
 20
43.6831708683
 10
104.0423746649
 20
40.9069539211
 10
104.0423746649
 20
40.9069539211
 10
104.0423746649
 20
38.3915042016
 10
104.0423746649
 20
38.3915042016
 10
103.5674815025
 20
38.3915042016
 10
103.5674815025
 20
38.3915042016
 10
103.5674815025
 20
40.9069539211
 10
103.5674815025
 20
40.9069539211
 10
101.8714344939
 20
43.6831708683
  0
LWPOLYLINE
  5
75
330
1F
100
AcDbEntity
  8
0
  6
Continuous
 62
     7
100
AcDbPolyline
 90
      184
 70
   128
 43
0.0
 10
106.8917393721
 20
42.4620170221
 10
106.4168404768
 20
42.4620170221
 10
106.4168404768
 20
42.4620170221
 10
106.4581816227
 20
42.6210214292
 10
106.5090630329
 20
42.7694255424
 10
106.5673646488
 20
42.9093494206
 10
106.6352065292
 20
43.0397330344
 10
106.7104686152
 20
43.1605763838
 10
106.7952709656
 20
43.2718794687
 10
106.8885535511
 20
43.3747023186
 10
106.9903163716
 20
43.4669248747
 10
107.0984393684
 20
43.5496071663
 10
107.2118625121
 20
43.6206291348
 10
107.3295257733
 20
43.6810508095
 10
107.4524891814
 20
43.7308721904
 10
107.5807527364
 20
43.7690332481
 10
107.713256409
 20
43.796594012
 10
107.850000199
 20
43.813554482
 10
107.992044136
 20
43.8188546289
 10
107.992044136
 20
43.8188546289
 10
108.1987498652
 20
43.8071943058
 10
108.3980353887
 20
43.7711533068
 10
108.5899007065
 20
43.7117916615
 10
108.7754058481
 20
43.6291093699
 10
108.9471306077
 20
43.52628652
 10
109.0976547797
 20
43.4065032
 10
109.2280383935
 20
43.2697594099
 10
109.338281449
 20
43.1171151792
 10
109.4252038582
 20
42.9538706546
 10
109.4877455917
 20
42.7874460419
 10
109.52484662
 20
42.617841341
 10
109.5375669725
 20
42.4439965226
 10
109.5375669725
 20
42.4439965226
 10
109.5280267081
 20
42.2765118805
 10
109.4994059149
 20
42.1185675029
 10
109.4506445634
 20
41.9691033602
 10
109.382802683
 20
41.8281194527
 10
109.2958802738
 20
41.6966758095
 10
109.1898773358
 20
41.5737124014
 10
109.0647938689
 20
41.4602892577
 10
108.9195698438
 20
41.355346349
 10
108.9195698438
 20
41.355346349
 10
109.0859944565
 20
41.2694839692
 10
109.2375786579
 20
41.1656010899
 10
109.3732624186
 20
41.0436977112
 10
109.4930457386
 20
40.903773833
 10
109.4930457386
 20
40.903773833
 10
109.5672477952
 20
40.797770895
 10
109.630849558
 20
40.6875278394
 10
109.6859710858
 20
40.5751647251
 10
109.7304923198
 20
40.4585614933
 10
109.7644132599
 20
40.3398382027
 10
109.7887939357
 20
40.2179348239
 10
109.803634347
 20
40.0917913277
 10
109.8089344939
 20
39.9635277726
 10
109.8089344939
 20
39.9635277726
 10
109.7940940826
 20
39.7419816321
 10
109.7485128192
 20
39.5257356386
 10
109.6732507332
 20
39.3137297625
 10
109.5672477952
 20
39.1080840627
 10
109.435804152
 20
38.9162187449
 10
109.2831599213
 20
38.7476740734
 10
109.1071950441
 20
38.6013900189
 10
108.9100295794
 20
38.4784266108
 10
108.6959036446
 20
38.3809039078
 10
108.4690573572
 20
38.3120019981
 10
108.2294907172
 20
38.2696008229
 10
107.9782637541
 20
38.2558204409
 10
107.9782637541
 20
38.2558204409
 10
107.8086590532
 20
38.2621806172
 10
107.6454145286
 20
38.2802011167
 10
107.4895902097
 20
38.3120019981
 10
107.3411860965
 20
38.3554632027
 10
107.2002021889
 20
38.4105847304
 10
107.066638487
 20
38.4784266108
 10
106.9394349613
 20
38.5589888437
 10
106.8196516413
 20
38.6522714292
 10
106.7083485564
 20
38.7572143378
 10
106.6076457653
 20
38.8738175696
 10
106.5164832386
 20
39.0020811247
 10
106.4359210057
 20
39.1420050029
 10
106.3648990372
 20
39.2925291749
 10
106.3044773625
 20
39.4557736995
 10
106.2535959522
 20
39.6296185178
 10
106.2133148358
 20
39.8161836888
 10
106.2133148358
 20
39.8161836888
 10
106.6882079982
 20
39.8161836888
 10
106.6882079982
 20
39.8161836888
 10
106.7263690559
 20
39.69428031
 10
106.7677102017
 20
39.5808571663
 10
106.8143514944
 20
39.4759142577
 10
106.8641728753
 20
39.3805116135
 10
106.9171743443
 20
39.2935892043
 10
106.9754759603
 20
39.2151470301
 10
107.0369576643
 20
39.145185091
 10
107.1026794859
 20
39.0847634163
 10
107.1026794859
 20
39.0847634163
 10
107.1927819832
 20
39.0179815654
 10
107.2881846275
 20
38.9596799495
 10
107.389947448
 20
38.9098585686
 10
107.4970104154
 20
38.8706374815
 10
107.6104335591
 20
38.8388366001
 10
107.7302168791
 20
38.8165759831
 10
107.8553003459
 20
38.8027956012
 10
107.9867439891
 20
38.7985554836
 10
107.9867439891
 20
38.7985554836
 10
108.1351481024
 20
38.8038556305
 10
108.2761320099
 20
38.8197560713
 10
108.4096957119
 20
38.8451967764
 10
108.5358392081
 20
38.8822978047
 10
108.6535024693
 20
38.9289390974
 10
108.7648055543
 20
38.9872407133
 10
108.8676284042
 20
39.0550825937
 10
108.9640910778
 20
39.1335247678
 10
109.051013487
 20
39.2193871476
 10
109.126275573
 20
39.3084296156
 10
109.1898773358
 20
39.4006521717
 10
109.2418187754
 20
39.4971148453
 10
109.2820998919
 20
39.596757607
 10
109.3107206852
 20
39.7006404863
 10
109.3287411846
 20
39.8077034537
 10
109.3340413315
 20
39.9179465093
 10
109.3340413315
 20
39.9179465093
 10
109.3223810083
 20
40.0652905932
 10
109.2884600682
 20
40.2083945595
 10
109.2312184816
 20
40.3461983789
 10
109.1506562487
 20
40.4787020515
 10
109.051013487
 20
40.6016654596
 10
108.9365303139
 20
40.708728427
 10
108.8050866707
 20
40.7988309244
 10
108.6588026162
 20
40.873032981
 10
108.577180354
 20
40.9048338624
 10
108.4838977685
 20
40.9334546557
 10
108.3810749186
 20
40.9578353314
 10
108.2665917455
 20
40.9800959484
 10
108.142568308
 20
40.9991764772
 10
108.0079445767
 20
41.0150769179
 10
107.8616605222
 20
41.0277972705
 10
107.7058362033
 20
41.0373375349
 10
107.7058362033
 20
41.0373375349
 10
107.7058362033
 20
41.5800725777
 10
107.7058362033
 20
41.5800725777
 10
107.9019416387
 20
41.5874927833
 10
108.0885068096
 20
41.6118734591
 10
108.2665917455
 20
41.6500345168
 10
108.435136417
 20
41.7051560445
 10
108.5888406771
 20
41.7719378955
 10
108.7192242909
 20
41.8471999815
 10
108.8273472877
 20
41.9309423026
 10
108.9132096675
 20
42.0231648586
 10
108.9789314891
 20
42.1228076204
 10
109.0255727818
 20
42.2256304703
 10
109.0531335457
 20
42.3337534671
 10
109.0626738102
 20
42.4461165814
 10
109.0626738102
 20
42.4461165814
 10
109.0584336926
 20
42.5287988731
 10
109.0435932813
 20
42.609361106
 10
109.0202726349
 20
42.6856832214
 10
108.9874117241
 20
42.7609453074
 10
108.9450105489
 20
42.8319672758
 10
108.8930691093
 20
42.9008691856
 10
108.8315874052
 20
42.9665910071
 10
108.7605654368
 20
43.0291327406
 10
108.683183292
 20
43.0874343565
 10
108.6005010003
 20
43.1372557374
 10
108.5125185618
 20
43.1796569126
 10
108.4192359763
 20
43.2146378821
 10
108.3217132733
 20
43.2411386167
 10
108.2188904234
 20
43.2602191455
 10
108.1107674266
 20
43.2718794687
 10
107.9984043123
 20
43.2761195862
 10
107.9984043123
 20
43.2761195862
 10
107.8181993176
 20
43.264459263
 10
107.6496546462
 20
43.2294782935
 10
107.4948903566
 20
43.1722367069
 10
107.3517863903
 20
43.0906144446
 10
107.2850045393
 20
43.0397330344
 10
107.2214027765
 20
42.9814314185
 10
107.1599210724
 20
42.9157095969
 10
107.1016194565
 20
42.8404475109
 10
107.04437787
 20
42.7577652192
 10
106.991376401
 20
42.6676627219
 10
106.9404949907
 20
42.5690799895
 10
106.8917336392
 20
42.4620170221
  0
LWPOLYLINE
  5
76
330
1F
100
AcDbEntity
  8
0
  6
Continuous
 62
     7
100
AcDbPolyline
 90
       62
 70
   128
 43
0.0
 10
110.6230422891
 20
38.3915042016
 10
110.623037058
 20
43.8188546289
 10
110.623037058
 20
43.8188546289
 10
111.0979302204
 20
43.8188546289
 10
111.0979302204
 20
43.8188546289
 10
111.0979302204
 20
41.5567519313
 10
111.0979302204
 20
41.5567519313
 10
111.2622347744
 20
41.7380169553
 10
111.4350195634
 20
41.8938412742
 10
111.6184046462
 20
42.0263449468
 10
111.810269964
 20
42.1344679436
 10
112.0127355756
 20
42.2182102646
 10
112.2236814223
 20
42.2786319393
 10
112.4452275628
 20
42.3146729382
 10
112.6752539384
 20
42.3263332614
 10
112.6752539384
 20
42.3263332614
 10
112.8798396088
 20
42.316792997
 10
113.0780651029
 20
42.2892322331
 10
113.267810362
 20
42.2436509698
 10
113.4501354154
 20
42.1800492069
 10
113.6239802338
 20
42.0973669153
 10
113.7914648759
 20
41.9966641241
 10
113.9504692829
 20
41.8779408335
 10
114.1020534843
 20
41.7401370141
 10
114.2409173331
 20
41.5896128421
 10
114.3607006531
 20
41.4316684644
 10
114.4624634736
 20
41.2652438517
 10
114.5462057947
 20
41.0913990333
 10
114.6108675869
 20
40.9101340093
 10
114.6564488502
 20
40.7203887502
 10
114.6840096141
 20
40.5232232855
 10
114.6935498785
 20
40.3175775857
 10
114.6935498785
 20
40.3175775857
 10
114.6840096141
 20
40.115111974
 10
114.6564488502
 20
39.920066568
 10
114.6098075575
 20
39.7324413677
 10
114.5440857359
 20
39.5522363731
 10
114.4603434149
 20
39.3794515841
 10
114.357520565
 20
39.2151470301
 10
114.2366772156
 20
39.0572026524
 10
114.0967533374
 20
38.9077385098
 10
113.9441091066
 20
38.7709947198
 10
113.7829846408
 20
38.6522714292
 10
113.6154999987
 20
38.551568638
 10
113.4395351216
 20
38.4699463757
 10
113.2561500388
 20
38.4052845835
 10
113.0653447503
 20
38.3597033202
 10
112.8660592268
 20
38.3332025857
 10
112.660413527
 20
38.3236623213
 10
112.660413527
 20
38.3236623213
 10
112.4250870046
 20
38.3353226444
 10
112.2014208053
 20
38.370303614
 10
111.9894149293
 20
38.4296652593
 10
111.788009347
 20
38.5112875216
 10
111.5982640879
 20
38.6194105184
 10
111.420179152
 20
38.7540342497
 10
111.2537545393
 20
38.9172787742
 10
111.0979302204
 20
39.1070240333
 10
111.0979302204
 20
39.1070240333
 10
111.0979302204
 20
38.3915042016
 10
111.0979302204
 20
38.3915042016
 10
110.623037058
 20
38.3915042016
  0
LWPOLYLINE
  5
77
330
1F
100
AcDbEntity
  8
0
  6
Continuous
 62
     7
100
AcDbPolyline
 90
       56
 70
   128
 43
0.0
 10
112.6561790742
 20
38.7985554836
 10
112.8639391681
 20
38.8112758362
 10
113.0632246916
 20
38.8483768645
 10
113.25402998
 20
38.910918598
 10
113.4374150628
 20
38.9978410071
 10
113.6070197637
 20
39.1070240333
 10
113.7586039651
 20
39.2374076471
 10
113.892167667
 20
39.3868717897
 10
114.0066508401
 20
39.5564764906
 10
114.0999334255
 20
39.738801544
 10
114.1656552471
 20
39.9274867737
 10
114.2059363636
 20
40.1193520916
 10
114.2186567161
 20
40.3175775857
 10
114.2186567161
 20
40.3175775857
 10
114.2048763342
 20
40.5158030798
 10
114.1656552471
 20
40.7097884564
 10
114.0978133668
 20
40.8984736861
 10
114.0045307813
 20
41.0829187983
 10
113.8889875788
 20
41.2546435579
 10
113.7554238769
 20
41.4062277593
 10
113.6027796462
 20
41.5376714024
 10
113.4321149159
 20
41.6489744874
 10
113.2497898625
 20
41.7380169553
 10
113.0600446034
 20
41.8005586888
 10
112.8649991974
 20
41.8387197465
 10
112.6635936152
 20
41.851440099
 10
112.6635936152
 20
41.851440099
 10
112.4579479154
 20
41.8387197465
 10
112.2586623919
 20
41.8005586888
 10
112.0636169859
 20
41.7380169553
 10
111.8738717268
 20
41.6489744874
 10
111.6979068497
 20
41.5387314318
 10
111.5431425602
 20
41.4115279062
 10
111.4095788582
 20
41.2663038811
 10
111.2982757733
 20
41.1030593565
 10
111.2102933347
 20
40.92603445
 10
111.1477516013
 20
40.7394692791
 10
111.110650573
 20
40.5412437849
 10
111.0979302204
 20
40.332417997
 10
111.0979302204
 20
40.332417997
 10
111.1053504261
 20
40.1723535606
 10
111.1265510137
 20
40.0186493004
 10
111.1615319832
 20
39.8713052166
 10
111.2102933347
 20
39.7313813383
 10
111.2738950975
 20
39.5978176364
 10
111.3512772423
 20
39.4706141108
 10
111.442439769
 20
39.3508307908
 10
111.5473826777
 20
39.2374076471
 10
111.6629258801
 20
39.1345847972
 10
111.7858892883
 20
39.0455423293
 10
111.9141528433
 20
38.9702802433
 10
112.049836604
 20
38.9087985392
 10
112.1918805409
 20
38.8600371877
 10
112.3402846542
 20
38.8261162475
 10
112.4950489437
 20
38.8049156599
 10
112.6561734095
 20
38.7985554836
  0
LINE
  5
78
330
1F
100
AcDbEntity
  8
0
  6
Continuous
 62
     7
370
    25
100
AcDbLine
 10
158.1390227116
 20
34.4048917424
 30
0.0
 11
174.1390227116
 21
34.4048917424
 31
0.0
  0
LINE
  5
79
330
1F
100
AcDbEntity
  8
0
  6
Continuous
 62
     7
370
    25
100
AcDbLine
 10
158.1390227116
 20
30.4048917424
 30
0.0
 11
158.1390227116
 21
34.4048917424
 31
0.0
  0
LINE
  5
7A
330
1F
100
AcDbEntity
  8
0
  6
Continuous
 62
     7
370
    25
100
AcDbLine
 10
122.6390227116
 20
57.4048917424
 30
0.0
 11
122.6390227116
 21
30.4048917424
 31
0.0
  0
LINE
  5
7B
330
1F
100
AcDbEntity
  8
0
  6
Continuous
 62
     7
370
    25
100
AcDbLine
 10
119.6390227116
 20
57.4048917424
 30
0.0
 11
122.6390227116
 21
57.4048917424
 31
0.0
  0
LINE
  5
7C
330
1F
100
AcDbEntity
  8
0
  6
Continuous
 62
     7
370
    25
100
AcDbLine
 10
119.6390227116
 20
30.4048917424
 30
0.0
 11
119.6390227116
 21
57.4048917424
 31
0.0
  0
LINE
  5
7D
330
1F
100
AcDbEntity
  8
0
  6
Continuous
 62
     7
370
    25
100
AcDbLine
 10
114.1390227116
 20
34.4048917424
 30
0.0
 11
114.1390227116
 21
30.4048917424
 31
0.0
  0
LINE
  5
7E
330
1F
100
AcDbEntity
  8
0
  6
Continuous
 62
     7
370
    25
100
AcDbLine
 10
98.1390227116
 20
34.4048917424
 30
0.0
 11
114.1390227116
 21
34.4048917424
 31
0.0
  0
LINE
  5
7F
330
1F
100
AcDbEntity
  8
0
  6
Continuous
 62
     7
370
    25
100
AcDbLine
 10
98.1390227116
 20
30.4048917424
 30
0.0
 11
98.1390227116
 21
34.4048917424
 31
0.0
  0
LINE
  5
80
330
1F
100
AcDbEntity
  8
0
  6
Continuous
 62
     7
370
    25
100
AcDbLine
 10
174.1390227116
 20
34.4048917424
 30
0.0
 11
174.1390227116
 21
30.4048917424
 31
0.0
  0
ELLIPSE
  5
81
330
1F
100
AcDbEntity
  8
0
  6
Continuous
 62
     7
370
    25
100
AcDbEllipse
 10
121.1390227116
 20
30.4048917424
 30
0.0
 11
66.14999999999999
 21
1.421085471520200E-14
 31
0.0
210
0.0
220
0.0
230
1.0
 40
0.7998488284
 41
0.0
 42
3.141592653589793
  0
LINE
  5
82
330
1F
100
AcDbEntity
  8
0
  6
Continuous
 62
     7
370
    25
100
AcDbLine
 10
144.1390227116
 20
30.4048917424
 30
0.0
 11
158.1390227116
 21
30.4048917424
 31
0.0
  0
LINE
  5
83
330
1F
100
AcDbEntity
  8
0
  6
Continuous
 62
     7
370
    25
100
AcDbLine
 10
143.6390227116
 20
37.4070628343
 30
0.0
 11
144.1390227116
 21
30.4048917424
 31
0.0
  0
LINE
  5
84
330
1F
100
AcDbEntity
  8
0
  6
Continuous
 62
     7
370
    25
100
AcDbLine
 10
143.1390227116
 20
37.4070628343
 30
0.0
 11
143.6390227116
 21
37.4070628343
 31
0.0
  0
LINE
  5
85
330
1F
100
AcDbEntity
  8
0
  6
Continuous
 62
     7
370
    25
100
AcDbLine
 10
143.1390227116
 20
28.4070628343
 30
0.0
 11
143.1390227116
 21
37.4070628343
 31
0.0
  0
LINE
  5
86
330
1F
100
AcDbEntity
  8
0
  6
Continuous
 62
     7
370
    25
100
AcDbLine
 10
143.6390227116
 20
27.4070628343
 30
0.0
 11
143.1390227116
 21
28.4070628343
 31
0.0
  0
LINE
  5
87
330
1F
100
AcDbEntity
  8
0
  6
Continuous
 62
     7
370
    25
100
AcDbLine
 10
144.1390227116
 20
26.9070628343
 30
0.0
 11
143.6390227116
 21
27.4070628343
 31
0.0
  0
LINE
  5
88
330
1F
100
AcDbEntity
  8
0
  6
Continuous
 62
     7
370
    25
100
AcDbLine
 10
144.1390227116
 20
25.9070628343
 30
0.0
 11
144.1390227116
 21
26.9070628343
 31
0.0
  0
LINE
  5
89
330
1F
100
AcDbEntity
  8
0
  6
Continuous
 62
     7
370
    25
100
AcDbLine
 10
142.6390227116
 20
24.4070628343
 30
0.0
 11
144.1390227116
 21
25.9070628343
 31
0.0
  0
LINE
  5
8A
330
1F
100
AcDbEntity
  8
0
  6
Continuous
 62
     7
370
    25
100
AcDbLine
 10
141.1390227116
 20
24.4070628343
 30
0.0
 11
142.6390227116
 21
24.4070628343
 31
0.0
  0
LINE
  5
8B
330
1F
100
AcDbEntity
  8
0
  6
Continuous
 62
     7
370
    25
100
AcDbLine
 10
140.6390227116
 20
37.4070628343
 30
0.0
 11
141.1390227116
 21
24.4070628343
 31
0.0
  0
LINE
  5
8C
330
1F
100
AcDbEntity
  8
0
  6
Continuous
 62
     7
370
    25
100
AcDbLine
 10
140.1390227116
 20
37.4070628343
 30
0.0
 11
140.6390227116
 21
37.4070628343
 31
0.0
  0
LINE
  5
8D
330
1F
100
AcDbEntity
  8
0
  6
Continuous
 62
     7
370
    25
100
AcDbLine
 10
140.1390227116
 20
24.4070628343
 30
0.0
 11
140.1390227116
 21
37.4070628343
 31
0.0
  0
LINE
  5
8E
330
1F
100
AcDbEntity
  8
0
  6
Continuous
 62
     7
370
    25
100
AcDbLine
 10
132.1390227116
 20
24.4070628343
 30
0.0
 11
140.1390227116
 21
24.4070628343
 31
0.0
  0
LINE
  5
8F
330
1F
100
AcDbEntity
  8
0
  6
Continuous
 62
     7
370
    25
100
AcDbLine
 10
132.1390227116
 20
37.4070628343
 30
0.0
 11
132.1390227116
 21
24.4070628343
 31
0.0
  0
LINE
  5
90
330
1F
100
AcDbEntity
  8
0
  6
Continuous
 62
     7
370
    25
100
AcDbLine
 10
131.6390227116
 20
37.4070628343
 30
0.0
 11
132.1390227116
 21
37.4070628343
 31
0.0
  0
LINE
  5
91
330
1F
100
AcDbEntity
  8
0
  6
Continuous
 62
     7
370
    25
100
AcDbLine
 10
131.1390227116
 20
24.4070628343
 30
0.0
 11
131.6390227116
 21
37.4070628343
 31
0.0
  0
LINE
  5
92
330
1F
100
AcDbEntity
  8
0
  6
Continuous
 62
     7
370
    25
100
AcDbLine
 10
129.6390227116
 20
24.4070628343
 30
0.0
 11
131.1390227116
 21
24.4070628343
 31
0.0
  0
LINE
  5
93
330
1F
100
AcDbEntity
  8
0
  6
Continuous
 62
     7
370
    25
100
AcDbLine
 10
128.1390227116
 20
25.9070628343
 30
0.0
 11
129.6390227116
 21
24.4070628343
 31
0.0
  0
LINE
  5
94
330
1F
100
AcDbEntity
  8
0
  6
Continuous
 62
     7
370
    25
100
AcDbLine
 10
128.1390227116
 20
26.9070628343
 30
0.0
 11
128.1390227116
 21
25.9070628343
 31
0.0
  0
LINE
  5
95
330
1F
100
AcDbEntity
  8
0
  6
Continuous
 62
     7
370
    25
100
AcDbLine
 10
128.6390227116
 20
27.4070628343
 30
0.0
 11
128.1390227116
 21
26.9070628343
 31
0.0
  0
LINE
  5
96
330
1F
100
AcDbEntity
  8
0
  6
Continuous
 62
     7
370
    25
100
AcDbLine
 10
129.1390227116
 20
28.4070628343
 30
0.0
 11
128.6390227116
 21
27.4070628343
 31
0.0
  0
LINE
  5
97
330
1F
100
AcDbEntity
  8
0
  6
Continuous
 62
     7
370
    25
100
AcDbLine
 10
129.1390227116
 20
37.4070628343
 30
0.0
 11
129.1390227116
 21
28.4070628343
 31
0.0
  0
LINE
  5
98
330
1F
100
AcDbEntity
  8
0
  6
Continuous
 62
     7
370
    25
100
AcDbLine
 10
128.6390227116
 20
37.4070628343
 30
0.0
 11
129.1390227116
 21
37.4070628343
 31
0.0
  0
LINE
  5
99
330
1F
100
AcDbEntity
  8
0
  6
Continuous
 62
     7
370
    25
100
AcDbLine
 10
128.1390227116
 20
30.4048917424
 30
0.0
 11
128.6390227116
 21
37.4070628343
 31
0.0
  0
LINE
  5
9A
330
1F
100
AcDbEntity
  8
0
  6
Continuous
 62
     7
370
    25
100
AcDbLine
 10
84.1390227116
 20
30.4048917424
 30
0.0
 11
98.1390227116
 21
30.4048917424
 31
0.0
  0
LINE
  5
9B
330
1F
100
AcDbEntity
  8
0
  6
Continuous
 62
     7
370
    25
100
AcDbLine
 10
83.6390227116
 20
37.4070628343
 30
0.0
 11
84.1390227116
 21
30.4048917424
 31
0.0
  0
LINE
  5
9C
330
1F
100
AcDbEntity
  8
0
  6
Continuous
 62
     7
370
    25
100
AcDbLine
 10
83.1390227116
 20
37.4070628343
 30
0.0
 11
83.6390227116
 21
37.4070628343
 31
0.0
  0
LINE
  5
9D
330
1F
100
AcDbEntity
  8
0
  6
Continuous
 62
     7
370
    25
100
AcDbLine
 10
83.1390227116
 20
28.4070628343
 30
0.0
 11
83.1390227116
 21
37.4070628343
 31
0.0
  0
LINE
  5
9E
330
1F
100
AcDbEntity
  8
0
  6
Continuous
 62
     7
370
    25
100
AcDbLine
 10
83.6390227116
 20
27.4070628343
 30
0.0
 11
83.1390227116
 21
28.4070628343
 31
0.0
  0
LINE
  5
9F
330
1F
100
AcDbEntity
  8
0
  6
Continuous
 62
     7
370
    25
100
AcDbLine
 10
84.1390227116
 20
26.9070628343
 30
0.0
 11
83.6390227116
 21
27.4070628343
 31
0.0
  0
LINE
  5
A0
330
1F
100
AcDbEntity
  8
0
  6
Continuous
 62
     7
370
    25
100
AcDbLine
 10
84.1390227116
 20
25.9070628343
 30
0.0
 11
84.1390227116
 21
26.9070628343
 31
0.0
  0
LINE
  5
A1
330
1F
100
AcDbEntity
  8
0
  6
Continuous
 62
     7
370
    25
100
AcDbLine
 10
82.6390227116
 20
24.4070628343
 30
0.0
 11
84.1390227116
 21
25.9070628343
 31
0.0
  0
LINE
  5
A2
330
1F
100
AcDbEntity
  8
0
  6
Continuous
 62
     7
370
    25
100
AcDbLine
 10
81.1390227116
 20
24.4070628343
 30
0.0
 11
82.6390227116
 21
24.4070628343
 31
0.0
  0
LINE
  5
A3
330
1F
100
AcDbEntity
  8
0
  6
Continuous
 62
     7
370
    25
100
AcDbLine
 10
80.6390227116
 20
37.4070628343
 30
0.0
 11
81.1390227116
 21
24.4070628343
 31
0.0
  0
LINE
  5
A4
330
1F
100
AcDbEntity
  8
0
  6
Continuous
 62
     7
370
    25
100
AcDbLine
 10
80.1390227116
 20
37.4070628343
 30
0.0
 11
80.6390227116
 21
37.4070628343
 31
0.0
  0
LINE
  5
A5
330
1F
100
AcDbEntity
  8
0
  6
Continuous
 62
     7
370
    25
100
AcDbLine
 10
80.1390227116
 20
24.4070628343
 30
0.0
 11
80.1390227116
 21
37.4070628343
 31
0.0
  0
LINE
  5
A6
330
1F
100
AcDbEntity
  8
0
  6
Continuous
 62
     7
370
    25
100
AcDbLine
 10
72.1390227116
 20
24.4070628343
 30
0.0
 11
80.1390227116
 21
24.4070628343
 31
0.0
  0
LINE
  5
A7
330
1F
100
AcDbEntity
  8
0
  6
Continuous
 62
     7
370
    25
100
AcDbLine
 10
72.1390227116
 20
37.4070628343
 30
0.0
 11
72.1390227116
 21
24.4070628343
 31
0.0
  0
LINE
  5
A8
330
1F
100
AcDbEntity
  8
0
  6
Continuous
 62
     7
370
    25
100
AcDbLine
 10
71.6390227116
 20
37.4070628343
 30
0.0
 11
72.1390227116
 21
37.4070628343
 31
0.0
  0
LINE
  5
A9
330
1F
100
AcDbEntity
  8
0
  6
Continuous
 62
     7
370
    25
100
AcDbLine
 10
71.1390227116
 20
24.4070628343
 30
0.0
 11
71.6390227116
 21
37.4070628343
 31
0.0
  0
LINE
  5
AA
330
1F
100
AcDbEntity
  8
0
  6
Continuous
 62
     7
370
    25
100
AcDbLine
 10
69.6390227116
 20
24.4070628343
 30
0.0
 11
71.1390227116
 21
24.4070628343
 31
0.0
  0
LINE
  5
AB
330
1F
100
AcDbEntity
  8
0
  6
Continuous
 62
     7
370
    25
100
AcDbLine
 10
68.1390227116
 20
25.9070628343
 30
0.0
 11
69.6390227116
 21
24.4070628343
 31
0.0
  0
LINE
  5
AC
330
1F
100
AcDbEntity
  8
0
  6
Continuous
 62
     7
370
    25
100
AcDbLine
 10
68.1390227116
 20
26.9070628343
 30
0.0
 11
68.1390227116
 21
25.9070628343
 31
0.0
  0
LINE
  5
AD
330
1F
100
AcDbEntity
  8
0
  6
Continuous
 62
     7
370
    25
100
AcDbLine
 10
68.6390227116
 20
27.4070628343
 30
0.0
 11
68.1390227116
 21
26.9070628343
 31
0.0
  0
LINE
  5
AE
330
1F
100
AcDbEntity
  8
0
  6
Continuous
 62
     7
370
    25
100
AcDbLine
 10
69.1390227116
 20
28.4070628343
 30
0.0
 11
68.6390227116
 21
27.4070628343
 31
0.0
  0
LINE
  5
AF
330
1F
100
AcDbEntity
  8
0
  6
Continuous
 62
     7
370
    25
100
AcDbLine
 10
69.1390227116
 20
37.4070628343
 30
0.0
 11
69.1390227116
 21
28.4070628343
 31
0.0
  0
LINE
  5
B0
330
1F
100
AcDbEntity
  8
0
  6
Continuous
 62
     7
370
    25
100
AcDbLine
 10
68.6390227116
 20
37.4070628343
 30
0.0
 11
69.1390227116
 21
37.4070628343
 31
0.0
  0
LINE
  5
B1
330
1F
100
AcDbEntity
  8
0
  6
Continuous
 62
     7
370
    25
100
AcDbLine
 10
68.1390227116
 20
30.4048917424
 30
0.0
 11
68.6390227116
 21
37.4070628343
 31
0.0
  0
LINE
  5
B2
330
1F
100
AcDbEntity
  8
0
  6
Continuous
 62
     7
370
    25
100
AcDbLine
 10
54.9890227116
 20
30.4048917424
 30
0.0
 11
68.1390227116
 21
30.4048917424
 31
0.0
  0
LINE
  5
B3
330
1F
100
AcDbEntity
  8
0
  6
Continuous
 62
     7
370
    25
100
AcDbLine
 10
122.6390227116
 20
30.4048917424
 30
0.0
 11
128.1390227116
 21
30.4048917424
 31
0.0
  0
LINE
  5
B4
330
1F
100
AcDbEntity
  8
0
  6
Continuous
 62
     7
370
    25
100
AcDbLine
 10
114.1390227116
 20
30.4048917424
 30
0.0
 11
119.6390227116
 21
30.4048917424
 31
0.0
  0
LINE
  5
B5
330
1F
100
AcDbEntity
  8
0
  6
Continuous
 62
     7
370
    25
100
AcDbLine
 10
174.1390227116
 20
30.4048917424
 30
0.0
 11
187.2890227116
 21
30.4048917424
 31
0.0
  0
ENDSEC
  0
SECTION
  2
OBJECTS
  0
DICTIONARY
  5
C
330
0
100
AcDbDictionary
281
     1
  3
ACAD_GROUP
350
D
  3
ACAD_LAYOUT
350
1A
  3
ACAD_MLINESTYLE
350
17
  3
ACAD_PLOTSETTINGS
350
19
  3
ACAD_PLOTSTYLENAME
350
E
  3
ACAD_SCALELIST
350
47
  0
DICTIONARY
  5
D
102
{ACAD_REACTORS
330
C
102
}
330
C
100
AcDbDictionary
281
     1
  0
DICTIONARY
  5
1A
102
{ACAD_REACTORS
330
C
102
}
330
C
100
AcDbDictionary
281
     1
  3
Layout1
350
1E
  3
Layout2
350
26
  3
Model
350
22
  0
DICTIONARY
  5
17
102
{ACAD_REACTORS
330
C
102
}
330
C
100
AcDbDictionary
281
     1
  3
Standard
350
18
  0
DICTIONARY
  5
19
102
{ACAD_REACTORS
330
C
102
}
330
C
100
AcDbDictionary
281
     1
  0
ACDBDICTIONARYWDFLT
  5
E
102
{ACAD_REACTORS
330
C
102
}
330
C
100
AcDbDictionary
281
     1
  3
Normal
350
F
100
AcDbDictionaryWithDefault
340
F
  0
DICTIONARY
  5
47
102
{ACAD_REACTORS
330
C
102
}
330
C
100
AcDbDictionary
281
     1
  3
A0
350
48
  3
A1
350
49
  3
A2
350
4A
  3
A3
350
4B
  3
A4
350
4C
  3
A5
350
4D
  3
A6
350
4E
  3
A7
350
4F
  3
A8
350
50
  3
A9
350
51
  3
B0
350
52
  3
B1
350
53
  3
B2
350
54
  3
B3
350
55
  3
B4
350
56
  3
B5
350
57
  3
B6
350
58
  3
B7
350
59
  3
B8
350
5A
  3
B9
350
5B
  3
C0
350
5C
  3
C1
350
5D
  3
C2
350
5E
  3
C3
350
5F
  3
C4
350
60
  3
C5
350
61
  3
C6
350
62
  3
C7
350
63
  3
C8
350
64
  3
C9
350
65
  3
D0
350
66
  3
D1
350
67
  3
D2
350
68
  0
LAYOUT
  5
1E
102
{ACAD_REACTORS
330
1A
102
}
330
1A
100
AcDbPlotSettings
  1

  2
none_device
  4

  6

 40
0.0
 41
0.0
 42
0.0
 43
0.0
 44
0.0
 45
0.0
 46
0.0
 47
0.0
 48
0.0
 49
0.0
140
0.0
141
0.0
142
1.0
143
1.0
 70
   688
 72
     1
 73
     0
 74
     5
  7

 75
    16
147
1.0
148
0.0
149
0.0
100
AcDbLayout
  1
Layout1
 70
     1
 71
     1
 10
0.0
 20
0.0
 11
420.0
 21
297.0
 12
0.0
 22
0.0
 32
0.0
 14
1.0000000000E+20
 24
1.0000000000E+20
 34
1.0000000000E+20
 15
-1.0000000000E+20
 25
-1.0000000000E+20
 35
-1.0000000000E+20
146
0.0
 13
0.0
 23
0.0
 33
0.0
 16
1.0
 26
0.0
 36
0.0
 17
0.0
 27
1.0
 37
0.0
 76
     0
330
1B
  0
LAYOUT
  5
26
102
{ACAD_REACTORS
330
1A
102
}
330
1A
100
AcDbPlotSettings
  1

  2
none_device
  4

  6

 40
0.0
 41
0.0
 42
0.0
 43
0.0
 44
0.0
 45
0.0
 46
0.0
 47
0.0
 48
0.0
 49
0.0
140
0.0
141
0.0
142
1.0
143
1.0
 70
   688
 72
     1
 73
     0
 74
     5
  7

 75
    16
147
1.0
148
0.0
149
0.0
100
AcDbLayout
  1
Layout2
 70
     1
 71
     2
 10
0.0
 20
0.0
 11
0.0
 21
0.0
 12
0.0
 22
0.0
 32
0.0
 14
0.0
 24
0.0
 34
0.0
 15
0.0
 25
0.0
 35
0.0
146
0.0
 13
0.0
 23
0.0
 33
0.0
 16
1.0
 26
0.0
 36
0.0
 17
0.0
 27
1.0
 37
0.0
 76
     0
330
23
  0
LAYOUT
  5
22
102
{ACAD_REACTORS
330
1A
102
}
330
1A
100
AcDbPlotSettings
  1

  2
none_device
  4
Letter_(8.50_x_11.00_Inches)
  6

 40
6.35
 41
6.35
 42
6.35000508
 43
6.35000508
 44
215.9
 45
279.4
 46
0.0
 47
0.0
 48
0.0
 49
0.0
140
0.0
141
0.0
142
1.0
143
1.0
 70
  1712
 72
     1
 73
     0
 74
     0
  7

 75
     0
147
1.0
148
0.0
149
0.0
100
AcDbLayout
  1
Model
 70
     1
 71
     0
 10
0.0
 20
0.0
 11
250.0
 21
100.0
 12
0.0
 22
0.0
 32
0.0
 14
0.0
 24
0.0
 34
0.0
 15
250.0
 25
100.0
 35
0.0
146
0.0
 13
0.0
 23
0.0
 33
0.0
 16
1.0
 26
0.0
 36
0.0
 17
0.0
 27
1.0
 37
0.0
 76
     0
330
1F
331
29
  0
MLINESTYLE
  5
18
102
{ACAD_REACTORS
330
17
102
}
330
17
100
AcDbMlineStyle
  2
Standard
 70
     0
  3

 62
   256
 51
90.0
 52
90.0
 71
     2
 49
0.5
 62
   256
  6
BYLAYER
 49
-0.5
 62
   256
  6
BYLAYER
  0
ACDBPLACEHOLDER
  5
F
102
{ACAD_REACTORS
330
E
102
}
330
E
  0
SCALE
  5
48
102
{ACAD_REACTORS
330
47
102
}
330
47
100
AcDbScale
 70
     0
300
1:1
140
1.0
141
1.0
290
     1
  0
SCALE
  5
49
102
{ACAD_REACTORS
330
47
102
}
330
47
100
AcDbScale
 70
     0
300
1:2
140
1.0
141
2.0
290
     0
  0
SCALE
  5
4A
102
{ACAD_REACTORS
330
47
102
}
330
47
100
AcDbScale
 70
     0
300
1:4
140
1.0
141
4.0
290
     0
  0
SCALE
  5
4B
102
{ACAD_REACTORS
330
47
102
}
330
47
100
AcDbScale
 70
     0
300
1:5
140
1.0
141
5.0
290
     0
  0
SCALE
  5
4C
102
{ACAD_REACTORS
330
47
102
}
330
47
100
AcDbScale
 70
     0
300
1:8
140
1.0
141
8.0
290
     0
  0
SCALE
  5
4D
102
{ACAD_REACTORS
330
47
102
}
330
47
100
AcDbScale
 70
     0
300
1:10
140
1.0
141
10.0
290
     0
  0
SCALE
  5
4E
102
{ACAD_REACTORS
330
47
102
}
330
47
100
AcDbScale
 70
     0
300
1:16
140
1.0
141
16.0
290
     0
  0
SCALE
  5
4F
102
{ACAD_REACTORS
330
47
102
}
330
47
100
AcDbScale
 70
     0
300
1:20
140
1.0
141
20.0
290
     0
  0
SCALE
  5
50
102
{ACAD_REACTORS
330
47
102
}
330
47
100
AcDbScale
 70
     0
300
1:30
140
1.0
141
30.0
290
     0
  0
SCALE
  5
51
102
{ACAD_REACTORS
330
47
102
}
330
47
100
AcDbScale
 70
     0
300
1:40
140
1.0
141
40.0
290
     0
  0
SCALE
  5
52
102
{ACAD_REACTORS
330
47
102
}
330
47
100
AcDbScale
 70
     0
300
1:50
140
1.0
141
50.0
290
     0
  0
SCALE
  5
53
102
{ACAD_REACTORS
330
47
102
}
330
47
100
AcDbScale
 70
     0
300
1:100
140
1.0
141
100.0
290
     0
  0
SCALE
  5
54
102
{ACAD_REACTORS
330
47
102
}
330
47
100
AcDbScale
 70
     0
300
2:1
140
2.0
141
1.0
290
     0
  0
SCALE
  5
55
102
{ACAD_REACTORS
330
47
102
}
330
47
100
AcDbScale
 70
     0
300
4:1
140
4.0
141
1.0
290
     0
  0
SCALE
  5
56
102
{ACAD_REACTORS
330
47
102
}
330
47
100
AcDbScale
 70
     0
300
8:1
140
8.0
141
1.0
290
     0
  0
SCALE
  5
57
102
{ACAD_REACTORS
330
47
102
}
330
47
100
AcDbScale
 70
     0
300
10:1
140
10.0
141
1.0
290
     0
  0
SCALE
  5
58
102
{ACAD_REACTORS
330
47
102
}
330
47
100
AcDbScale
 70
     0
300
100:1
140
100.0
141
1.0
290
     0
  0
SCALE
  5
59
102
{ACAD_REACTORS
330
47
102
}
330
47
100
AcDbScale
 70
     0
300
1/128" = 1'-0"
140
0.0078125
141
12.0
290
     0
  0
SCALE
  5
5A
102
{ACAD_REACTORS
330
47
102
}
330
47
100
AcDbScale
 70
     0
300
1/64" = 1'-0"
140
0.015625
141
12.0
290
     0
  0
SCALE
  5
5B
102
{ACAD_REACTORS
330
47
102
}
330
47
100
AcDbScale
 70
     0
300
1/32" = 1'-0"
140
0.03125
141
12.0
290
     0
  0
SCALE
  5
5C
102
{ACAD_REACTORS
330
47
102
}
330
47
100
AcDbScale
 70
     0
300
1/16" = 1'-0"
140
0.0625
141
12.0
290
     0
  0
SCALE
  5
5D
102
{ACAD_REACTORS
330
47
102
}
330
47
100
AcDbScale
 70
     0
300
3/32" = 1'-0"
140
0.09375
141
12.0
290
     0
  0
SCALE
  5
5E
102
{ACAD_REACTORS
330
47
102
}
330
47
100
AcDbScale
 70
     0
300
1/8" = 1'-0"
140
0.125
141
12.0
290
     0
  0
SCALE
  5
5F
102
{ACAD_REACTORS
330
47
102
}
330
47
100
AcDbScale
 70
     0
300
3/16" = 1'-0"
140
0.1875
141
12.0
290
     0
  0
SCALE
  5
60
102
{ACAD_REACTORS
330
47
102
}
330
47
100
AcDbScale
 70
     0
300
1/4" = 1'-0"
140
0.25
141
12.0
290
     0
  0
SCALE
  5
61
102
{ACAD_REACTORS
330
47
102
}
330
47
100
AcDbScale
 70
     0
300
3/8" = 1'-0"
140
0.375
141
12.0
290
     0
  0
SCALE
  5
62
102
{ACAD_REACTORS
330
47
102
}
330
47
100
AcDbScale
 70
     0
300
1/2" = 1'-0"
140
0.5
141
12.0
290
     0
  0
SCALE
  5
63
102
{ACAD_REACTORS
330
47
102
}
330
47
100
AcDbScale
 70
     0
300
3/4" = 1'-0"
140
0.75
141
12.0
290
     0
  0
SCALE
  5
64
102
{ACAD_REACTORS
330
47
102
}
330
47
100
AcDbScale
 70
     0
300
1" = 1'-0"
140
1.0
141
12.0
290
     0
  0
SCALE
  5
65
102
{ACAD_REACTORS
330
47
102
}
330
47
100
AcDbScale
 70
     0
300
1-1/2" = 1'-0"
140
1.5
141
12.0
290
     0
  0
SCALE
  5
66
102
{ACAD_REACTORS
330
47
102
}
330
47
100
AcDbScale
 70
     0
300
3" = 1'-0"
140
3.0
141
12.0
290
     0
  0
SCALE
  5
67
102
{ACAD_REACTORS
330
47
102
}
330
47
100
AcDbScale
 70
     0
300
6" = 1'-0"
140
6.0
141
12.0
290
     0
  0
SCALE
  5
68
102
{ACAD_REACTORS
330
47
102
}
330
47
100
AcDbScale
 70
     0
300
1'-0" = 1'-0"
140
12.0
141
12.0
290
     0
  0
ENDSEC
  0
EOF
