  0
SECTION
  2
HEADER
  9
$ACADVER
  1
AC1015
  9
$ACADMAINTVER
 70
     6
  9
$DWGCODEPAGE
  3
ANSI_1252
  9
$INSBASE
 10
0.0
 20
0.0
 30
0.0
  9
$EXTMIN
 10
0.0
 20
0.0
 30
0.0
  9
$EXTMAX
 10
300.0
 20
300.0
 30
0.0
  9
$LIMMIN
 10
0.0
 20
0.0
  9
$LIMMAX
 10
300.0
 20
300.0
  9
$ORTHOMODE
 70
     0
  9
$REGENMODE
 70
     1
  9
$FILLMODE
 70
     1
  9
$QTEXTMODE
 70
     0
  9
$MIRRTEXT
 70
     1
  9
$LTSCALE
 40
1.0
  9
$ATTMODE
 70
     1
  9
$TEXTSIZE
 40
3.5
  9
$TRACEWID
 40
1.0
  9
$TEXTSTYLE
  7
Standard
  9
$CLAYER
  8
0
  9
$CELTYPE
  6
ByLayer
  9
$CECOLOR
 62
   256
  9
$CELTSCALE
 40
1.0
  9
$DISPSILH
 70
     0
  9
$DIMSCALE
 40
1.0
  9
$DIMASZ
 40
3.302
  9
$DIMEXO
 40
1.0
  9
$DIMDLI
 40
3.75
  9
$DIMRND
 40
0.0
  9
$DIMDLE
 40
0.0
  9
$DIMEXE
 40
1.0
  9
$DIMTP
 40
0.0
  9
$DIMTM
 40
0.0
  9
$DIMTXT
 40
3.5
  9
$DIMCEN
 40
2.5
  9
$DIMTSZ
 40
0.0
  9
$DIMTOL
 70
     0
  9
$DIMLIM
 70
     0
  9
$DIMTIH
 70
     1
  9
$DIMTOH
 70
     1
  9
$DIMSE1
 70
     0
  9
$DIMSE2
 70
     0
  9
$DIMTAD
 70
     1
  9
$DIMZIN
 70
     0
  9
$DIMBLK
  1

  9
$DIMASO
 70
     1
  9
$DIMSHO
 70
     1
  9
$DIMPOST
  1

  9
$DIMAPOST
  1

  9
$DIMALT
 70
     0
  9
$DIMALTD
 70
     3
  9
$DIMALTF
 40
0.0393700787
  9
$DIMLFAC
 40
2.0
  9
$DIMTOFL
 70
     1
  9
$DIMTVP
 40
0.0
  9
$DIMTIX
 70
     0
  9
$DIMSOXD
 70
     0
  9
$DIMSAH
 70
     0
  9
$DIMBLK1
  1

  9
$DIMBLK2
  1

  9
$DIMSTYLE
  2
ISO-25
  9
$DIMCLRD
 70
     0
  9
$DIMCLRE
 70
     0
  9
$DIMCLRT
 70
     0
  9
$DIMTFAC
 40
1.0
  9
$DIMGAP
 40
1.524
  9
$DIMJUST
 70
     0
  9
$DIMSD1
 70
     0
  9
$DIMSD2
 70
     0
  9
$DIMTOLJ
 70
     0
  9
$DIMTZIN
 70
     0
  9
$DIMALTZ
 70
     0
  9
$DIMALTTZ
 70
     0
  9
$DIMUPT
 70
     0
  9
$DIMDEC
 70
     2
  9
$DIMTDEC
 70
     2
  9
$DIMALTU
 70
     2
  9
$DIMALTTD
 70
     3
  9
$DIMTXSTY
  7
Standard
  9
$DIMAUNIT
 70
     0
  9
$DIMADEC
 70
     2
  9
$DIMALTRND
 40
0.0
  9
$DIMAZIN
 70
     0
  9
$DIMDSEP
 70
    44
  9
$DIMATFIT
 70
     3
  9
$DIMFRAC
 70
     0
  9
$DIMLDRBLK
  1

  9
$DIMLUNIT
 70
     2
  9
$DIMLWD
 70
    -2
  9
$DIMLWE
 70
    -2
  9
$DIMTMOVE
 70
     0
  9
$LUNITS
 70
     2
  9
$LUPREC
 70
     2
  9
$SKETCHINC
 40
1.0
  9
$FILLETRAD
 40
10.0
  9
$AUNITS
 70
     0
  9
$AUPREC
 70
     2
  9
$MENU
  1
.
  9
$ELEVATION
 40
0.0
  9
$PELEVATION
 40
0.0
  9
$THICKNESS
 40
0.0
  9
$LIMCHECK
 70
     0
  9
$CHAMFERA
 40
0.0
  9
$CHAMFERB
 40
0.0
  9
$CHAMFERC
 40
0.0
  9
$CHAMFERD
 40
0.0
  9
$SKPOLY
 70
     0
  9
$TDCREATE
 40
2457890.438561944
  9
$TDUCREATE
 40
2457890.355228611
  9
$TDUPDATE
 40
2457890.438562268
  9
$TDUUPDATE
 40
2457890.355228935
  9
$TDINDWG
 40
0.0000000116
  9
$TDUSRTIMER
 40
0.0000000116
  9
$USRTIMER
 70
     1
  9
$ANGBASE
 50
0.0
  9
$ANGDIR
 70
     0
  9
$PDMODE
 70
     0
  9
$PDSIZE
 40
-1.0
  9
$PLINEWID
 40
0.0
  9
$SPLFRAME
 70
     0
  9
$SPLINETYPE
 70
     6
  9
$SPLINESEGS
 70
     8
  9
$HANDSEED
  5
D1
  9
$SURFTAB1
 70
     6
  9
$SURFTAB2
 70
     6
  9
$SURFTYPE
 70
     6
  9
$SURFU
 70
     6
  9
$SURFV
 70
     6
  9
$UCSBASE
  2

  9
$UCSNAME
  2

  9
$UCSORG
 10
0.0
 20
0.0
 30
0.0
  9
$UCSXDIR
 10
1.0
 20
0.0
 30
0.0
  9
$UCSYDIR
 10
0.0
 20
1.0
 30
0.0
  9
$UCSORTHOREF
  2

  9
$UCSORTHOVIEW
 70
     0
  9
$UCSORGTOP
 10
0.0
 20
0.0
 30
0.0
  9
$UCSORGBOTTOM
 10
0.0
 20
0.0
 30
0.0
  9
$UCSORGLEFT
 10
0.0
 20
0.0
 30
0.0
  9
$UCSORGRIGHT
 10
0.0
 20
0.0
 30
0.0
  9
$UCSORGFRONT
 10
0.0
 20
0.0
 30
0.0
  9
$UCSORGBACK
 10
0.0
 20
0.0
 30
0.0
  9
$PUCSBASE
  2

  9
$PUCSNAME
  2

  9
$PUCSORG
 10
0.0
 20
0.0
 30
0.0
  9
$PUCSXDIR
 10
1.0
 20
0.0
 30
0.0
  9
$PUCSYDIR
 10
0.0
 20
1.0
 30
0.0
  9
$PUCSORTHOREF
  2

  9
$PUCSORTHOVIEW
 70
     0
  9
$PUCSORGTOP
 10
0.0
 20
0.0
 30
0.0
  9
$PUCSORGBOTTOM
 10
0.0
 20
0.0
 30
0.0
  9
$PUCSORGLEFT
 10
0.0
 20
0.0
 30
0.0
  9
$PUCSORGRIGHT
 10
0.0
 20
0.0
 30
0.0
  9
$PUCSORGFRONT
 10
0.0
 20
0.0
 30
0.0
  9
$PUCSORGBACK
 10
0.0
 20
0.0
 30
0.0
  9
$USERI1
 70
     0
  9
$USERI2
 70
     0
  9
$USERI3
 70
     0
  9
$USERI4
 70
     0
  9
$USERI5
 70
     0
  9
$USERR1
 40
0.0
  9
$USERR2
 40
0.0
  9
$USERR3
 40
0.0
  9
$USERR4
 40
0.0
  9
$USERR5
 40
0.0
  9
$WORLDVIEW
 70
     1
  9
$SHADEDGE
 70
     3
  9
$SHADEDIF
 70
    70
  9
$TILEMODE
 70
     1
  9
$MAXACTVP
 70
    64
  9
$PINSBASE
 10
0.0
 20
0.0
 30
0.0
  9
$PLIMCHECK
 70
     0
  9
$PEXTMIN
 10
1.0000000000E+20
 20
1.0000000000E+20
 30
1.0000000000E+20
  9
$PEXTMAX
 10
-1.0000000000E+20
 20
-1.0000000000E+20
 30
-1.0000000000E+20
  9
$PLIMMIN
 10
0.0
 20
0.0
  9
$PLIMMAX
 10
420.0
 20
297.0
  9
$UNITMODE
 70
     0
  9
$VISRETAIN
 70
     1
  9
$PLINEGEN
 70
     0
  9
$PSLTSCALE
 70
     1
  9
$TREEDEPTH
 70
  3020
  9
$CMLSTYLE
  2
Standard
  9
$CMLJUST
 70
     0
  9
$CMLSCALE
 40
20.0
  9
$PROXYGRAPHICS
 70
     1
  9
$MEASUREMENT
 70
     1
  9
$CELWEIGHT
370
    -1
  9
$ENDCAPS
280
     0
  9
$JOINSTYLE
280
     0
  9
$LWDISPLAY
290
     1
  9
$INSUNITS
 70
     4
  9
$HYPERLINKBASE
  1

  9
$STYLESHEET
  1

  9
$XEDIT
290
     1
  9
$CEPSNTYPE
380
     0
  9
$PSTYLEMODE
290
     1
  9
$FINGERPRINTGUID
  2
{3CB58A4D-4F5F-43BE-AF5A-C8A5B6C2A3B8}
  9
$VERSIONGUID
  2
{FAEB1C32-E019-11D5-929B-00C0DF256EC4}
  9
$EXTNAMES
290
     1
  9
$PSVPSCALE
 40
0.0
  9
$OLESTARTUP
290
     0
  0
ENDSEC
  0
SECTION
  2
CLASSES
  0
CLASS
  1
ACDBDICTIONARYWDFLT
  2
AcDbDictionaryWithDefault
  3
ObjectDBX Classes
 90
        0
280
     0
281
     0
  0
CLASS
  1
VISUALSTYLE
  2
AcDbVisualStyle
  3
ObjectDBX Classes
 90
     4095
280
     0
281
     0
  0
CLASS
  1
MATERIAL
  2
AcDbMaterial
  3
ObjectDBX Classes
 90
     1153
280
     0
281
     0
  0
CLASS
  1
SCALE
  2
AcDbScale
  3
ObjectDBX Classes
 90
     1153
280
     0
281
     0
  0
CLASS
  1
TABLESTYLE
  2
AcDbTableStyle
  3
ObjectDBX Classes
 90
     4095
280
     0
281
     0
  0
CLASS
  1
MLEADERSTYLE
  2
AcDbMLeaderStyle
  3
ACDB_MLEADERSTYLE_CLASS
 90
     4095
280
     0
281
     0
  0
CLASS
  1
SUN
  2
AcDbSun
  3
SCENEOE
 90
     1153
280
     0
281
     0
  0
CLASS
  1
ACDBPLACEHOLDER
  2
AcDbPlaceHolder
  3
ObjectDBX Classes
 90
        0
280
     0
281
     0
  0
CLASS
  1
LAYOUT
  2
AcDbLayout
  3
ObjectDBX Classes
 90
        0
280
     0
281
     0
  0
ENDSEC
  0
SECTION
  2
TABLES
  0
TABLE
  2
VPORT
  5
8
330
0
100
AcDbSymbolTable
 70
     1
  0
VPORT
  5
29
330
8
100
AcDbSymbolTableRecord
100
AcDbViewportTableRecord
  2
*Active
 70
     0
 10
0.0
 20
0.0
 11
1.0
 21
1.0
 12
150.0
 22
150.0
 13
0.0
 23
0.0
 14
10.0
 24
10.0
 15
10.0
 25
10.0
 16
0.0
 26
0.0
 36
1.0
 17
0.0
 27
0.0
 37
0.0
 40
300.0
 41
1.0
 42
50.0
 43
0.0
 44
0.0
 50
0.0
 51
0.0
 71
     0
 72
  2000
 73
     1
 74
     3
 75
     0
 76
     0
 77
     0
 78
     0
281
     0
 65
     1
110
0.0
120
0.0
130
0.0
111
1.0
121
0.0
131
0.0
112
0.0
122
1.0
132
0.0
 79
     0
146
0.0
  0
ENDTAB
  0
TABLE
  2
LTYPE
  5
5
330
0
100
AcDbSymbolTable
 70
     6
  0
LTYPE
  5
14
330
5
100
AcDbSymbolTableRecord
100
AcDbLinetypeTableRecord
  2
ByBlock
 70
     0
  3

 72
    65
 73
     0
 40
0.0
  0
LTYPE
  5
15
330
5
100
AcDbSymbolTableRecord
100
AcDbLinetypeTableRecord
  2
ByLayer
 70
     0
  3

 72
    65
 73
     0
 40
0.0
  0
LTYPE
  5
16
330
5
100
AcDbSymbolTableRecord
100
AcDbLinetypeTableRecord
  2
Continuous
 70
     0
  3
Solid line
 72
    65
 73
     0
 40
0.0
  0
LTYPE
  5
6E
330
5
100
AcDbSymbolTableRecord
100
AcDbLinetypeTableRecord
  2
HIDDEN
 70
     0
  3
Hidden __ __ __ __ __ __ __ __ __ __ __ __ __ __
 72
    65
 73
     2
 40
1.905
 49
1.27
 74
     0
 49
-0.635
 74
     0
  0
LTYPE
  5
6F
330
5
100
AcDbSymbolTableRecord
100
AcDbLinetypeTableRecord
  2
PHANTOM
 70
     0
  3
Phantom ______  __  __  ______  __  __  ______
 72
    65
 73
     6
 40
12.7
 49
6.35
 74
     0
 49
-1.27
 74
     0
 49
1.27
 74
     0
 49
-1.27
 74
     0
 49
1.27
 74
     0
 49
-1.27
 74
     0
  0
LTYPE
  5
70
330
5
100
AcDbSymbolTableRecord
100
AcDbLinetypeTableRecord
  2
CENTER
 70
     0
  3
Center ____ _ ____ _ ____ _ ____ _ ____ _ ____
 72
    65
 73
     4
 40
10.16
 49
6.35
 74
     0
 49
-1.27
 74
     0
 49
1.27
 74
     0
 49
-1.27
 74
     0
  0
LTYPE
  5
71
330
5
100
AcDbSymbolTableRecord
100
AcDbLinetypeTableRecord
  2
CENTERX2
 70
     0
  3
Center (2x) ________  __  ________  __  _____
 72
    65
 73
     4
 40
20.32
 49
12.7
 74
     0
 49
-2.54
 74
     0
 49
2.54
 74
     0
 49
-2.54
 74
     0
  0
LTYPE
  5
72
330
5
100
AcDbSymbolTableRecord
100
AcDbLinetypeTableRecord
  2
DOT2
 70
     0
  3
Dot (.5x) ........................................
 72
    65
 73
     2
 40
0.635
 49
0.0
 74
     0
 49
-0.635
 74
     0
  0
ENDTAB
  0
TABLE
  2
LAYER
  5
2
330
0
100
AcDbSymbolTable
 70
     1
  0
LAYER
  5
10
330
2
100
AcDbSymbolTableRecord
100
AcDbLayerTableRecord
  2
0
 70
     0
 62
     7
  6
Continuous
370
    -3
390
F
  0
ENDTAB
  0
TABLE
  2
STYLE
  5
3
330
0
100
AcDbSymbolTable
 70
     1
  0
STYLE
  5
11
330
3
100
AcDbSymbolTableRecord
100
AcDbTextStyleTableRecord
  2
Standard
 70
     0
 40
0.0
 41
1.0
 50
0.0
 71
     0
 42
3.5
  3
txt
  4

  0
ENDTAB
  0
TABLE
  2
VIEW
  5
6
330
0
100
AcDbSymbolTable
 70
     0
  0
ENDTAB
  0
TABLE
  2
UCS
  5
7
330
0
100
AcDbSymbolTable
 70
     0
  0
ENDTAB
  0
TABLE
  2
APPID
  5
9
330
0
100
AcDbSymbolTable
 70
     1
  0
APPID
  5
12
330
9
100
AcDbSymbolTableRecord
100
AcDbRegAppTableRecord
  2
ACAD
 70
     0
  0
ENDTAB
  0
TABLE
  2
DIMSTYLE
  5
A
330
0
100
AcDbSymbolTable
 70
     1
100
AcDbDimStyleTable
  0
DIMSTYLE
105
27
330
A
100
AcDbSymbolTableRecord
100
AcDbDimStyleTableRecord
  2
ISO-25
 70
     0
 41
2.5
 42
0.625
 43
3.75
 44
1.25
 73
     0
 74
     0
 77
     1
 78
     8
140
2.5
141
2.5
143
0.0393700787
147
0.625
171
     3
172
     1
178
     0
271
     2
272
     2
274
     3
278
    44
283
     0
284
     8
340
11
  0
ENDTAB
  0
TABLE
  2
BLOCK_RECORD
  5
1
330
0
100
AcDbSymbolTable
 70
     1
  0
BLOCK_RECORD
  5
1F
330
1
100
AcDbSymbolTableRecord
100
AcDbBlockTableRecord
  2
*Model_Space
340
22
  0
BLOCK_RECORD
  5
1B
330
1
100
AcDbSymbolTableRecord
100
AcDbBlockTableRecord
  2
*Paper_Space
340
1E
  0
BLOCK_RECORD
  5
23
330
1
100
AcDbSymbolTableRecord
100
AcDbBlockTableRecord
  2
*Paper_Space0
340
26
  0
ENDTAB
  0
ENDSEC
  0
SECTION
  2
BLOCKS
  0
BLOCK
  5
20
330
1F
100
AcDbEntity
  8
0
100
AcDbBlockBegin
  2
*Model_Space
 70
     0
 10
0.0
 20
0.0
 30
0.0
  3
*Model_Space
  1

  0
ENDBLK
  5
21
330
1F
100
AcDbEntity
  8
0
100
AcDbBlockEnd
  0
BLOCK
  5
1C
330
1B
100
AcDbEntity
 67
     1
  8
0
100
AcDbBlockBegin
  2
*Paper_Space
 70
     0
 10
0.0
 20
0.0
 30
0.0
  3
*Paper_Space
  1

  0
ENDBLK
  5
1D
330
1B
100
AcDbEntity
 67
     1
  8
0
100
AcDbBlockEnd
  0
BLOCK
  5
24
330
23
100
AcDbEntity
  8
0
100
AcDbBlockBegin
  2
*Paper_Space0
 70
     0
 10
0.0
 20
0.0
 30
0.0
  3
*Paper_Space0
  1

  0
ENDBLK
  5
25
330
23
100
AcDbEntity
  8
0
100
AcDbBlockEnd
  0
ENDSEC
  0
SECTION
  2
ENTITIES
  0
LWPOLYLINE
  5
73
330
1F
100
AcDbEntity
  8
0
  6
Continuous
 62
     7
100
AcDbPolyline
 90
       62
 70
   128
 43
0.0
 10
177.3282325707
 20
242.695251938
 10
178.4639328308
 20
242.695251938
 10
178.4639328308
 20
242.695251938
 10
178.6306754523
 20
242.6929198733
 10
178.786923783
 20
242.6847576471
 10
178.9338438551
 20
242.6719312916
 10
179.0702696363
 20
242.6532747745
 10
179.197367159
 20
242.6299541282
 10
179.3139703909
 20
242.6019693525
 10
179.4212453642
 20
242.5681544153
 10
179.5180260466
 20
242.5285093165
 10
179.6929308943
 20
242.4340606987
 10
179.8480131927
 20
242.3186234991
 10
179.9832729416
 20
242.1786996209
 10
180.0998761735
 20
242.017787161
 10
180.1931587589
 20
241.8405502486
 10
180.2596226011
 20
241.65515111
 10
180.3004337322
 20
241.4580916482
 10
180.3132600877
 20
241.2528699602
 10
180.3132600877
 20
241.2528699602
 10
180.3027657969
 20
241.0604746276
 10
180.2701168919
 20
240.8774075536
 10
180.2164794053
 20
240.7025027059
 10
180.1418533369
 20
240.5369261167
 10
180.0462386868
 20
240.384175883
 10
179.9319675196
 20
240.2454180371
 10
179.7955417384
 20
240.1229846436
 10
179.64045944
 20
240.014543638
 10
179.64045944
 20
240.014543638
 10
179.8375189018
 20
239.9352534404
 10
180.0112577173
 20
239.8489670488
 10
180.1593438217
 20
239.7556844634
 10
180.2841092798
 20
239.655405684
 10
180.3913842531
 20
239.5469646784
 10
180.4846668385
 20
239.4291954142
 10
180.5662891008
 20
239.2985997946
 10
180.6350850076
 20
239.1586759164
 10
180.6898885266
 20
239.0094237796
 10
180.7295336254
 20
238.8555075136
 10
180.7528542718
 20
238.6934290213
 10
180.761016498
 20
238.5266863998
 10
180.761016498
 20
238.5266863998
 10
180.7528542718
 20
238.3564456813
 10
180.7295336254
 20
238.1932011567
 10
180.6898885266
 20
238.0369528261
 10
180.6350850076
 20
237.8877006893
 10
180.5639570362
 20
237.7442787142
 10
180.4765046123
 20
237.6066869006
 10
180.3738937683
 20
237.4772573133
 10
180.2561245041
 20
237.3536578875
 10
180.1243628521
 20
237.2417187849
 10
179.9821069093
 20
237.1437720702
 10
179.8293566756
 20
237.0621498079
 10
179.666112151
 20
236.9945199334
 10
179.4912073033
 20
236.9420484791
 10
179.3058081646
 20
236.9047354449
 10
179.1099147352
 20
236.8814147986
 10
178.9023609825
 20
236.8744186047
 10
178.9023609825
 20
236.8744186047
 10
177.3282173527
 20
236.8744186047
 10
177.3282173527
 20
236.8744186047
 10
177.3282173527
 20
242.695251938
  0
LWPOLYLINE
  5
74
330
1F
100
AcDbEntity
  8
0
  6
Continuous
 62
     7
100
AcDbPolyline
 90
       40
 70
   128
 43
0.0
 10
177.8506076775
 20
242.098243391
 10
177.8505998313
 20
240.2325916816
 10
177.8505998313
 20
240.2325916816
 10
178.2015755591
 20
240.2325916816
 10
178.2015755591
 20
240.2325916816
 10
178.3554918252
 20
240.2349237462
 10
178.4989138003
 20
240.2395878755
 10
178.6318414846
 20
240.248916134
 10
178.7554409104
 20
240.2605764572
 10
178.8662139806
 20
240.2769009097
 10
178.9676587923
 20
240.2967234591
 10
179.0586093132
 20
240.3188780731
 10
179.1390655431
 20
240.3456968165
 10
179.281321486
 20
240.409828594
 10
179.4084190087
 20
240.4914508563
 10
179.5191920789
 20
240.5882315387
 10
179.614806729
 20
240.7013366736
 10
179.691764862
 20
240.8261021316
 10
179.746568381
 20
240.9590298159
 10
179.7803833182
 20
241.0966216295
 10
179.7908776091
 20
241.2423756693
 10
179.7908776091
 20
241.2423756693
 10
179.7862134798
 20
241.3391563517
 10
179.772221092
 20
241.4312729049
 10
179.7489004456
 20
241.5175592964
 10
179.717417573
 20
241.5991815587
 10
179.6754404096
 20
241.6749736594
 10
179.6253010199
 20
241.7449355985
 10
179.5646673393
 20
241.8102334083
 10
179.4958714325
 20
241.8697010566
 10
179.4165812349
 20
241.9233385432
 10
179.3267967464
 20
241.969979836
 10
179.226517967
 20
242.0084589025
 10
179.1145788644
 20
242.0411078074
 10
178.992145471
 20
242.0655944861
 10
178.8592177867
 20
242.0842510032
 10
178.7146297792
 20
242.094745294
 10
178.5595474809
 20
242.098243391
 10
178.5595474809
 20
242.098243391
 10
177.8505998313
 20
242.098243391
  0
LWPOLYLINE
  5
75
330
1F
100
AcDbEntity
  8
0
  6
Continuous
 62
     7
100
AcDbPolyline
 90
       45
 70
   128
 43
0.0
 10
177.8506076775
 20
239.6355831346
 10
177.8505998313
 20
237.4714271517
 10
177.8505998313
 20
237.4714271517
 10
178.5945284504
 20
237.4714271517
 10
178.5945284504
 20
237.4714271517
 10
178.7542748781
 20
237.4737592163
 10
178.9023609825
 20
237.4784233456
 10
179.0387867637
 20
237.4877516041
 10
179.1658842864
 20
237.5017439919
 10
179.2801554536
 20
237.5180684444
 10
179.3850983623
 20
237.5390570261
 10
179.4783809478
 20
237.5635437048
 10
179.5600032101
 20
237.5915284805
 10
179.7057572499
 20
237.6603243872
 10
179.8363528695
 20
237.7466107788
 10
179.951790069
 20
237.8492216228
 10
180.0520688484
 20
237.9693229516
 10
180.1336911107
 20
238.1010846036
 10
180.1919927266
 20
238.2375103848
 10
180.2269736962
 20
238.3797663277
 10
180.2386340193
 20
238.5266863998
 10
180.2386340193
 20
238.5266863998
 10
180.2351359224
 20
238.6188029529
 10
180.2223095669
 20
238.7085874415
 10
180.2024870175
 20
238.794873833
 10
180.1756682742
 20
238.8788281599
 10
180.1395212723
 20
238.9581183576
 10
180.0952120442
 20
239.0362425229
 10
180.0439066222
 20
239.1108685913
 10
179.9844389739
 20
239.1819965627
 10
179.8456811281
 20
239.3114261501
 10
179.6824366035
 20
239.4187011233
 10
179.4958714325
 20
239.5038214826
 10
179.2859856152
 20
239.5667872278
 10
179.2859856152
 20
239.5667872278
 10
179.200865256
 20
239.5831116802
 10
179.1005864766
 20
239.5971040681
 10
178.9863153094
 20
239.6087643912
 10
178.8580517544
 20
239.6180926498
 10
178.7146297792
 20
239.626254876
 10
178.5560493839
 20
239.6309190053
 10
178.3834766008
 20
239.6344171022
 10
178.1969114299
 20
239.6355831346
 10
178.1969114299
 20
239.6355831346
 10
177.8505998313
 20
239.6355831346
  0
LWPOLYLINE
  5
76
330
1F
100
AcDbEntity
  8
0
  6
Continuous
 62
     7
100
AcDbPolyline
 90
      106
 70
   128
 43
0.0
 10
182.1789181672
 20
240.904226297
 10
181.6565293185
 20
240.904226297
 10
181.6565293185
 20
240.904226297
 10
181.6705217063
 20
241.1117800496
 10
181.7008385466
 20
241.3100055438
 10
181.746313807
 20
241.497736747
 10
181.8092795522
 20
241.677305724
 10
181.8874037175
 20
241.8463804102
 10
181.9818523353
 20
242.0072928701
 10
182.0926254056
 20
242.1577110392
 10
182.2197229283
 20
242.2988009497
 10
182.3584807742
 20
242.4270645048
 10
182.5065668786
 20
242.537837575
 10
182.6616491769
 20
242.6311201605
 10
182.8237276692
 20
242.7080782935
 10
182.99513442
 20
242.7675459417
 10
183.1735373647
 20
242.8106891375
 10
183.3601025356
 20
242.8363418485
 10
183.5548299328
 20
242.8445040747
 10
183.5548299328
 20
242.8445040747
 10
183.746059233
 20
242.8363418485
 10
183.929126307
 20
242.8118551698
 10
184.1016990901
 20
242.772210071
 10
184.266109647
 20
242.7162405197
 10
184.420025913
 20
242.6427804837
 10
184.5646139205
 20
242.5541620275
 10
184.7010397018
 20
242.4503851511
 10
184.8269711922
 20
242.32911779
 10
184.9412423594
 20
242.197356138
 10
185.0391890741
 20
242.0597643245
 10
185.123143401
 20
241.9163423493
 10
185.1919393078
 20
241.7682562449
 10
185.2444107621
 20
241.6131739465
 10
185.2828898286
 20
241.4522614866
 10
185.3050444427
 20
241.2866848974
 10
185.3132066689
 20
241.1141121143
 10
185.3132066689
 20
241.1141121143
 10
185.2980482488
 20
240.871577392
 10
185.2525729884
 20
240.6372048961
 10
185.17794692
 20
240.4109946263
 10
185.071837979
 20
240.1917805504
 10
185.0042081046
 20
240.0798414479
 10
184.9225858423
 20
239.9574080544
 10
184.8269711922
 20
239.8256464025
 10
184.7173641542
 20
239.6857225243
 10
184.5925986962
 20
239.5341383229
 10
184.4550068826
 20
239.3743918952
 10
184.3022566489
 20
239.2053172091
 10
184.1355140274
 20
239.0257482321
 10
184.1355140274
 20
239.0257482321
 10
182.6791396617
 20
237.4714271517
 10
182.6791396617
 20
237.4714271517
 10
185.3878327373
 20
237.4714271517
 10
185.3878327373
 20
237.4714271517
 10
185.3878327373
 20
236.8744186047
 10
185.3878327373
 20
236.8744186047
 10
181.4326511134
 20
236.8744186047
 10
181.4326511134
 20
236.8744186047
 10
183.6900896817
 20
239.2834413744
 10
183.6900896817
 20
239.2834413744
 10
183.8545002386
 20
239.4560141575
 10
184.0037523754
 20
239.6169266175
 10
184.137846092
 20
239.7661787542
 10
184.2567813885
 20
239.9037705678
 10
184.3605582648
 20
240.0308680905
 10
184.4503427533
 20
240.1451392577
 10
184.5238027894
 20
240.248916134
 10
184.5832704376
 20
240.3410326872
 10
184.6742209585
 20
240.5159375349
 10
184.7395187683
 20
240.695506512
 10
184.7779978348
 20
240.878573586
 10
184.7908241903
 20
241.0674708215
 10
184.7908241903
 20
241.0674708215
 10
184.7849940287
 20
241.186406118
 10
184.7675035439
 20
241.3006772852
 10
184.7395187683
 20
241.4102843231
 10
184.6998736695
 20
241.5163932641
 10
184.6474022151
 20
241.6190041081
 10
184.5844364699
 20
241.7157847905
 10
184.5109764339
 20
241.809067376
 10
184.4246900423
 20
241.8988518645
 10
184.3302414245
 20
241.9804741268
 10
184.2311286775
 20
242.0516020982
 10
184.1273518011
 20
242.1110697465
 10
184.0177447632
 20
242.1600431039
 10
183.9023075637
 20
242.1985221704
 10
183.7833722672
 20
242.2253409137
 10
183.6586068091
 20
242.2416653661
 10
183.5280111895
 20
242.2474955277
 10
183.5280111895
 20
242.2474955277
 10
183.3915854082
 20
242.2416653661
 10
183.2609897886
 20
242.2253409137
 10
183.1362243305
 20
242.197356138
 10
183.017289034
 20
242.1588770715
 10
182.9041838992
 20
242.1099037142
 10
182.7969089259
 20
242.0492700336
 10
182.6954641142
 20
241.9769760299
 10
182.5998494641
 20
241.8941877353
 10
182.5123970402
 20
241.8020711821
 10
182.4354389072
 20
241.7006263704
 10
182.3678090327
 20
241.5898533002
 10
182.3095074168
 20
241.4709180037
 10
182.2617000917
 20
241.3426544487
 10
182.2243870575
 20
241.2050626351
 10
182.1964022819
 20
241.0593085953
 10
182.1789117971
 20
240.904226297
  0
LINE
  5
77
330
1F
100
AcDbEntity
  8
0
  6
Continuous
 62
     7
370
    25
100
AcDbLine
 10
119.0742814887
 20
146.8744186047
 30
0.0
 11
127.0742814887
 21
146.8744186047
 31
0.0
  0
LINE
  5
78
330
1F
100
AcDbEntity
  8
0
  6
Continuous
 62
     7
370
    25
100
AcDbLine
 10
119.0742814887
 20
143.8744186047
 30
0.0
 11
119.0742814887
 21
146.8744186047
 31
0.0
  0
LINE
  5
79
330
1F
100
AcDbEntity
  8
0
  6
Continuous
 62
     7
370
    25
100
AcDbLine
 10
127.0742814887
 20
143.8744186047
 30
0.0
 11
119.0742814887
 21
143.8744186047
 31
0.0
  0
ARC
  5
7A
330
1F
100
AcDbEntity
  8
0
  6
Continuous
 62
     7
370
    25
100
AcDbCircle
 10
241.0819566689
 20
145.3744186047
 30
0.0
 40
114.0175425099138
100
AcDbArc
 50
180.7537975886
 51
232.1250163489
  0
LINE
  5
7B
330
1F
100
AcDbEntity
  8
0
  6
Continuous
 62
     7
370
    25
100
AcDbLine
 10
171.0819566689
 20
55.3744186047
 30
0.0
 11
191.0819566689
 21
55.3744186047
 31
0.0
  0
LINE
  5
7C
330
1F
100
AcDbEntity
  8
0
  6
Continuous
 62
     7
370
    25
100
AcDbLine
 10
191.0819566689
 20
55.3744186047
 30
0.0
 11
191.0819566689
 21
35.3744186047
 31
0.0
  0
LINE
  5
7D
330
1F
100
AcDbEntity
  8
0
  6
Continuous
 62
     7
370
    25
100
AcDbLine
 10
179.0775016294
 20
35.3744186047
 30
0.0
 11
191.0819566689
 21
35.3744186047
 31
0.0
  0
LINE
  5
7E
330
1F
100
AcDbEntity
  8
0
  6
Continuous
 62
     7
370
    25
100
AcDbLine
 10
179.0775016294
 20
35.3744186047
 30
0.0
 11
178.5775016294
 21
42.3765896965
 31
0.0
  0
LINE
  5
7F
330
1F
100
AcDbEntity
  8
0
  6
Continuous
 62
     7
370
    25
100
AcDbLine
 10
178.5775016294
 20
42.3765896965
 30
0.0
 11
178.0775016294
 21
42.3765896965
 31
0.0
  0
LINE
  5
80
330
1F
100
AcDbEntity
  8
0
  6
Continuous
 62
     7
370
    25
100
AcDbLine
 10
178.0775016294
 20
42.3765896965
 30
0.0
 11
178.0775016294
 21
33.3765896965
 31
0.0
  0
LINE
  5
81
330
1F
100
AcDbEntity
  8
0
  6
Continuous
 62
     7
370
    25
100
AcDbLine
 10
178.0775016294
 20
33.3765896965
 30
0.0
 11
178.5775016294
 21
32.3765896965
 31
0.0
  0
LINE
  5
82
330
1F
100
AcDbEntity
  8
0
  6
Continuous
 62
     7
370
    25
100
AcDbLine
 10
178.5775016294
 20
32.3765896965
 30
0.0
 11
179.0775016294
 21
31.8765896965
 31
0.0
  0
LINE
  5
83
330
1F
100
AcDbEntity
  8
0
  6
Continuous
 62
     7
370
    25
100
AcDbLine
 10
179.0775016294
 20
31.8765896965
 30
0.0
 11
179.0775016294
 21
30.8765896965
 31
0.0
  0
LINE
  5
84
330
1F
100
AcDbEntity
  8
0
  6
Continuous
 62
     7
370
    25
100
AcDbLine
 10
179.0775016294
 20
30.8765896965
 30
0.0
 11
177.5775016294
 21
29.3765896965
 31
0.0
  0
LINE
  5
85
330
1F
100
AcDbEntity
  8
0
  6
Continuous
 62
     7
370
    25
100
AcDbLine
 10
177.5775016294
 20
29.3765896965
 30
0.0
 11
176.0775016294
 21
29.3765896965
 31
0.0
  0
LINE
  5
86
330
1F
100
AcDbEntity
  8
0
  6
Continuous
 62
     7
370
    25
100
AcDbLine
 10
176.0775016294
 20
29.3765896965
 30
0.0
 11
175.5775016294
 21
42.3765896965
 31
0.0
  0
LINE
  5
87
330
1F
100
AcDbEntity
  8
0
  6
Continuous
 62
     7
370
    25
100
AcDbLine
 10
175.5775016294
 20
42.3765896965
 30
0.0
 11
175.0775016294
 21
42.3765896965
 31
0.0
  0
LINE
  5
88
330
1F
100
AcDbEntity
  8
0
  6
Continuous
 62
     7
370
    25
100
AcDbLine
 10
175.0775016294
 20
42.3765896965
 30
0.0
 11
175.0775016294
 21
29.3765896965
 31
0.0
  0
LINE
  5
89
330
1F
100
AcDbEntity
  8
0
  6
Continuous
 62
     7
370
    25
100
AcDbLine
 10
175.0775016294
 20
29.3765896965
 30
0.0
 11
167.0775016294
 21
29.3765896965
 31
0.0
  0
LINE
  5
8A
330
1F
100
AcDbEntity
  8
0
  6
Continuous
 62
     7
370
    25
100
AcDbLine
 10
167.0775016294
 20
42.3765896965
 30
0.0
 11
167.0775016294
 21
29.3765896965
 31
0.0
  0
LINE
  5
8B
330
1F
100
AcDbEntity
  8
0
  6
Continuous
 62
     7
370
    25
100
AcDbLine
 10
166.5775016294
 20
42.3765896965
 30
0.0
 11
167.0775016294
 21
42.3765896965
 31
0.0
  0
LINE
  5
8C
330
1F
100
AcDbEntity
  8
0
  6
Continuous
 62
     7
370
    25
100
AcDbLine
 10
166.0775016294
 20
29.3765896965
 30
0.0
 11
166.5775016294
 21
42.3765896965
 31
0.0
  0
LINE
  5
8D
330
1F
100
AcDbEntity
  8
0
  6
Continuous
 62
     7
370
    25
100
AcDbLine
 10
164.5775016294
 20
29.3765896965
 30
0.0
 11
166.0775016294
 21
29.3765896965
 31
0.0
  0
LINE
  5
8E
330
1F
100
AcDbEntity
  8
0
  6
Continuous
 62
     7
370
    25
100
AcDbLine
 10
163.0775016294
 20
30.8765896965
 30
0.0
 11
164.5775016294
 21
29.3765896965
 31
0.0
  0
LINE
  5
8F
330
1F
100
AcDbEntity
  8
0
  6
Continuous
 62
     7
370
    25
100
AcDbLine
 10
163.0775016294
 20
31.8765896965
 30
0.0
 11
163.0775016294
 21
30.8765896965
 31
0.0
  0
LINE
  5
90
330
1F
100
AcDbEntity
  8
0
  6
Continuous
 62
     7
370
    25
100
AcDbLine
 10
163.5775016294
 20
32.3765896965
 30
0.0
 11
163.0775016294
 21
31.8765896965
 31
0.0
  0
LINE
  5
91
330
1F
100
AcDbEntity
  8
0
  6
Continuous
 62
     7
370
    25
100
AcDbLine
 10
164.0775016294
 20
33.3765896965
 30
0.0
 11
163.5775016294
 21
32.3765896965
 31
0.0
  0
LINE
  5
92
330
1F
100
AcDbEntity
  8
0
  6
Continuous
 62
     7
370
    25
100
AcDbLine
 10
164.0775016294
 20
42.3765896965
 30
0.0
 11
164.0775016294
 21
33.3765896965
 31
0.0
  0
LINE
  5
93
330
1F
100
AcDbEntity
  8
0
  6
Continuous
 62
     7
370
    25
100
AcDbLine
 10
163.5775016294
 20
42.3765896965
 30
0.0
 11
164.0775016294
 21
42.3765896965
 31
0.0
  0
LINE
  5
94
330
1F
100
AcDbEntity
  8
0
  6
Continuous
 62
     7
370
    25
100
AcDbLine
 10
163.0775016294
 20
35.3744186047
 30
0.0
 11
163.5775016294
 21
42.3765896965
 31
0.0
  0
LINE
  5
95
330
1F
100
AcDbEntity
  8
0
  6
Continuous
 62
     7
370
    25
100
AcDbLine
 10
151.0819566689
 20
35.3744186047
 30
0.0
 11
163.0775016294
 21
35.3744186047
 31
0.0
  0
ARC
  5
96
330
1F
100
AcDbEntity
  8
0
  6
Continuous
 62
     7
370
    25
100
AcDbCircle
 10
241.0819566689
 20
145.3744186047
 30
0.0
 40
142.126704035519
100
AcDbArc
 50
129.2894068625
 51
230.7105931375
  0
LINE
  5
97
330
1F
100
AcDbEntity
  8
0
  6
Continuous
 62
     7
370
    25
100
AcDbLine
 10
151.0819566689
 20
255.3744186047
 30
0.0
 11
163.0864117085
 21
255.3744186047
 31
0.0
  0
LINE
  5
98
330
1F
100
AcDbEntity
  8
0
  6
Continuous
 62
     7
370
    25
100
AcDbLine
 10
163.0864117085
 20
255.3744186047
 30
0.0
 11
163.5864117085
 21
248.3722475128
 31
0.0
  0
LINE
  5
99
330
1F
100
AcDbEntity
  8
0
  6
Continuous
 62
     7
370
    25
100
AcDbLine
 10
163.5864117085
 20
248.3722475128
 30
0.0
 11
164.0864117085
 21
248.3722475128
 31
0.0
  0
LINE
  5
9A
330
1F
100
AcDbEntity
  8
0
  6
Continuous
 62
     7
370
    25
100
AcDbLine
 10
164.0864117085
 20
248.3722475128
 30
0.0
 11
164.0864117085
 21
257.3722475128
 31
0.0
  0
LINE
  5
9B
330
1F
100
AcDbEntity
  8
0
  6
Continuous
 62
     7
370
    25
100
AcDbLine
 10
164.0864117085
 20
257.3722475128
 30
0.0
 11
163.5864117085
 21
258.3722475128
 31
0.0
  0
LINE
  5
9C
330
1F
100
AcDbEntity
  8
0
  6
Continuous
 62
     7
370
    25
100
AcDbLine
 10
163.5864117085
 20
258.3722475128
 30
0.0
 11
163.0864117085
 21
258.8722475128
 31
0.0
  0
LINE
  5
9D
330
1F
100
AcDbEntity
  8
0
  6
Continuous
 62
     7
370
    25
100
AcDbLine
 10
163.0864117085
 20
258.8722475128
 30
0.0
 11
163.0864117085
 21
259.8722475128
 31
0.0
  0
LINE
  5
9E
330
1F
100
AcDbEntity
  8
0
  6
Continuous
 62
     7
370
    25
100
AcDbLine
 10
163.0864117085
 20
259.8722475128
 30
0.0
 11
164.5864117085
 21
261.3722475128
 31
0.0
  0
LINE
  5
9F
330
1F
100
AcDbEntity
  8
0
  6
Continuous
 62
     7
370
    25
100
AcDbLine
 10
164.5864117085
 20
261.3722475128
 30
0.0
 11
166.0864117085
 21
261.3722475128
 31
0.0
  0
LINE
  5
A0
330
1F
100
AcDbEntity
  8
0
  6
Continuous
 62
     7
370
    25
100
AcDbLine
 10
166.0864117085
 20
261.3722475128
 30
0.0
 11
166.5864117085
 21
248.3722475128
 31
0.0
  0
LINE
  5
A1
330
1F
100
AcDbEntity
  8
0
  6
Continuous
 62
     7
370
    25
100
AcDbLine
 10
166.5864117085
 20
248.3722475128
 30
0.0
 11
167.0864117085
 21
248.3722475128
 31
0.0
  0
LINE
  5
A2
330
1F
100
AcDbEntity
  8
0
  6
Continuous
 62
     7
370
    25
100
AcDbLine
 10
167.0864117085
 20
248.3722475128
 30
0.0
 11
167.0864117085
 21
261.3722475128
 31
0.0
  0
LINE
  5
A3
330
1F
100
AcDbEntity
  8
0
  6
Continuous
 62
     7
370
    25
100
AcDbLine
 10
167.0864117085
 20
261.3722475128
 30
0.0
 11
175.0864117085
 21
261.3722475128
 31
0.0
  0
LINE
  5
A4
330
1F
100
AcDbEntity
  8
0
  6
Continuous
 62
     7
370
    25
100
AcDbLine
 10
175.0864117085
 20
248.3722475128
 30
0.0
 11
175.0864117085
 21
261.3722475128
 31
0.0
  0
LINE
  5
A5
330
1F
100
AcDbEntity
  8
0
  6
Continuous
 62
     7
370
    25
100
AcDbLine
 10
175.5864117085
 20
248.3722475128
 30
0.0
 11
175.0864117085
 21
248.3722475128
 31
0.0
  0
LINE
  5
A6
330
1F
100
AcDbEntity
  8
0
  6
Continuous
 62
     7
370
    25
100
AcDbLine
 10
176.0864117085
 20
261.3722475128
 30
0.0
 11
175.5864117085
 21
248.3722475128
 31
0.0
  0
LINE
  5
A7
330
1F
100
AcDbEntity
  8
0
  6
Continuous
 62
     7
370
    25
100
AcDbLine
 10
177.5864117085
 20
261.3722475128
 30
0.0
 11
176.0864117085
 21
261.3722475128
 31
0.0
  0
LINE
  5
A8
330
1F
100
AcDbEntity
  8
0
  6
Continuous
 62
     7
370
    25
100
AcDbLine
 10
179.0864117085
 20
259.8722475128
 30
0.0
 11
177.5864117085
 21
261.3722475128
 31
0.0
  0
LINE
  5
A9
330
1F
100
AcDbEntity
  8
0
  6
Continuous
 62
     7
370
    25
100
AcDbLine
 10
179.0864117085
 20
258.8722475128
 30
0.0
 11
179.0864117085
 21
259.8722475128
 31
0.0
  0
LINE
  5
AA
330
1F
100
AcDbEntity
  8
0
  6
Continuous
 62
     7
370
    25
100
AcDbLine
 10
178.5864117085
 20
258.3722475128
 30
0.0
 11
179.0864117085
 21
258.8722475128
 31
0.0
  0
LINE
  5
AB
330
1F
100
AcDbEntity
  8
0
  6
Continuous
 62
     7
370
    25
100
AcDbLine
 10
178.0864117085
 20
257.3722475128
 30
0.0
 11
178.5864117085
 21
258.3722475128
 31
0.0
  0
LINE
  5
AC
330
1F
100
AcDbEntity
  8
0
  6
Continuous
 62
     7
370
    25
100
AcDbLine
 10
178.0864117085
 20
248.3722475128
 30
0.0
 11
178.0864117085
 21
257.3722475128
 31
0.0
  0
LINE
  5
AD
330
1F
100
AcDbEntity
  8
0
  6
Continuous
 62
     7
370
    25
100
AcDbLine
 10
178.5864117085
 20
248.3722475128
 30
0.0
 11
178.0864117085
 21
248.3722475128
 31
0.0
  0
LINE
  5
AE
330
1F
100
AcDbEntity
  8
0
  6
Continuous
 62
     7
370
    25
100
AcDbLine
 10
179.0864117085
 20
255.3744186047
 30
0.0
 11
178.5864117085
 21
248.3722475128
 31
0.0
  0
LINE
  5
AF
330
1F
100
AcDbEntity
  8
0
  6
Continuous
 62
     7
370
    25
100
AcDbLine
 10
181.0819566689
 20
255.3744186047
 30
0.0
 11
179.0864117085
 21
255.3744186047
 31
0.0
  0
LINE
  5
B0
330
1F
100
AcDbEntity
  8
0
  6
Continuous
 62
     7
370
    25
100
AcDbLine
 10
181.0819566689
 20
255.3744186047
 30
0.0
 11
181.0819566689
 21
249.3744186047
 31
0.0
  0
LINE
  5
B1
330
1F
100
AcDbEntity
  8
0
  6
Continuous
 62
     7
370
    25
100
AcDbLine
 10
181.0819566689
 20
249.3744186047
 30
0.0
 11
191.0819566689
 21
249.3744186047
 31
0.0
  0
LINE
  5
B2
330
1F
100
AcDbEntity
  8
0
  6
Continuous
 62
     7
370
    25
100
AcDbLine
 10
191.0819566689
 20
235.3744186047
 30
0.0
 11
191.0819566689
 21
249.3744186047
 31
0.0
  0
LINE
  5
B3
330
1F
100
AcDbEntity
  8
0
  6
Continuous
 62
     7
370
    25
100
AcDbLine
 10
171.0819566689
 20
235.3744186047
 30
0.0
 11
191.0819566689
 21
235.3744186047
 31
0.0
  0
ARC
  5
B4
330
1F
100
AcDbEntity
  8
0
  6
Continuous
 62
     7
370
    25
100
AcDbCircle
 10
241.0819566689
 20
145.3744186047
 30
0.0
 40
114.0175425099138
100
AcDbArc
 50
127.8749836511
 51
135.4407541534
  0
LINE
  5
B5
330
1F
100
AcDbEntity
  8
0
  6
Continuous
 62
     7
370
    25
100
AcDbLine
 10
143.9927183563
 20
225.3744186047
 30
0.0
 11
159.8415726226
 21
225.3744186047
 31
0.0
  0
LINE
  5
B6
330
1F
100
AcDbEntity
  8
0
  6
Continuous
 62
     7
370
    25
100
AcDbLine
 10
143.9927183563
 20
222.3744186047
 30
0.0
 11
143.9927183563
 21
225.3744186047
 31
0.0
  0
LINE
  5
B7
330
1F
100
AcDbEntity
  8
0
  6
Continuous
 62
     7
370
    25
100
AcDbLine
 10
156.9927183563
 20
222.3744186047
 30
0.0
 11
143.9927183563
 21
222.3744186047
 31
0.0
  0
LINE
  5
B8
330
1F
100
AcDbEntity
  8
0
  6
Continuous
 62
     7
370
    25
100
AcDbLine
 10
121.6470445065
 20
180.3744186047
 30
0.0
 11
132.5692845979
 21
180.3744186047
 31
0.0
  0
LINE
  5
B9
330
1F
100
AcDbEntity
  8
0
  6
Continuous
 62
     7
370
    25
100
AcDbLine
 10
121.6470445065
 20
177.3744186047
 30
0.0
 11
121.6470445065
 21
180.3744186047
 31
0.0
  0
LINE
  5
BA
330
1F
100
AcDbEntity
  8
0
  6
Continuous
 62
     7
370
    25
100
AcDbLine
 10
131.6470445065
 20
177.3744186047
 30
0.0
 11
121.6470445065
 21
177.3744186047
 31
0.0
  0
LINE
  5
BB
330
1F
100
AcDbEntity
  8
0
  6
Continuous
 62
     7
370
    25
100
AcDbLine
 10
188.090866748
 20
41.3744186047
 30
0.0
 11
188.090866748
 21
38.3744186047
 31
0.0
  0
LINE
  5
BC
330
1F
100
AcDbEntity
  8
0
  6
Continuous
 62
     7
370
    25
100
AcDbLine
 10
181.090866748
 20
41.3744186047
 30
0.0
 11
188.090866748
 21
41.3744186047
 31
0.0
  0
LINE
  5
BD
330
1F
100
AcDbEntity
  8
0
  6
Continuous
 62
     7
370
    25
100
AcDbLine
 10
181.090866748
 20
41.3744186047
 30
0.0
 11
181.090866748
 21
38.3744186047
 31
0.0
  0
LINE
  5
BE
330
1F
100
AcDbEntity
  8
0
  6
Continuous
 62
     7
370
    25
100
AcDbLine
 10
181.090866748
 20
38.3744186047
 30
0.0
 11
188.090866748
 21
38.3744186047
 31
0.0
  0
LINE
  5
BF
330
1F
100
AcDbEntity
  8
0
  6
Continuous
 62
     7
370
    25
100
AcDbLine
 10
161.0819566689
 20
252.3744186047
 30
0.0
 11
161.0819566689
 21
249.3744186047
 31
0.0
  0
LINE
  5
C0
330
1F
100
AcDbEntity
  8
0
  6
Continuous
 62
     7
370
    25
100
AcDbLine
 10
154.0819566689
 20
252.3744186047
 30
0.0
 11
161.0819566689
 21
252.3744186047
 31
0.0
  0
LINE
  5
C1
330
1F
100
AcDbEntity
  8
0
  6
Continuous
 62
     7
370
    25
100
AcDbLine
 10
154.0819566689
 20
252.3744186047
 30
0.0
 11
154.0819566689
 21
249.3744186047
 31
0.0
  0
LINE
  5
C2
330
1F
100
AcDbEntity
  8
0
  6
Continuous
 62
     7
370
    25
100
AcDbLine
 10
154.0819566689
 20
249.3744186047
 30
0.0
 11
161.0819566689
 21
249.3744186047
 31
0.0
  0
LINE
  5
C3
330
1F
100
AcDbEntity
  8
0
  6
Continuous
 62
     7
370
    25
100
AcDbLine
 10
161.090866748
 20
41.3744186047
 30
0.0
 11
161.090866748
 21
38.3744186047
 31
0.0
  0
LINE
  5
C4
330
1F
100
AcDbEntity
  8
0
  6
Continuous
 62
     7
370
    25
100
AcDbLine
 10
154.090866748
 20
41.3744186047
 30
0.0
 11
161.090866748
 21
41.3744186047
 31
0.0
  0
LINE
  5
C5
330
1F
100
AcDbEntity
  8
0
  6
Continuous
 62
     7
370
    25
100
AcDbLine
 10
154.090866748
 20
41.3744186047
 30
0.0
 11
154.090866748
 21
38.3744186047
 31
0.0
  0
LINE
  5
C6
330
1F
100
AcDbEntity
  8
0
  6
Continuous
 62
     7
370
    25
100
AcDbLine
 10
154.090866748
 20
38.3744186047
 30
0.0
 11
161.090866748
 21
38.3744186047
 31
0.0
  0
LINE
  5
C7
330
1F
100
AcDbEntity
  8
0
  6
Continuous
 62
     7
370
    25
100
AcDbLine
 10
125.0742814887
 20
148.3744186047
 30
0.0
 11
125.0742814887
 21
151.3744186047
 31
0.0
  0
LINE
  5
C8
330
1F
100
AcDbEntity
  8
0
  6
Continuous
 62
     7
370
    25
100
AcDbLine
 10
125.0742814887
 20
151.3744186047
 30
0.0
 11
120.0742814887
 21
151.3744186047
 31
0.0
  0
LINE
  5
C9
330
1F
100
AcDbEntity
  8
0
  6
Continuous
 62
     7
370
    25
100
AcDbLine
 10
120.0742814887
 20
151.3744186047
 30
0.0
 11
120.0742814887
 21
148.3744186047
 31
0.0
  0
LINE
  5
CA
330
1F
100
AcDbEntity
  8
0
  6
Continuous
 62
     7
370
    25
100
AcDbLine
 10
120.0742814887
 20
148.3744186047
 30
0.0
 11
125.0742814887
 21
148.3744186047
 31
0.0
  0
LINE
  5
CB
330
1F
100
AcDbEntity
  8
0
  6
Continuous
 62
     7
370
    25
100
AcDbLine
 10
125.0742814887
 20
142.3744186047
 30
0.0
 11
120.0742814887
 21
142.3744186047
 31
0.0
  0
LINE
  5
CC
330
1F
100
AcDbEntity
  8
0
  6
Continuous
 62
     7
370
    25
100
AcDbLine
 10
120.0742814887
 20
142.3744186047
 30
0.0
 11
120.0742814887
 21
139.3744186047
 31
0.0
  0
LINE
  5
CD
330
1F
100
AcDbEntity
  8
0
  6
Continuous
 62
     7
370
    25
100
AcDbLine
 10
120.0742814887
 20
139.3744186047
 30
0.0
 11
125.0742814887
 21
139.3744186047
 31
0.0
  0
LINE
  5
CE
330
1F
100
AcDbEntity
  8
0
  6
Continuous
 62
     7
370
    25
100
AcDbLine
 10
125.0742814887
 20
139.3744186047
 30
0.0
 11
125.0742814887
 21
142.3744186047
 31
0.0
  0
ARC
  5
CF
330
1F
100
AcDbEntity
  8
0
  6
Continuous
 62
     7
370
    25
100
AcDbCircle
 10
241.0819566689
 20
145.3744186047
 30
0.0
 40
114.0175425099138
100
AcDbArc
 50
137.5198549765
 51
162.1232583776
  0
ARC
  5
D0
330
1F
100
AcDbEntity
  8
0
  6
Continuous
 62
     7
370
    25
100
AcDbCircle
 10
241.0819566689
 20
145.3744186047
 30
0.0
 40
114.0175425099138
100
AcDbArc
 50
163.7004860821
 51
179.2462024114
  0
ENDSEC
  0
SECTION
  2
OBJECTS
  0
DICTIONARY
  5
C
330
0
100
AcDbDictionary
281
     1
  3
ACAD_GROUP
350
D
  3
ACAD_LAYOUT
350
1A
  3
ACAD_MLINESTYLE
350
17
  3
ACAD_PLOTSETTINGS
350
19
  3
ACAD_PLOTSTYLENAME
350
E
  3
ACAD_SCALELIST
350
47
  0
DICTIONARY
  5
D
102
{ACAD_REACTORS
330
C
102
}
330
C
100
AcDbDictionary
281
     1
  0
DICTIONARY
  5
1A
102
{ACAD_REACTORS
330
C
102
}
330
C
100
AcDbDictionary
281
     1
  3
Layout1
350
1E
  3
Layout2
350
26
  3
Model
350
22
  0
DICTIONARY
  5
17
102
{ACAD_REACTORS
330
C
102
}
330
C
100
AcDbDictionary
281
     1
  3
Standard
350
18
  0
DICTIONARY
  5
19
102
{ACAD_REACTORS
330
C
102
}
330
C
100
AcDbDictionary
281
     1
  0
ACDBDICTIONARYWDFLT
  5
E
102
{ACAD_REACTORS
330
C
102
}
330
C
100
AcDbDictionary
281
     1
  3
Normal
350
F
100
AcDbDictionaryWithDefault
340
F
  0
DICTIONARY
  5
47
102
{ACAD_REACTORS
330
C
102
}
330
C
100
AcDbDictionary
281
     1
  3
A0
350
48
  3
A1
350
49
  3
A2
350
4A
  3
A3
350
4B
  3
A4
350
4C
  3
A5
350
4D
  3
A6
350
4E
  3
A7
350
4F
  3
A8
350
50
  3
A9
350
51
  3
B0
350
52
  3
B1
350
53
  3
B2
350
54
  3
B3
350
55
  3
B4
350
56
  3
B5
350
57
  3
B6
350
58
  3
B7
350
59
  3
B8
350
5A
  3
B9
350
5B
  3
C0
350
5C
  3
C1
350
5D
  3
C2
350
5E
  3
C3
350
5F
  3
C4
350
60
  3
C5
350
61
  3
C6
350
62
  3
C7
350
63
  3
C8
350
64
  3
C9
350
65
  3
D0
350
66
  3
D1
350
67
  3
D2
350
68
  0
LAYOUT
  5
1E
102
{ACAD_REACTORS
330
1A
102
}
330
1A
100
AcDbPlotSettings
  1

  2
none_device
  4

  6

 40
0.0
 41
0.0
 42
0.0
 43
0.0
 44
0.0
 45
0.0
 46
0.0
 47
0.0
 48
0.0
 49
0.0
140
0.0
141
0.0
142
1.0
143
1.0
 70
   688
 72
     1
 73
     0
 74
     5
  7

 75
    16
147
1.0
148
0.0
149
0.0
100
AcDbLayout
  1
Layout1
 70
     1
 71
     1
 10
0.0
 20
0.0
 11
420.0
 21
297.0
 12
0.0
 22
0.0
 32
0.0
 14
1.0000000000E+20
 24
1.0000000000E+20
 34
1.0000000000E+20
 15
-1.0000000000E+20
 25
-1.0000000000E+20
 35
-1.0000000000E+20
146
0.0
 13
0.0
 23
0.0
 33
0.0
 16
1.0
 26
0.0
 36
0.0
 17
0.0
 27
1.0
 37
0.0
 76
     0
330
1B
  0
LAYOUT
  5
26
102
{ACAD_REACTORS
330
1A
102
}
330
1A
100
AcDbPlotSettings
  1

  2
none_device
  4

  6

 40
0.0
 41
0.0
 42
0.0
 43
0.0
 44
0.0
 45
0.0
 46
0.0
 47
0.0
 48
0.0
 49
0.0
140
0.0
141
0.0
142
1.0
143
1.0
 70
   688
 72
     1
 73
     0
 74
     5
  7

 75
    16
147
1.0
148
0.0
149
0.0
100
AcDbLayout
  1
Layout2
 70
     1
 71
     2
 10
0.0
 20
0.0
 11
0.0
 21
0.0
 12
0.0
 22
0.0
 32
0.0
 14
0.0
 24
0.0
 34
0.0
 15
0.0
 25
0.0
 35
0.0
146
0.0
 13
0.0
 23
0.0
 33
0.0
 16
1.0
 26
0.0
 36
0.0
 17
0.0
 27
1.0
 37
0.0
 76
     0
330
23
  0
LAYOUT
  5
22
102
{ACAD_REACTORS
330
1A
102
}
330
1A
100
AcDbPlotSettings
  1

  2
none_device
  4
Letter_(8.50_x_11.00_Inches)
  6

 40
6.35
 41
6.35
 42
6.35000508
 43
6.35000508
 44
215.9
 45
279.4
 46
0.0
 47
0.0
 48
0.0
 49
0.0
140
0.0
141
0.0
142
1.0
143
1.0
 70
  1712
 72
     1
 73
     0
 74
     0
  7

 75
     0
147
1.0
148
0.0
149
0.0
100
AcDbLayout
  1
Model
 70
     1
 71
     0
 10
0.0
 20
0.0
 11
300.0
 21
300.0
 12
0.0
 22
0.0
 32
0.0
 14
0.0
 24
0.0
 34
0.0
 15
300.0
 25
300.0
 35
0.0
146
0.0
 13
0.0
 23
0.0
 33
0.0
 16
1.0
 26
0.0
 36
0.0
 17
0.0
 27
1.0
 37
0.0
 76
     0
330
1F
331
29
  0
MLINESTYLE
  5
18
102
{ACAD_REACTORS
330
17
102
}
330
17
100
AcDbMlineStyle
  2
Standard
 70
     0
  3

 62
   256
 51
90.0
 52
90.0
 71
     2
 49
0.5
 62
   256
  6
BYLAYER
 49
-0.5
 62
   256
  6
BYLAYER
  0
ACDBPLACEHOLDER
  5
F
102
{ACAD_REACTORS
330
E
102
}
330
E
  0
SCALE
  5
48
102
{ACAD_REACTORS
330
47
102
}
330
47
100
AcDbScale
 70
     0
300
1:1
140
1.0
141
1.0
290
     1
  0
SCALE
  5
49
102
{ACAD_REACTORS
330
47
102
}
330
47
100
AcDbScale
 70
     0
300
1:2
140
1.0
141
2.0
290
     0
  0
SCALE
  5
4A
102
{ACAD_REACTORS
330
47
102
}
330
47
100
AcDbScale
 70
     0
300
1:4
140
1.0
141
4.0
290
     0
  0
SCALE
  5
4B
102
{ACAD_REACTORS
330
47
102
}
330
47
100
AcDbScale
 70
     0
300
1:5
140
1.0
141
5.0
290
     0
  0
SCALE
  5
4C
102
{ACAD_REACTORS
330
47
102
}
330
47
100
AcDbScale
 70
     0
300
1:8
140
1.0
141
8.0
290
     0
  0
SCALE
  5
4D
102
{ACAD_REACTORS
330
47
102
}
330
47
100
AcDbScale
 70
     0
300
1:10
140
1.0
141
10.0
290
     0
  0
SCALE
  5
4E
102
{ACAD_REACTORS
330
47
102
}
330
47
100
AcDbScale
 70
     0
300
1:16
140
1.0
141
16.0
290
     0
  0
SCALE
  5
4F
102
{ACAD_REACTORS
330
47
102
}
330
47
100
AcDbScale
 70
     0
300
1:20
140
1.0
141
20.0
290
     0
  0
SCALE
  5
50
102
{ACAD_REACTORS
330
47
102
}
330
47
100
AcDbScale
 70
     0
300
1:30
140
1.0
141
30.0
290
     0
  0
SCALE
  5
51
102
{ACAD_REACTORS
330
47
102
}
330
47
100
AcDbScale
 70
     0
300
1:40
140
1.0
141
40.0
290
     0
  0
SCALE
  5
52
102
{ACAD_REACTORS
330
47
102
}
330
47
100
AcDbScale
 70
     0
300
1:50
140
1.0
141
50.0
290
     0
  0
SCALE
  5
53
102
{ACAD_REACTORS
330
47
102
}
330
47
100
AcDbScale
 70
     0
300
1:100
140
1.0
141
100.0
290
     0
  0
SCALE
  5
54
102
{ACAD_REACTORS
330
47
102
}
330
47
100
AcDbScale
 70
     0
300
2:1
140
2.0
141
1.0
290
     0
  0
SCALE
  5
55
102
{ACAD_REACTORS
330
47
102
}
330
47
100
AcDbScale
 70
     0
300
4:1
140
4.0
141
1.0
290
     0
  0
SCALE
  5
56
102
{ACAD_REACTORS
330
47
102
}
330
47
100
AcDbScale
 70
     0
300
8:1
140
8.0
141
1.0
290
     0
  0
SCALE
  5
57
102
{ACAD_REACTORS
330
47
102
}
330
47
100
AcDbScale
 70
     0
300
10:1
140
10.0
141
1.0
290
     0
  0
SCALE
  5
58
102
{ACAD_REACTORS
330
47
102
}
330
47
100
AcDbScale
 70
     0
300
100:1
140
100.0
141
1.0
290
     0
  0
SCALE
  5
59
102
{ACAD_REACTORS
330
47
102
}
330
47
100
AcDbScale
 70
     0
300
1/128" = 1'-0"
140
0.0078125
141
12.0
290
     0
  0
SCALE
  5
5A
102
{ACAD_REACTORS
330
47
102
}
330
47
100
AcDbScale
 70
     0
300
1/64" = 1'-0"
140
0.015625
141
12.0
290
     0
  0
SCALE
  5
5B
102
{ACAD_REACTORS
330
47
102
}
330
47
100
AcDbScale
 70
     0
300
1/32" = 1'-0"
140
0.03125
141
12.0
290
     0
  0
SCALE
  5
5C
102
{ACAD_REACTORS
330
47
102
}
330
47
100
AcDbScale
 70
     0
300
1/16" = 1'-0"
140
0.0625
141
12.0
290
     0
  0
SCALE
  5
5D
102
{ACAD_REACTORS
330
47
102
}
330
47
100
AcDbScale
 70
     0
300
3/32" = 1'-0"
140
0.09375
141
12.0
290
     0
  0
SCALE
  5
5E
102
{ACAD_REACTORS
330
47
102
}
330
47
100
AcDbScale
 70
     0
300
1/8" = 1'-0"
140
0.125
141
12.0
290
     0
  0
SCALE
  5
5F
102
{ACAD_REACTORS
330
47
102
}
330
47
100
AcDbScale
 70
     0
300
3/16" = 1'-0"
140
0.1875
141
12.0
290
     0
  0
SCALE
  5
60
102
{ACAD_REACTORS
330
47
102
}
330
47
100
AcDbScale
 70
     0
300
1/4" = 1'-0"
140
0.25
141
12.0
290
     0
  0
SCALE
  5
61
102
{ACAD_REACTORS
330
47
102
}
330
47
100
AcDbScale
 70
     0
300
3/8" = 1'-0"
140
0.375
141
12.0
290
     0
  0
SCALE
  5
62
102
{ACAD_REACTORS
330
47
102
}
330
47
100
AcDbScale
 70
     0
300
1/2" = 1'-0"
140
0.5
141
12.0
290
     0
  0
SCALE
  5
63
102
{ACAD_REACTORS
330
47
102
}
330
47
100
AcDbScale
 70
     0
300
3/4" = 1'-0"
140
0.75
141
12.0
290
     0
  0
SCALE
  5
64
102
{ACAD_REACTORS
330
47
102
}
330
47
100
AcDbScale
 70
     0
300
1" = 1'-0"
140
1.0
141
12.0
290
     0
  0
SCALE
  5
65
102
{ACAD_REACTORS
330
47
102
}
330
47
100
AcDbScale
 70
     0
300
1-1/2" = 1'-0"
140
1.5
141
12.0
290
     0
  0
SCALE
  5
66
102
{ACAD_REACTORS
330
47
102
}
330
47
100
AcDbScale
 70
     0
300
3" = 1'-0"
140
3.0
141
12.0
290
     0
  0
SCALE
  5
67
102
{ACAD_REACTORS
330
47
102
}
330
47
100
AcDbScale
 70
     0
300
6" = 1'-0"
140
6.0
141
12.0
290
     0
  0
SCALE
  5
68
102
{ACAD_REACTORS
330
47
102
}
330
47
100
AcDbScale
 70
     0
300
1'-0" = 1'-0"
140
12.0
141
12.0
290
     0
  0
ENDSEC
  0
EOF
