  0
SECTION
  2
HEADER
  9
$ACADVER
  1
AC1015
  9
$ACADMAINTVER
 70
     6
  9
$DWGCODEPAGE
  3
ANSI_1252
  9
$INSBASE
 10
0.0
 20
0.0
 30
0.0
  9
$EXTMIN
 10
0.0
 20
0.0
 30
0.0
  9
$EXTMAX
 10
300.0
 20
300.0
 30
0.0
  9
$LIMMIN
 10
0.0
 20
0.0
  9
$LIMMAX
 10
300.0
 20
300.0
  9
$ORTHOMODE
 70
     0
  9
$REGENMODE
 70
     1
  9
$FILLMODE
 70
     1
  9
$QTEXTMODE
 70
     0
  9
$MIRRTEXT
 70
     1
  9
$LTSCALE
 40
1.0
  9
$ATTMODE
 70
     1
  9
$TEXTSIZE
 40
3.5
  9
$TRACEWID
 40
1.0
  9
$TEXTSTYLE
  7
Standard
  9
$CLAYER
  8
0
  9
$CELTYPE
  6
ByLayer
  9
$CECOLOR
 62
   256
  9
$CELTSCALE
 40
1.0
  9
$DISPSILH
 70
     0
  9
$DIMSCALE
 40
1.0
  9
$DIMASZ
 40
3.302
  9
$DIMEXO
 40
1.0
  9
$DIMDLI
 40
3.75
  9
$DIMRND
 40
0.0
  9
$DIMDLE
 40
0.0
  9
$DIMEXE
 40
1.0
  9
$DIMTP
 40
0.0
  9
$DIMTM
 40
0.0
  9
$DIMTXT
 40
3.5
  9
$DIMCEN
 40
2.5
  9
$DIMTSZ
 40
0.0
  9
$DIMTOL
 70
     0
  9
$DIMLIM
 70
     0
  9
$DIMTIH
 70
     1
  9
$DIMTOH
 70
     1
  9
$DIMSE1
 70
     0
  9
$DIMSE2
 70
     0
  9
$DIMTAD
 70
     1
  9
$DIMZIN
 70
     0
  9
$DIMBLK
  1

  9
$DIMASO
 70
     1
  9
$DIMSHO
 70
     1
  9
$DIMPOST
  1

  9
$DIMAPOST
  1

  9
$DIMALT
 70
     0
  9
$DIMALTD
 70
     3
  9
$DIMALTF
 40
0.0393700787
  9
$DIMLFAC
 40
5.0
  9
$DIMTOFL
 70
     1
  9
$DIMTVP
 40
0.0
  9
$DIMTIX
 70
     0
  9
$DIMSOXD
 70
     0
  9
$DIMSAH
 70
     0
  9
$DIMBLK1
  1

  9
$DIMBLK2
  1

  9
$DIMSTYLE
  2
ISO-25
  9
$DIMCLRD
 70
     0
  9
$DIMCLRE
 70
     0
  9
$DIMCLRT
 70
     0
  9
$DIMTFAC
 40
1.0
  9
$DIMGAP
 40
1.524
  9
$DIMJUST
 70
     0
  9
$DIMSD1
 70
     0
  9
$DIMSD2
 70
     0
  9
$DIMTOLJ
 70
     0
  9
$DIMTZIN
 70
     0
  9
$DIMALTZ
 70
     0
  9
$DIMALTTZ
 70
     0
  9
$DIMUPT
 70
     0
  9
$DIMDEC
 70
     2
  9
$DIMTDEC
 70
     2
  9
$DIMALTU
 70
     2
  9
$DIMALTTD
 70
     3
  9
$DIMTXSTY
  7
Standard
  9
$DIMAUNIT
 70
     0
  9
$DIMADEC
 70
     2
  9
$DIMALTRND
 40
0.0
  9
$DIMAZIN
 70
     0
  9
$DIMDSEP
 70
    44
  9
$DIMATFIT
 70
     3
  9
$DIMFRAC
 70
     0
  9
$DIMLDRBLK
  1

  9
$DIMLUNIT
 70
     2
  9
$DIMLWD
 70
    -2
  9
$DIMLWE
 70
    -2
  9
$DIMTMOVE
 70
     0
  9
$LUNITS
 70
     2
  9
$LUPREC
 70
     2
  9
$SKETCHINC
 40
1.0
  9
$FILLETRAD
 40
10.0
  9
$AUNITS
 70
     0
  9
$AUPREC
 70
     2
  9
$MENU
  1
.
  9
$ELEVATION
 40
0.0
  9
$PELEVATION
 40
0.0
  9
$THICKNESS
 40
0.0
  9
$LIMCHECK
 70
     0
  9
$CHAMFERA
 40
0.0
  9
$CHAMFERB
 40
0.0
  9
$CHAMFERC
 40
0.0
  9
$CHAMFERD
 40
0.0
  9
$SKPOLY
 70
     0
  9
$TDCREATE
 40
2457890.437886366
  9
$TDUCREATE
 40
2457890.354553032
  9
$TDUPDATE
 40
2457890.437886667
  9
$TDUUPDATE
 40
2457890.354553333
  9
$TDINDWG
 40
0.0000000116
  9
$TDUSRTIMER
 40
0.0000000116
  9
$USRTIMER
 70
     1
  9
$ANGBASE
 50
0.0
  9
$ANGDIR
 70
     0
  9
$PDMODE
 70
     0
  9
$PDSIZE
 40
-1.0
  9
$PLINEWID
 40
0.0
  9
$SPLFRAME
 70
     0
  9
$SPLINETYPE
 70
     6
  9
$SPLINESEGS
 70
     8
  9
$HANDSEED
  5
B7
  9
$SURFTAB1
 70
     6
  9
$SURFTAB2
 70
     6
  9
$SURFTYPE
 70
     6
  9
$SURFU
 70
     6
  9
$SURFV
 70
     6
  9
$UCSBASE
  2

  9
$UCSNAME
  2

  9
$UCSORG
 10
0.0
 20
0.0
 30
0.0
  9
$UCSXDIR
 10
1.0
 20
0.0
 30
0.0
  9
$UCSYDIR
 10
0.0
 20
1.0
 30
0.0
  9
$UCSORTHOREF
  2

  9
$UCSORTHOVIEW
 70
     0
  9
$UCSORGTOP
 10
0.0
 20
0.0
 30
0.0
  9
$UCSORGBOTTOM
 10
0.0
 20
0.0
 30
0.0
  9
$UCSORGLEFT
 10
0.0
 20
0.0
 30
0.0
  9
$UCSORGRIGHT
 10
0.0
 20
0.0
 30
0.0
  9
$UCSORGFRONT
 10
0.0
 20
0.0
 30
0.0
  9
$UCSORGBACK
 10
0.0
 20
0.0
 30
0.0
  9
$PUCSBASE
  2

  9
$PUCSNAME
  2

  9
$PUCSORG
 10
0.0
 20
0.0
 30
0.0
  9
$PUCSXDIR
 10
1.0
 20
0.0
 30
0.0
  9
$PUCSYDIR
 10
0.0
 20
1.0
 30
0.0
  9
$PUCSORTHOREF
  2

  9
$PUCSORTHOVIEW
 70
     0
  9
$PUCSORGTOP
 10
0.0
 20
0.0
 30
0.0
  9
$PUCSORGBOTTOM
 10
0.0
 20
0.0
 30
0.0
  9
$PUCSORGLEFT
 10
0.0
 20
0.0
 30
0.0
  9
$PUCSORGRIGHT
 10
0.0
 20
0.0
 30
0.0
  9
$PUCSORGFRONT
 10
0.0
 20
0.0
 30
0.0
  9
$PUCSORGBACK
 10
0.0
 20
0.0
 30
0.0
  9
$USERI1
 70
     0
  9
$USERI2
 70
     0
  9
$USERI3
 70
     0
  9
$USERI4
 70
     0
  9
$USERI5
 70
     0
  9
$USERR1
 40
0.0
  9
$USERR2
 40
0.0
  9
$USERR3
 40
0.0
  9
$USERR4
 40
0.0
  9
$USERR5
 40
0.0
  9
$WORLDVIEW
 70
     1
  9
$SHADEDGE
 70
     3
  9
$SHADEDIF
 70
    70
  9
$TILEMODE
 70
     1
  9
$MAXACTVP
 70
    64
  9
$PINSBASE
 10
0.0
 20
0.0
 30
0.0
  9
$PLIMCHECK
 70
     0
  9
$PEXTMIN
 10
1.0000000000E+20
 20
1.0000000000E+20
 30
1.0000000000E+20
  9
$PEXTMAX
 10
-1.0000000000E+20
 20
-1.0000000000E+20
 30
-1.0000000000E+20
  9
$PLIMMIN
 10
0.0
 20
0.0
  9
$PLIMMAX
 10
420.0
 20
297.0
  9
$UNITMODE
 70
     0
  9
$VISRETAIN
 70
     1
  9
$PLINEGEN
 70
     0
  9
$PSLTSCALE
 70
     1
  9
$TREEDEPTH
 70
  3020
  9
$CMLSTYLE
  2
Standard
  9
$CMLJUST
 70
     0
  9
$CMLSCALE
 40
20.0
  9
$PROXYGRAPHICS
 70
     1
  9
$MEASUREMENT
 70
     1
  9
$CELWEIGHT
370
    -1
  9
$ENDCAPS
280
     0
  9
$JOINSTYLE
280
     0
  9
$LWDISPLAY
290
     1
  9
$INSUNITS
 70
     4
  9
$HYPERLINKBASE
  1

  9
$STYLESHEET
  1

  9
$XEDIT
290
     1
  9
$CEPSNTYPE
380
     0
  9
$PSTYLEMODE
290
     1
  9
$FINGERPRINTGUID
  2
{8666E38A-1538-4C7F-A2A2-880BBF61BDFE}
  9
$VERSIONGUID
  2
{FAEB1C32-E019-11D5-929B-00C0DF256EC4}
  9
$EXTNAMES
290
     1
  9
$PSVPSCALE
 40
0.0
  9
$OLESTARTUP
290
     0
  0
ENDSEC
  0
SECTION
  2
CLASSES
  0
CLASS
  1
ACDBDICTIONARYWDFLT
  2
AcDbDictionaryWithDefault
  3
ObjectDBX Classes
 90
        0
280
     0
281
     0
  0
CLASS
  1
VISUALSTYLE
  2
AcDbVisualStyle
  3
ObjectDBX Classes
 90
     4095
280
     0
281
     0
  0
CLASS
  1
MATERIAL
  2
AcDbMaterial
  3
ObjectDBX Classes
 90
     1153
280
     0
281
     0
  0
CLASS
  1
SCALE
  2
AcDbScale
  3
ObjectDBX Classes
 90
     1153
280
     0
281
     0
  0
CLASS
  1
TABLESTYLE
  2
AcDbTableStyle
  3
ObjectDBX Classes
 90
     4095
280
     0
281
     0
  0
CLASS
  1
MLEADERSTYLE
  2
AcDbMLeaderStyle
  3
ACDB_MLEADERSTYLE_CLASS
 90
     4095
280
     0
281
     0
  0
CLASS
  1
SUN
  2
AcDbSun
  3
SCENEOE
 90
     1153
280
     0
281
     0
  0
CLASS
  1
ACDBPLACEHOLDER
  2
AcDbPlaceHolder
  3
ObjectDBX Classes
 90
        0
280
     0
281
     0
  0
CLASS
  1
LAYOUT
  2
AcDbLayout
  3
ObjectDBX Classes
 90
        0
280
     0
281
     0
  0
ENDSEC
  0
SECTION
  2
TABLES
  0
TABLE
  2
VPORT
  5
8
330
0
100
AcDbSymbolTable
 70
     1
  0
VPORT
  5
29
330
8
100
AcDbSymbolTableRecord
100
AcDbViewportTableRecord
  2
*Active
 70
     0
 10
0.0
 20
0.0
 11
1.0
 21
1.0
 12
150.0
 22
150.0
 13
0.0
 23
0.0
 14
10.0
 24
10.0
 15
10.0
 25
10.0
 16
0.0
 26
0.0
 36
1.0
 17
0.0
 27
0.0
 37
0.0
 40
300.0
 41
1.0
 42
50.0
 43
0.0
 44
0.0
 50
0.0
 51
0.0
 71
     0
 72
  2000
 73
     1
 74
     3
 75
     0
 76
     0
 77
     0
 78
     0
281
     0
 65
     1
110
0.0
120
0.0
130
0.0
111
1.0
121
0.0
131
0.0
112
0.0
122
1.0
132
0.0
 79
     0
146
0.0
  0
ENDTAB
  0
TABLE
  2
LTYPE
  5
5
330
0
100
AcDbSymbolTable
 70
     6
  0
LTYPE
  5
14
330
5
100
AcDbSymbolTableRecord
100
AcDbLinetypeTableRecord
  2
ByBlock
 70
     0
  3

 72
    65
 73
     0
 40
0.0
  0
LTYPE
  5
15
330
5
100
AcDbSymbolTableRecord
100
AcDbLinetypeTableRecord
  2
ByLayer
 70
     0
  3

 72
    65
 73
     0
 40
0.0
  0
LTYPE
  5
16
330
5
100
AcDbSymbolTableRecord
100
AcDbLinetypeTableRecord
  2
Continuous
 70
     0
  3
Solid line
 72
    65
 73
     0
 40
0.0
  0
LTYPE
  5
6E
330
5
100
AcDbSymbolTableRecord
100
AcDbLinetypeTableRecord
  2
HIDDEN
 70
     0
  3
Hidden __ __ __ __ __ __ __ __ __ __ __ __ __ __
 72
    65
 73
     2
 40
1.905
 49
1.27
 74
     0
 49
-0.635
 74
     0
  0
LTYPE
  5
6F
330
5
100
AcDbSymbolTableRecord
100
AcDbLinetypeTableRecord
  2
PHANTOM
 70
     0
  3
Phantom ______  __  __  ______  __  __  ______
 72
    65
 73
     6
 40
12.7
 49
6.35
 74
     0
 49
-1.27
 74
     0
 49
1.27
 74
     0
 49
-1.27
 74
     0
 49
1.27
 74
     0
 49
-1.27
 74
     0
  0
LTYPE
  5
70
330
5
100
AcDbSymbolTableRecord
100
AcDbLinetypeTableRecord
  2
CENTER
 70
     0
  3
Center ____ _ ____ _ ____ _ ____ _ ____ _ ____
 72
    65
 73
     4
 40
10.16
 49
6.35
 74
     0
 49
-1.27
 74
     0
 49
1.27
 74
     0
 49
-1.27
 74
     0
  0
LTYPE
  5
71
330
5
100
AcDbSymbolTableRecord
100
AcDbLinetypeTableRecord
  2
CENTERX2
 70
     0
  3
Center (2x) ________  __  ________  __  _____
 72
    65
 73
     4
 40
20.32
 49
12.7
 74
     0
 49
-2.54
 74
     0
 49
2.54
 74
     0
 49
-2.54
 74
     0
  0
LTYPE
  5
72
330
5
100
AcDbSymbolTableRecord
100
AcDbLinetypeTableRecord
  2
DOT2
 70
     0
  3
Dot (.5x) ........................................
 72
    65
 73
     2
 40
0.635
 49
0.0
 74
     0
 49
-0.635
 74
     0
  0
ENDTAB
  0
TABLE
  2
LAYER
  5
2
330
0
100
AcDbSymbolTable
 70
     1
  0
LAYER
  5
10
330
2
100
AcDbSymbolTableRecord
100
AcDbLayerTableRecord
  2
0
 70
     0
 62
     7
  6
Continuous
370
    -3
390
F
  0
ENDTAB
  0
TABLE
  2
STYLE
  5
3
330
0
100
AcDbSymbolTable
 70
     1
  0
STYLE
  5
11
330
3
100
AcDbSymbolTableRecord
100
AcDbTextStyleTableRecord
  2
Standard
 70
     0
 40
0.0
 41
1.0
 50
0.0
 71
     0
 42
3.5
  3
txt
  4

  0
ENDTAB
  0
TABLE
  2
VIEW
  5
6
330
0
100
AcDbSymbolTable
 70
     0
  0
ENDTAB
  0
TABLE
  2
UCS
  5
7
330
0
100
AcDbSymbolTable
 70
     0
  0
ENDTAB
  0
TABLE
  2
APPID
  5
9
330
0
100
AcDbSymbolTable
 70
     1
  0
APPID
  5
12
330
9
100
AcDbSymbolTableRecord
100
AcDbRegAppTableRecord
  2
ACAD
 70
     0
  0
ENDTAB
  0
TABLE
  2
DIMSTYLE
  5
A
330
0
100
AcDbSymbolTable
 70
     1
100
AcDbDimStyleTable
  0
DIMSTYLE
105
27
330
A
100
AcDbSymbolTableRecord
100
AcDbDimStyleTableRecord
  2
ISO-25
 70
     0
 41
2.5
 42
0.625
 43
3.75
 44
1.25
 73
     0
 74
     0
 77
     1
 78
     8
140
2.5
141
2.5
143
0.0393700787
147
0.625
171
     3
172
     1
178
     0
271
     2
272
     2
274
     3
278
    44
283
     0
284
     8
340
11
  0
ENDTAB
  0
TABLE
  2
BLOCK_RECORD
  5
1
330
0
100
AcDbSymbolTable
 70
     1
  0
BLOCK_RECORD
  5
1F
330
1
100
AcDbSymbolTableRecord
100
AcDbBlockTableRecord
  2
*Model_Space
340
22
  0
BLOCK_RECORD
  5
1B
330
1
100
AcDbSymbolTableRecord
100
AcDbBlockTableRecord
  2
*Paper_Space
340
1E
  0
BLOCK_RECORD
  5
23
330
1
100
AcDbSymbolTableRecord
100
AcDbBlockTableRecord
  2
*Paper_Space0
340
26
  0
ENDTAB
  0
ENDSEC
  0
SECTION
  2
BLOCKS
  0
BLOCK
  5
20
330
1F
100
AcDbEntity
  8
0
100
AcDbBlockBegin
  2
*Model_Space
 70
     0
 10
0.0
 20
0.0
 30
0.0
  3
*Model_Space
  1

  0
ENDBLK
  5
21
330
1F
100
AcDbEntity
  8
0
100
AcDbBlockEnd
  0
BLOCK
  5
1C
330
1B
100
AcDbEntity
 67
     1
  8
0
100
AcDbBlockBegin
  2
*Paper_Space
 70
     0
 10
0.0
 20
0.0
 30
0.0
  3
*Paper_Space
  1

  0
ENDBLK
  5
1D
330
1B
100
AcDbEntity
 67
     1
  8
0
100
AcDbBlockEnd
  0
BLOCK
  5
24
330
23
100
AcDbEntity
  8
0
100
AcDbBlockBegin
  2
*Paper_Space0
 70
     0
 10
0.0
 20
0.0
 30
0.0
  3
*Paper_Space0
  1

  0
ENDBLK
  5
25
330
23
100
AcDbEntity
  8
0
100
AcDbBlockEnd
  0
ENDSEC
  0
SECTION
  2
ENTITIES
  0
LWPOLYLINE
  5
73
330
1F
100
AcDbEntity
  8
0
  6
Continuous
 62
     7
100
AcDbPolyline
 90
       62
 70
   128
 43
0.0
 10
143.8997509075
 20
164.7045542636
 10
145.035464534
 20
164.7045542636
 10
145.035464534
 20
164.7045542636
 10
145.2022071555
 20
164.7022221989
 10
145.3584554861
 20
164.6940599727
 10
145.5053755583
 20
164.6812336172
 10
145.6418013395
 20
164.6625771001
 10
145.7688988622
 20
164.6392564537
 10
145.885502094
 20
164.6112716781
 10
145.9927770673
 20
164.5774567409
 10
146.0895577498
 20
164.537811642
 10
146.2644625975
 20
164.4433630242
 10
146.4195448959
 20
164.3279258247
 10
146.5548046448
 20
164.1880019465
 10
146.6714078766
 20
164.0270894866
 10
146.7646904621
 20
163.8498525742
 10
146.8311543043
 20
163.6644534356
 10
146.8719654354
 20
163.4673939738
 10
146.8847917909
 20
163.2621722857
 10
146.8847917909
 20
163.2621722857
 10
146.8742975
 20
163.0697769532
 10
146.8416485951
 20
162.8867098792
 10
146.7880111085
 20
162.7118050315
 10
146.7133850401
 20
162.5462284423
 10
146.61777039
 20
162.3934782085
 10
146.5034992228
 20
162.2547203627
 10
146.3670734415
 20
162.1322869692
 10
146.2119911432
 20
162.0238459636
 10
146.2119911432
 20
162.0238459636
 10
146.409050605
 20
161.944555766
 10
146.5827894204
 20
161.8582693744
 10
146.7308755249
 20
161.7649867889
 10
146.8556409829
 20
161.6647080096
 10
146.9629159562
 20
161.556267004
 10
147.0561985417
 20
161.4384977398
 10
147.137820804
 20
161.3079021201
 10
147.2066167108
 20
161.1679782419
 10
147.2614202297
 20
161.0187261052
 10
147.3010653286
 20
160.8648098392
 10
147.3243859749
 20
160.7027313469
 10
147.3325482012
 20
160.5359887254
 10
147.3325482012
 20
160.5359887254
 10
147.3243859749
 20
160.3657480069
 10
147.3010653286
 20
160.2025034823
 10
147.2614202297
 20
160.0462551517
 10
147.2066167108
 20
159.8970030149
 10
147.1354887393
 20
159.7535810397
 10
147.0480363155
 20
159.6159892262
 10
146.9454254715
 20
159.4865596388
 10
146.8276562073
 20
159.3629602131
 10
146.6958945553
 20
159.2510211105
 10
146.5536386125
 20
159.1530743958
 10
146.4008883788
 20
159.0714521335
 10
146.2376438542
 20
159.003822259
 10
146.0627390064
 20
158.9513508047
 10
145.8773398678
 20
158.9140377705
 10
145.6814464383
 20
158.8907171241
 10
145.4738926857
 20
158.8837209302
 10
145.4738926857
 20
158.8837209302
 10
143.8997490559
 20
158.8837209302
 10
143.8997490559
 20
158.8837209302
 10
143.8997490559
 20
164.7045542636
  0
LWPOLYLINE
  5
74
330
1F
100
AcDbEntity
  8
0
  6
Continuous
 62
     7
100
AcDbPolyline
 90
       40
 70
   128
 43
0.0
 10
144.4221316023
 20
164.1075457166
 10
144.4221315345
 20
162.2418940072
 10
144.4221315345
 20
162.2418940072
 10
144.7731072623
 20
162.2418940072
 10
144.7731072623
 20
162.2418940072
 10
144.9270235283
 20
162.2442260718
 10
145.0704455035
 20
162.2488902011
 10
145.2033731878
 20
162.2582184596
 10
145.3269726135
 20
162.2698787828
 10
145.4377456838
 20
162.2862032353
 10
145.5391904955
 20
162.3060257847
 10
145.6301410163
 20
162.3281803987
 10
145.7105972463
 20
162.354999142
 10
145.8528531891
 20
162.4191309195
 10
145.9799507118
 20
162.5007531818
 10
146.0907237821
 20
162.5975338643
 10
146.1863384322
 20
162.7106389991
 10
146.2632965652
 20
162.8354044572
 10
146.3181000842
 20
162.9683321415
 10
146.3519150214
 20
163.1059239551
 10
146.3624093123
 20
163.2516779949
 10
146.3624093123
 20
163.2516779949
 10
146.357745183
 20
163.3484586773
 10
146.3437527952
 20
163.4405752304
 10
146.3204321488
 20
163.526861622
 10
146.2889492762
 20
163.6084838843
 10
146.2469721127
 20
163.684275985
 10
146.1968327231
 20
163.7542379241
 10
146.1361990425
 20
163.8195357339
 10
146.0674031357
 20
163.8790033822
 10
145.9881129381
 20
163.9326408688
 10
145.8983284496
 20
163.9792821615
 10
145.7980496702
 20
164.017761228
 10
145.6861105676
 20
164.050410133
 10
145.5636771742
 20
164.0748968116
 10
145.4307494899
 20
164.0935533287
 10
145.2861614824
 20
164.1040476196
 10
145.1310791841
 20
164.1075457166
 10
145.1310791841
 20
164.1075457166
 10
144.4221315345
 20
164.1075457166
  0
LWPOLYLINE
  5
75
330
1F
100
AcDbEntity
  8
0
  6
Continuous
 62
     7
100
AcDbPolyline
 90
       45
 70
   128
 43
0.0
 10
144.4221316023
 20
161.6448854601
 10
144.4221315345
 20
159.4807294772
 10
144.4221315345
 20
159.4807294772
 10
145.1660601536
 20
159.4807294772
 10
145.1660601536
 20
159.4807294772
 10
145.3258065812
 20
159.4830615419
 10
145.4738926857
 20
159.4877256712
 10
145.6103184669
 20
159.4970539297
 10
145.7374159896
 20
159.5110463175
 10
145.8516871568
 20
159.52737077
 10
145.9566300655
 20
159.5483593517
 10
146.0499126509
 20
159.5728460304
 10
146.1315349132
 20
159.600830806
 10
146.277288953
 20
159.6696267128
 10
146.4078845727
 20
159.7559131044
 10
146.5233217722
 20
159.8585239484
 10
146.6236005516
 20
159.9786252772
 10
146.7052228139
 20
160.1103869292
 10
146.7635244298
 20
160.2468127104
 10
146.7985053993
 20
160.3890686533
 10
146.8101657225
 20
160.5359887254
 10
146.8101657225
 20
160.5359887254
 10
146.8066676256
 20
160.6281052785
 10
146.7938412701
 20
160.717889767
 10
146.7740187207
 20
160.8041761586
 10
146.7471999773
 20
160.8881304855
 10
146.7110529755
 20
160.9674206832
 10
146.6667437474
 20
161.0455448485
 10
146.6154383254
 20
161.1201709169
 10
146.5559706771
 20
161.1912988883
 10
146.4172128312
 20
161.3207284756
 10
146.2539683067
 20
161.4280034489
 10
146.0674031357
 20
161.5131238082
 10
145.8575173184
 20
161.5760895534
 10
145.8575173184
 20
161.5760895534
 10
145.7723969592
 20
161.5924140058
 10
145.6721181798
 20
161.6064063936
 10
145.5578470126
 20
161.6180667168
 10
145.4295834576
 20
161.6273949754
 10
145.2861614824
 20
161.6355572016
 10
145.1275810871
 20
161.6402213309
 10
144.955008304
 20
161.6437194278
 10
144.768443133
 20
161.6448854601
 10
144.768443133
 20
161.6448854601
 10
144.4221315345
 20
161.6448854601
  0
LWPOLYLINE
  5
76
330
1F
100
AcDbEntity
  8
0
  6
Continuous
 62
     7
100
AcDbPolyline
 90
      184
 70
   128
 43
0.0
 10
148.7504430233
 20
163.3612850328
 10
148.2280610217
 20
163.3612850328
 10
148.2280610217
 20
163.3612850328
 10
148.2735362821
 20
163.5361898806
 10
148.3295058334
 20
163.6994344051
 10
148.3936376109
 20
163.8533506712
 10
148.4682636793
 20
163.9967726463
 10
148.5510519739
 20
164.1297003306
 10
148.6443345593
 20
164.252133724
 10
148.7469454033
 20
164.3652388589
 10
148.8588845059
 20
164.4666836706
 10
148.9778198024
 20
164.5576341915
 10
149.1025852604
 20
164.6357583568
 10
149.2320148478
 20
164.7022221989
 10
149.3672745967
 20
164.7570257179
 10
149.5083645072
 20
164.7990028814
 10
149.654118547
 20
164.8293197216
 10
149.8045367161
 20
164.8479762387
 10
149.9607850468
 20
164.8538064003
 10
149.9607850468
 20
164.8538064003
 10
150.1881613489
 20
164.8409800448
 10
150.4073754247
 20
164.801334946
 10
150.6184272743
 20
164.7360371362
 10
150.8224829301
 20
164.6450866153
 10
151.0113801656
 20
164.5319814804
 10
151.1769567548
 20
164.4002198285
 10
151.32037873
 20
164.2498016594
 10
151.4416460911
 20
164.0818930056
 10
151.5372607412
 20
163.9023240285
 10
151.606056648
 20
163.7192569545
 10
151.6468677791
 20
163.5326917836
 10
151.660860167
 20
163.3414624834
 10
151.660860167
 20
163.3414624834
 10
151.6503658761
 20
163.1572293771
 10
151.6188830035
 20
162.9834905616
 10
151.5652455169
 20
162.8190800048
 10
151.4906194485
 20
162.6639977064
 10
151.3950047984
 20
162.5194096989
 10
151.2784015665
 20
162.38414995
 10
151.140809753
 20
162.2593844919
 10
150.9810633254
 20
162.1439472924
 10
150.9810633254
 20
162.1439472924
 10
151.1641303993
 20
162.0494986746
 10
151.3308730209
 20
161.9352275074
 10
151.4801251576
 20
161.8011337908
 10
151.6118868096
 20
161.6472175248
 10
151.6118868096
 20
161.6472175248
 10
151.6935090719
 20
161.5306142929
 10
151.763471011
 20
161.4093469318
 10
151.8241046915
 20
161.2857475061
 10
151.8730780489
 20
161.1574839511
 10
151.9103910831
 20
161.0268883314
 10
151.9372098264
 20
160.8927946148
 10
151.9535342789
 20
160.7540367689
 10
151.9593644405
 20
160.6129468584
 10
151.9593644405
 20
160.6129468584
 10
151.943039988
 20
160.3692461038
 10
151.8929005983
 20
160.1313755109
 10
151.8101123037
 20
159.8981690472
 10
151.6935090719
 20
159.6719587775
 10
151.5489210644
 20
159.4609069278
 10
151.3810124106
 20
159.2755077892
 10
151.1874510457
 20
159.1145953293
 10
150.9705690345
 20
158.9793355803
 10
150.7350305062
 20
158.872060607
 10
150.48549959
 20
158.7962685064
 10
150.2219762861
 20
158.7496272136
 10
149.9456266266
 20
158.7344687935
 10
149.9456266266
 20
158.7344687935
 10
149.7590614557
 20
158.7414649874
 10
149.5794924787
 20
158.7612875368
 10
149.4080857279
 20
158.7962685064
 10
149.2448412033
 20
158.8440758314
 10
149.0897589049
 20
158.904709512
 10
148.9428388328
 20
158.9793355803
 10
148.8029149546
 20
159.0679540365
 10
148.6711533026
 20
159.1705648806
 10
148.5487199092
 20
159.2860020801
 10
148.437946839
 20
159.4142656351
 10
148.3376680596
 20
159.5553555456
 10
148.2490496034
 20
159.7092718116
 10
148.1709254381
 20
159.8748484009
 10
148.1044615959
 20
160.0544173779
 10
148.0484920446
 20
160.2456466781
 10
148.0041828165
 20
160.4508683661
 10
148.0041828165
 20
160.4508683661
 10
148.5265652952
 20
160.4508683661
 10
148.5265652952
 20
160.4508683661
 10
148.5685424586
 20
160.3167746495
 10
148.614017719
 20
160.1920091915
 10
148.6653231411
 20
160.0765719919
 10
148.72012666
 20
159.9716290833
 10
148.7784282759
 20
159.8760144332
 10
148.8425600534
 20
159.7897280416
 10
148.9101899279
 20
159.7127699086
 10
148.9824839317
 20
159.6463060665
 10
148.9824839317
 20
159.6463060665
 10
149.0815966787
 20
159.5728460304
 10
149.1865395874
 20
159.5087142529
 10
149.2984786899
 20
159.4539107339
 10
149.4162479541
 20
159.4107675381
 10
149.5410134122
 20
159.3757865686
 10
149.6727750641
 20
159.3512998899
 10
149.8103668777
 20
159.3361414698
 10
149.9549548852
 20
159.3314773405
 10
149.9549548852
 20
159.3314773405
 10
150.1181994098
 20
159.3373075021
 10
150.2732817081
 20
159.3547979869
 10
150.4202017802
 20
159.3827827625
 10
150.5589596261
 20
159.4235938936
 10
150.6883892134
 20
159.4748993156
 10
150.8108226069
 20
159.5390310932
 10
150.9239277418
 20
159.6136571615
 10
151.0300366827
 20
159.6999435531
 10
151.1256513328
 20
159.7943921709
 10
151.2084396274
 20
159.8923388856
 10
151.2784015665
 20
159.9937836973
 10
151.3355371501
 20
160.0998926383
 10
151.3798463782
 20
160.2094996762
 10
151.4113292508
 20
160.3237708434
 10
151.4311518002
 20
160.4415401076
 10
151.4369819618
 20
160.5628074687
 10
151.4369819618
 20
160.5628074687
 10
151.4241556063
 20
160.7248859609
 10
151.3868425721
 20
160.8823003239
 10
151.323876827
 20
161.0338845253
 10
151.2352583708
 20
161.1796385651
 10
151.1256513328
 20
161.314898314
 10
150.9997198424
 20
161.4326675782
 10
150.855131835
 20
161.5317803253
 10
150.694219375
 20
161.6134025876
 10
150.6044348865
 20
161.6483835571
 10
150.5018240425
 20
161.6798664297
 10
150.3887189076
 20
161.706685173
 10
150.2627874172
 20
161.7311718517
 10
150.126361636
 20
161.7521604334
 10
149.9782755315
 20
161.7696509182
 10
149.8173630716
 20
161.783643306
 10
149.6459563208
 20
161.7941375969
 10
149.6459563208
 20
161.7941375969
 10
149.6459563208
 20
162.3911461439
 10
149.6459563208
 20
162.3911461439
 10
149.8616722997
 20
162.3993083701
 10
150.0668939877
 20
162.4261271135
 10
150.2627874172
 20
162.4681042769
 10
150.4481865559
 20
162.5287379575
 10
150.617261242
 20
162.6021979935
 10
150.7606832172
 20
162.6849862881
 10
150.8796185137
 20
162.7771028413
 10
150.9740671314
 20
162.878547653
 10
151.0463611352
 20
162.9881546909
 10
151.0976665572
 20
163.1012598258
 10
151.1279833975
 20
163.2201951223
 10
151.1384776883
 20
163.343794548
 10
151.1384776883
 20
163.343794548
 10
151.1338135591
 20
163.4347450689
 10
151.1174891066
 20
163.5233635251
 10
151.0918363956
 20
163.607317852
 10
151.0556893937
 20
163.6901061466
 10
151.009048101
 20
163.7682303119
 10
150.9519125174
 20
163.8440224126
 10
150.8842826429
 20
163.9163164163
 10
150.8061584776
 20
163.9851123231
 10
150.7210381184
 20
164.0492441006
 10
150.6300875975
 20
164.1040476196
 10
150.5333069151
 20
164.1506889123
 10
150.4306960711
 20
164.1891679788
 10
150.3234210978
 20
164.2183187868
 10
150.2103159629
 20
164.2393073685
 10
150.0913806664
 20
164.252133724
 10
149.9677812407
 20
164.2567978533
 10
149.9677812407
 20
164.2567978533
 10
149.7695557466
 20
164.2439714978
 10
149.5841566079
 20
164.2054924313
 10
149.4139158895
 20
164.1425266861
 10
149.2565015265
 20
164.0527421976
 10
149.1830414904
 20
163.9967726463
 10
149.1130795513
 20
163.9326408688
 10
149.0454496768
 20
163.8603468651
 10
148.9813178993
 20
163.7775585705
 10
148.9183521541
 20
163.6866080496
 10
148.8600505382
 20
163.5874953026
 10
148.8040809869
 20
163.479054297
 10
148.7504435003
 20
163.3612850328
  0
LINE
  5
77
330
1F
100
AcDbEntity
  8
0
  6
Continuous
 62
     7
370
    25
100
AcDbLine
 10
134.6534883721
 20
130.3837209302
 30
0.0
 11
159.6534883721
 21
130.3837209302
 31
0.0
  0
LINE
  5
78
330
1F
100
AcDbEntity
  8
0
  6
Continuous
 62
     7
370
    25
100
AcDbLine
 10
159.6534883721
 20
130.3837209302
 30
0.0
 11
159.6534883721
 21
155.3837209302
 31
0.0
  0
LINE
  5
79
330
1F
100
AcDbEntity
  8
0
  6
Continuous
 62
     7
370
    25
100
AcDbLine
 10
159.6534883721
 20
155.3837209302
 30
0.0
 11
134.6534883721
 21
155.3837209302
 31
0.0
  0
LINE
  5
7A
330
1F
100
AcDbEntity
  8
0
  6
Continuous
 62
     7
370
    25
100
AcDbLine
 10
134.6534883721
 20
155.3837209302
 30
0.0
 11
134.6534883721
 21
130.3837209302
 31
0.0
  0
CIRCLE
  5
7B
330
1F
100
AcDbEntity
  8
0
  6
Continuous
 62
     7
370
    25
100
AcDbCircle
 10
127.1534883721
 20
162.8837209302
 30
0.0
 40
3.500000000000028
  0
CIRCLE
  5
7C
330
1F
100
AcDbEntity
  8
0
  6
Continuous
 62
     7
370
    25
100
AcDbCircle
 10
127.1534883721
 20
122.8837209302
 30
0.0
 40
3.5
  0
CIRCLE
  5
7D
330
1F
100
AcDbEntity
  8
0
  6
Continuous
 62
     7
370
    25
100
AcDbCircle
 10
167.1534883721
 20
122.8837209302
 30
0.0
 40
3.499999999999986
  0
CIRCLE
  5
7E
330
1F
100
AcDbEntity
  8
0
  6
Continuous
 62
     7
370
    25
100
AcDbCircle
 10
167.1534883721
 20
162.8837209302
 30
0.0
 40
3.5
  0
LINE
  5
7F
330
1F
100
AcDbEntity
  8
0
  6
Continuous
 62
     7
370
    25
100
AcDbLine
 10
104.3857985182
 20
31.7940062643
 30
0.0
 11
107.1574371157
 21
30.6459559672
 31
0.0
  0
LINE
  5
80
330
1F
100
AcDbEntity
  8
0
  6
Continuous
 62
     7
370
    25
100
AcDbLine
 10
107.1574371157
 20
30.6459559672
 30
0.0
 11
120.9340406809
 21
63.9056191376
 31
0.0
  0
LINE
  5
81
330
1F
100
AcDbEntity
  8
0
  6
Continuous
 62
     7
370
    25
100
AcDbLine
 10
120.9340406809
 20
63.9056191376
 30
0.0
 11
118.1624020833
 21
65.0536694347
 31
0.0
  0
LINE
  5
82
330
1F
100
AcDbEntity
  8
0
  6
Continuous
 62
     7
370
    25
100
AcDbLine
 10
118.1624020833
 20
65.0536694347
 30
0.0
 11
104.3857985182
 21
31.7940062643
 31
0.0
  0
LINE
  5
83
330
1F
100
AcDbEntity
  8
0
  6
Continuous
 62
     7
370
    25
100
AcDbLine
 10
184.4594904535
 20
217.2696215345
 30
0.0
 11
198.2360940186
 21
250.5292847049
 31
0.0
  0
LINE
  5
84
330
1F
100
AcDbEntity
  8
0
  6
Continuous
 62
     7
370
    25
100
AcDbLine
 10
198.2360940186
 20
250.5292847049
 30
0.0
 11
195.4644554211
 21
251.677335002
 31
0.0
  0
LINE
  5
85
330
1F
100
AcDbEntity
  8
0
  6
Continuous
 62
     7
370
    25
100
AcDbLine
 10
195.4644554211
 20
251.677335002
 30
0.0
 11
181.6878518559
 21
218.4176718316
 31
0.0
  0
LINE
  5
86
330
1F
100
AcDbEntity
  8
0
  6
Continuous
 62
     7
370
    25
100
AcDbLine
 10
181.6878518559
 20
218.4176718316
 30
0.0
 11
184.4594904535
 21
217.2696215345
 31
0.0
  0
LINE
  5
87
330
1F
100
AcDbEntity
  8
0
  6
Continuous
 62
     7
370
    25
100
AcDbLine
 10
201.0893220387
 20
210.3813197519
 30
0.0
 11
214.8659256038
 21
243.6409829223
 31
0.0
  0
LINE
  5
88
330
1F
100
AcDbEntity
  8
0
  6
Continuous
 62
     7
370
    25
100
AcDbLine
 10
214.8659256038
 20
243.6409829223
 30
0.0
 11
212.0942870063
 21
244.7890332194
 31
0.0
  0
LINE
  5
89
330
1F
100
AcDbEntity
  8
0
  6
Continuous
 62
     7
370
    25
100
AcDbLine
 10
212.0942870063
 20
244.7890332194
 30
0.0
 11
198.3176834411
 21
211.529370049
 31
0.0
  0
LINE
  5
8A
330
1F
100
AcDbEntity
  8
0
  6
Continuous
 62
     7
370
    25
100
AcDbLine
 10
198.3176834411
 20
211.529370049
 30
0.0
 11
201.0893220387
 21
210.3813197519
 31
0.0
  0
LINE
  5
8B
330
1F
100
AcDbEntity
  8
0
  6
Continuous
 62
     7
370
    25
100
AcDbLine
 10
121.0156301034
 20
24.9057044817
 30
0.0
 11
123.7872687009
 21
23.7576541846
 31
0.0
  0
LINE
  5
8C
330
1F
100
AcDbEntity
  8
0
  6
Continuous
 62
     7
370
    25
100
AcDbLine
 10
123.7872687009
 20
23.7576541846
 30
0.0
 11
137.5638722661
 21
57.017317355
 31
0.0
  0
LINE
  5
8D
330
1F
100
AcDbEntity
  8
0
  6
Continuous
 62
     7
370
    25
100
AcDbLine
 10
137.5638722661
 20
57.017317355
 30
0.0
 11
134.7922336685
 21
58.1653676521
 31
0.0
  0
LINE
  5
8E
330
1F
100
AcDbEntity
  8
0
  6
Continuous
 62
     7
370
    25
100
AcDbLine
 10
134.7922336685
 20
58.1653676521
 30
0.0
 11
121.0156301034
 21
24.9057044817
 31
0.0
  0
LINE
  5
8F
330
1F
100
AcDbEntity
  8
0
  6
Continuous
 62
     7
370
    25
100
AcDbLine
 10
85.4009604626
 20
51.2299532562
 30
0.0
 11
94.5982148633
 21
47.4203257468
 31
0.0
  0
LINE
  5
90
330
1F
100
AcDbEntity
  8
0
  6
Continuous
 62
     7
370
    25
100
AcDbLine
 10
78.0374706669
 20
33.4529163249
 30
0.0
 11
85.4009604626
 21
51.2299532562
 31
0.0
  0
ARC
  5
91
330
1F
100
AcDbEntity
  8
0
  6
Continuous
 62
     7
370
    25
100
AcDbCircle
 10
147.1534883721
 20
142.8837209302
 30
0.0
 40
129.43
100
AcDbArc
 50
225.6640314707
 51
237.7236725052
  0
LINE
  5
92
330
1F
100
AcDbEntity
  8
0
  6
Continuous
 62
     7
370
    25
100
AcDbLine
 10
56.6994642031
 20
50.3083764176
 30
0.0
 11
63.7705320149
 21
57.3794442295
 31
0.0
  0
LINE
  5
93
330
1F
100
AcDbEntity
  8
0
  6
Continuous
 62
     7
370
    25
100
AcDbLine
 10
63.7705320149
 20
57.3794442295
 30
0.0
 11
61.6492116714
 21
59.5007645731
 31
0.0
  0
LINE
  5
94
330
1F
100
AcDbEntity
  8
0
  6
Continuous
 62
     7
370
    25
100
AcDbLine
 10
61.6492116714
 20
59.5007645731
 30
0.0
 11
54.5781438595
 21
52.4296967612
 31
0.0
  0
ARC
  5
95
330
1F
100
AcDbEntity
  8
0
  6
Continuous
 62
     7
370
    25
100
AcDbCircle
 10
147.1534883721
 20
142.8837209302
 30
0.0
 40
129.4300000000001
100
AcDbArc
 50
180.6640314707
 51
224.3359685293
  0
LINE
  5
96
330
1F
100
AcDbEntity
  8
0
  6
Continuous
 62
     7
370
    25
100
AcDbLine
 10
17.732180621
 20
141.3837209302
 30
0.0
 11
27.732180621
 21
141.3837209302
 31
0.0
  0
LINE
  5
97
330
1F
100
AcDbEntity
  8
0
  6
Continuous
 62
     7
370
    25
100
AcDbLine
 10
27.732180621
 20
141.3837209302
 30
0.0
 11
27.732180621
 21
144.3837209302
 31
0.0
  0
LINE
  5
98
330
1F
100
AcDbEntity
  8
0
  6
Continuous
 62
     7
370
    25
100
AcDbLine
 10
27.732180621
 20
144.3837209302
 30
0.0
 11
17.732180621
 21
144.3837209302
 31
0.0
  0
ARC
  5
99
330
1F
100
AcDbEntity
  8
0
  6
Continuous
 62
     7
370
    25
100
AcDbCircle
 10
147.1534883721
 20
142.8837209302
 30
0.0
 40
129.4300000000001
100
AcDbArc
 50
135.6640314707
 51
179.3359685293
  0
LINE
  5
9A
330
1F
100
AcDbEntity
  8
0
  6
Continuous
 62
     7
370
    25
100
AcDbLine
 10
54.5781438595
 20
233.3377450993
 30
0.0
 11
61.6492116714
 21
226.2666772874
 31
0.0
  0
LINE
  5
9B
330
1F
100
AcDbEntity
  8
0
  6
Continuous
 62
     7
370
    25
100
AcDbLine
 10
61.6492116714
 20
226.2666772874
 30
0.0
 11
63.7705320149
 21
228.387997631
 31
0.0
  0
LINE
  5
9C
330
1F
100
AcDbEntity
  8
0
  6
Continuous
 62
     7
370
    25
100
AcDbLine
 10
63.7705320149
 20
228.387997631
 30
0.0
 11
56.6994642031
 21
235.4590654428
 31
0.0
  0
ARC
  5
9D
330
1F
100
AcDbEntity
  8
0
  6
Continuous
 62
     7
370
    25
100
AcDbCircle
 10
147.1534883721
 20
142.8837209302
 30
0.0
 40
129.4300000000001
100
AcDbArc
 50
90.6640314707
 51
134.3359685293
  0
LINE
  5
9E
330
1F
100
AcDbEntity
  8
0
  6
Continuous
 62
     7
370
    25
100
AcDbLine
 10
145.6534883721
 20
272.3050286813
 30
0.0
 11
145.6534883721
 21
262.3050286813
 31
0.0
  0
LINE
  5
9F
330
1F
100
AcDbEntity
  8
0
  6
Continuous
 62
     7
370
    25
100
AcDbLine
 10
145.6534883721
 20
262.3050286813
 30
0.0
 11
148.6534883721
 21
262.3050286813
 31
0.0
  0
LINE
  5
A0
330
1F
100
AcDbEntity
  8
0
  6
Continuous
 62
     7
370
    25
100
AcDbLine
 10
148.6534883721
 20
262.3050286813
 30
0.0
 11
148.6534883721
 21
272.3050286813
 31
0.0
  0
LINE
  5
A1
330
1F
100
AcDbEntity
  8
0
  6
Continuous
 62
     7
370
    25
100
AcDbLine
 10
168.2813024351
 20
251.3647960471
 30
0.0
 11
175.6436815947
 21
269.1391516655
 31
0.0
  0
LINE
  5
A2
330
1F
100
AcDbEntity
  8
0
  6
Continuous
 62
     7
370
    25
100
AcDbLine
 10
177.5096675166
 20
247.5422820717
 30
0.0
 11
168.2813024351
 21
251.3647960471
 31
0.0
  0
LINE
  5
A3
330
1F
100
AcDbEntity
  8
0
  6
Continuous
 62
     7
370
    25
100
AcDbLine
 10
185.3788937147
 20
266.5402746845
 30
0.0
 11
177.5096675166
 21
247.5422820717
 31
0.0
  0
LINE
  5
A4
330
1F
100
AcDbEntity
  8
0
  6
Continuous
 62
     7
370
    25
100
AcDbLine
 10
237.6075125411
 20
235.4590654428
 30
0.0
 11
230.5364447293
 21
228.387997631
 31
0.0
  0
LINE
  5
A5
330
1F
100
AcDbEntity
  8
0
  6
Continuous
 62
     7
370
    25
100
AcDbLine
 10
230.5364447293
 20
228.387997631
 30
0.0
 11
232.6577650728
 21
226.2666772874
 31
0.0
  0
LINE
  5
A6
330
1F
100
AcDbEntity
  8
0
  6
Continuous
 62
     7
370
    25
100
AcDbLine
 10
232.6577650728
 20
226.2666772874
 30
0.0
 11
239.7288328847
 21
233.3377450993
 31
0.0
  0
LINE
  5
A7
330
1F
100
AcDbEntity
  8
0
  6
Continuous
 62
     7
370
    25
100
AcDbLine
 10
276.5747961232
 20
144.3837209302
 30
0.0
 11
266.5747961232
 21
144.3837209302
 31
0.0
  0
LINE
  5
A8
330
1F
100
AcDbEntity
  8
0
  6
Continuous
 62
     7
370
    25
100
AcDbLine
 10
266.5747961232
 20
144.3837209302
 30
0.0
 11
266.5747961232
 21
141.3837209302
 31
0.0
  0
LINE
  5
A9
330
1F
100
AcDbEntity
  8
0
  6
Continuous
 62
     7
370
    25
100
AcDbLine
 10
266.5747961232
 20
141.3837209302
 30
0.0
 11
276.5747961232
 21
141.3837209302
 31
0.0
  0
ARC
  5
AA
330
1F
100
AcDbEntity
  8
0
  6
Continuous
 62
     7
370
    25
100
AcDbCircle
 10
147.1534883721
 20
142.8837209302
 30
0.0
 40
129.4300000000001
100
AcDbArc
 50
315.6640314707
 51
359.3359685293
  0
LINE
  5
AB
330
1F
100
AcDbEntity
  8
0
  6
Continuous
 62
     7
370
    25
100
AcDbLine
 10
239.7288328847
 20
52.4296967612
 30
0.0
 11
232.6577650728
 21
59.5007645731
 31
0.0
  0
LINE
  5
AC
330
1F
100
AcDbEntity
  8
0
  6
Continuous
 62
     7
370
    25
100
AcDbLine
 10
232.6577650728
 20
59.5007645731
 30
0.0
 11
230.5364447293
 21
57.3794442295
 31
0.0
  0
LINE
  5
AD
330
1F
100
AcDbEntity
  8
0
  6
Continuous
 62
     7
370
    25
100
AcDbLine
 10
230.5364447293
 20
57.3794442295
 30
0.0
 11
237.6075125411
 21
50.3083764176
 31
0.0
  0
ARC
  5
AE
330
1F
100
AcDbEntity
  8
0
  6
Continuous
 62
     7
370
    25
100
AcDbCircle
 10
147.1534883721
 20
142.8837209302
 30
0.0
 40
129.4300000000001
100
AcDbArc
 50
270.6640314707
 51
314.3359685293
  0
LINE
  5
AF
330
1F
100
AcDbEntity
  8
0
  6
Continuous
 62
     7
370
    25
100
AcDbLine
 10
148.6534883721
 20
13.4624131792
 30
0.0
 11
148.6534883721
 21
23.4624131792
 31
0.0
  0
LINE
  5
B0
330
1F
100
AcDbEntity
  8
0
  6
Continuous
 62
     7
370
    25
100
AcDbLine
 10
148.6534883721
 20
23.4624131792
 30
0.0
 11
145.6534883721
 21
23.4624131792
 31
0.0
  0
LINE
  5
B1
330
1F
100
AcDbEntity
  8
0
  6
Continuous
 62
     7
370
    25
100
AcDbLine
 10
145.6534883721
 20
23.4624131792
 30
0.0
 11
145.6534883721
 21
13.4624131792
 31
0.0
  0
LINE
  5
B2
330
1F
100
AcDbEntity
  8
0
  6
Continuous
 62
     7
370
    25
100
AcDbLine
 10
94.5982148633
 20
47.4203257468
 30
0.0
 11
86.7295893379
 21
28.4237832861
 31
0.0
  0
ARC
  5
B3
330
1F
100
AcDbEntity
  8
0
  6
Continuous
 62
     7
370
    25
100
AcDbCircle
 10
147.1534883721
 20
142.8837209302
 30
0.0
 40
129.43
100
AcDbArc
 50
45.6640314707
 51
72.8222825292
  0
ARC
  5
B4
330
1F
100
AcDbEntity
  8
0
  6
Continuous
 62
     7
370
    25
100
AcDbCircle
 10
147.1534883721
 20
142.8837209302
 30
0.0
 40
129.43
100
AcDbArc
 50
0.6640314707
 51
44.3359685293
  0
ARC
  5
B5
330
1F
100
AcDbEntity
  8
0
  6
Continuous
 62
     7
370
    25
100
AcDbCircle
 10
147.1534883721
 20
142.8837209302
 30
0.0
 40
129.4300000000001
100
AcDbArc
 50
77.2838907683
 51
89.3359685293
  0
ARC
  5
B6
330
1F
100
AcDbEntity
  8
0
  6
Continuous
 62
     7
370
    25
100
AcDbCircle
 10
147.1534883721
 20
142.8837209302
 30
0.0
 40
129.4300000000001
100
AcDbArc
 50
242.1702317966
 51
269.3359685293
  0
ENDSEC
  0
SECTION
  2
OBJECTS
  0
DICTIONARY
  5
C
330
0
100
AcDbDictionary
281
     1
  3
ACAD_GROUP
350
D
  3
ACAD_LAYOUT
350
1A
  3
ACAD_MLINESTYLE
350
17
  3
ACAD_PLOTSETTINGS
350
19
  3
ACAD_PLOTSTYLENAME
350
E
  3
ACAD_SCALELIST
350
47
  0
DICTIONARY
  5
D
102
{ACAD_REACTORS
330
C
102
}
330
C
100
AcDbDictionary
281
     1
  0
DICTIONARY
  5
1A
102
{ACAD_REACTORS
330
C
102
}
330
C
100
AcDbDictionary
281
     1
  3
Layout1
350
1E
  3
Layout2
350
26
  3
Model
350
22
  0
DICTIONARY
  5
17
102
{ACAD_REACTORS
330
C
102
}
330
C
100
AcDbDictionary
281
     1
  3
Standard
350
18
  0
DICTIONARY
  5
19
102
{ACAD_REACTORS
330
C
102
}
330
C
100
AcDbDictionary
281
     1
  0
ACDBDICTIONARYWDFLT
  5
E
102
{ACAD_REACTORS
330
C
102
}
330
C
100
AcDbDictionary
281
     1
  3
Normal
350
F
100
AcDbDictionaryWithDefault
340
F
  0
DICTIONARY
  5
47
102
{ACAD_REACTORS
330
C
102
}
330
C
100
AcDbDictionary
281
     1
  3
A0
350
48
  3
A1
350
49
  3
A2
350
4A
  3
A3
350
4B
  3
A4
350
4C
  3
A5
350
4D
  3
A6
350
4E
  3
A7
350
4F
  3
A8
350
50
  3
A9
350
51
  3
B0
350
52
  3
B1
350
53
  3
B2
350
54
  3
B3
350
55
  3
B4
350
56
  3
B5
350
57
  3
B6
350
58
  3
B7
350
59
  3
B8
350
5A
  3
B9
350
5B
  3
C0
350
5C
  3
C1
350
5D
  3
C2
350
5E
  3
C3
350
5F
  3
C4
350
60
  3
C5
350
61
  3
C6
350
62
  3
C7
350
63
  3
C8
350
64
  3
C9
350
65
  3
D0
350
66
  3
D1
350
67
  3
D2
350
68
  0
LAYOUT
  5
1E
102
{ACAD_REACTORS
330
1A
102
}
330
1A
100
AcDbPlotSettings
  1

  2
none_device
  4

  6

 40
0.0
 41
0.0
 42
0.0
 43
0.0
 44
0.0
 45
0.0
 46
0.0
 47
0.0
 48
0.0
 49
0.0
140
0.0
141
0.0
142
1.0
143
1.0
 70
   688
 72
     1
 73
     0
 74
     5
  7

 75
    16
147
1.0
148
0.0
149
0.0
100
AcDbLayout
  1
Layout1
 70
     1
 71
     1
 10
0.0
 20
0.0
 11
420.0
 21
297.0
 12
0.0
 22
0.0
 32
0.0
 14
1.0000000000E+20
 24
1.0000000000E+20
 34
1.0000000000E+20
 15
-1.0000000000E+20
 25
-1.0000000000E+20
 35
-1.0000000000E+20
146
0.0
 13
0.0
 23
0.0
 33
0.0
 16
1.0
 26
0.0
 36
0.0
 17
0.0
 27
1.0
 37
0.0
 76
     0
330
1B
  0
LAYOUT
  5
26
102
{ACAD_REACTORS
330
1A
102
}
330
1A
100
AcDbPlotSettings
  1

  2
none_device
  4

  6

 40
0.0
 41
0.0
 42
0.0
 43
0.0
 44
0.0
 45
0.0
 46
0.0
 47
0.0
 48
0.0
 49
0.0
140
0.0
141
0.0
142
1.0
143
1.0
 70
   688
 72
     1
 73
     0
 74
     5
  7

 75
    16
147
1.0
148
0.0
149
0.0
100
AcDbLayout
  1
Layout2
 70
     1
 71
     2
 10
0.0
 20
0.0
 11
0.0
 21
0.0
 12
0.0
 22
0.0
 32
0.0
 14
0.0
 24
0.0
 34
0.0
 15
0.0
 25
0.0
 35
0.0
146
0.0
 13
0.0
 23
0.0
 33
0.0
 16
1.0
 26
0.0
 36
0.0
 17
0.0
 27
1.0
 37
0.0
 76
     0
330
23
  0
LAYOUT
  5
22
102
{ACAD_REACTORS
330
1A
102
}
330
1A
100
AcDbPlotSettings
  1

  2
none_device
  4
Letter_(8.50_x_11.00_Inches)
  6

 40
6.35
 41
6.35
 42
6.35000508
 43
6.35000508
 44
215.9
 45
279.4
 46
0.0
 47
0.0
 48
0.0
 49
0.0
140
0.0
141
0.0
142
1.0
143
1.0
 70
  1712
 72
     1
 73
     0
 74
     0
  7

 75
     0
147
1.0
148
0.0
149
0.0
100
AcDbLayout
  1
Model
 70
     1
 71
     0
 10
0.0
 20
0.0
 11
300.0
 21
300.0
 12
0.0
 22
0.0
 32
0.0
 14
0.0
 24
0.0
 34
0.0
 15
300.0
 25
300.0
 35
0.0
146
0.0
 13
0.0
 23
0.0
 33
0.0
 16
1.0
 26
0.0
 36
0.0
 17
0.0
 27
1.0
 37
0.0
 76
     0
330
1F
331
29
  0
MLINESTYLE
  5
18
102
{ACAD_REACTORS
330
17
102
}
330
17
100
AcDbMlineStyle
  2
Standard
 70
     0
  3

 62
   256
 51
90.0
 52
90.0
 71
     2
 49
0.5
 62
   256
  6
BYLAYER
 49
-0.5
 62
   256
  6
BYLAYER
  0
ACDBPLACEHOLDER
  5
F
102
{ACAD_REACTORS
330
E
102
}
330
E
  0
SCALE
  5
48
102
{ACAD_REACTORS
330
47
102
}
330
47
100
AcDbScale
 70
     0
300
1:1
140
1.0
141
1.0
290
     1
  0
SCALE
  5
49
102
{ACAD_REACTORS
330
47
102
}
330
47
100
AcDbScale
 70
     0
300
1:2
140
1.0
141
2.0
290
     0
  0
SCALE
  5
4A
102
{ACAD_REACTORS
330
47
102
}
330
47
100
AcDbScale
 70
     0
300
1:4
140
1.0
141
4.0
290
     0
  0
SCALE
  5
4B
102
{ACAD_REACTORS
330
47
102
}
330
47
100
AcDbScale
 70
     0
300
1:5
140
1.0
141
5.0
290
     0
  0
SCALE
  5
4C
102
{ACAD_REACTORS
330
47
102
}
330
47
100
AcDbScale
 70
     0
300
1:8
140
1.0
141
8.0
290
     0
  0
SCALE
  5
4D
102
{ACAD_REACTORS
330
47
102
}
330
47
100
AcDbScale
 70
     0
300
1:10
140
1.0
141
10.0
290
     0
  0
SCALE
  5
4E
102
{ACAD_REACTORS
330
47
102
}
330
47
100
AcDbScale
 70
     0
300
1:16
140
1.0
141
16.0
290
     0
  0
SCALE
  5
4F
102
{ACAD_REACTORS
330
47
102
}
330
47
100
AcDbScale
 70
     0
300
1:20
140
1.0
141
20.0
290
     0
  0
SCALE
  5
50
102
{ACAD_REACTORS
330
47
102
}
330
47
100
AcDbScale
 70
     0
300
1:30
140
1.0
141
30.0
290
     0
  0
SCALE
  5
51
102
{ACAD_REACTORS
330
47
102
}
330
47
100
AcDbScale
 70
     0
300
1:40
140
1.0
141
40.0
290
     0
  0
SCALE
  5
52
102
{ACAD_REACTORS
330
47
102
}
330
47
100
AcDbScale
 70
     0
300
1:50
140
1.0
141
50.0
290
     0
  0
SCALE
  5
53
102
{ACAD_REACTORS
330
47
102
}
330
47
100
AcDbScale
 70
     0
300
1:100
140
1.0
141
100.0
290
     0
  0
SCALE
  5
54
102
{ACAD_REACTORS
330
47
102
}
330
47
100
AcDbScale
 70
     0
300
2:1
140
2.0
141
1.0
290
     0
  0
SCALE
  5
55
102
{ACAD_REACTORS
330
47
102
}
330
47
100
AcDbScale
 70
     0
300
4:1
140
4.0
141
1.0
290
     0
  0
SCALE
  5
56
102
{ACAD_REACTORS
330
47
102
}
330
47
100
AcDbScale
 70
     0
300
8:1
140
8.0
141
1.0
290
     0
  0
SCALE
  5
57
102
{ACAD_REACTORS
330
47
102
}
330
47
100
AcDbScale
 70
     0
300
10:1
140
10.0
141
1.0
290
     0
  0
SCALE
  5
58
102
{ACAD_REACTORS
330
47
102
}
330
47
100
AcDbScale
 70
     0
300
100:1
140
100.0
141
1.0
290
     0
  0
SCALE
  5
59
102
{ACAD_REACTORS
330
47
102
}
330
47
100
AcDbScale
 70
     0
300
1/128" = 1'-0"
140
0.0078125
141
12.0
290
     0
  0
SCALE
  5
5A
102
{ACAD_REACTORS
330
47
102
}
330
47
100
AcDbScale
 70
     0
300
1/64" = 1'-0"
140
0.015625
141
12.0
290
     0
  0
SCALE
  5
5B
102
{ACAD_REACTORS
330
47
102
}
330
47
100
AcDbScale
 70
     0
300
1/32" = 1'-0"
140
0.03125
141
12.0
290
     0
  0
SCALE
  5
5C
102
{ACAD_REACTORS
330
47
102
}
330
47
100
AcDbScale
 70
     0
300
1/16" = 1'-0"
140
0.0625
141
12.0
290
     0
  0
SCALE
  5
5D
102
{ACAD_REACTORS
330
47
102
}
330
47
100
AcDbScale
 70
     0
300
3/32" = 1'-0"
140
0.09375
141
12.0
290
     0
  0
SCALE
  5
5E
102
{ACAD_REACTORS
330
47
102
}
330
47
100
AcDbScale
 70
     0
300
1/8" = 1'-0"
140
0.125
141
12.0
290
     0
  0
SCALE
  5
5F
102
{ACAD_REACTORS
330
47
102
}
330
47
100
AcDbScale
 70
     0
300
3/16" = 1'-0"
140
0.1875
141
12.0
290
     0
  0
SCALE
  5
60
102
{ACAD_REACTORS
330
47
102
}
330
47
100
AcDbScale
 70
     0
300
1/4" = 1'-0"
140
0.25
141
12.0
290
     0
  0
SCALE
  5
61
102
{ACAD_REACTORS
330
47
102
}
330
47
100
AcDbScale
 70
     0
300
3/8" = 1'-0"
140
0.375
141
12.0
290
     0
  0
SCALE
  5
62
102
{ACAD_REACTORS
330
47
102
}
330
47
100
AcDbScale
 70
     0
300
1/2" = 1'-0"
140
0.5
141
12.0
290
     0
  0
SCALE
  5
63
102
{ACAD_REACTORS
330
47
102
}
330
47
100
AcDbScale
 70
     0
300
3/4" = 1'-0"
140
0.75
141
12.0
290
     0
  0
SCALE
  5
64
102
{ACAD_REACTORS
330
47
102
}
330
47
100
AcDbScale
 70
     0
300
1" = 1'-0"
140
1.0
141
12.0
290
     0
  0
SCALE
  5
65
102
{ACAD_REACTORS
330
47
102
}
330
47
100
AcDbScale
 70
     0
300
1-1/2" = 1'-0"
140
1.5
141
12.0
290
     0
  0
SCALE
  5
66
102
{ACAD_REACTORS
330
47
102
}
330
47
100
AcDbScale
 70
     0
300
3" = 1'-0"
140
3.0
141
12.0
290
     0
  0
SCALE
  5
67
102
{ACAD_REACTORS
330
47
102
}
330
47
100
AcDbScale
 70
     0
300
6" = 1'-0"
140
6.0
141
12.0
290
     0
  0
SCALE
  5
68
102
{ACAD_REACTORS
330
47
102
}
330
47
100
AcDbScale
 70
     0
300
1'-0" = 1'-0"
140
12.0
141
12.0
290
     0
  0
ENDSEC
  0
EOF
