  0
SECTION
  2
HEADER
  9
$ACADVER
  1
AC1015
  9
$ACADMAINTVER
 70
     6
  9
$DWGCODEPAGE
  3
ANSI_1252
  9
$INSBASE
 10
0.0
 20
0.0
 30
0.0
  9
$EXTMIN
 10
0.0
 20
0.0
 30
0.0
  9
$EXTMAX
 10
300.0
 20
300.0
 30
0.0
  9
$LIMMIN
 10
0.0
 20
0.0
  9
$LIMMAX
 10
300.0
 20
300.0
  9
$ORTHOMODE
 70
     0
  9
$REGENMODE
 70
     1
  9
$FILLMODE
 70
     1
  9
$QTEXTMODE
 70
     0
  9
$MIRRTEXT
 70
     1
  9
$LTSCALE
 40
1.0
  9
$ATTMODE
 70
     1
  9
$TEXTSIZE
 40
3.5
  9
$TRACEWID
 40
1.0
  9
$TEXTSTYLE
  7
Standard
  9
$CLAYER
  8
0
  9
$CELTYPE
  6
ByLayer
  9
$CECOLOR
 62
   256
  9
$CELTSCALE
 40
1.0
  9
$DISPSILH
 70
     0
  9
$DIMSCALE
 40
1.0
  9
$DIMASZ
 40
3.302
  9
$DIMEXO
 40
1.0
  9
$DIMDLI
 40
3.75
  9
$DIMRND
 40
0.0
  9
$DIMDLE
 40
0.0
  9
$DIMEXE
 40
1.0
  9
$DIMTP
 40
0.0
  9
$DIMTM
 40
0.0
  9
$DIMTXT
 40
3.5
  9
$DIMCEN
 40
2.5
  9
$DIMTSZ
 40
0.0
  9
$DIMTOL
 70
     0
  9
$DIMLIM
 70
     0
  9
$DIMTIH
 70
     1
  9
$DIMTOH
 70
     1
  9
$DIMSE1
 70
     0
  9
$DIMSE2
 70
     0
  9
$DIMTAD
 70
     1
  9
$DIMZIN
 70
     0
  9
$DIMBLK
  1

  9
$DIMASO
 70
     1
  9
$DIMSHO
 70
     1
  9
$DIMPOST
  1

  9
$DIMAPOST
  1

  9
$DIMALT
 70
     0
  9
$DIMALTD
 70
     3
  9
$DIMALTF
 40
0.0393700787
  9
$DIMLFAC
 40
5.0
  9
$DIMTOFL
 70
     1
  9
$DIMTVP
 40
0.0
  9
$DIMTIX
 70
     0
  9
$DIMSOXD
 70
     0
  9
$DIMSAH
 70
     0
  9
$DIMBLK1
  1

  9
$DIMBLK2
  1

  9
$DIMSTYLE
  2
ISO-25
  9
$DIMCLRD
 70
     0
  9
$DIMCLRE
 70
     0
  9
$DIMCLRT
 70
     0
  9
$DIMTFAC
 40
1.0
  9
$DIMGAP
 40
1.524
  9
$DIMJUST
 70
     0
  9
$DIMSD1
 70
     0
  9
$DIMSD2
 70
     0
  9
$DIMTOLJ
 70
     0
  9
$DIMTZIN
 70
     0
  9
$DIMALTZ
 70
     0
  9
$DIMALTTZ
 70
     0
  9
$DIMUPT
 70
     0
  9
$DIMDEC
 70
     2
  9
$DIMTDEC
 70
     2
  9
$DIMALTU
 70
     2
  9
$DIMALTTD
 70
     3
  9
$DIMTXSTY
  7
Standard
  9
$DIMAUNIT
 70
     0
  9
$DIMADEC
 70
     2
  9
$DIMALTRND
 40
0.0
  9
$DIMAZIN
 70
     0
  9
$DIMDSEP
 70
    44
  9
$DIMATFIT
 70
     3
  9
$DIMFRAC
 70
     0
  9
$DIMLDRBLK
  1

  9
$DIMLUNIT
 70
     2
  9
$DIMLWD
 70
    -2
  9
$DIMLWE
 70
    -2
  9
$DIMTMOVE
 70
     0
  9
$LUNITS
 70
     2
  9
$LUPREC
 70
     2
  9
$SKETCHINC
 40
1.0
  9
$FILLETRAD
 40
10.0
  9
$AUNITS
 70
     0
  9
$AUPREC
 70
     2
  9
$MENU
  1
.
  9
$ELEVATION
 40
0.0
  9
$PELEVATION
 40
0.0
  9
$THICKNESS
 40
0.0
  9
$LIMCHECK
 70
     0
  9
$CHAMFERA
 40
0.0
  9
$CHAMFERB
 40
0.0
  9
$CHAMFERC
 40
0.0
  9
$CHAMFERD
 40
0.0
  9
$SKPOLY
 70
     0
  9
$TDCREATE
 40
2457890.436419873
  9
$TDUCREATE
 40
2457890.35308654
  9
$TDUPDATE
 40
2457890.436420243
  9
$TDUUPDATE
 40
2457890.35308691
  9
$TDINDWG
 40
0.0000000116
  9
$TDUSRTIMER
 40
0.0000000116
  9
$USRTIMER
 70
     1
  9
$ANGBASE
 50
0.0
  9
$ANGDIR
 70
     0
  9
$PDMODE
 70
     0
  9
$PDSIZE
 40
-1.0
  9
$PLINEWID
 40
0.0
  9
$SPLFRAME
 70
     0
  9
$SPLINETYPE
 70
     6
  9
$SPLINESEGS
 70
     8
  9
$HANDSEED
  5
D8
  9
$SURFTAB1
 70
     6
  9
$SURFTAB2
 70
     6
  9
$SURFTYPE
 70
     6
  9
$SURFU
 70
     6
  9
$SURFV
 70
     6
  9
$UCSBASE
  2

  9
$UCSNAME
  2

  9
$UCSORG
 10
0.0
 20
0.0
 30
0.0
  9
$UCSXDIR
 10
1.0
 20
0.0
 30
0.0
  9
$UCSYDIR
 10
0.0
 20
1.0
 30
0.0
  9
$UCSORTHOREF
  2

  9
$UCSORTHOVIEW
 70
     0
  9
$UCSORGTOP
 10
0.0
 20
0.0
 30
0.0
  9
$UCSORGBOTTOM
 10
0.0
 20
0.0
 30
0.0
  9
$UCSORGLEFT
 10
0.0
 20
0.0
 30
0.0
  9
$UCSORGRIGHT
 10
0.0
 20
0.0
 30
0.0
  9
$UCSORGFRONT
 10
0.0
 20
0.0
 30
0.0
  9
$UCSORGBACK
 10
0.0
 20
0.0
 30
0.0
  9
$PUCSBASE
  2

  9
$PUCSNAME
  2

  9
$PUCSORG
 10
0.0
 20
0.0
 30
0.0
  9
$PUCSXDIR
 10
1.0
 20
0.0
 30
0.0
  9
$PUCSYDIR
 10
0.0
 20
1.0
 30
0.0
  9
$PUCSORTHOREF
  2

  9
$PUCSORTHOVIEW
 70
     0
  9
$PUCSORGTOP
 10
0.0
 20
0.0
 30
0.0
  9
$PUCSORGBOTTOM
 10
0.0
 20
0.0
 30
0.0
  9
$PUCSORGLEFT
 10
0.0
 20
0.0
 30
0.0
  9
$PUCSORGRIGHT
 10
0.0
 20
0.0
 30
0.0
  9
$PUCSORGFRONT
 10
0.0
 20
0.0
 30
0.0
  9
$PUCSORGBACK
 10
0.0
 20
0.0
 30
0.0
  9
$USERI1
 70
     0
  9
$USERI2
 70
     0
  9
$USERI3
 70
     0
  9
$USERI4
 70
     0
  9
$USERI5
 70
     0
  9
$USERR1
 40
0.0
  9
$USERR2
 40
0.0
  9
$USERR3
 40
0.0
  9
$USERR4
 40
0.0
  9
$USERR5
 40
0.0
  9
$WORLDVIEW
 70
     1
  9
$SHADEDGE
 70
     3
  9
$SHADEDIF
 70
    70
  9
$TILEMODE
 70
     1
  9
$MAXACTVP
 70
    64
  9
$PINSBASE
 10
0.0
 20
0.0
 30
0.0
  9
$PLIMCHECK
 70
     0
  9
$PEXTMIN
 10
1.0000000000E+20
 20
1.0000000000E+20
 30
1.0000000000E+20
  9
$PEXTMAX
 10
-1.0000000000E+20
 20
-1.0000000000E+20
 30
-1.0000000000E+20
  9
$PLIMMIN
 10
0.0
 20
0.0
  9
$PLIMMAX
 10
420.0
 20
297.0
  9
$UNITMODE
 70
     0
  9
$VISRETAIN
 70
     1
  9
$PLINEGEN
 70
     0
  9
$PSLTSCALE
 70
     1
  9
$TREEDEPTH
 70
  3020
  9
$CMLSTYLE
  2
Standard
  9
$CMLJUST
 70
     0
  9
$CMLSCALE
 40
20.0
  9
$PROXYGRAPHICS
 70
     1
  9
$MEASUREMENT
 70
     1
  9
$CELWEIGHT
370
    -1
  9
$ENDCAPS
280
     0
  9
$JOINSTYLE
280
     0
  9
$LWDISPLAY
290
     1
  9
$INSUNITS
 70
     4
  9
$HYPERLINKBASE
  1

  9
$STYLESHEET
  1

  9
$XEDIT
290
     1
  9
$CEPSNTYPE
380
     0
  9
$PSTYLEMODE
290
     1
  9
$FINGERPRINTGUID
  2
{D2B2D811-C9F3-4FED-ABC3-04E57A4E6F19}
  9
$VERSIONGUID
  2
{FAEB1C32-E019-11D5-929B-00C0DF256EC4}
  9
$EXTNAMES
290
     1
  9
$PSVPSCALE
 40
0.0
  9
$OLESTARTUP
290
     0
  0
ENDSEC
  0
SECTION
  2
CLASSES
  0
CLASS
  1
ACDBDICTIONARYWDFLT
  2
AcDbDictionaryWithDefault
  3
ObjectDBX Classes
 90
        0
280
     0
281
     0
  0
CLASS
  1
VISUALSTYLE
  2
AcDbVisualStyle
  3
ObjectDBX Classes
 90
     4095
280
     0
281
     0
  0
CLASS
  1
MATERIAL
  2
AcDbMaterial
  3
ObjectDBX Classes
 90
     1153
280
     0
281
     0
  0
CLASS
  1
SCALE
  2
AcDbScale
  3
ObjectDBX Classes
 90
     1153
280
     0
281
     0
  0
CLASS
  1
TABLESTYLE
  2
AcDbTableStyle
  3
ObjectDBX Classes
 90
     4095
280
     0
281
     0
  0
CLASS
  1
MLEADERSTYLE
  2
AcDbMLeaderStyle
  3
ACDB_MLEADERSTYLE_CLASS
 90
     4095
280
     0
281
     0
  0
CLASS
  1
SUN
  2
AcDbSun
  3
SCENEOE
 90
     1153
280
     0
281
     0
  0
CLASS
  1
ACDBPLACEHOLDER
  2
AcDbPlaceHolder
  3
ObjectDBX Classes
 90
        0
280
     0
281
     0
  0
CLASS
  1
LAYOUT
  2
AcDbLayout
  3
ObjectDBX Classes
 90
        0
280
     0
281
     0
  0
ENDSEC
  0
SECTION
  2
TABLES
  0
TABLE
  2
VPORT
  5
8
330
0
100
AcDbSymbolTable
 70
     1
  0
VPORT
  5
29
330
8
100
AcDbSymbolTableRecord
100
AcDbViewportTableRecord
  2
*Active
 70
     0
 10
0.0
 20
0.0
 11
1.0
 21
1.0
 12
150.0
 22
150.0
 13
0.0
 23
0.0
 14
10.0
 24
10.0
 15
10.0
 25
10.0
 16
0.0
 26
0.0
 36
1.0
 17
0.0
 27
0.0
 37
0.0
 40
300.0
 41
1.0
 42
50.0
 43
0.0
 44
0.0
 50
0.0
 51
0.0
 71
     0
 72
  2000
 73
     1
 74
     3
 75
     0
 76
     0
 77
     0
 78
     0
281
     0
 65
     1
110
0.0
120
0.0
130
0.0
111
1.0
121
0.0
131
0.0
112
0.0
122
1.0
132
0.0
 79
     0
146
0.0
  0
ENDTAB
  0
TABLE
  2
LTYPE
  5
5
330
0
100
AcDbSymbolTable
 70
     6
  0
LTYPE
  5
14
330
5
100
AcDbSymbolTableRecord
100
AcDbLinetypeTableRecord
  2
ByBlock
 70
     0
  3

 72
    65
 73
     0
 40
0.0
  0
LTYPE
  5
15
330
5
100
AcDbSymbolTableRecord
100
AcDbLinetypeTableRecord
  2
ByLayer
 70
     0
  3

 72
    65
 73
     0
 40
0.0
  0
LTYPE
  5
16
330
5
100
AcDbSymbolTableRecord
100
AcDbLinetypeTableRecord
  2
Continuous
 70
     0
  3
Solid line
 72
    65
 73
     0
 40
0.0
  0
LTYPE
  5
6E
330
5
100
AcDbSymbolTableRecord
100
AcDbLinetypeTableRecord
  2
HIDDEN
 70
     0
  3
Hidden __ __ __ __ __ __ __ __ __ __ __ __ __ __
 72
    65
 73
     2
 40
1.905
 49
1.27
 74
     0
 49
-0.635
 74
     0
  0
LTYPE
  5
6F
330
5
100
AcDbSymbolTableRecord
100
AcDbLinetypeTableRecord
  2
PHANTOM
 70
     0
  3
Phantom ______  __  __  ______  __  __  ______
 72
    65
 73
     6
 40
12.7
 49
6.35
 74
     0
 49
-1.27
 74
     0
 49
1.27
 74
     0
 49
-1.27
 74
     0
 49
1.27
 74
     0
 49
-1.27
 74
     0
  0
LTYPE
  5
70
330
5
100
AcDbSymbolTableRecord
100
AcDbLinetypeTableRecord
  2
CENTER
 70
     0
  3
Center ____ _ ____ _ ____ _ ____ _ ____ _ ____
 72
    65
 73
     4
 40
10.16
 49
6.35
 74
     0
 49
-1.27
 74
     0
 49
1.27
 74
     0
 49
-1.27
 74
     0
  0
LTYPE
  5
71
330
5
100
AcDbSymbolTableRecord
100
AcDbLinetypeTableRecord
  2
CENTERX2
 70
     0
  3
Center (2x) ________  __  ________  __  _____
 72
    65
 73
     4
 40
20.32
 49
12.7
 74
     0
 49
-2.54
 74
     0
 49
2.54
 74
     0
 49
-2.54
 74
     0
  0
LTYPE
  5
72
330
5
100
AcDbSymbolTableRecord
100
AcDbLinetypeTableRecord
  2
DOT2
 70
     0
  3
Dot (.5x) ........................................
 72
    65
 73
     2
 40
0.635
 49
0.0
 74
     0
 49
-0.635
 74
     0
  0
ENDTAB
  0
TABLE
  2
LAYER
  5
2
330
0
100
AcDbSymbolTable
 70
     1
  0
LAYER
  5
10
330
2
100
AcDbSymbolTableRecord
100
AcDbLayerTableRecord
  2
0
 70
     0
 62
     7
  6
Continuous
370
    -3
390
F
  0
ENDTAB
  0
TABLE
  2
STYLE
  5
3
330
0
100
AcDbSymbolTable
 70
     1
  0
STYLE
  5
11
330
3
100
AcDbSymbolTableRecord
100
AcDbTextStyleTableRecord
  2
Standard
 70
     0
 40
0.0
 41
1.0
 50
0.0
 71
     0
 42
3.5
  3
txt
  4

  0
ENDTAB
  0
TABLE
  2
VIEW
  5
6
330
0
100
AcDbSymbolTable
 70
     0
  0
ENDTAB
  0
TABLE
  2
UCS
  5
7
330
0
100
AcDbSymbolTable
 70
     0
  0
ENDTAB
  0
TABLE
  2
APPID
  5
9
330
0
100
AcDbSymbolTable
 70
     1
  0
APPID
  5
12
330
9
100
AcDbSymbolTableRecord
100
AcDbRegAppTableRecord
  2
ACAD
 70
     0
  0
ENDTAB
  0
TABLE
  2
DIMSTYLE
  5
A
330
0
100
AcDbSymbolTable
 70
     1
100
AcDbDimStyleTable
  0
DIMSTYLE
105
27
330
A
100
AcDbSymbolTableRecord
100
AcDbDimStyleTableRecord
  2
ISO-25
 70
     0
 41
2.5
 42
0.625
 43
3.75
 44
1.25
 73
     0
 74
     0
 77
     1
 78
     8
140
2.5
141
2.5
143
0.0393700787
147
0.625
171
     3
172
     1
178
     0
271
     2
272
     2
274
     3
278
    44
283
     0
284
     8
340
11
  0
ENDTAB
  0
TABLE
  2
BLOCK_RECORD
  5
1
330
0
100
AcDbSymbolTable
 70
     1
  0
BLOCK_RECORD
  5
1F
330
1
100
AcDbSymbolTableRecord
100
AcDbBlockTableRecord
  2
*Model_Space
340
22
  0
BLOCK_RECORD
  5
1B
330
1
100
AcDbSymbolTableRecord
100
AcDbBlockTableRecord
  2
*Paper_Space
340
1E
  0
BLOCK_RECORD
  5
23
330
1
100
AcDbSymbolTableRecord
100
AcDbBlockTableRecord
  2
*Paper_Space0
340
26
  0
ENDTAB
  0
ENDSEC
  0
SECTION
  2
BLOCKS
  0
BLOCK
  5
20
330
1F
100
AcDbEntity
  8
0
100
AcDbBlockBegin
  2
*Model_Space
 70
     0
 10
0.0
 20
0.0
 30
0.0
  3
*Model_Space
  1

  0
ENDBLK
  5
21
330
1F
100
AcDbEntity
  8
0
100
AcDbBlockEnd
  0
BLOCK
  5
1C
330
1B
100
AcDbEntity
 67
     1
  8
0
100
AcDbBlockBegin
  2
*Paper_Space
 70
     0
 10
0.0
 20
0.0
 30
0.0
  3
*Paper_Space
  1

  0
ENDBLK
  5
1D
330
1B
100
AcDbEntity
 67
     1
  8
0
100
AcDbBlockEnd
  0
BLOCK
  5
24
330
23
100
AcDbEntity
  8
0
100
AcDbBlockBegin
  2
*Paper_Space0
 70
     0
 10
0.0
 20
0.0
 30
0.0
  3
*Paper_Space0
  1

  0
ENDBLK
  5
25
330
23
100
AcDbEntity
  8
0
100
AcDbBlockEnd
  0
ENDSEC
  0
SECTION
  2
ENTITIES
  0
LWPOLYLINE
  5
73
330
1F
100
AcDbEntity
  8
0
  6
Continuous
 62
     7
100
AcDbPolyline
 90
       62
 70
   128
 43
0.0
 10
153.8625416052
 20
270.071996124
 10
154.9982552316
 20
270.071996124
 10
154.9982552316
 20
270.071996124
 10
155.1649978532
 20
270.0696640594
 10
155.3212461838
 20
270.0615018332
 10
155.4681662559
 20
270.0486754777
 10
155.6045920372
 20
270.0300189606
 10
155.7316895599
 20
270.0066983142
 10
155.8482927917
 20
269.9787135386
 10
155.955567765
 20
269.9448986013
 10
156.0523484474
 20
269.9052535025
 10
156.2272532952
 20
269.8108048847
 10
156.3823355935
 20
269.6953676852
 10
156.5175953425
 20
269.555443807
 10
156.6341985743
 20
269.3945313471
 10
156.7274811598
 20
269.2172944347
 10
156.7939450019
 20
269.031895296
 10
156.8347561331
 20
268.8348358342
 10
156.8475824886
 20
268.6296141462
 10
156.8475824886
 20
268.6296141462
 10
156.8370881977
 20
268.4372188137
 10
156.8044392928
 20
268.2541517397
 10
156.7508018061
 20
268.0792468919
 10
156.6761757378
 20
267.9136703027
 10
156.5805610877
 20
267.760920069
 10
156.4662899205
 20
267.6221622231
 10
156.3298641392
 20
267.4997288297
 10
156.1747818409
 20
267.3912878241
 10
156.1747818409
 20
267.3912878241
 10
156.3718413027
 20
267.3119976264
 10
156.5455801181
 20
267.2257112349
 10
156.6936662225
 20
267.1324286494
 10
156.8184316806
 20
267.03214987
 10
156.9257066539
 20
266.9237088644
 10
157.0189892394
 20
266.8059396003
 10
157.1006115017
 20
266.6753439806
 10
157.1694074084
 20
266.5354201024
 10
157.2242109274
 20
266.3861679656
 10
157.2638560262
 20
266.2322516996
 10
157.2871766726
 20
266.0701732074
 10
157.2953388988
 20
265.9034305858
 10
157.2953388988
 20
265.9034305858
 10
157.2871766726
 20
265.7331898674
 10
157.2638560262
 20
265.5699453428
 10
157.2242109274
 20
265.4136970121
 10
157.1694074084
 20
265.2644448754
 10
157.098279437
 20
265.1210229002
 10
157.0108270131
 20
264.9834310866
 10
156.9082161691
 20
264.8540014993
 10
156.790446905
 20
264.7304020736
 10
156.658685253
 20
264.618462971
 10
156.5164293102
 20
264.5205162562
 10
156.3636790764
 20
264.438893994
 10
156.2004345519
 20
264.3712641195
 10
156.0255297041
 20
264.3187926652
 10
155.8401305655
 20
264.281479631
 10
155.644237136
 20
264.2581589846
 10
155.4366833833
 20
264.2511627907
 10
155.4366833833
 20
264.2511627907
 10
153.8625397535
 20
264.2511627907
 10
153.8625397535
 20
264.2511627907
 10
153.8625397535
 20
270.071996124
  0
LWPOLYLINE
  5
74
330
1F
100
AcDbEntity
  8
0
  6
Continuous
 62
     7
100
AcDbPolyline
 90
       40
 70
   128
 43
0.0
 10
154.3849223
 20
269.474987577
 10
154.3849222322
 20
267.6093358676
 10
154.3849222322
 20
267.6093358676
 10
154.73589796
 20
267.6093358676
 10
154.73589796
 20
267.6093358676
 10
154.889814226
 20
267.6116679323
 10
155.0332362012
 20
267.6163320615
 10
155.1661638855
 20
267.6256603201
 10
155.2897633112
 20
267.6373206433
 10
155.4005363815
 20
267.6536450957
 10
155.5019811932
 20
267.6734676451
 10
155.592931714
 20
267.6956222592
 10
155.673387944
 20
267.7224410025
 10
155.8156438868
 20
267.78657278
 10
155.9427414095
 20
267.8681950423
 10
156.0535144798
 20
267.9649757247
 10
156.1491291299
 20
268.0780808596
 10
156.2260872629
 20
268.2028463177
 10
156.2808907818
 20
268.335774002
 10
156.3147057191
 20
268.4733658155
 10
156.3252000099
 20
268.6191198553
 10
156.3252000099
 20
268.6191198553
 10
156.3205358807
 20
268.7159005378
 10
156.3065434928
 20
268.8080170909
 10
156.2832228465
 20
268.8943034825
 10
156.2517399739
 20
268.9759257448
 10
156.2097628104
 20
269.0517178455
 10
156.1596234207
 20
269.1216797846
 10
156.0989897402
 20
269.1869775944
 10
156.0301938334
 20
269.2464452426
 10
155.9509036357
 20
269.3000827293
 10
155.8611191472
 20
269.346724022
 10
155.7608403678
 20
269.3852030885
 10
155.6489012653
 20
269.4178519934
 10
155.5264678719
 20
269.4423386721
 10
155.3935401876
 20
269.4609951892
 10
155.2489521801
 20
269.4714894801
 10
155.0938698817
 20
269.474987577
 10
155.0938698817
 20
269.474987577
 10
154.3849222322
 20
269.474987577
  0
LWPOLYLINE
  5
75
330
1F
100
AcDbEntity
  8
0
  6
Continuous
 62
     7
100
AcDbPolyline
 90
       45
 70
   128
 43
0.0
 10
154.3849223
 20
267.0123273206
 10
154.3849222322
 20
264.8481713377
 10
154.3849222322
 20
264.8481713377
 10
155.1288508513
 20
264.8481713377
 10
155.1288508513
 20
264.8481713377
 10
155.2885972789
 20
264.8505034023
 10
155.4366833833
 20
264.8551675316
 10
155.5731091646
 20
264.8644957902
 10
155.7002066873
 20
264.878488178
 10
155.8144778545
 20
264.8948126304
 10
155.9194207631
 20
264.9158012122
 10
156.0127033486
 20
264.9402878909
 10
156.0943256109
 20
264.9682726665
 10
156.2400796507
 20
265.0370685733
 10
156.3706752704
 20
265.1233549648
 10
156.4861124699
 20
265.2259658089
 10
156.5863912493
 20
265.3460671377
 10
156.6680135115
 20
265.4778287896
 10
156.7263151275
 20
265.6142545709
 10
156.761296097
 20
265.7565105137
 10
156.7729564202
 20
265.9034305858
 10
156.7729564202
 20
265.9034305858
 10
156.7694583232
 20
265.995547139
 10
156.7566319677
 20
266.0853316275
 10
156.7368094183
 20
266.1716180191
 10
156.709990675
 20
266.255572346
 10
156.6738436731
 20
266.3348625436
 10
156.629534445
 20
266.412986709
 10
156.578229023
 20
266.4876127773
 10
156.5187613748
 20
266.5587407488
 10
156.3800035289
 20
266.6881703361
 10
156.2167590043
 20
266.7954453094
 10
156.0301938334
 20
266.8805656686
 10
155.8203080161
 20
266.9435314138
 10
155.8203080161
 20
266.9435314138
 10
155.7351876568
 20
266.9598558663
 10
155.6349088775
 20
266.9738482541
 10
155.5206377103
 20
266.9855085773
 10
155.3923741552
 20
266.9948368358
 10
155.2489521801
 20
267.0029990621
 10
155.0903717848
 20
267.0076631913
 10
154.9177990017
 20
267.0111612883
 10
154.7312338307
 20
267.0123273206
 10
154.7312338307
 20
267.0123273206
 10
154.3849222322
 20
267.0123273206
  0
LWPOLYLINE
  5
76
330
1F
100
AcDbEntity
  8
0
  6
Continuous
 62
     7
100
AcDbPolyline
 90
      132
 70
   128
 43
0.0
 10
161.6236493629
 20
270.071996124
 10
161.6236508646
 20
269.474987577
 10
161.6236508646
 20
269.474987577
 10
159.643727988
 20
269.474987577
 10
159.643727988
 20
269.474987577
 10
159.3300652944
 20
267.943987143
 10
159.3300652944
 20
267.943987143
 10
159.515464433
 20
267.9929605004
 10
159.6915353131
 20
268.0291075022
 10
159.8582779346
 20
268.050096084
 10
160.0156922976
 20
268.0570922779
 10
160.0156922976
 20
268.0570922779
 10
160.2104196948
 20
268.0489300516
 10
160.3969848657
 20
268.0232773406
 10
160.5742217781
 20
267.9813001772
 10
160.7432964643
 20
267.9229985613
 10
160.9030428919
 20
267.8483724929
 10
161.053461061
 20
267.7562559397
 10
161.1957170038
 20
267.6478149341
 10
161.3298107204
 20
267.5218834437
 10
161.4510780815
 20
267.3831255979
 10
161.5560209902
 20
267.2362055257
 10
161.6458054787
 20
267.0787911628
 10
161.7180994824
 20
266.9132145736
 10
161.775235066
 20
266.7371436935
 10
161.8148801649
 20
266.5517445549
 10
161.8393668435
 20
266.3570171577
 10
161.8475290698
 20
266.152961502
 10
161.8475290698
 20
266.152961502
 10
161.8428649405
 20
266.0107055591
 10
161.8312046173
 20
265.8707816809
 10
161.8102160356
 20
265.7343558997
 10
161.7810652276
 20
265.6002621831
 10
161.7437521934
 20
265.4696665634
 10
161.698276933
 20
265.3425690407
 10
161.6434734141
 20
265.2178035826
 10
161.5816737012
 20
265.0953701892
 10
161.5128777944
 20
264.9787669574
 10
161.4370856937
 20
264.8691599194
 10
161.3566294637
 20
264.7665490754
 10
161.2703430722
 20
264.6709344253
 10
161.1770604867
 20
264.5823159691
 10
161.0779477396
 20
264.5006937068
 10
160.9741708633
 20
264.4260676385
 10
160.8633977931
 20
264.358437764
 10
160.7479605935
 20
264.2978040834
 10
160.6278592647
 20
264.2464986614
 10
160.504259839
 20
264.2021894333
 10
160.375996284
 20
264.1660424315
 10
160.2430685997
 20
264.1380576558
 10
160.1054767861
 20
264.1182351064
 10
159.9632208433
 20
264.1054087509
 10
159.8174668035
 20
264.1019106539
 10
159.8174668035
 20
264.1019106539
 10
159.643727988
 20
264.1089068479
 10
159.4769853665
 20
264.1310614619
 10
159.3172389389
 20
264.1660424315
 10
159.1644887052
 20
264.2161818211
 10
159.0187346654
 20
264.2803135987
 10
158.8799768195
 20
264.3596037963
 10
158.7470491352
 20
264.4517203495
 10
158.6222836771
 20
264.5589953227
 10
158.5068464776
 20
264.6779306192
 10
158.4042356336
 20
264.8050281419
 10
158.3132851128
 20
264.9402878909
 10
158.2339949151
 20
265.0848758983
 10
158.167531073
 20
265.2364600997
 10
158.1138935863
 20
265.3973725597
 10
158.0719164229
 20
265.5664472458
 10
158.0415995826
 20
265.7436841582
 10
158.0415995826
 20
265.7436841582
 10
158.5639820612
 20
265.7436841582
 10
158.5639820612
 20
265.7436841582
 10
158.6059592247
 20
265.578107569
 10
158.6595967113
 20
265.4300214646
 10
158.7260605535
 20
265.2970937803
 10
158.8041847188
 20
265.1804905484
 10
158.896301272
 20
265.0778797044
 10
159.0024102129
 20
264.9857631513
 10
159.1225115417
 20
264.9029748567
 10
159.2566052583
 20
264.8318468852
 10
159.3988612012
 20
264.7735452693
 10
159.5457812733
 20
264.7327341382
 10
159.69503341
 20
264.7070814272
 10
159.8477836438
 20
264.698919201
 10
159.8477836438
 20
264.698919201
 10
159.9970357805
 20
264.7059153949
 10
160.1404577557
 20
264.7257379443
 10
160.2792156016
 20
264.7583868492
 10
160.4121432858
 20
264.8050281419
 10
160.5392408085
 20
264.8633297578
 10
160.661674202
 20
264.9367897939
 10
160.7782774338
 20
265.0219101531
 10
160.8902165364
 20
265.1210229002
 10
160.9916613481
 20
265.2294639058
 10
161.0802798043
 20
265.3449011053
 10
161.1549058727
 20
265.4673344988
 10
161.2167055855
 20
265.5955980538
 10
161.2645129106
 20
265.7308578027
 10
161.2983278478
 20
265.8719477132
 10
161.3181503972
 20
266.0200338177
 10
161.3251465911
 20
266.175116116
 10
161.3251465911
 20
266.175116116
 10
161.3193164295
 20
266.3150399942
 10
161.3018259448
 20
266.4479676785
 10
161.2715091045
 20
266.5738991689
 10
161.229531941
 20
266.6928344654
 10
161.1758944544
 20
266.8059396003
 10
161.1105966446
 20
266.9120485412
 10
161.0324724792
 20
267.0111612883
 10
160.9426879907
 20
267.1032778414
 10
160.8435752436
 20
267.1872321684
 10
160.735134238
 20
267.2595261721
 10
160.6196970385
 20
267.3201598527
 10
160.4960976128
 20
267.3714652747
 10
160.3643359608
 20
267.4099443412
 10
160.2244120826
 20
267.4379291168
 10
160.0774920105
 20
267.4542535693
 10
159.9212436798
 20
267.4600837309
 10
159.9212436798
 20
267.4600837309
 10
159.7859839309
 20
267.4554196016
 10
159.6425619557
 20
267.4414272138
 10
159.493309819
 20
267.4181065674
 10
159.335895456
 20
267.3854576625
 10
159.1726509314
 20
267.343480499
 10
159.0012441806
 20
267.292175077
 10
158.8240072682
 20
267.2315413965
 10
158.6386081296
 20
267.1615794574
 10
158.6386081296
 20
267.1615794574
 10
159.2356166766
 20
270.071996124
 10
159.2356166766
 20
270.071996124
 10
161.6236508646
 20
270.071996124
  0
LINE
  5
77
330
1F
100
AcDbEntity
  8
0
  6
Continuous
 62
     7
370
    25
100
AcDbLine
 10
289.117756713
 20
160.7511627907
 30
0.0
 11
279.117756713
 21
160.7511627907
 31
0.0
  0
LINE
  5
78
330
1F
100
AcDbEntity
  8
0
  6
Continuous
 62
     7
370
    25
100
AcDbLine
 10
279.117756713
 20
160.7511627907
 30
0.0
 11
279.117756713
 21
157.7511627907
 31
0.0
  0
LINE
  5
79
330
1F
100
AcDbEntity
  8
0
  6
Continuous
 62
     7
370
    25
100
AcDbLine
 10
279.117756713
 20
157.7511627907
 30
0.0
 11
289.117756713
 21
157.7511627907
 31
0.0
  0
ARC
  5
7A
330
1F
100
AcDbEntity
  8
0
  6
Continuous
 62
     7
370
    25
100
AcDbCircle
 10
157.1162790698
 20
159.2511627907
 30
0.0
 40
132.01
100
AcDbArc
 50
315.6510530928
 51
359.3489469072
  0
LINE
  5
7B
330
1F
100
AcDbEntity
  8
0
  6
Continuous
 62
     7
370
    25
100
AcDbLine
 10
251.5160792097
 20
66.9726829943
 30
0.0
 11
244.4450113979
 21
74.0437508062
 31
0.0
  0
LINE
  5
7C
330
1F
100
AcDbEntity
  8
0
  6
Continuous
 62
     7
370
    25
100
AcDbLine
 10
244.4450113979
 20
74.0437508062
 30
0.0
 11
242.3236910543
 21
71.9224304626
 31
0.0
  0
LINE
  5
7D
330
1F
100
AcDbEntity
  8
0
  6
Continuous
 62
     7
370
    25
100
AcDbLine
 10
242.3236910543
 20
71.9224304626
 30
0.0
 11
249.3947588662
 21
64.8513626507
 31
0.0
  0
ARC
  5
7E
330
1F
100
AcDbEntity
  8
0
  6
Continuous
 62
     7
370
    25
100
AcDbCircle
 10
157.1162790698
 20
159.2511627907
 30
0.0
 40
132.0099999999999
100
AcDbArc
 50
270.6510530928
 51
314.3489469072
  0
LINE
  5
7F
330
1F
100
AcDbEntity
  8
0
  6
Continuous
 62
     7
370
    25
100
AcDbLine
 10
158.6162790698
 20
27.2496851475
 30
0.0
 11
158.6162790698
 21
37.2496851475
 31
0.0
  0
LINE
  5
80
330
1F
100
AcDbEntity
  8
0
  6
Continuous
 62
     7
370
    25
100
AcDbLine
 10
158.6162790698
 20
37.2496851475
 30
0.0
 11
155.6162790698
 21
37.2496851475
 31
0.0
  0
LINE
  5
81
330
1F
100
AcDbEntity
  8
0
  6
Continuous
 62
     7
370
    25
100
AcDbLine
 10
155.6162790698
 20
37.2496851475
 30
0.0
 11
155.6162790698
 21
27.2496851475
 31
0.0
  0
ARC
  5
82
330
1F
100
AcDbEntity
  8
0
  6
Continuous
 62
     7
370
    25
100
AcDbCircle
 10
157.1162790698
 20
159.2511627907
 30
0.0
 40
132.01
100
AcDbArc
 50
225.6510530928
 51
269.3489469072
  0
LINE
  5
83
330
1F
100
AcDbEntity
  8
0
  6
Continuous
 62
     7
370
    25
100
AcDbLine
 10
64.8377992734
 20
64.8513626507
 30
0.0
 11
71.9088670852
 21
71.9224304626
 31
0.0
  0
LINE
  5
84
330
1F
100
AcDbEntity
  8
0
  6
Continuous
 62
     7
370
    25
100
AcDbLine
 10
71.9088670852
 20
71.9224304626
 30
0.0
 11
69.7875467417
 21
74.0437508062
 31
0.0
  0
LINE
  5
85
330
1F
100
AcDbEntity
  8
0
  6
Continuous
 62
     7
370
    25
100
AcDbLine
 10
69.7875467417
 20
74.0437508062
 30
0.0
 11
62.7164789298
 21
66.9726829943
 31
0.0
  0
ARC
  5
86
330
1F
100
AcDbEntity
  8
0
  6
Continuous
 62
     7
370
    25
100
AcDbCircle
 10
157.1162790698
 20
159.2511627907
 30
0.0
 40
132.01
100
AcDbArc
 50
180.6510530928
 51
224.3489469072
  0
LINE
  5
87
330
1F
100
AcDbEntity
  8
0
  6
Continuous
 62
     7
370
    25
100
AcDbLine
 10
25.1148014265
 20
157.7511627907
 30
0.0
 11
35.1148014265
 21
157.7511627907
 31
0.0
  0
LINE
  5
88
330
1F
100
AcDbEntity
  8
0
  6
Continuous
 62
     7
370
    25
100
AcDbLine
 10
35.1148014265
 20
157.7511627907
 30
0.0
 11
35.1148014265
 21
160.7511627907
 31
0.0
  0
LINE
  5
89
330
1F
100
AcDbEntity
  8
0
  6
Continuous
 62
     7
370
    25
100
AcDbLine
 10
35.1148014265
 20
160.7511627907
 30
0.0
 11
25.1148014265
 21
160.7511627907
 31
0.0
  0
ARC
  5
8A
330
1F
100
AcDbEntity
  8
0
  6
Continuous
 62
     7
370
    25
100
AcDbCircle
 10
157.1162790698
 20
159.2511627907
 30
0.0
 40
132.01
100
AcDbArc
 50
135.6510530928
 51
179.3489469072
  0
LINE
  5
8B
330
1F
100
AcDbEntity
  8
0
  6
Continuous
 62
     7
370
    25
100
AcDbLine
 10
62.7164789298
 20
251.5296425871
 30
0.0
 11
69.7875467417
 21
244.4585747752
 31
0.0
  0
LINE
  5
8C
330
1F
100
AcDbEntity
  8
0
  6
Continuous
 62
     7
370
    25
100
AcDbLine
 10
69.7875467417
 20
244.4585747752
 30
0.0
 11
71.9088670852
 21
246.5798951188
 31
0.0
  0
LINE
  5
8D
330
1F
100
AcDbEntity
  8
0
  6
Continuous
 62
     7
370
    25
100
AcDbLine
 10
71.9088670852
 20
246.5798951188
 30
0.0
 11
64.8377992734
 21
253.6509629307
 31
0.0
  0
ARC
  5
8E
330
1F
100
AcDbEntity
  8
0
  6
Continuous
 62
     7
370
    25
100
AcDbCircle
 10
157.1162790698
 20
159.2511627907
 30
0.0
 40
132.01
100
AcDbArc
 50
90.6510530928
 51
134.3489469072
  0
LINE
  5
8F
330
1F
100
AcDbEntity
  8
0
  6
Continuous
 62
     7
370
    25
100
AcDbLine
 10
155.6162790698
 20
291.2526404339
 30
0.0
 11
155.6162790698
 21
281.2526404339
 31
0.0
  0
LINE
  5
90
330
1F
100
AcDbEntity
  8
0
  6
Continuous
 62
     7
370
    25
100
AcDbLine
 10
155.6162790698
 20
281.2526404339
 30
0.0
 11
158.6162790698
 21
281.2526404339
 31
0.0
  0
LINE
  5
91
330
1F
100
AcDbEntity
  8
0
  6
Continuous
 62
     7
370
    25
100
AcDbLine
 10
158.6162790698
 20
281.2526404339
 30
0.0
 11
158.6162790698
 21
291.2526404339
 31
0.0
  0
LINE
  5
92
330
1F
100
AcDbEntity
  8
0
  6
Continuous
 62
     7
370
    25
100
AcDbLine
 10
249.3947588662
 20
253.6509629307
 30
0.0
 11
242.3236910543
 21
246.5798951188
 31
0.0
  0
LINE
  5
93
330
1F
100
AcDbEntity
  8
0
  6
Continuous
 62
     7
370
    25
100
AcDbLine
 10
242.3236910543
 20
246.5798951188
 30
0.0
 11
244.4450113979
 21
244.4585747752
 31
0.0
  0
LINE
  5
94
330
1F
100
AcDbEntity
  8
0
  6
Continuous
 62
     7
370
    25
100
AcDbLine
 10
244.4450113979
 20
244.4585747752
 30
0.0
 11
251.5160792097
 21
251.5296425871
 31
0.0
  0
LINE
  5
95
330
1F
100
AcDbEntity
  8
0
  6
Continuous
 62
     7
370
    25
100
AcDbLine
 10
152.1162790698
 20
275.2526404339
 30
0.0
 11
155.1162790698
 21
275.2526404339
 31
0.0
  0
LINE
  5
96
330
1F
100
AcDbEntity
  8
0
  6
Continuous
 62
     7
370
    25
100
AcDbLine
 10
155.1162790698
 20
275.2526404339
 30
0.0
 11
155.1162790698
 21
280.2526404339
 31
0.0
  0
LINE
  5
97
330
1F
100
AcDbEntity
  8
0
  6
Continuous
 62
     7
370
    25
100
AcDbLine
 10
155.1162790698
 20
280.2526404339
 30
0.0
 11
152.1162790698
 21
280.2526404339
 31
0.0
  0
LINE
  5
98
330
1F
100
AcDbEntity
  8
0
  6
Continuous
 62
     7
370
    25
100
AcDbLine
 10
152.1162790698
 20
280.2526404339
 30
0.0
 11
152.1162790698
 21
275.2526404339
 31
0.0
  0
LINE
  5
99
330
1F
100
AcDbEntity
  8
0
  6
Continuous
 62
     7
370
    25
100
AcDbLine
 10
159.1162790698
 20
280.2526404339
 30
0.0
 11
159.1162790698
 21
275.2526404339
 31
0.0
  0
LINE
  5
9A
330
1F
100
AcDbEntity
  8
0
  6
Continuous
 62
     7
370
    25
100
AcDbLine
 10
159.1162790698
 20
275.2526404339
 30
0.0
 11
162.1162790698
 21
275.2526404339
 31
0.0
  0
LINE
  5
9B
330
1F
100
AcDbEntity
  8
0
  6
Continuous
 62
     7
370
    25
100
AcDbLine
 10
162.1162790698
 20
275.2526404339
 30
0.0
 11
162.1162790698
 21
280.2526404339
 31
0.0
  0
LINE
  5
9C
330
1F
100
AcDbEntity
  8
0
  6
Continuous
 62
     7
370
    25
100
AcDbLine
 10
162.1162790698
 20
280.2526404339
 30
0.0
 11
159.1162790698
 21
280.2526404339
 31
0.0
  0
LINE
  5
9D
330
1F
100
AcDbEntity
  8
0
  6
Continuous
 62
     7
370
    25
100
AcDbLine
 10
71.5553136946
 20
237.741060354
 30
0.0
 11
73.6766340382
 21
239.8623806975
 31
0.0
  0
LINE
  5
9E
330
1F
100
AcDbEntity
  8
0
  6
Continuous
 62
     7
370
    25
100
AcDbLine
 10
73.6766340382
 20
239.8623806975
 30
0.0
 11
70.1411001323
 21
243.3979146035
 31
0.0
  0
LINE
  5
9F
330
1F
100
AcDbEntity
  8
0
  6
Continuous
 62
     7
370
    25
100
AcDbLine
 10
70.1411001323
 20
243.3979146035
 30
0.0
 11
68.0197797887
 21
241.2765942599
 31
0.0
  0
LINE
  5
A0
330
1F
100
AcDbEntity
  8
0
  6
Continuous
 62
     7
370
    25
100
AcDbLine
 10
68.0197797887
 20
241.2765942599
 30
0.0
 11
71.5553136946
 21
237.741060354
 31
0.0
  0
LINE
  5
A1
330
1F
100
AcDbEntity
  8
0
  6
Continuous
 62
     7
370
    25
100
AcDbLine
 10
72.969527257
 20
246.2263417282
 30
0.0
 11
76.5050611629
 21
242.6908078223
 31
0.0
  0
LINE
  5
A2
330
1F
100
AcDbEntity
  8
0
  6
Continuous
 62
     7
370
    25
100
AcDbLine
 10
76.5050611629
 20
242.6908078223
 30
0.0
 11
78.6263815065
 21
244.8121281658
 31
0.0
  0
LINE
  5
A3
330
1F
100
AcDbEntity
  8
0
  6
Continuous
 62
     7
370
    25
100
AcDbLine
 10
78.6263815065
 20
244.8121281658
 30
0.0
 11
75.0908476006
 21
248.3476620718
 31
0.0
  0
LINE
  5
A4
330
1F
100
AcDbEntity
  8
0
  6
Continuous
 62
     7
370
    25
100
AcDbLine
 10
75.0908476006
 20
248.3476620718
 30
0.0
 11
72.969527257
 21
246.2263417282
 31
0.0
  0
LINE
  5
A5
330
1F
100
AcDbEntity
  8
0
  6
Continuous
 62
     7
370
    25
100
AcDbLine
 10
41.1148014265
 20
154.2511627907
 30
0.0
 11
41.1148014265
 21
157.2511627907
 31
0.0
  0
LINE
  5
A6
330
1F
100
AcDbEntity
  8
0
  6
Continuous
 62
     7
370
    25
100
AcDbLine
 10
41.1148014265
 20
157.2511627907
 30
0.0
 11
36.1148014265
 21
157.2511627907
 31
0.0
  0
LINE
  5
A7
330
1F
100
AcDbEntity
  8
0
  6
Continuous
 62
     7
370
    25
100
AcDbLine
 10
36.1148014265
 20
157.2511627907
 30
0.0
 11
36.1148014265
 21
154.2511627907
 31
0.0
  0
LINE
  5
A8
330
1F
100
AcDbEntity
  8
0
  6
Continuous
 62
     7
370
    25
100
AcDbLine
 10
36.1148014265
 20
154.2511627907
 30
0.0
 11
41.1148014265
 21
154.2511627907
 31
0.0
  0
LINE
  5
A9
330
1F
100
AcDbEntity
  8
0
  6
Continuous
 62
     7
370
    25
100
AcDbLine
 10
36.1148014265
 20
161.2511627907
 30
0.0
 11
41.1148014265
 21
161.2511627907
 31
0.0
  0
LINE
  5
AA
330
1F
100
AcDbEntity
  8
0
  6
Continuous
 62
     7
370
    25
100
AcDbLine
 10
41.1148014265
 20
161.2511627907
 30
0.0
 11
41.1148014265
 21
164.2511627907
 31
0.0
  0
LINE
  5
AB
330
1F
100
AcDbEntity
  8
0
  6
Continuous
 62
     7
370
    25
100
AcDbLine
 10
41.1148014265
 20
164.2511627907
 30
0.0
 11
36.1148014265
 21
164.2511627907
 31
0.0
  0
LINE
  5
AC
330
1F
100
AcDbEntity
  8
0
  6
Continuous
 62
     7
370
    25
100
AcDbLine
 10
36.1148014265
 20
164.2511627907
 30
0.0
 11
36.1148014265
 21
161.2511627907
 31
0.0
  0
LINE
  5
AD
330
1F
100
AcDbEntity
  8
0
  6
Continuous
 62
     7
370
    25
100
AcDbLine
 10
162.1162790698
 20
43.2496851475
 30
0.0
 11
159.1162790698
 21
43.2496851475
 31
0.0
  0
LINE
  5
AE
330
1F
100
AcDbEntity
  8
0
  6
Continuous
 62
     7
370
    25
100
AcDbLine
 10
159.1162790698
 20
43.2496851475
 30
0.0
 11
159.1162790698
 21
38.2496851475
 31
0.0
  0
LINE
  5
AF
330
1F
100
AcDbEntity
  8
0
  6
Continuous
 62
     7
370
    25
100
AcDbLine
 10
159.1162790698
 20
38.2496851475
 30
0.0
 11
162.1162790698
 21
38.2496851475
 31
0.0
  0
LINE
  5
B0
330
1F
100
AcDbEntity
  8
0
  6
Continuous
 62
     7
370
    25
100
AcDbLine
 10
162.1162790698
 20
38.2496851475
 30
0.0
 11
162.1162790698
 21
43.2496851475
 31
0.0
  0
LINE
  5
B1
330
1F
100
AcDbEntity
  8
0
  6
Continuous
 62
     7
370
    25
100
AcDbLine
 10
70.1411001323
 20
75.1044109779
 30
0.0
 11
73.6766340382
 21
78.6399448839
 31
0.0
  0
LINE
  5
B2
330
1F
100
AcDbEntity
  8
0
  6
Continuous
 62
     7
370
    25
100
AcDbLine
 10
73.6766340382
 20
78.6399448839
 30
0.0
 11
71.5553136946
 21
80.7612652274
 31
0.0
  0
LINE
  5
B3
330
1F
100
AcDbEntity
  8
0
  6
Continuous
 62
     7
370
    25
100
AcDbLine
 10
71.5553136946
 20
80.7612652274
 30
0.0
 11
68.0197797887
 21
77.2257313215
 31
0.0
  0
LINE
  5
B4
330
1F
100
AcDbEntity
  8
0
  6
Continuous
 62
     7
370
    25
100
AcDbLine
 10
68.0197797887
 20
77.2257313215
 30
0.0
 11
70.1411001323
 21
75.1044109779
 31
0.0
  0
LINE
  5
B5
330
1F
100
AcDbEntity
  8
0
  6
Continuous
 62
     7
370
    25
100
AcDbLine
 10
78.6263815065
 20
73.6901974156
 30
0.0
 11
76.5050611629
 21
75.8115177591
 31
0.0
  0
LINE
  5
B6
330
1F
100
AcDbEntity
  8
0
  6
Continuous
 62
     7
370
    25
100
AcDbLine
 10
76.5050611629
 20
75.8115177591
 30
0.0
 11
72.969527257
 21
72.2759838532
 31
0.0
  0
LINE
  5
B7
330
1F
100
AcDbEntity
  8
0
  6
Continuous
 62
     7
370
    25
100
AcDbLine
 10
72.969527257
 20
72.2759838532
 30
0.0
 11
75.0908476006
 21
70.1546635096
 31
0.0
  0
LINE
  5
B8
330
1F
100
AcDbEntity
  8
0
  6
Continuous
 62
     7
370
    25
100
AcDbLine
 10
75.0908476006
 20
70.1546635096
 30
0.0
 11
78.6263815065
 21
73.6901974156
 31
0.0
  0
LINE
  5
B9
330
1F
100
AcDbEntity
  8
0
  6
Continuous
 62
     7
370
    25
100
AcDbLine
 10
155.1162790698
 20
38.2496851475
 30
0.0
 11
155.1162790698
 21
43.2496851475
 31
0.0
  0
LINE
  5
BA
330
1F
100
AcDbEntity
  8
0
  6
Continuous
 62
     7
370
    25
100
AcDbLine
 10
155.1162790698
 20
43.2496851475
 30
0.0
 11
152.1162790698
 21
43.2496851475
 31
0.0
  0
LINE
  5
BB
330
1F
100
AcDbEntity
  8
0
  6
Continuous
 62
     7
370
    25
100
AcDbLine
 10
152.1162790698
 20
43.2496851475
 30
0.0
 11
152.1162790698
 21
38.2496851475
 31
0.0
  0
LINE
  5
BC
330
1F
100
AcDbEntity
  8
0
  6
Continuous
 62
     7
370
    25
100
AcDbLine
 10
152.1162790698
 20
38.2496851475
 30
0.0
 11
155.1162790698
 21
38.2496851475
 31
0.0
  0
LINE
  5
BD
330
1F
100
AcDbEntity
  8
0
  6
Continuous
 62
     7
370
    25
100
AcDbLine
 10
241.2630308825
 20
72.2759838532
 30
0.0
 11
237.7274969766
 21
75.8115177591
 31
0.0
  0
LINE
  5
BE
330
1F
100
AcDbEntity
  8
0
  6
Continuous
 62
     7
370
    25
100
AcDbLine
 10
237.7274969766
 20
75.8115177591
 30
0.0
 11
235.606176633
 21
73.6901974156
 31
0.0
  0
LINE
  5
BF
330
1F
100
AcDbEntity
  8
0
  6
Continuous
 62
     7
370
    25
100
AcDbLine
 10
235.606176633
 20
73.6901974156
 30
0.0
 11
239.141710539
 21
70.1546635096
 31
0.0
  0
LINE
  5
C0
330
1F
100
AcDbEntity
  8
0
  6
Continuous
 62
     7
370
    25
100
AcDbLine
 10
239.141710539
 20
70.1546635096
 30
0.0
 11
241.2630308825
 21
72.2759838532
 31
0.0
  0
LINE
  5
C1
330
1F
100
AcDbEntity
  8
0
  6
Continuous
 62
     7
370
    25
100
AcDbLine
 10
242.6772444449
 20
80.7612652274
 30
0.0
 11
240.5559241013
 21
78.6399448839
 31
0.0
  0
LINE
  5
C2
330
1F
100
AcDbEntity
  8
0
  6
Continuous
 62
     7
370
    25
100
AcDbLine
 10
240.5559241013
 20
78.6399448839
 30
0.0
 11
244.0914580073
 21
75.1044109779
 31
0.0
  0
LINE
  5
C3
330
1F
100
AcDbEntity
  8
0
  6
Continuous
 62
     7
370
    25
100
AcDbLine
 10
244.0914580073
 20
75.1044109779
 30
0.0
 11
246.2127783508
 21
77.2257313215
 31
0.0
  0
LINE
  5
C4
330
1F
100
AcDbEntity
  8
0
  6
Continuous
 62
     7
370
    25
100
AcDbLine
 10
246.2127783508
 20
77.2257313215
 30
0.0
 11
242.6772444449
 21
80.7612652274
 31
0.0
  0
LINE
  5
C5
330
1F
100
AcDbEntity
  8
0
  6
Continuous
 62
     7
370
    25
100
AcDbLine
 10
273.117756713
 20
164.2511627907
 30
0.0
 11
273.117756713
 21
161.2511627907
 31
0.0
  0
LINE
  5
C6
330
1F
100
AcDbEntity
  8
0
  6
Continuous
 62
     7
370
    25
100
AcDbLine
 10
273.117756713
 20
161.2511627907
 30
0.0
 11
278.117756713
 21
161.2511627907
 31
0.0
  0
LINE
  5
C7
330
1F
100
AcDbEntity
  8
0
  6
Continuous
 62
     7
370
    25
100
AcDbLine
 10
278.117756713
 20
161.2511627907
 30
0.0
 11
278.117756713
 21
164.2511627907
 31
0.0
  0
LINE
  5
C8
330
1F
100
AcDbEntity
  8
0
  6
Continuous
 62
     7
370
    25
100
AcDbLine
 10
278.117756713
 20
164.2511627907
 30
0.0
 11
273.117756713
 21
164.2511627907
 31
0.0
  0
LINE
  5
C9
330
1F
100
AcDbEntity
  8
0
  6
Continuous
 62
     7
370
    25
100
AcDbLine
 10
278.117756713
 20
157.2511627907
 30
0.0
 11
273.117756713
 21
157.2511627907
 31
0.0
  0
LINE
  5
CA
330
1F
100
AcDbEntity
  8
0
  6
Continuous
 62
     7
370
    25
100
AcDbLine
 10
273.117756713
 20
157.2511627907
 30
0.0
 11
273.117756713
 21
154.2511627907
 31
0.0
  0
LINE
  5
CB
330
1F
100
AcDbEntity
  8
0
  6
Continuous
 62
     7
370
    25
100
AcDbLine
 10
273.117756713
 20
154.2511627907
 30
0.0
 11
278.117756713
 21
154.2511627907
 31
0.0
  0
LINE
  5
CC
330
1F
100
AcDbEntity
  8
0
  6
Continuous
 62
     7
370
    25
100
AcDbLine
 10
278.117756713
 20
154.2511627907
 30
0.0
 11
278.117756713
 21
157.2511627907
 31
0.0
  0
LINE
  5
CD
330
1F
100
AcDbEntity
  8
0
  6
Continuous
 62
     7
370
    25
100
AcDbLine
 10
244.0914580073
 20
243.3979146035
 30
0.0
 11
240.5559241013
 21
239.8623806975
 31
0.0
  0
LINE
  5
CE
330
1F
100
AcDbEntity
  8
0
  6
Continuous
 62
     7
370
    25
100
AcDbLine
 10
240.5559241013
 20
239.8623806975
 30
0.0
 11
242.6772444449
 21
237.741060354
 31
0.0
  0
LINE
  5
CF
330
1F
100
AcDbEntity
  8
0
  6
Continuous
 62
     7
370
    25
100
AcDbLine
 10
242.6772444449
 20
237.741060354
 30
0.0
 11
246.2127783508
 21
241.2765942599
 31
0.0
  0
LINE
  5
D0
330
1F
100
AcDbEntity
  8
0
  6
Continuous
 62
     7
370
    25
100
AcDbLine
 10
246.2127783508
 20
241.2765942599
 30
0.0
 11
244.0914580073
 21
243.3979146035
 31
0.0
  0
LINE
  5
D1
330
1F
100
AcDbEntity
  8
0
  6
Continuous
 62
     7
370
    25
100
AcDbLine
 10
235.606176633
 20
244.8121281658
 30
0.0
 11
237.7274969766
 21
242.6908078223
 31
0.0
  0
LINE
  5
D2
330
1F
100
AcDbEntity
  8
0
  6
Continuous
 62
     7
370
    25
100
AcDbLine
 10
237.7274969766
 20
242.6908078223
 30
0.0
 11
241.2630308825
 21
246.2263417282
 31
0.0
  0
LINE
  5
D3
330
1F
100
AcDbEntity
  8
0
  6
Continuous
 62
     7
370
    25
100
AcDbLine
 10
241.2630308825
 20
246.2263417282
 30
0.0
 11
239.141710539
 21
248.3476620718
 31
0.0
  0
LINE
  5
D4
330
1F
100
AcDbEntity
  8
0
  6
Continuous
 62
     7
370
    25
100
AcDbLine
 10
239.141710539
 20
248.3476620718
 30
0.0
 11
235.606176633
 21
244.8121281658
 31
0.0
  0
CIRCLE
  5
D5
330
1F
100
AcDbEntity
  8
0
  6
Continuous
 62
     7
370
    25
100
AcDbCircle
 10
157.1162790698
 20
159.2511627907
 30
0.0
 40
102.01
  0
ARC
  5
D6
330
1F
100
AcDbEntity
  8
0
  6
Continuous
 62
     7
370
    25
100
AcDbCircle
 10
157.1162790698
 20
159.2511627907
 30
0.0
 40
132.01
100
AcDbArc
 50
45.6510530928
 51
89.3489469072
  0
ARC
  5
D7
330
1F
100
AcDbEntity
  8
0
  6
Continuous
 62
     7
370
    25
100
AcDbCircle
 10
157.1162790698
 20
159.2511627907
 30
0.0
 40
132.01
100
AcDbArc
 50
0.6510530928
 51
44.3489469072
  0
ENDSEC
  0
SECTION
  2
OBJECTS
  0
DICTIONARY
  5
C
330
0
100
AcDbDictionary
281
     1
  3
ACAD_GROUP
350
D
  3
ACAD_LAYOUT
350
1A
  3
ACAD_MLINESTYLE
350
17
  3
ACAD_PLOTSETTINGS
350
19
  3
ACAD_PLOTSTYLENAME
350
E
  3
ACAD_SCALELIST
350
47
  0
DICTIONARY
  5
D
102
{ACAD_REACTORS
330
C
102
}
330
C
100
AcDbDictionary
281
     1
  0
DICTIONARY
  5
1A
102
{ACAD_REACTORS
330
C
102
}
330
C
100
AcDbDictionary
281
     1
  3
Layout1
350
1E
  3
Layout2
350
26
  3
Model
350
22
  0
DICTIONARY
  5
17
102
{ACAD_REACTORS
330
C
102
}
330
C
100
AcDbDictionary
281
     1
  3
Standard
350
18
  0
DICTIONARY
  5
19
102
{ACAD_REACTORS
330
C
102
}
330
C
100
AcDbDictionary
281
     1
  0
ACDBDICTIONARYWDFLT
  5
E
102
{ACAD_REACTORS
330
C
102
}
330
C
100
AcDbDictionary
281
     1
  3
Normal
350
F
100
AcDbDictionaryWithDefault
340
F
  0
DICTIONARY
  5
47
102
{ACAD_REACTORS
330
C
102
}
330
C
100
AcDbDictionary
281
     1
  3
A0
350
48
  3
A1
350
49
  3
A2
350
4A
  3
A3
350
4B
  3
A4
350
4C
  3
A5
350
4D
  3
A6
350
4E
  3
A7
350
4F
  3
A8
350
50
  3
A9
350
51
  3
B0
350
52
  3
B1
350
53
  3
B2
350
54
  3
B3
350
55
  3
B4
350
56
  3
B5
350
57
  3
B6
350
58
  3
B7
350
59
  3
B8
350
5A
  3
B9
350
5B
  3
C0
350
5C
  3
C1
350
5D
  3
C2
350
5E
  3
C3
350
5F
  3
C4
350
60
  3
C5
350
61
  3
C6
350
62
  3
C7
350
63
  3
C8
350
64
  3
C9
350
65
  3
D0
350
66
  3
D1
350
67
  3
D2
350
68
  0
LAYOUT
  5
1E
102
{ACAD_REACTORS
330
1A
102
}
330
1A
100
AcDbPlotSettings
  1

  2
none_device
  4

  6

 40
0.0
 41
0.0
 42
0.0
 43
0.0
 44
0.0
 45
0.0
 46
0.0
 47
0.0
 48
0.0
 49
0.0
140
0.0
141
0.0
142
1.0
143
1.0
 70
   688
 72
     1
 73
     0
 74
     5
  7

 75
    16
147
1.0
148
0.0
149
0.0
100
AcDbLayout
  1
Layout1
 70
     1
 71
     1
 10
0.0
 20
0.0
 11
420.0
 21
297.0
 12
0.0
 22
0.0
 32
0.0
 14
1.0000000000E+20
 24
1.0000000000E+20
 34
1.0000000000E+20
 15
-1.0000000000E+20
 25
-1.0000000000E+20
 35
-1.0000000000E+20
146
0.0
 13
0.0
 23
0.0
 33
0.0
 16
1.0
 26
0.0
 36
0.0
 17
0.0
 27
1.0
 37
0.0
 76
     0
330
1B
  0
LAYOUT
  5
26
102
{ACAD_REACTORS
330
1A
102
}
330
1A
100
AcDbPlotSettings
  1

  2
none_device
  4

  6

 40
0.0
 41
0.0
 42
0.0
 43
0.0
 44
0.0
 45
0.0
 46
0.0
 47
0.0
 48
0.0
 49
0.0
140
0.0
141
0.0
142
1.0
143
1.0
 70
   688
 72
     1
 73
     0
 74
     5
  7

 75
    16
147
1.0
148
0.0
149
0.0
100
AcDbLayout
  1
Layout2
 70
     1
 71
     2
 10
0.0
 20
0.0
 11
0.0
 21
0.0
 12
0.0
 22
0.0
 32
0.0
 14
0.0
 24
0.0
 34
0.0
 15
0.0
 25
0.0
 35
0.0
146
0.0
 13
0.0
 23
0.0
 33
0.0
 16
1.0
 26
0.0
 36
0.0
 17
0.0
 27
1.0
 37
0.0
 76
     0
330
23
  0
LAYOUT
  5
22
102
{ACAD_REACTORS
330
1A
102
}
330
1A
100
AcDbPlotSettings
  1

  2
none_device
  4
Letter_(8.50_x_11.00_Inches)
  6

 40
6.35
 41
6.35
 42
6.35000508
 43
6.35000508
 44
215.9
 45
279.4
 46
0.0
 47
0.0
 48
0.0
 49
0.0
140
0.0
141
0.0
142
1.0
143
1.0
 70
  1712
 72
     1
 73
     0
 74
     0
  7

 75
     0
147
1.0
148
0.0
149
0.0
100
AcDbLayout
  1
Model
 70
     1
 71
     0
 10
0.0
 20
0.0
 11
300.0
 21
300.0
 12
0.0
 22
0.0
 32
0.0
 14
0.0
 24
0.0
 34
0.0
 15
300.0
 25
300.0
 35
0.0
146
0.0
 13
0.0
 23
0.0
 33
0.0
 16
1.0
 26
0.0
 36
0.0
 17
0.0
 27
1.0
 37
0.0
 76
     0
330
1F
331
29
  0
MLINESTYLE
  5
18
102
{ACAD_REACTORS
330
17
102
}
330
17
100
AcDbMlineStyle
  2
Standard
 70
     0
  3

 62
   256
 51
90.0
 52
90.0
 71
     2
 49
0.5
 62
   256
  6
BYLAYER
 49
-0.5
 62
   256
  6
BYLAYER
  0
ACDBPLACEHOLDER
  5
F
102
{ACAD_REACTORS
330
E
102
}
330
E
  0
SCALE
  5
48
102
{ACAD_REACTORS
330
47
102
}
330
47
100
AcDbScale
 70
     0
300
1:1
140
1.0
141
1.0
290
     1
  0
SCALE
  5
49
102
{ACAD_REACTORS
330
47
102
}
330
47
100
AcDbScale
 70
     0
300
1:2
140
1.0
141
2.0
290
     0
  0
SCALE
  5
4A
102
{ACAD_REACTORS
330
47
102
}
330
47
100
AcDbScale
 70
     0
300
1:4
140
1.0
141
4.0
290
     0
  0
SCALE
  5
4B
102
{ACAD_REACTORS
330
47
102
}
330
47
100
AcDbScale
 70
     0
300
1:5
140
1.0
141
5.0
290
     0
  0
SCALE
  5
4C
102
{ACAD_REACTORS
330
47
102
}
330
47
100
AcDbScale
 70
     0
300
1:8
140
1.0
141
8.0
290
     0
  0
SCALE
  5
4D
102
{ACAD_REACTORS
330
47
102
}
330
47
100
AcDbScale
 70
     0
300
1:10
140
1.0
141
10.0
290
     0
  0
SCALE
  5
4E
102
{ACAD_REACTORS
330
47
102
}
330
47
100
AcDbScale
 70
     0
300
1:16
140
1.0
141
16.0
290
     0
  0
SCALE
  5
4F
102
{ACAD_REACTORS
330
47
102
}
330
47
100
AcDbScale
 70
     0
300
1:20
140
1.0
141
20.0
290
     0
  0
SCALE
  5
50
102
{ACAD_REACTORS
330
47
102
}
330
47
100
AcDbScale
 70
     0
300
1:30
140
1.0
141
30.0
290
     0
  0
SCALE
  5
51
102
{ACAD_REACTORS
330
47
102
}
330
47
100
AcDbScale
 70
     0
300
1:40
140
1.0
141
40.0
290
     0
  0
SCALE
  5
52
102
{ACAD_REACTORS
330
47
102
}
330
47
100
AcDbScale
 70
     0
300
1:50
140
1.0
141
50.0
290
     0
  0
SCALE
  5
53
102
{ACAD_REACTORS
330
47
102
}
330
47
100
AcDbScale
 70
     0
300
1:100
140
1.0
141
100.0
290
     0
  0
SCALE
  5
54
102
{ACAD_REACTORS
330
47
102
}
330
47
100
AcDbScale
 70
     0
300
2:1
140
2.0
141
1.0
290
     0
  0
SCALE
  5
55
102
{ACAD_REACTORS
330
47
102
}
330
47
100
AcDbScale
 70
     0
300
4:1
140
4.0
141
1.0
290
     0
  0
SCALE
  5
56
102
{ACAD_REACTORS
330
47
102
}
330
47
100
AcDbScale
 70
     0
300
8:1
140
8.0
141
1.0
290
     0
  0
SCALE
  5
57
102
{ACAD_REACTORS
330
47
102
}
330
47
100
AcDbScale
 70
     0
300
10:1
140
10.0
141
1.0
290
     0
  0
SCALE
  5
58
102
{ACAD_REACTORS
330
47
102
}
330
47
100
AcDbScale
 70
     0
300
100:1
140
100.0
141
1.0
290
     0
  0
SCALE
  5
59
102
{ACAD_REACTORS
330
47
102
}
330
47
100
AcDbScale
 70
     0
300
1/128" = 1'-0"
140
0.0078125
141
12.0
290
     0
  0
SCALE
  5
5A
102
{ACAD_REACTORS
330
47
102
}
330
47
100
AcDbScale
 70
     0
300
1/64" = 1'-0"
140
0.015625
141
12.0
290
     0
  0
SCALE
  5
5B
102
{ACAD_REACTORS
330
47
102
}
330
47
100
AcDbScale
 70
     0
300
1/32" = 1'-0"
140
0.03125
141
12.0
290
     0
  0
SCALE
  5
5C
102
{ACAD_REACTORS
330
47
102
}
330
47
100
AcDbScale
 70
     0
300
1/16" = 1'-0"
140
0.0625
141
12.0
290
     0
  0
SCALE
  5
5D
102
{ACAD_REACTORS
330
47
102
}
330
47
100
AcDbScale
 70
     0
300
3/32" = 1'-0"
140
0.09375
141
12.0
290
     0
  0
SCALE
  5
5E
102
{ACAD_REACTORS
330
47
102
}
330
47
100
AcDbScale
 70
     0
300
1/8" = 1'-0"
140
0.125
141
12.0
290
     0
  0
SCALE
  5
5F
102
{ACAD_REACTORS
330
47
102
}
330
47
100
AcDbScale
 70
     0
300
3/16" = 1'-0"
140
0.1875
141
12.0
290
     0
  0
SCALE
  5
60
102
{ACAD_REACTORS
330
47
102
}
330
47
100
AcDbScale
 70
     0
300
1/4" = 1'-0"
140
0.25
141
12.0
290
     0
  0
SCALE
  5
61
102
{ACAD_REACTORS
330
47
102
}
330
47
100
AcDbScale
 70
     0
300
3/8" = 1'-0"
140
0.375
141
12.0
290
     0
  0
SCALE
  5
62
102
{ACAD_REACTORS
330
47
102
}
330
47
100
AcDbScale
 70
     0
300
1/2" = 1'-0"
140
0.5
141
12.0
290
     0
  0
SCALE
  5
63
102
{ACAD_REACTORS
330
47
102
}
330
47
100
AcDbScale
 70
     0
300
3/4" = 1'-0"
140
0.75
141
12.0
290
     0
  0
SCALE
  5
64
102
{ACAD_REACTORS
330
47
102
}
330
47
100
AcDbScale
 70
     0
300
1" = 1'-0"
140
1.0
141
12.0
290
     0
  0
SCALE
  5
65
102
{ACAD_REACTORS
330
47
102
}
330
47
100
AcDbScale
 70
     0
300
1-1/2" = 1'-0"
140
1.5
141
12.0
290
     0
  0
SCALE
  5
66
102
{ACAD_REACTORS
330
47
102
}
330
47
100
AcDbScale
 70
     0
300
3" = 1'-0"
140
3.0
141
12.0
290
     0
  0
SCALE
  5
67
102
{ACAD_REACTORS
330
47
102
}
330
47
100
AcDbScale
 70
     0
300
6" = 1'-0"
140
6.0
141
12.0
290
     0
  0
SCALE
  5
68
102
{ACAD_REACTORS
330
47
102
}
330
47
100
AcDbScale
 70
     0
300
1'-0" = 1'-0"
140
12.0
141
12.0
290
     0
  0
ENDSEC
  0
EOF
