  0
SECTION
  2
HEADER
  9
$ACADVER
  1
AC1015
  9
$ACADMAINTVER
 70
     6
  9
$DWGCODEPAGE
  3
ANSI_1252
  9
$INSBASE
 10
0.0
 20
0.0
 30
0.0
  9
$EXTMIN
 10
0.0
 20
0.0
 30
0.0
  9
$EXTMAX
 10
300.0
 20
300.0
 30
0.0
  9
$LIMMIN
 10
0.0
 20
0.0
  9
$LIMMAX
 10
300.0
 20
300.0
  9
$ORTHOMODE
 70
     0
  9
$REGENMODE
 70
     1
  9
$FILLMODE
 70
     1
  9
$QTEXTMODE
 70
     0
  9
$MIRRTEXT
 70
     1
  9
$LTSCALE
 40
1.0
  9
$ATTMODE
 70
     1
  9
$TEXTSIZE
 40
3.5
  9
$TRACEWID
 40
1.0
  9
$TEXTSTYLE
  7
Standard
  9
$CLAYER
  8
0
  9
$CELTYPE
  6
ByLayer
  9
$CECOLOR
 62
   256
  9
$CELTSCALE
 40
1.0
  9
$DISPSILH
 70
     0
  9
$DIMSCALE
 40
1.0
  9
$DIMASZ
 40
3.302
  9
$DIMEXO
 40
1.0
  9
$DIMDLI
 40
3.75
  9
$DIMRND
 40
0.0
  9
$DIMDLE
 40
0.0
  9
$DIMEXE
 40
1.0
  9
$DIMTP
 40
0.0
  9
$DIMTM
 40
0.0
  9
$DIMTXT
 40
3.5
  9
$DIMCEN
 40
2.5
  9
$DIMTSZ
 40
0.0
  9
$DIMTOL
 70
     0
  9
$DIMLIM
 70
     0
  9
$DIMTIH
 70
     1
  9
$DIMTOH
 70
     1
  9
$DIMSE1
 70
     0
  9
$DIMSE2
 70
     0
  9
$DIMTAD
 70
     1
  9
$DIMZIN
 70
     0
  9
$DIMBLK
  1

  9
$DIMASO
 70
     1
  9
$DIMSHO
 70
     1
  9
$DIMPOST
  1

  9
$DIMAPOST
  1

  9
$DIMALT
 70
     0
  9
$DIMALTD
 70
     3
  9
$DIMALTF
 40
0.0393700787
  9
$DIMLFAC
 40
5.0
  9
$DIMTOFL
 70
     1
  9
$DIMTVP
 40
0.0
  9
$DIMTIX
 70
     0
  9
$DIMSOXD
 70
     0
  9
$DIMSAH
 70
     0
  9
$DIMBLK1
  1

  9
$DIMBLK2
  1

  9
$DIMSTYLE
  2
ISO-25
  9
$DIMCLRD
 70
     0
  9
$DIMCLRE
 70
     0
  9
$DIMCLRT
 70
     0
  9
$DIMTFAC
 40
1.0
  9
$DIMGAP
 40
1.524
  9
$DIMJUST
 70
     0
  9
$DIMSD1
 70
     0
  9
$DIMSD2
 70
     0
  9
$DIMTOLJ
 70
     0
  9
$DIMTZIN
 70
     0
  9
$DIMALTZ
 70
     0
  9
$DIMALTTZ
 70
     0
  9
$DIMUPT
 70
     0
  9
$DIMDEC
 70
     2
  9
$DIMTDEC
 70
     2
  9
$DIMALTU
 70
     2
  9
$DIMALTTD
 70
     3
  9
$DIMTXSTY
  7
Standard
  9
$DIMAUNIT
 70
     0
  9
$DIMADEC
 70
     2
  9
$DIMALTRND
 40
0.0
  9
$DIMAZIN
 70
     0
  9
$DIMDSEP
 70
    44
  9
$DIMATFIT
 70
     3
  9
$DIMFRAC
 70
     0
  9
$DIMLDRBLK
  1

  9
$DIMLUNIT
 70
     2
  9
$DIMLWD
 70
    -2
  9
$DIMLWE
 70
    -2
  9
$DIMTMOVE
 70
     0
  9
$LUNITS
 70
     2
  9
$LUPREC
 70
     2
  9
$SKETCHINC
 40
1.0
  9
$FILLETRAD
 40
10.0
  9
$AUNITS
 70
     0
  9
$AUPREC
 70
     2
  9
$MENU
  1
.
  9
$ELEVATION
 40
0.0
  9
$PELEVATION
 40
0.0
  9
$THICKNESS
 40
0.0
  9
$LIMCHECK
 70
     0
  9
$CHAMFERA
 40
0.0
  9
$CHAMFERB
 40
0.0
  9
$CHAMFERC
 40
0.0
  9
$CHAMFERD
 40
0.0
  9
$SKPOLY
 70
     0
  9
$TDCREATE
 40
2457890.43575375
  9
$TDUCREATE
 40
2457890.352420417
  9
$TDUPDATE
 40
2457890.435754109
  9
$TDUUPDATE
 40
2457890.352420776
  9
$TDINDWG
 40
0.0000000116
  9
$TDUSRTIMER
 40
0.0000000116
  9
$USRTIMER
 70
     1
  9
$ANGBASE
 50
0.0
  9
$ANGDIR
 70
     0
  9
$PDMODE
 70
     0
  9
$PDSIZE
 40
-1.0
  9
$PLINEWID
 40
0.0
  9
$SPLFRAME
 70
     0
  9
$SPLINETYPE
 70
     6
  9
$SPLINESEGS
 70
     8
  9
$HANDSEED
  5
F4
  9
$SURFTAB1
 70
     6
  9
$SURFTAB2
 70
     6
  9
$SURFTYPE
 70
     6
  9
$SURFU
 70
     6
  9
$SURFV
 70
     6
  9
$UCSBASE
  2

  9
$UCSNAME
  2

  9
$UCSORG
 10
0.0
 20
0.0
 30
0.0
  9
$UCSXDIR
 10
1.0
 20
0.0
 30
0.0
  9
$UCSYDIR
 10
0.0
 20
1.0
 30
0.0
  9
$UCSORTHOREF
  2

  9
$UCSORTHOVIEW
 70
     0
  9
$UCSORGTOP
 10
0.0
 20
0.0
 30
0.0
  9
$UCSORGBOTTOM
 10
0.0
 20
0.0
 30
0.0
  9
$UCSORGLEFT
 10
0.0
 20
0.0
 30
0.0
  9
$UCSORGRIGHT
 10
0.0
 20
0.0
 30
0.0
  9
$UCSORGFRONT
 10
0.0
 20
0.0
 30
0.0
  9
$UCSORGBACK
 10
0.0
 20
0.0
 30
0.0
  9
$PUCSBASE
  2

  9
$PUCSNAME
  2

  9
$PUCSORG
 10
0.0
 20
0.0
 30
0.0
  9
$PUCSXDIR
 10
1.0
 20
0.0
 30
0.0
  9
$PUCSYDIR
 10
0.0
 20
1.0
 30
0.0
  9
$PUCSORTHOREF
  2

  9
$PUCSORTHOVIEW
 70
     0
  9
$PUCSORGTOP
 10
0.0
 20
0.0
 30
0.0
  9
$PUCSORGBOTTOM
 10
0.0
 20
0.0
 30
0.0
  9
$PUCSORGLEFT
 10
0.0
 20
0.0
 30
0.0
  9
$PUCSORGRIGHT
 10
0.0
 20
0.0
 30
0.0
  9
$PUCSORGFRONT
 10
0.0
 20
0.0
 30
0.0
  9
$PUCSORGBACK
 10
0.0
 20
0.0
 30
0.0
  9
$USERI1
 70
     0
  9
$USERI2
 70
     0
  9
$USERI3
 70
     0
  9
$USERI4
 70
     0
  9
$USERI5
 70
     0
  9
$USERR1
 40
0.0
  9
$USERR2
 40
0.0
  9
$USERR3
 40
0.0
  9
$USERR4
 40
0.0
  9
$USERR5
 40
0.0
  9
$WORLDVIEW
 70
     1
  9
$SHADEDGE
 70
     3
  9
$SHADEDIF
 70
    70
  9
$TILEMODE
 70
     1
  9
$MAXACTVP
 70
    64
  9
$PINSBASE
 10
0.0
 20
0.0
 30
0.0
  9
$PLIMCHECK
 70
     0
  9
$PEXTMIN
 10
1.0000000000E+20
 20
1.0000000000E+20
 30
1.0000000000E+20
  9
$PEXTMAX
 10
-1.0000000000E+20
 20
-1.0000000000E+20
 30
-1.0000000000E+20
  9
$PLIMMIN
 10
0.0
 20
0.0
  9
$PLIMMAX
 10
420.0
 20
297.0
  9
$UNITMODE
 70
     0
  9
$VISRETAIN
 70
     1
  9
$PLINEGEN
 70
     0
  9
$PSLTSCALE
 70
     1
  9
$TREEDEPTH
 70
  3020
  9
$CMLSTYLE
  2
Standard
  9
$CMLJUST
 70
     0
  9
$CMLSCALE
 40
20.0
  9
$PROXYGRAPHICS
 70
     1
  9
$MEASUREMENT
 70
     1
  9
$CELWEIGHT
370
    -1
  9
$ENDCAPS
280
     0
  9
$JOINSTYLE
280
     0
  9
$LWDISPLAY
290
     1
  9
$INSUNITS
 70
     4
  9
$HYPERLINKBASE
  1

  9
$STYLESHEET
  1

  9
$XEDIT
290
     1
  9
$CEPSNTYPE
380
     0
  9
$PSTYLEMODE
290
     1
  9
$FINGERPRINTGUID
  2
{55CD2591-24A7-4877-9DB1-779C6BB37AB7}
  9
$VERSIONGUID
  2
{FAEB1C32-E019-11D5-929B-00C0DF256EC4}
  9
$EXTNAMES
290
     1
  9
$PSVPSCALE
 40
0.0
  9
$OLESTARTUP
290
     0
  0
ENDSEC
  0
SECTION
  2
CLASSES
  0
CLASS
  1
ACDBDICTIONARYWDFLT
  2
AcDbDictionaryWithDefault
  3
ObjectDBX Classes
 90
        0
280
     0
281
     0
  0
CLASS
  1
VISUALSTYLE
  2
AcDbVisualStyle
  3
ObjectDBX Classes
 90
     4095
280
     0
281
     0
  0
CLASS
  1
MATERIAL
  2
AcDbMaterial
  3
ObjectDBX Classes
 90
     1153
280
     0
281
     0
  0
CLASS
  1
SCALE
  2
AcDbScale
  3
ObjectDBX Classes
 90
     1153
280
     0
281
     0
  0
CLASS
  1
TABLESTYLE
  2
AcDbTableStyle
  3
ObjectDBX Classes
 90
     4095
280
     0
281
     0
  0
CLASS
  1
MLEADERSTYLE
  2
AcDbMLeaderStyle
  3
ACDB_MLEADERSTYLE_CLASS
 90
     4095
280
     0
281
     0
  0
CLASS
  1
SUN
  2
AcDbSun
  3
SCENEOE
 90
     1153
280
     0
281
     0
  0
CLASS
  1
ACDBPLACEHOLDER
  2
AcDbPlaceHolder
  3
ObjectDBX Classes
 90
        0
280
     0
281
     0
  0
CLASS
  1
LAYOUT
  2
AcDbLayout
  3
ObjectDBX Classes
 90
        0
280
     0
281
     0
  0
ENDSEC
  0
SECTION
  2
TABLES
  0
TABLE
  2
VPORT
  5
8
330
0
100
AcDbSymbolTable
 70
     1
  0
VPORT
  5
29
330
8
100
AcDbSymbolTableRecord
100
AcDbViewportTableRecord
  2
*Active
 70
     0
 10
0.0
 20
0.0
 11
1.0
 21
1.0
 12
150.0
 22
150.0
 13
0.0
 23
0.0
 14
10.0
 24
10.0
 15
10.0
 25
10.0
 16
0.0
 26
0.0
 36
1.0
 17
0.0
 27
0.0
 37
0.0
 40
300.0
 41
1.0
 42
50.0
 43
0.0
 44
0.0
 50
0.0
 51
0.0
 71
     0
 72
  2000
 73
     1
 74
     3
 75
     0
 76
     0
 77
     0
 78
     0
281
     0
 65
     1
110
0.0
120
0.0
130
0.0
111
1.0
121
0.0
131
0.0
112
0.0
122
1.0
132
0.0
 79
     0
146
0.0
  0
ENDTAB
  0
TABLE
  2
LTYPE
  5
5
330
0
100
AcDbSymbolTable
 70
     6
  0
LTYPE
  5
14
330
5
100
AcDbSymbolTableRecord
100
AcDbLinetypeTableRecord
  2
ByBlock
 70
     0
  3

 72
    65
 73
     0
 40
0.0
  0
LTYPE
  5
15
330
5
100
AcDbSymbolTableRecord
100
AcDbLinetypeTableRecord
  2
ByLayer
 70
     0
  3

 72
    65
 73
     0
 40
0.0
  0
LTYPE
  5
16
330
5
100
AcDbSymbolTableRecord
100
AcDbLinetypeTableRecord
  2
Continuous
 70
     0
  3
Solid line
 72
    65
 73
     0
 40
0.0
  0
LTYPE
  5
6E
330
5
100
AcDbSymbolTableRecord
100
AcDbLinetypeTableRecord
  2
HIDDEN
 70
     0
  3
Hidden __ __ __ __ __ __ __ __ __ __ __ __ __ __
 72
    65
 73
     2
 40
1.905
 49
1.27
 74
     0
 49
-0.635
 74
     0
  0
LTYPE
  5
6F
330
5
100
AcDbSymbolTableRecord
100
AcDbLinetypeTableRecord
  2
PHANTOM
 70
     0
  3
Phantom ______  __  __  ______  __  __  ______
 72
    65
 73
     6
 40
12.7
 49
6.35
 74
     0
 49
-1.27
 74
     0
 49
1.27
 74
     0
 49
-1.27
 74
     0
 49
1.27
 74
     0
 49
-1.27
 74
     0
  0
LTYPE
  5
70
330
5
100
AcDbSymbolTableRecord
100
AcDbLinetypeTableRecord
  2
CENTER
 70
     0
  3
Center ____ _ ____ _ ____ _ ____ _ ____ _ ____
 72
    65
 73
     4
 40
10.16
 49
6.35
 74
     0
 49
-1.27
 74
     0
 49
1.27
 74
     0
 49
-1.27
 74
     0
  0
LTYPE
  5
71
330
5
100
AcDbSymbolTableRecord
100
AcDbLinetypeTableRecord
  2
CENTERX2
 70
     0
  3
Center (2x) ________  __  ________  __  _____
 72
    65
 73
     4
 40
20.32
 49
12.7
 74
     0
 49
-2.54
 74
     0
 49
2.54
 74
     0
 49
-2.54
 74
     0
  0
LTYPE
  5
72
330
5
100
AcDbSymbolTableRecord
100
AcDbLinetypeTableRecord
  2
DOT2
 70
     0
  3
Dot (.5x) ........................................
 72
    65
 73
     2
 40
0.635
 49
0.0
 74
     0
 49
-0.635
 74
     0
  0
ENDTAB
  0
TABLE
  2
LAYER
  5
2
330
0
100
AcDbSymbolTable
 70
     1
  0
LAYER
  5
10
330
2
100
AcDbSymbolTableRecord
100
AcDbLayerTableRecord
  2
0
 70
     0
 62
     7
  6
Continuous
370
    -3
390
F
  0
ENDTAB
  0
TABLE
  2
STYLE
  5
3
330
0
100
AcDbSymbolTable
 70
     1
  0
STYLE
  5
11
330
3
100
AcDbSymbolTableRecord
100
AcDbTextStyleTableRecord
  2
Standard
 70
     0
 40
0.0
 41
1.0
 50
0.0
 71
     0
 42
3.5
  3
txt
  4

  0
ENDTAB
  0
TABLE
  2
VIEW
  5
6
330
0
100
AcDbSymbolTable
 70
     0
  0
ENDTAB
  0
TABLE
  2
UCS
  5
7
330
0
100
AcDbSymbolTable
 70
     0
  0
ENDTAB
  0
TABLE
  2
APPID
  5
9
330
0
100
AcDbSymbolTable
 70
     1
  0
APPID
  5
12
330
9
100
AcDbSymbolTableRecord
100
AcDbRegAppTableRecord
  2
ACAD
 70
     0
  0
ENDTAB
  0
TABLE
  2
DIMSTYLE
  5
A
330
0
100
AcDbSymbolTable
 70
     1
100
AcDbDimStyleTable
  0
DIMSTYLE
105
27
330
A
100
AcDbSymbolTableRecord
100
AcDbDimStyleTableRecord
  2
ISO-25
 70
     0
 41
2.5
 42
0.625
 43
3.75
 44
1.25
 73
     0
 74
     0
 77
     1
 78
     8
140
2.5
141
2.5
143
0.0393700787
147
0.625
171
     3
172
     1
178
     0
271
     2
272
     2
274
     3
278
    44
283
     0
284
     8
340
11
  0
ENDTAB
  0
TABLE
  2
BLOCK_RECORD
  5
1
330
0
100
AcDbSymbolTable
 70
     1
  0
BLOCK_RECORD
  5
1F
330
1
100
AcDbSymbolTableRecord
100
AcDbBlockTableRecord
  2
*Model_Space
340
22
  0
BLOCK_RECORD
  5
1B
330
1
100
AcDbSymbolTableRecord
100
AcDbBlockTableRecord
  2
*Paper_Space
340
1E
  0
BLOCK_RECORD
  5
23
330
1
100
AcDbSymbolTableRecord
100
AcDbBlockTableRecord
  2
*Paper_Space0
340
26
  0
ENDTAB
  0
ENDSEC
  0
SECTION
  2
BLOCKS
  0
BLOCK
  5
20
330
1F
100
AcDbEntity
  8
0
100
AcDbBlockBegin
  2
*Model_Space
 70
     0
 10
0.0
 20
0.0
 30
0.0
  3
*Model_Space
  1

  0
ENDBLK
  5
21
330
1F
100
AcDbEntity
  8
0
100
AcDbBlockEnd
  0
BLOCK
  5
1C
330
1B
100
AcDbEntity
 67
     1
  8
0
100
AcDbBlockBegin
  2
*Paper_Space
 70
     0
 10
0.0
 20
0.0
 30
0.0
  3
*Paper_Space
  1

  0
ENDBLK
  5
1D
330
1B
100
AcDbEntity
 67
     1
  8
0
100
AcDbBlockEnd
  0
BLOCK
  5
24
330
23
100
AcDbEntity
  8
0
100
AcDbBlockBegin
  2
*Paper_Space0
 70
     0
 10
0.0
 20
0.0
 30
0.0
  3
*Paper_Space0
  1

  0
ENDBLK
  5
25
330
23
100
AcDbEntity
  8
0
100
AcDbBlockEnd
  0
ENDSEC
  0
SECTION
  2
ENTITIES
  0
LWPOLYLINE
  5
73
330
1F
100
AcDbEntity
  8
0
  6
Continuous
 62
     7
100
AcDbPolyline
 90
       62
 70
   128
 43
0.0
 10
178.2183390035
 20
162.4278100775
 10
179.3540691851
 20
162.4278100775
 10
179.3540691851
 20
162.4278100775
 10
179.5208118066
 20
162.4254780129
 10
179.6770601373
 20
162.4173157867
 10
179.8239802094
 20
162.4044894312
 10
179.9604059907
 20
162.3858329141
 10
180.0875035134
 20
162.3625122677
 10
180.2041067452
 20
162.334527492
 10
180.3113817185
 20
162.3007125548
 10
180.4081624009
 20
162.261067456
 10
180.5830672487
 20
162.1666188382
 10
180.738149547
 20
162.0511816387
 10
180.873409296
 20
161.9112577605
 10
180.9900125278
 20
161.7503453005
 10
181.0832951133
 20
161.5731083881
 10
181.1497589554
 20
161.3877092495
 10
181.1905700866
 20
161.1906497877
 10
181.2033964421
 20
160.9854280997
 10
181.2033964421
 20
160.9854280997
 10
181.1929021512
 20
160.7930327672
 10
181.1602532463
 20
160.6099656932
 10
181.1066157596
 20
160.4350608454
 10
181.0319896913
 20
160.2694842562
 10
180.9363750412
 20
160.1167340225
 10
180.822103874
 20
159.9779761766
 10
180.6856780927
 20
159.8555427832
 10
180.5305957944
 20
159.7471017776
 10
180.5305957944
 20
159.7471017776
 10
180.7276552562
 20
159.6678115799
 10
180.9013940716
 20
159.5815251884
 10
181.049480176
 20
159.4882426029
 10
181.1742456341
 20
159.3879638235
 10
181.2815206074
 20
159.2795228179
 10
181.3748031929
 20
159.1617535537
 10
181.4564254551
 20
159.0311579341
 10
181.5252213619
 20
158.8912340559
 10
181.5800248809
 20
158.7419819191
 10
181.6196699797
 20
158.5880656531
 10
181.6429906261
 20
158.4259871609
 10
181.6511528523
 20
158.2592445393
 10
181.6511528523
 20
158.2592445393
 10
181.6429906261
 20
158.0890038208
 10
181.6196699797
 20
157.9257592963
 10
181.5800248809
 20
157.7695109656
 10
181.5252213619
 20
157.6202588289
 10
181.4540933905
 20
157.4768368537
 10
181.3666409666
 20
157.3392450401
 10
181.2640301226
 20
157.2098154528
 10
181.1462608585
 20
157.086216027
 10
181.0144992065
 20
156.9742769245
 10
180.8722432636
 20
156.8763302097
 10
180.7194930299
 20
156.7947079474
 10
180.5562485054
 20
156.727078073
 10
180.3813436576
 20
156.6746066187
 10
180.195944519
 20
156.6372935845
 10
180.0000510895
 20
156.6139729381
 10
179.7924973368
 20
156.6069767442
 10
179.7924973368
 20
156.6069767442
 10
178.218353707
 20
156.6069767442
 10
178.218353707
 20
156.6069767442
 10
178.218353707
 20
162.4278100775
  0
LWPOLYLINE
  5
74
330
1F
100
AcDbEntity
  8
0
  6
Continuous
 62
     7
100
AcDbPolyline
 90
       40
 70
   128
 43
0.0
 10
178.7407290115
 20
161.8308015305
 10
178.7407361856
 20
159.9651498211
 10
178.7407361856
 20
159.9651498211
 10
179.0917119135
 20
159.9651498211
 10
179.0917119135
 20
159.9651498211
 10
179.2456281795
 20
159.9674818857
 10
179.3890501547
 20
159.972146015
 10
179.521977839
 20
159.9814742736
 10
179.6455772647
 20
159.9931345968
 10
179.756350335
 20
160.0094590492
 10
179.8577951467
 20
160.0292815986
 10
179.9487456675
 20
160.0514362127
 10
180.0292018975
 20
160.078254956
 10
180.1714578403
 20
160.1423867335
 10
180.298555363
 20
160.2240089958
 10
180.4093284332
 20
160.3207896782
 10
180.5049430834
 20
160.4338948131
 10
180.5819012164
 20
160.5586602712
 10
180.6367047353
 20
160.6915879555
 10
180.6705196726
 20
160.829179769
 10
180.6810139634
 20
160.9749338088
 10
180.6810139634
 20
160.9749338088
 10
180.6763498342
 20
161.0717144912
 10
180.6623574463
 20
161.1638310444
 10
180.6390368
 20
161.250117436
 10
180.6075539274
 20
161.3317396982
 10
180.5655767639
 20
161.4075317989
 10
180.5154373742
 20
161.477493738
 10
180.4548036937
 20
161.5427915479
 10
180.3860077869
 20
161.6022591961
 10
180.3067175892
 20
161.6558966828
 10
180.2169331007
 20
161.7025379755
 10
180.1166543213
 20
161.741017042
 10
180.0047152188
 20
161.7736659469
 10
179.8822818253
 20
161.7981526256
 10
179.749354141
 20
161.8168091427
 10
179.6047661336
 20
161.8273034336
 10
179.4496838352
 20
161.8308015305
 10
179.4496838352
 20
161.8308015305
 10
178.7407361856
 20
161.8308015305
  0
LWPOLYLINE
  5
75
330
1F
100
AcDbEntity
  8
0
  6
Continuous
 62
     7
100
AcDbPolyline
 90
       45
 70
   128
 43
0.0
 10
178.7407290115
 20
159.3681412741
 10
178.7407361856
 20
157.2039852912
 10
178.7407361856
 20
157.2039852912
 10
179.4846648048
 20
157.2039852912
 10
179.4846648048
 20
157.2039852912
 10
179.6444112324
 20
157.2063173558
 10
179.7924973368
 20
157.2109814851
 10
179.9289231181
 20
157.2203097437
 10
180.0560206408
 20
157.2343021315
 10
180.170291808
 20
157.2506265839
 10
180.2752347166
 20
157.2716151657
 10
180.3685173021
 20
157.2961018443
 10
180.4501395644
 20
157.32408662
 10
180.5958936042
 20
157.3928825268
 10
180.7264892238
 20
157.4791689183
 10
180.8419264234
 20
157.5817797623
 10
180.9422052027
 20
157.7018810911
 10
181.023827465
 20
157.8336427431
 10
181.0821290809
 20
157.9700685244
 10
181.1171100505
 20
158.1123244672
 10
181.1287703737
 20
158.2592445393
 10
181.1287703737
 20
158.2592445393
 10
181.1252722767
 20
158.3513610925
 10
181.1124459212
 20
158.441145581
 10
181.0926233718
 20
158.5274319726
 10
181.0658046285
 20
158.6113862995
 10
181.0296576266
 20
158.6906764971
 10
180.9853483985
 20
158.7688006625
 10
180.9340429765
 20
158.8434267308
 10
180.8745753283
 20
158.9145547023
 10
180.7358174824
 20
159.0439842896
 10
180.5725729578
 20
159.1512592629
 10
180.3860077869
 20
159.2363796221
 10
180.1761219696
 20
159.2993453673
 10
180.1761219696
 20
159.2993453673
 10
180.0910016103
 20
159.3156698198
 10
179.9907228309
 20
159.3296622076
 10
179.8764516637
 20
159.3413225308
 10
179.7481881087
 20
159.3506507893
 10
179.6047661336
 20
159.3588130156
 10
179.4461857383
 20
159.3634771448
 10
179.2736129551
 20
159.3669752418
 10
179.0870477842
 20
159.3681412741
 10
179.0870477842
 20
159.3681412741
 10
178.7407361856
 20
159.3681412741
  0
LWPOLYLINE
  5
76
330
1F
100
AcDbEntity
  8
0
  6
Continuous
 62
     7
100
AcDbPolyline
 90
       65
 70
   128
 43
0.0
 10
185.0093197002
 20
162.5770622143
 10
185.4116070791
 20
162.261067456
 10
185.4116070791
 20
162.261067456
 10
183.8736104511
 20
159.9091802698
 10
183.8736104511
 20
159.9091802698
 10
184.1814429832
 20
159.9511574333
 10
184.4764491597
 20
159.9651498211
 10
184.4764491597
 20
159.9651498211
 10
184.6536860721
 20
159.9569875949
 10
184.8239267906
 20
159.9336669485
 10
184.9871713152
 20
159.895187882
 10
185.1434196459
 20
159.840384363
 10
185.2926717826
 20
159.7704224239
 10
185.4360937578
 20
159.6853020647
 10
185.5713535067
 20
159.583857253
 10
185.700783094
 20
159.4672540212
 10
185.8185523582
 20
159.3389904661
 10
185.9211632022
 20
159.2037307172
 10
186.0074495938
 20
159.0614747744
 10
186.0774115329
 20
158.9122226376
 10
186.1322150518
 20
158.7548082746
 10
186.1718601507
 20
158.5903977177
 10
186.195180797
 20
158.4189909669
 10
186.2033430233
 20
158.2405880222
 10
186.2033430233
 20
158.2405880222
 10
186.1893506354
 20
157.9968872677
 10
186.1450414073
 20
157.7648468363
 10
186.0727474036
 20
157.5456327605
 10
185.9701365596
 20
157.3369129755
 10
185.8418730046
 20
157.1456836753
 10
185.6879567385
 20
156.9754429568
 10
185.5107198261
 20
156.8250247877
 10
185.3078302027
 20
156.6955952004
 10
185.0897821592
 20
156.591818324
 10
184.8624058571
 20
156.5171922557
 10
184.6280333611
 20
156.4728830276
 10
184.3843326066
 20
156.4577246074
 10
184.3843326066
 20
156.4577246074
 10
184.1499601106
 20
156.4717169953
 10
183.9237498408
 20
156.514860191
 10
183.7057017973
 20
156.5871541948
 10
183.4969820123
 20
156.6874329742
 10
183.3034206475
 20
156.8145304969
 10
183.1320138967
 20
156.9649486659
 10
182.9815957276
 20
157.1386874814
 10
182.8544982049
 20
157.3357469432
 10
182.7530533932
 20
157.5491308574
 10
182.6795933571
 20
157.7683449333
 10
182.6364501613
 20
157.9957212354
 10
182.6212917412
 20
158.2300937314
 10
182.6212917412
 20
158.2300937314
 10
182.6306199998
 20
158.4096627084
 10
182.6574387431
 20
158.595061847
 10
182.7017479712
 20
158.7839590826
 10
182.763547684
 20
158.9775204474
 10
182.8031927829
 20
159.0777992268
 10
182.8486680433
 20
159.1839081678
 10
182.9023055299
 20
159.2935152057
 10
182.9617731782
 20
159.4089524052
 10
183.0294030526
 20
159.5302197664
 10
183.1028630887
 20
159.6549852244
 10
183.184485351
 20
159.7855808441
 10
183.2719377749
 20
159.920840593
 10
183.2719377749
 20
159.920840593
 10
185.0093259292
 20
162.5770622143
  0
LWPOLYLINE
  5
77
330
1F
100
AcDbEntity
  8
0
  6
Continuous
 62
     7
100
AcDbPolyline
 90
       68
 70
   128
 43
0.0
 10
184.3668412342
 20
159.3681412741
 10
184.2339144375
 20
159.3623111125
 10
184.1079829471
 20
159.3471526924
 10
183.9878816183
 20
159.320333949
 10
183.8736104511
 20
159.2841869472
 10
183.7663354778
 20
159.2363796221
 10
183.6660566985
 20
159.1780780062
 10
183.5716080807
 20
159.1092820994
 10
183.4829896245
 20
159.0299919018
 10
183.4036994268
 20
158.9437055102
 10
183.3349035201
 20
158.8515889571
 10
183.2766019041
 20
158.755974307
 10
183.2287945791
 20
158.6556955276
 10
183.1914815449
 20
158.5507526189
 10
183.1646628016
 20
158.441145581
 10
183.1495043814
 20
158.3280404461
 10
183.1436742198
 20
158.2091051496
 10
183.1436742198
 20
158.2091051496
 10
183.1495043814
 20
158.0913358855
 10
183.1669948662
 20
157.9793967829
 10
183.1961456742
 20
157.869789745
 10
183.2369568053
 20
157.7660128687
 10
183.2882622273
 20
157.6657340893
 10
183.3523940048
 20
157.5712854715
 10
183.4270200732
 20
157.4791689183
 10
183.5144724971
 20
157.3928825268
 10
183.6100871472
 20
157.3135923291
 10
183.7103659266
 20
157.2447964223
 10
183.8153088352
 20
157.1864948064
 10
183.9249158731
 20
157.1398535137
 10
184.0391870403
 20
157.1025404795
 10
184.1592883691
 20
157.0757217362
 10
184.2828877949
 20
157.060563316
 10
184.4123173822
 20
157.0547331544
 10
184.4123173822
 20
157.0547331544
 10
184.5417469696
 20
157.060563316
 10
184.6653463953
 20
157.0757217362
 10
184.7854477241
 20
157.1025404795
 10
184.8997188913
 20
157.1398535137
 10
185.0093259292
 20
157.1864948064
 10
185.1142688379
 20
157.2447964223
 10
185.213381585
 20
157.3135923291
 10
185.3089962351
 20
157.3928825268
 10
185.3964486589
 20
157.4791689183
 10
185.4722407596
 20
157.5712854715
 10
185.5352065048
 20
157.6657340893
 10
185.5876779592
 20
157.7660128687
 10
185.6284890903
 20
157.869789745
 10
185.6576398983
 20
157.9793967829
 10
185.675130383
 20
158.0913358855
 10
185.6809605446
 20
158.2091051496
 10
185.6809605446
 20
158.2091051496
 10
185.675130383
 20
158.3280404461
 10
185.6564738659
 20
158.441145581
 10
185.627323058
 20
158.5507526189
 10
185.5853458945
 20
158.6556955276
 10
185.5305423756
 20
158.755974307
 10
185.4640785334
 20
158.8515889571
 10
185.3859543681
 20
158.9437055102
 10
185.2961698796
 20
159.0299919018
 10
185.1970571325
 20
159.1092820994
 10
185.0932802562
 20
159.1780780062
 10
184.9848392506
 20
159.2363796221
 10
184.8717341157
 20
159.2841869472
 10
184.7527988192
 20
159.320333949
 10
184.6291993934
 20
159.3471526924
 10
184.5009358384
 20
159.3623111125
 10
184.3668421218
 20
159.3681412741
  0
LINE
  5
78
330
1F
100
AcDbEntity
  8
0
  6
Continuous
 62
     7
370
    25
100
AcDbLine
 10
264.5515873254
 20
161.1069767442
 30
0.0
 11
254.5515873254
 21
161.1069767442
 31
0.0
  0
LINE
  5
79
330
1F
100
AcDbEntity
  8
0
  6
Continuous
 62
     7
370
    25
100
AcDbLine
 10
254.5515873254
 20
161.1069767442
 30
0.0
 11
254.5515873254
 21
158.1069767442
 31
0.0
  0
LINE
  5
7A
330
1F
100
AcDbEntity
  8
0
  6
Continuous
 62
     7
370
    25
100
AcDbLine
 10
254.5515873254
 20
158.1069767442
 30
0.0
 11
264.5515873254
 21
158.1069767442
 31
0.0
  0
ARC
  5
7B
330
1F
100
AcDbEntity
  8
0
  6
Continuous
 62
     7
370
    25
100
AcDbCircle
 10
157.4720930233
 20
159.6069767442
 30
0.0
 40
107.09
100
AcDbArc
 50
315.8025630758
 51
359.1974369242
  0
LINE
  5
7C
330
1F
100
AcDbEntity
  8
0
  6
Continuous
 62
     7
370
    25
100
AcDbLine
 10
234.2493897421
 20
84.9510003689
 30
0.0
 11
227.1783219302
 21
92.0220681808
 31
0.0
  0
LINE
  5
7D
330
1F
100
AcDbEntity
  8
0
  6
Continuous
 62
     7
370
    25
100
AcDbLine
 10
227.1783219302
 20
92.0220681808
 30
0.0
 11
225.0570015867
 21
89.9007478372
 31
0.0
  0
LINE
  5
7E
330
1F
100
AcDbEntity
  8
0
  6
Continuous
 62
     7
370
    25
100
AcDbLine
 10
225.0570015867
 20
89.9007478372
 30
0.0
 11
232.1280693985
 21
82.8296800253
 31
0.0
  0
ARC
  5
7F
330
1F
100
AcDbEntity
  8
0
  6
Continuous
 62
     7
370
    25
100
AcDbCircle
 10
157.4720930233
 20
159.6069767442
 30
0.0
 40
107.09
100
AcDbArc
 50
270.8025630758
 51
314.1974369242
  0
LINE
  5
80
330
1F
100
AcDbEntity
  8
0
  6
Continuous
 62
     7
370
    25
100
AcDbLine
 10
158.9720930233
 20
52.5274824421
 30
0.0
 11
158.9720930233
 21
62.5274824421
 31
0.0
  0
LINE
  5
81
330
1F
100
AcDbEntity
  8
0
  6
Continuous
 62
     7
370
    25
100
AcDbLine
 10
158.9720930233
 20
62.5274824421
 30
0.0
 11
155.9720930233
 21
62.5274824421
 31
0.0
  0
LINE
  5
82
330
1F
100
AcDbEntity
  8
0
  6
Continuous
 62
     7
370
    25
100
AcDbLine
 10
155.9720930233
 20
62.5274824421
 30
0.0
 11
155.9720930233
 21
52.5274824421
 31
0.0
  0
ARC
  5
83
330
1F
100
AcDbEntity
  8
0
  6
Continuous
 62
     7
370
    25
100
AcDbCircle
 10
157.4720930233
 20
159.6069767442
 30
0.0
 40
107.09
100
AcDbArc
 50
225.8025630758
 51
269.1974369242
  0
LINE
  5
84
330
1F
100
AcDbEntity
  8
0
  6
Continuous
 62
     7
370
    25
100
AcDbLine
 10
82.816116648
 20
82.8296800253
 30
0.0
 11
89.8871844598
 21
89.9007478372
 31
0.0
  0
LINE
  5
85
330
1F
100
AcDbEntity
  8
0
  6
Continuous
 62
     7
370
    25
100
AcDbLine
 10
89.8871844598
 20
89.9007478372
 30
0.0
 11
87.7658641163
 21
92.0220681808
 31
0.0
  0
LINE
  5
86
330
1F
100
AcDbEntity
  8
0
  6
Continuous
 62
     7
370
    25
100
AcDbLine
 10
87.7658641163
 20
92.0220681808
 30
0.0
 11
80.6947963044
 21
84.9510003689
 31
0.0
  0
ARC
  5
87
330
1F
100
AcDbEntity
  8
0
  6
Continuous
 62
     7
370
    25
100
AcDbCircle
 10
157.4720930233
 20
159.6069767442
 30
0.0
 40
107.09
100
AcDbArc
 50
180.8025630758
 51
224.1974369242
  0
LINE
  5
88
330
1F
100
AcDbEntity
  8
0
  6
Continuous
 62
     7
370
    25
100
AcDbLine
 10
50.3925987211
 20
158.1069767442
 30
0.0
 11
60.3925987211
 21
158.1069767442
 31
0.0
  0
LINE
  5
89
330
1F
100
AcDbEntity
  8
0
  6
Continuous
 62
     7
370
    25
100
AcDbLine
 10
60.3925987211
 20
158.1069767442
 30
0.0
 11
60.3925987211
 21
161.1069767442
 31
0.0
  0
LINE
  5
8A
330
1F
100
AcDbEntity
  8
0
  6
Continuous
 62
     7
370
    25
100
AcDbLine
 10
60.3925987211
 20
161.1069767442
 30
0.0
 11
50.3925987211
 21
161.1069767442
 31
0.0
  0
ARC
  5
8B
330
1F
100
AcDbEntity
  8
0
  6
Continuous
 62
     7
370
    25
100
AcDbCircle
 10
157.4720930233
 20
159.6069767442
 30
0.0
 40
107.09
100
AcDbArc
 50
135.8025630758
 51
179.1974369242
  0
LINE
  5
8C
330
1F
100
AcDbEntity
  8
0
  6
Continuous
 62
     7
370
    25
100
AcDbLine
 10
80.6947963044
 20
234.2629531195
 30
0.0
 11
87.7658641163
 21
227.1918853076
 31
0.0
  0
LINE
  5
8D
330
1F
100
AcDbEntity
  8
0
  6
Continuous
 62
     7
370
    25
100
AcDbLine
 10
87.7658641163
 20
227.1918853076
 30
0.0
 11
89.8871844598
 21
229.3132056512
 31
0.0
  0
LINE
  5
8E
330
1F
100
AcDbEntity
  8
0
  6
Continuous
 62
     7
370
    25
100
AcDbLine
 10
89.8871844598
 20
229.3132056512
 30
0.0
 11
82.816116648
 21
236.384273463
 31
0.0
  0
ARC
  5
8F
330
1F
100
AcDbEntity
  8
0
  6
Continuous
 62
     7
370
    25
100
AcDbCircle
 10
157.4720930233
 20
159.6069767442
 30
0.0
 40
107.09
100
AcDbArc
 50
90.8025630758
 51
134.1974369242
  0
LINE
  5
90
330
1F
100
AcDbEntity
  8
0
  6
Continuous
 62
     7
370
    25
100
AcDbLine
 10
155.9720930233
 20
266.6864710463
 30
0.0
 11
155.9720930233
 21
256.6864710463
 31
0.0
  0
LINE
  5
91
330
1F
100
AcDbEntity
  8
0
  6
Continuous
 62
     7
370
    25
100
AcDbLine
 10
155.9720930233
 20
256.6864710463
 30
0.0
 11
158.9720930233
 21
256.6864710463
 31
0.0
  0
LINE
  5
92
330
1F
100
AcDbEntity
  8
0
  6
Continuous
 62
     7
370
    25
100
AcDbLine
 10
158.9720930233
 20
256.6864710463
 30
0.0
 11
158.9720930233
 21
266.6864710463
 31
0.0
  0
LINE
  5
93
330
1F
100
AcDbEntity
  8
0
  6
Continuous
 62
     7
370
    25
100
AcDbLine
 10
232.1280693985
 20
236.384273463
 30
0.0
 11
225.0570015867
 21
229.3132056512
 31
0.0
  0
LINE
  5
94
330
1F
100
AcDbEntity
  8
0
  6
Continuous
 62
     7
370
    25
100
AcDbLine
 10
225.0570015867
 20
229.3132056512
 30
0.0
 11
227.1783219302
 21
227.1918853076
 31
0.0
  0
LINE
  5
95
330
1F
100
AcDbEntity
  8
0
  6
Continuous
 62
     7
370
    25
100
AcDbLine
 10
227.1783219302
 20
227.1918853076
 30
0.0
 11
234.2493897421
 21
234.2629531195
 31
0.0
  0
LINE
  5
96
330
1F
100
AcDbEntity
  8
0
  6
Continuous
 62
     7
370
    25
100
AcDbLine
 10
152.4720930233
 20
250.6864710463
 30
0.0
 11
155.4720930233
 21
250.6864710463
 31
0.0
  0
LINE
  5
97
330
1F
100
AcDbEntity
  8
0
  6
Continuous
 62
     7
370
    25
100
AcDbLine
 10
155.4720930233
 20
250.6864710463
 30
0.0
 11
155.4720930233
 21
255.6864710463
 31
0.0
  0
LINE
  5
98
330
1F
100
AcDbEntity
  8
0
  6
Continuous
 62
     7
370
    25
100
AcDbLine
 10
155.4720930233
 20
255.6864710463
 30
0.0
 11
152.4720930233
 21
255.6864710463
 31
0.0
  0
LINE
  5
99
330
1F
100
AcDbEntity
  8
0
  6
Continuous
 62
     7
370
    25
100
AcDbLine
 10
152.4720930233
 20
255.6864710463
 30
0.0
 11
152.4720930233
 21
250.6864710463
 31
0.0
  0
LINE
  5
9A
330
1F
100
AcDbEntity
  8
0
  6
Continuous
 62
     7
370
    25
100
AcDbLine
 10
159.4720930233
 20
255.6864710463
 30
0.0
 11
159.4720930233
 21
250.6864710463
 31
0.0
  0
LINE
  5
9B
330
1F
100
AcDbEntity
  8
0
  6
Continuous
 62
     7
370
    25
100
AcDbLine
 10
159.4720930233
 20
250.6864710463
 30
0.0
 11
162.4720930233
 21
250.6864710463
 31
0.0
  0
LINE
  5
9C
330
1F
100
AcDbEntity
  8
0
  6
Continuous
 62
     7
370
    25
100
AcDbLine
 10
162.4720930233
 20
250.6864710463
 30
0.0
 11
162.4720930233
 21
255.6864710463
 31
0.0
  0
LINE
  5
9D
330
1F
100
AcDbEntity
  8
0
  6
Continuous
 62
     7
370
    25
100
AcDbLine
 10
162.4720930233
 20
255.6864710463
 30
0.0
 11
159.4720930233
 21
255.6864710463
 31
0.0
  0
LINE
  5
9E
330
1F
100
AcDbEntity
  8
0
  6
Continuous
 62
     7
370
    25
100
AcDbLine
 10
89.5336310692
 20
220.4743708863
 30
0.0
 11
91.6549514128
 21
222.5956912299
 31
0.0
  0
LINE
  5
9F
330
1F
100
AcDbEntity
  8
0
  6
Continuous
 62
     7
370
    25
100
AcDbLine
 10
91.6549514128
 20
222.5956912299
 30
0.0
 11
88.1194175069
 21
226.1312251358
 31
0.0
  0
LINE
  5
A0
330
1F
100
AcDbEntity
  8
0
  6
Continuous
 62
     7
370
    25
100
AcDbLine
 10
88.1194175069
 20
226.1312251358
 30
0.0
 11
85.9980971633
 21
224.0099047923
 31
0.0
  0
LINE
  5
A1
330
1F
100
AcDbEntity
  8
0
  6
Continuous
 62
     7
370
    25
100
AcDbLine
 10
85.9980971633
 20
224.0099047923
 30
0.0
 11
89.5336310692
 21
220.4743708863
 31
0.0
  0
LINE
  5
A2
330
1F
100
AcDbEntity
  8
0
  6
Continuous
 62
     7
370
    25
100
AcDbLine
 10
90.9478446316
 20
228.9596522606
 30
0.0
 11
94.4833785376
 21
225.4241183546
 31
0.0
  0
LINE
  5
A3
330
1F
100
AcDbEntity
  8
0
  6
Continuous
 62
     7
370
    25
100
AcDbLine
 10
94.4833785376
 20
225.4241183546
 30
0.0
 11
96.6046988811
 21
227.5454386982
 31
0.0
  0
LINE
  5
A4
330
1F
100
AcDbEntity
  8
0
  6
Continuous
 62
     7
370
    25
100
AcDbLine
 10
96.6046988811
 20
227.5454386982
 30
0.0
 11
93.0691649752
 21
231.0809726041
 31
0.0
  0
LINE
  5
A5
330
1F
100
AcDbEntity
  8
0
  6
Continuous
 62
     7
370
    25
100
AcDbLine
 10
93.0691649752
 20
231.0809726041
 30
0.0
 11
90.9478446316
 21
228.9596522606
 31
0.0
  0
LINE
  5
A6
330
1F
100
AcDbEntity
  8
0
  6
Continuous
 62
     7
370
    25
100
AcDbLine
 10
66.3925987211
 20
154.6069767442
 30
0.0
 11
66.3925987211
 21
157.6069767442
 31
0.0
  0
LINE
  5
A7
330
1F
100
AcDbEntity
  8
0
  6
Continuous
 62
     7
370
    25
100
AcDbLine
 10
66.3925987211
 20
157.6069767442
 30
0.0
 11
61.3925987211
 21
157.6069767442
 31
0.0
  0
LINE
  5
A8
330
1F
100
AcDbEntity
  8
0
  6
Continuous
 62
     7
370
    25
100
AcDbLine
 10
61.3925987211
 20
157.6069767442
 30
0.0
 11
61.3925987211
 21
154.6069767442
 31
0.0
  0
LINE
  5
A9
330
1F
100
AcDbEntity
  8
0
  6
Continuous
 62
     7
370
    25
100
AcDbLine
 10
61.3925987211
 20
154.6069767442
 30
0.0
 11
66.3925987211
 21
154.6069767442
 31
0.0
  0
LINE
  5
AA
330
1F
100
AcDbEntity
  8
0
  6
Continuous
 62
     7
370
    25
100
AcDbLine
 10
61.3925987211
 20
161.6069767442
 30
0.0
 11
66.3925987211
 21
161.6069767442
 31
0.0
  0
LINE
  5
AB
330
1F
100
AcDbEntity
  8
0
  6
Continuous
 62
     7
370
    25
100
AcDbLine
 10
66.3925987211
 20
161.6069767442
 30
0.0
 11
66.3925987211
 21
164.6069767442
 31
0.0
  0
LINE
  5
AC
330
1F
100
AcDbEntity
  8
0
  6
Continuous
 62
     7
370
    25
100
AcDbLine
 10
66.3925987211
 20
164.6069767442
 30
0.0
 11
61.3925987211
 21
164.6069767442
 31
0.0
  0
LINE
  5
AD
330
1F
100
AcDbEntity
  8
0
  6
Continuous
 62
     7
370
    25
100
AcDbLine
 10
61.3925987211
 20
164.6069767442
 30
0.0
 11
61.3925987211
 21
161.6069767442
 31
0.0
  0
LINE
  5
AE
330
1F
100
AcDbEntity
  8
0
  6
Continuous
 62
     7
370
    25
100
AcDbLine
 10
162.4720930233
 20
68.5274824421
 30
0.0
 11
159.4720930233
 21
68.5274824421
 31
0.0
  0
LINE
  5
AF
330
1F
100
AcDbEntity
  8
0
  6
Continuous
 62
     7
370
    25
100
AcDbLine
 10
159.4720930233
 20
68.5274824421
 30
0.0
 11
159.4720930233
 21
63.5274824421
 31
0.0
  0
LINE
  5
B0
330
1F
100
AcDbEntity
  8
0
  6
Continuous
 62
     7
370
    25
100
AcDbLine
 10
159.4720930233
 20
63.5274824421
 30
0.0
 11
162.4720930233
 21
63.5274824421
 31
0.0
  0
LINE
  5
B1
330
1F
100
AcDbEntity
  8
0
  6
Continuous
 62
     7
370
    25
100
AcDbLine
 10
162.4720930233
 20
63.5274824421
 30
0.0
 11
162.4720930233
 21
68.5274824421
 31
0.0
  0
LINE
  5
B2
330
1F
100
AcDbEntity
  8
0
  6
Continuous
 62
     7
370
    25
100
AcDbLine
 10
88.1194175069
 20
93.0827283525
 30
0.0
 11
91.6549514128
 21
96.6182622585
 31
0.0
  0
LINE
  5
B3
330
1F
100
AcDbEntity
  8
0
  6
Continuous
 62
     7
370
    25
100
AcDbLine
 10
91.6549514128
 20
96.6182622585
 30
0.0
 11
89.5336310692
 21
98.739582602
 31
0.0
  0
LINE
  5
B4
330
1F
100
AcDbEntity
  8
0
  6
Continuous
 62
     7
370
    25
100
AcDbLine
 10
89.5336310692
 20
98.739582602
 30
0.0
 11
85.9980971633
 21
95.2040486961
 31
0.0
  0
LINE
  5
B5
330
1F
100
AcDbEntity
  8
0
  6
Continuous
 62
     7
370
    25
100
AcDbLine
 10
85.9980971633
 20
95.2040486961
 30
0.0
 11
88.1194175069
 21
93.0827283525
 31
0.0
  0
LINE
  5
B6
330
1F
100
AcDbEntity
  8
0
  6
Continuous
 62
     7
370
    25
100
AcDbLine
 10
96.6046988811
 20
91.6685147902
 30
0.0
 11
94.4833785376
 21
93.7898351337
 31
0.0
  0
LINE
  5
B7
330
1F
100
AcDbEntity
  8
0
  6
Continuous
 62
     7
370
    25
100
AcDbLine
 10
94.4833785376
 20
93.7898351337
 30
0.0
 11
90.9478446316
 21
90.2543012278
 31
0.0
  0
LINE
  5
B8
330
1F
100
AcDbEntity
  8
0
  6
Continuous
 62
     7
370
    25
100
AcDbLine
 10
90.9478446316
 20
90.2543012278
 30
0.0
 11
93.0691649752
 21
88.1329808842
 31
0.0
  0
LINE
  5
B9
330
1F
100
AcDbEntity
  8
0
  6
Continuous
 62
     7
370
    25
100
AcDbLine
 10
93.0691649752
 20
88.1329808842
 30
0.0
 11
96.6046988811
 21
91.6685147902
 31
0.0
  0
LINE
  5
BA
330
1F
100
AcDbEntity
  8
0
  6
Continuous
 62
     7
370
    25
100
AcDbLine
 10
155.4720930233
 20
63.5274824421
 30
0.0
 11
155.4720930233
 21
68.5274824421
 31
0.0
  0
LINE
  5
BB
330
1F
100
AcDbEntity
  8
0
  6
Continuous
 62
     7
370
    25
100
AcDbLine
 10
155.4720930233
 20
68.5274824421
 30
0.0
 11
152.4720930233
 21
68.5274824421
 31
0.0
  0
LINE
  5
BC
330
1F
100
AcDbEntity
  8
0
  6
Continuous
 62
     7
370
    25
100
AcDbLine
 10
152.4720930233
 20
68.5274824421
 30
0.0
 11
152.4720930233
 21
63.5274824421
 31
0.0
  0
LINE
  5
BD
330
1F
100
AcDbEntity
  8
0
  6
Continuous
 62
     7
370
    25
100
AcDbLine
 10
152.4720930233
 20
63.5274824421
 30
0.0
 11
155.4720930233
 21
63.5274824421
 31
0.0
  0
LINE
  5
BE
330
1F
100
AcDbEntity
  8
0
  6
Continuous
 62
     7
370
    25
100
AcDbLine
 10
223.9963414149
 20
90.2543012278
 30
0.0
 11
220.460807509
 21
93.7898351337
 31
0.0
  0
LINE
  5
BF
330
1F
100
AcDbEntity
  8
0
  6
Continuous
 62
     7
370
    25
100
AcDbLine
 10
220.460807509
 20
93.7898351337
 30
0.0
 11
218.3394871654
 21
91.6685147902
 31
0.0
  0
LINE
  5
C0
330
1F
100
AcDbEntity
  8
0
  6
Continuous
 62
     7
370
    25
100
AcDbLine
 10
218.3394871654
 20
91.6685147902
 30
0.0
 11
221.8750210713
 21
88.1329808842
 31
0.0
  0
LINE
  5
C1
330
1F
100
AcDbEntity
  8
0
  6
Continuous
 62
     7
370
    25
100
AcDbLine
 10
221.8750210713
 20
88.1329808842
 30
0.0
 11
223.9963414149
 21
90.2543012278
 31
0.0
  0
LINE
  5
C2
330
1F
100
AcDbEntity
  8
0
  6
Continuous
 62
     7
370
    25
100
AcDbLine
 10
225.4105549773
 20
98.739582602
 30
0.0
 11
223.2892346337
 21
96.6182622585
 31
0.0
  0
LINE
  5
C3
330
1F
100
AcDbEntity
  8
0
  6
Continuous
 62
     7
370
    25
100
AcDbLine
 10
223.2892346337
 20
96.6182622585
 30
0.0
 11
226.8247685396
 21
93.0827283525
 31
0.0
  0
LINE
  5
C4
330
1F
100
AcDbEntity
  8
0
  6
Continuous
 62
     7
370
    25
100
AcDbLine
 10
226.8247685396
 20
93.0827283525
 30
0.0
 11
228.9460888832
 21
95.2040486961
 31
0.0
  0
LINE
  5
C5
330
1F
100
AcDbEntity
  8
0
  6
Continuous
 62
     7
370
    25
100
AcDbLine
 10
228.9460888832
 20
95.2040486961
 30
0.0
 11
225.4105549773
 21
98.739582602
 31
0.0
  0
LINE
  5
C6
330
1F
100
AcDbEntity
  8
0
  6
Continuous
 62
     7
370
    25
100
AcDbLine
 10
248.5515873254
 20
164.6069767442
 30
0.0
 11
248.5515873254
 21
161.6069767442
 31
0.0
  0
LINE
  5
C7
330
1F
100
AcDbEntity
  8
0
  6
Continuous
 62
     7
370
    25
100
AcDbLine
 10
248.5515873254
 20
161.6069767442
 30
0.0
 11
253.5515873254
 21
161.6069767442
 31
0.0
  0
LINE
  5
C8
330
1F
100
AcDbEntity
  8
0
  6
Continuous
 62
     7
370
    25
100
AcDbLine
 10
253.5515873254
 20
161.6069767442
 30
0.0
 11
253.5515873254
 21
164.6069767442
 31
0.0
  0
LINE
  5
C9
330
1F
100
AcDbEntity
  8
0
  6
Continuous
 62
     7
370
    25
100
AcDbLine
 10
253.5515873254
 20
164.6069767442
 30
0.0
 11
248.5515873254
 21
164.6069767442
 31
0.0
  0
LINE
  5
CA
330
1F
100
AcDbEntity
  8
0
  6
Continuous
 62
     7
370
    25
100
AcDbLine
 10
253.5515873254
 20
157.6069767442
 30
0.0
 11
248.5515873254
 21
157.6069767442
 31
0.0
  0
LINE
  5
CB
330
1F
100
AcDbEntity
  8
0
  6
Continuous
 62
     7
370
    25
100
AcDbLine
 10
248.5515873254
 20
157.6069767442
 30
0.0
 11
248.5515873254
 21
154.6069767442
 31
0.0
  0
LINE
  5
CC
330
1F
100
AcDbEntity
  8
0
  6
Continuous
 62
     7
370
    25
100
AcDbLine
 10
248.5515873254
 20
154.6069767442
 30
0.0
 11
253.5515873254
 21
154.6069767442
 31
0.0
  0
LINE
  5
CD
330
1F
100
AcDbEntity
  8
0
  6
Continuous
 62
     7
370
    25
100
AcDbLine
 10
253.5515873254
 20
154.6069767442
 30
0.0
 11
253.5515873254
 21
157.6069767442
 31
0.0
  0
LINE
  5
CE
330
1F
100
AcDbEntity
  8
0
  6
Continuous
 62
     7
370
    25
100
AcDbLine
 10
226.8247685396
 20
226.1312251358
 30
0.0
 11
223.2892346337
 21
222.5956912299
 31
0.0
  0
LINE
  5
CF
330
1F
100
AcDbEntity
  8
0
  6
Continuous
 62
     7
370
    25
100
AcDbLine
 10
223.2892346337
 20
222.5956912299
 30
0.0
 11
225.4105549773
 21
220.4743708863
 31
0.0
  0
LINE
  5
D0
330
1F
100
AcDbEntity
  8
0
  6
Continuous
 62
     7
370
    25
100
AcDbLine
 10
225.4105549773
 20
220.4743708863
 30
0.0
 11
228.9460888832
 21
224.0099047923
 31
0.0
  0
LINE
  5
D1
330
1F
100
AcDbEntity
  8
0
  6
Continuous
 62
     7
370
    25
100
AcDbLine
 10
228.9460888832
 20
224.0099047923
 30
0.0
 11
226.8247685396
 21
226.1312251358
 31
0.0
  0
LINE
  5
D2
330
1F
100
AcDbEntity
  8
0
  6
Continuous
 62
     7
370
    25
100
AcDbLine
 10
218.3394871654
 20
227.5454386982
 30
0.0
 11
220.460807509
 21
225.4241183546
 31
0.0
  0
LINE
  5
D3
330
1F
100
AcDbEntity
  8
0
  6
Continuous
 62
     7
370
    25
100
AcDbLine
 10
220.460807509
 20
225.4241183546
 30
0.0
 11
223.9963414149
 21
228.9596522606
 31
0.0
  0
LINE
  5
D4
330
1F
100
AcDbEntity
  8
0
  6
Continuous
 62
     7
370
    25
100
AcDbLine
 10
223.9963414149
 20
228.9596522606
 30
0.0
 11
221.8750210713
 21
231.0809726041
 31
0.0
  0
LINE
  5
D5
330
1F
100
AcDbEntity
  8
0
  6
Continuous
 62
     7
370
    25
100
AcDbLine
 10
221.8750210713
 20
231.0809726041
 30
0.0
 11
218.3394871654
 21
227.5454386982
 31
0.0
  0
LINE
  5
D6
330
1F
100
AcDbEntity
  8
0
  6
Continuous
 62
     7
370
    25
100
AcDbLine
 10
172.4720930233
 20
174.6069767442
 30
0.0
 11
106.4720930233
 21
174.6069767442
 31
0.0
  0
LINE
  5
D7
330
1F
100
AcDbEntity
  8
0
  6
Continuous
 62
     7
370
    25
100
AcDbLine
 10
106.4720930233
 20
174.6069767442
 30
0.0
 11
106.4720930233
 21
144.6069767442
 31
0.0
  0
LINE
  5
D8
330
1F
100
AcDbEntity
  8
0
  6
Continuous
 62
     7
370
    25
100
AcDbLine
 10
106.4720930233
 20
144.6069767442
 30
0.0
 11
172.4720930233
 21
144.6069767442
 31
0.0
  0
LINE
  5
D9
330
1F
100
AcDbEntity
  8
0
  6
Continuous
 62
     7
370
    25
100
AcDbLine
 10
172.4720930233
 20
144.6069767442
 30
0.0
 11
172.4720930233
 21
174.6069767442
 31
0.0
  0
CIRCLE
  5
DA
330
1F
100
AcDbEntity
  8
0
  6
Continuous
 62
     7
370
    25
100
AcDbCircle
 10
100.4720930233
 20
169.1069767442
 30
0.0
 40
1.5
  0
CIRCLE
  5
DB
330
1F
100
AcDbEntity
  8
0
  6
Continuous
 62
     7
370
    25
100
AcDbCircle
 10
100.4720930233
 20
150.1069767442
 30
0.0
 40
1.5
  0
CIRCLE
  5
DC
330
1F
100
AcDbEntity
  8
0
  6
Continuous
 62
     7
370
    25
100
AcDbCircle
 10
178.4720930233
 20
150.1069767442
 30
0.0
 40
1.5
  0
LINE
  5
DD
330
1F
100
AcDbEntity
  8
0
  6
Continuous
 62
     7
370
    25
100
AcDbLine
 10
230.2224751528
 20
134.1069767442
 30
0.0
 11
84.7217108937
 21
134.1069767442
 31
0.0
  0
ARC
  5
DE
330
1F
100
AcDbEntity
  8
0
  6
Continuous
 62
     7
370
    25
100
AcDbCircle
 10
157.4720930233
 20
159.6069767442
 30
0.0
 40
77.09000000000002
100
AcDbArc
 50
199.3162588733
 51
340.6837411267
  0
LINE
  5
DF
330
1F
100
AcDbEntity
  8
0
  6
Continuous
 62
     7
370
    25
100
AcDbLine
 10
84.7217108937
 20
185.1069767442
 30
0.0
 11
230.2224751528
 21
185.1069767442
 31
0.0
  0
ARC
  5
E0
330
1F
100
AcDbEntity
  8
0
  6
Continuous
 62
     7
370
    25
100
AcDbCircle
 10
157.4720930233
 20
159.6069767442
 30
0.0
 40
77.09000000000002
100
AcDbArc
 50
19.3162588733
 51
160.6837411267
  0
CIRCLE
  5
E1
330
1F
100
AcDbEntity
  8
0
  6
Continuous
 62
     7
370
    25
100
AcDbCircle
 10
178.4720930233
 20
169.1069767442
 30
0.0
 40
1.5
  0
LINE
  5
E2
330
1F
100
AcDbEntity
  8
0
  6
Continuous
 62
     7
370
    25
100
AcDbLine
 10
121.5927049519
 20
65.1470936634
 30
0.0
 11
124.3643435494
 21
63.9990433664
 31
0.0
  0
LINE
  5
E3
330
1F
100
AcDbEntity
  8
0
  6
Continuous
 62
     7
370
    25
100
AcDbLine
 10
124.3643435494
 20
63.9990433664
 30
0.0
 11
131.252645332
 21
80.6288749516
 31
0.0
  0
LINE
  5
E4
330
1F
100
AcDbEntity
  8
0
  6
Continuous
 62
     7
370
    25
100
AcDbLine
 10
131.252645332
 20
80.6288749516
 30
0.0
 11
128.4810067345
 21
81.7769252487
 31
0.0
  0
LINE
  5
E5
330
1F
100
AcDbEntity
  8
0
  6
Continuous
 62
     7
370
    25
100
AcDbLine
 10
128.4810067345
 20
81.7769252487
 30
0.0
 11
121.5927049519
 21
65.1470936634
 31
0.0
  0
LINE
  5
E6
330
1F
100
AcDbEntity
  8
0
  6
Continuous
 62
     7
370
    25
100
AcDbLine
 10
194.7780951046
 20
233.9928773484
 30
0.0
 11
201.6663968872
 21
250.6227089336
 31
0.0
  0
LINE
  5
E7
330
1F
100
AcDbEntity
  8
0
  6
Continuous
 62
     7
370
    25
100
AcDbLine
 10
201.6663968872
 20
250.6227089336
 30
0.0
 11
198.8947582897
 21
251.7707592307
 31
0.0
  0
LINE
  5
E8
330
1F
100
AcDbEntity
  8
0
  6
Continuous
 62
     7
370
    25
100
AcDbLine
 10
198.8947582897
 20
251.7707592307
 30
0.0
 11
192.0064565071
 21
235.1409276455
 31
0.0
  0
LINE
  5
E9
330
1F
100
AcDbEntity
  8
0
  6
Continuous
 62
     7
370
    25
100
AcDbLine
 10
192.0064565071
 20
235.1409276455
 30
0.0
 11
194.7780951046
 21
233.9928773484
 31
0.0
  0
LINE
  5
EA
330
1F
100
AcDbEntity
  8
0
  6
Continuous
 62
     7
370
    25
100
AcDbLine
 10
211.4079266898
 20
227.1045755659
 30
0.0
 11
218.2962284724
 21
243.7344071511
 31
0.0
  0
LINE
  5
EB
330
1F
100
AcDbEntity
  8
0
  6
Continuous
 62
     7
370
    25
100
AcDbLine
 10
218.2962284724
 20
243.7344071511
 30
0.0
 11
215.5245898749
 21
244.8824574482
 31
0.0
  0
LINE
  5
EC
330
1F
100
AcDbEntity
  8
0
  6
Continuous
 62
     7
370
    25
100
AcDbLine
 10
215.5245898749
 20
244.8824574482
 30
0.0
 11
208.6362880923
 21
228.252625863
 31
0.0
  0
LINE
  5
ED
330
1F
100
AcDbEntity
  8
0
  6
Continuous
 62
     7
370
    25
100
AcDbLine
 10
208.6362880923
 20
228.252625863
 30
0.0
 11
211.4079266898
 21
227.1045755659
 31
0.0
  0
LINE
  5
EE
330
1F
100
AcDbEntity
  8
0
  6
Continuous
 62
     7
370
    25
100
AcDbLine
 10
138.2225365371
 20
58.2587918809
 30
0.0
 11
140.9941751347
 21
57.1107415838
 31
0.0
  0
LINE
  5
EF
330
1F
100
AcDbEntity
  8
0
  6
Continuous
 62
     7
370
    25
100
AcDbLine
 10
140.9941751347
 20
57.1107415838
 30
0.0
 11
147.8824769172
 21
73.740573169
 31
0.0
  0
LINE
  5
F0
330
1F
100
AcDbEntity
  8
0
  6
Continuous
 62
     7
370
    25
100
AcDbLine
 10
147.8824769172
 20
73.740573169
 30
0.0
 11
145.1108383197
 21
74.8886234661
 31
0.0
  0
LINE
  5
F1
330
1F
100
AcDbEntity
  8
0
  6
Continuous
 62
     7
370
    25
100
AcDbLine
 10
145.1108383197
 20
74.8886234661
 30
0.0
 11
138.2225365371
 21
58.2587918809
 31
0.0
  0
ARC
  5
F2
330
1F
100
AcDbEntity
  8
0
  6
Continuous
 62
     7
370
    25
100
AcDbCircle
 10
157.4720930233
 20
159.6069767442
 30
0.0
 40
107.09
100
AcDbArc
 50
45.8025630758
 51
89.1974369242
  0
ARC
  5
F3
330
1F
100
AcDbEntity
  8
0
  6
Continuous
 62
     7
370
    25
100
AcDbCircle
 10
157.4720930233
 20
159.6069767442
 30
0.0
 40
107.09
100
AcDbArc
 50
0.8025630758
 51
44.1974369242
  0
ENDSEC
  0
SECTION
  2
OBJECTS
  0
DICTIONARY
  5
C
330
0
100
AcDbDictionary
281
     1
  3
ACAD_GROUP
350
D
  3
ACAD_LAYOUT
350
1A
  3
ACAD_MLINESTYLE
350
17
  3
ACAD_PLOTSETTINGS
350
19
  3
ACAD_PLOTSTYLENAME
350
E
  3
ACAD_SCALELIST
350
47
  0
DICTIONARY
  5
D
102
{ACAD_REACTORS
330
C
102
}
330
C
100
AcDbDictionary
281
     1
  0
DICTIONARY
  5
1A
102
{ACAD_REACTORS
330
C
102
}
330
C
100
AcDbDictionary
281
     1
  3
Layout1
350
1E
  3
Layout2
350
26
  3
Model
350
22
  0
DICTIONARY
  5
17
102
{ACAD_REACTORS
330
C
102
}
330
C
100
AcDbDictionary
281
     1
  3
Standard
350
18
  0
DICTIONARY
  5
19
102
{ACAD_REACTORS
330
C
102
}
330
C
100
AcDbDictionary
281
     1
  0
ACDBDICTIONARYWDFLT
  5
E
102
{ACAD_REACTORS
330
C
102
}
330
C
100
AcDbDictionary
281
     1
  3
Normal
350
F
100
AcDbDictionaryWithDefault
340
F
  0
DICTIONARY
  5
47
102
{ACAD_REACTORS
330
C
102
}
330
C
100
AcDbDictionary
281
     1
  3
A0
350
48
  3
A1
350
49
  3
A2
350
4A
  3
A3
350
4B
  3
A4
350
4C
  3
A5
350
4D
  3
A6
350
4E
  3
A7
350
4F
  3
A8
350
50
  3
A9
350
51
  3
B0
350
52
  3
B1
350
53
  3
B2
350
54
  3
B3
350
55
  3
B4
350
56
  3
B5
350
57
  3
B6
350
58
  3
B7
350
59
  3
B8
350
5A
  3
B9
350
5B
  3
C0
350
5C
  3
C1
350
5D
  3
C2
350
5E
  3
C3
350
5F
  3
C4
350
60
  3
C5
350
61
  3
C6
350
62
  3
C7
350
63
  3
C8
350
64
  3
C9
350
65
  3
D0
350
66
  3
D1
350
67
  3
D2
350
68
  0
LAYOUT
  5
1E
102
{ACAD_REACTORS
330
1A
102
}
330
1A
100
AcDbPlotSettings
  1

  2
none_device
  4

  6

 40
0.0
 41
0.0
 42
0.0
 43
0.0
 44
0.0
 45
0.0
 46
0.0
 47
0.0
 48
0.0
 49
0.0
140
0.0
141
0.0
142
1.0
143
1.0
 70
   688
 72
     1
 73
     0
 74
     5
  7

 75
    16
147
1.0
148
0.0
149
0.0
100
AcDbLayout
  1
Layout1
 70
     1
 71
     1
 10
0.0
 20
0.0
 11
420.0
 21
297.0
 12
0.0
 22
0.0
 32
0.0
 14
1.0000000000E+20
 24
1.0000000000E+20
 34
1.0000000000E+20
 15
-1.0000000000E+20
 25
-1.0000000000E+20
 35
-1.0000000000E+20
146
0.0
 13
0.0
 23
0.0
 33
0.0
 16
1.0
 26
0.0
 36
0.0
 17
0.0
 27
1.0
 37
0.0
 76
     0
330
1B
  0
LAYOUT
  5
26
102
{ACAD_REACTORS
330
1A
102
}
330
1A
100
AcDbPlotSettings
  1

  2
none_device
  4

  6

 40
0.0
 41
0.0
 42
0.0
 43
0.0
 44
0.0
 45
0.0
 46
0.0
 47
0.0
 48
0.0
 49
0.0
140
0.0
141
0.0
142
1.0
143
1.0
 70
   688
 72
     1
 73
     0
 74
     5
  7

 75
    16
147
1.0
148
0.0
149
0.0
100
AcDbLayout
  1
Layout2
 70
     1
 71
     2
 10
0.0
 20
0.0
 11
0.0
 21
0.0
 12
0.0
 22
0.0
 32
0.0
 14
0.0
 24
0.0
 34
0.0
 15
0.0
 25
0.0
 35
0.0
146
0.0
 13
0.0
 23
0.0
 33
0.0
 16
1.0
 26
0.0
 36
0.0
 17
0.0
 27
1.0
 37
0.0
 76
     0
330
23
  0
LAYOUT
  5
22
102
{ACAD_REACTORS
330
1A
102
}
330
1A
100
AcDbPlotSettings
  1

  2
none_device
  4
Letter_(8.50_x_11.00_Inches)
  6

 40
6.35
 41
6.35
 42
6.35000508
 43
6.35000508
 44
215.9
 45
279.4
 46
0.0
 47
0.0
 48
0.0
 49
0.0
140
0.0
141
0.0
142
1.0
143
1.0
 70
  1712
 72
     1
 73
     0
 74
     0
  7

 75
     0
147
1.0
148
0.0
149
0.0
100
AcDbLayout
  1
Model
 70
     1
 71
     0
 10
0.0
 20
0.0
 11
300.0
 21
300.0
 12
0.0
 22
0.0
 32
0.0
 14
0.0
 24
0.0
 34
0.0
 15
300.0
 25
300.0
 35
0.0
146
0.0
 13
0.0
 23
0.0
 33
0.0
 16
1.0
 26
0.0
 36
0.0
 17
0.0
 27
1.0
 37
0.0
 76
     0
330
1F
331
29
  0
MLINESTYLE
  5
18
102
{ACAD_REACTORS
330
17
102
}
330
17
100
AcDbMlineStyle
  2
Standard
 70
     0
  3

 62
   256
 51
90.0
 52
90.0
 71
     2
 49
0.5
 62
   256
  6
BYLAYER
 49
-0.5
 62
   256
  6
BYLAYER
  0
ACDBPLACEHOLDER
  5
F
102
{ACAD_REACTORS
330
E
102
}
330
E
  0
SCALE
  5
48
102
{ACAD_REACTORS
330
47
102
}
330
47
100
AcDbScale
 70
     0
300
1:1
140
1.0
141
1.0
290
     1
  0
SCALE
  5
49
102
{ACAD_REACTORS
330
47
102
}
330
47
100
AcDbScale
 70
     0
300
1:2
140
1.0
141
2.0
290
     0
  0
SCALE
  5
4A
102
{ACAD_REACTORS
330
47
102
}
330
47
100
AcDbScale
 70
     0
300
1:4
140
1.0
141
4.0
290
     0
  0
SCALE
  5
4B
102
{ACAD_REACTORS
330
47
102
}
330
47
100
AcDbScale
 70
     0
300
1:5
140
1.0
141
5.0
290
     0
  0
SCALE
  5
4C
102
{ACAD_REACTORS
330
47
102
}
330
47
100
AcDbScale
 70
     0
300
1:8
140
1.0
141
8.0
290
     0
  0
SCALE
  5
4D
102
{ACAD_REACTORS
330
47
102
}
330
47
100
AcDbScale
 70
     0
300
1:10
140
1.0
141
10.0
290
     0
  0
SCALE
  5
4E
102
{ACAD_REACTORS
330
47
102
}
330
47
100
AcDbScale
 70
     0
300
1:16
140
1.0
141
16.0
290
     0
  0
SCALE
  5
4F
102
{ACAD_REACTORS
330
47
102
}
330
47
100
AcDbScale
 70
     0
300
1:20
140
1.0
141
20.0
290
     0
  0
SCALE
  5
50
102
{ACAD_REACTORS
330
47
102
}
330
47
100
AcDbScale
 70
     0
300
1:30
140
1.0
141
30.0
290
     0
  0
SCALE
  5
51
102
{ACAD_REACTORS
330
47
102
}
330
47
100
AcDbScale
 70
     0
300
1:40
140
1.0
141
40.0
290
     0
  0
SCALE
  5
52
102
{ACAD_REACTORS
330
47
102
}
330
47
100
AcDbScale
 70
     0
300
1:50
140
1.0
141
50.0
290
     0
  0
SCALE
  5
53
102
{ACAD_REACTORS
330
47
102
}
330
47
100
AcDbScale
 70
     0
300
1:100
140
1.0
141
100.0
290
     0
  0
SCALE
  5
54
102
{ACAD_REACTORS
330
47
102
}
330
47
100
AcDbScale
 70
     0
300
2:1
140
2.0
141
1.0
290
     0
  0
SCALE
  5
55
102
{ACAD_REACTORS
330
47
102
}
330
47
100
AcDbScale
 70
     0
300
4:1
140
4.0
141
1.0
290
     0
  0
SCALE
  5
56
102
{ACAD_REACTORS
330
47
102
}
330
47
100
AcDbScale
 70
     0
300
8:1
140
8.0
141
1.0
290
     0
  0
SCALE
  5
57
102
{ACAD_REACTORS
330
47
102
}
330
47
100
AcDbScale
 70
     0
300
10:1
140
10.0
141
1.0
290
     0
  0
SCALE
  5
58
102
{ACAD_REACTORS
330
47
102
}
330
47
100
AcDbScale
 70
     0
300
100:1
140
100.0
141
1.0
290
     0
  0
SCALE
  5
59
102
{ACAD_REACTORS
330
47
102
}
330
47
100
AcDbScale
 70
     0
300
1/128" = 1'-0"
140
0.0078125
141
12.0
290
     0
  0
SCALE
  5
5A
102
{ACAD_REACTORS
330
47
102
}
330
47
100
AcDbScale
 70
     0
300
1/64" = 1'-0"
140
0.015625
141
12.0
290
     0
  0
SCALE
  5
5B
102
{ACAD_REACTORS
330
47
102
}
330
47
100
AcDbScale
 70
     0
300
1/32" = 1'-0"
140
0.03125
141
12.0
290
     0
  0
SCALE
  5
5C
102
{ACAD_REACTORS
330
47
102
}
330
47
100
AcDbScale
 70
     0
300
1/16" = 1'-0"
140
0.0625
141
12.0
290
     0
  0
SCALE
  5
5D
102
{ACAD_REACTORS
330
47
102
}
330
47
100
AcDbScale
 70
     0
300
3/32" = 1'-0"
140
0.09375
141
12.0
290
     0
  0
SCALE
  5
5E
102
{ACAD_REACTORS
330
47
102
}
330
47
100
AcDbScale
 70
     0
300
1/8" = 1'-0"
140
0.125
141
12.0
290
     0
  0
SCALE
  5
5F
102
{ACAD_REACTORS
330
47
102
}
330
47
100
AcDbScale
 70
     0
300
3/16" = 1'-0"
140
0.1875
141
12.0
290
     0
  0
SCALE
  5
60
102
{ACAD_REACTORS
330
47
102
}
330
47
100
AcDbScale
 70
     0
300
1/4" = 1'-0"
140
0.25
141
12.0
290
     0
  0
SCALE
  5
61
102
{ACAD_REACTORS
330
47
102
}
330
47
100
AcDbScale
 70
     0
300
3/8" = 1'-0"
140
0.375
141
12.0
290
     0
  0
SCALE
  5
62
102
{ACAD_REACTORS
330
47
102
}
330
47
100
AcDbScale
 70
     0
300
1/2" = 1'-0"
140
0.5
141
12.0
290
     0
  0
SCALE
  5
63
102
{ACAD_REACTORS
330
47
102
}
330
47
100
AcDbScale
 70
     0
300
3/4" = 1'-0"
140
0.75
141
12.0
290
     0
  0
SCALE
  5
64
102
{ACAD_REACTORS
330
47
102
}
330
47
100
AcDbScale
 70
     0
300
1" = 1'-0"
140
1.0
141
12.0
290
     0
  0
SCALE
  5
65
102
{ACAD_REACTORS
330
47
102
}
330
47
100
AcDbScale
 70
     0
300
1-1/2" = 1'-0"
140
1.5
141
12.0
290
     0
  0
SCALE
  5
66
102
{ACAD_REACTORS
330
47
102
}
330
47
100
AcDbScale
 70
     0
300
3" = 1'-0"
140
3.0
141
12.0
290
     0
  0
SCALE
  5
67
102
{ACAD_REACTORS
330
47
102
}
330
47
100
AcDbScale
 70
     0
300
6" = 1'-0"
140
6.0
141
12.0
290
     0
  0
SCALE
  5
68
102
{ACAD_REACTORS
330
47
102
}
330
47
100
AcDbScale
 70
     0
300
1'-0" = 1'-0"
140
12.0
141
12.0
290
     0
  0
ENDSEC
  0
EOF
